M48
; DRILL file {KiCad 9.0.2} date 2025-07-23T20:38:46-0500
; FORMAT={-:-/ absolute / metric / decimal}
; #@! TF.CreationDate,2025-07-23T20:38:46-05:00
; #@! TF.GenerationSoftware,Kicad,Pcbnew,9.0.2
; #@! TF.FileFunction,MixedPlating,1,4
FMAT,2
METRIC
; #@! TA.AperFunction,Plated,PTH,ViaDrill
T1C0.150
; #@! TA.AperFunction,Plated,PTH,ComponentDrill
T2C0.200
; #@! TA.AperFunction,Plated,PTH,ViaDrill
T3C0.300
; #@! TA.AperFunction,Plated,PTH,ComponentDrill
T4C0.950
; #@! TA.AperFunction,Plated,PTH,ComponentDrill
T5C1.000
; #@! TA.AperFunction,Plated,PTH,ComponentDrill
T6C1.250
; #@! TA.AperFunction,NonPlated,NPTH,ComponentDrill
T7C3.200
%
G90
G05
T1
X123.5Y-134.0
X139.5Y-124.4
X140.768Y-119.344
X143.725Y-132.875
X145.0Y-128.5
X145.75Y-134.25
X146.021Y-123.225
X146.021Y-123.775
X146.25Y-132.5
X147.2Y-139.0
X149.5Y-131.0
X150.032Y-129.45
X150.2Y-131.3
X150.65Y-137.899
X153.75Y-123.25
X153.75Y-123.8
T2
X147.6Y-133.0
X147.6Y-134.0
X147.6Y-135.0
X147.6Y-136.0
X148.6Y-133.0
X148.6Y-134.0
X148.6Y-135.0
X148.6Y-136.0
X149.6Y-133.0
X149.6Y-134.0
X149.6Y-135.0
X149.6Y-136.0
X150.6Y-133.0
X150.6Y-134.0
X150.6Y-135.0
X150.6Y-136.0
T3
X126.1Y-120.2
X126.2Y-128.0
X129.7Y-136.2
X130.0Y-131.3
X133.0Y-118.5
X136.5Y-121.25
X136.5Y-139.0
X137.5Y-139.0
X137.6Y-111.6
X138.7Y-118.3
X139.2Y-117.5
X139.2Y-130.4
X140.4Y-116.6
X141.5Y-117.2
X141.5Y-132.75
X141.9Y-117.8
X142.2Y-126.4
X142.75Y-130.5
X143.184Y-139.409
X143.4Y-118.4
X145.1Y-136.9
X145.352Y-112.625
X146.7Y-112.7
X147.2Y-131.5
X147.5Y-129.35
X149.3Y-116.0
X149.7Y-120.4
X150.2Y-109.1
X151.5Y-118.792
X151.6Y-132.5
X151.7Y-138.0
X152.0Y-136.4
X153.076Y-134.216
X154.1Y-134.65
X154.3Y-137.1
X155.525Y-133.3
X158.475Y-133.2
X160.4Y-129.7
T4
X137.6Y-143.325
X140.1Y-143.325
X142.6Y-143.325
X145.1Y-143.325
X147.6Y-143.325
X165.525Y-134.75
X165.525Y-137.25
X165.525Y-139.75
X165.525Y-142.25
T5
X131.84Y-107.8
X132.7Y-141.835
X132.7Y-144.375
X134.38Y-107.8
X136.92Y-107.8
X139.46Y-107.8
X142.0Y-107.8
X144.54Y-107.8
X147.08Y-107.8
X152.5Y-141.835
X152.5Y-144.375
T6
X159.7Y-119.69
X159.7Y-126.91
T7
X125.5Y-141.5
X156.5Y-110.5
M30
