%TF.GenerationSoftware,KiCad,Pcbnew,9.0.2*%
%TF.CreationDate,2025-07-23T20:38:51-05:00*%
%TF.ProjectId,Smart Motor,536d6172-7420-44d6-9f74-6f722e6b6963,rev?*%
%TF.SameCoordinates,Original*%
%TF.FileFunction,Copper,L2,Inr*%
%TF.FilePolarity,Positive*%
%FSLAX46Y46*%
G04 Gerber Fmt 4.6, Leading zero omitted, Abs format (unit mm)*
G04 Created by KiCad (PCBNEW 9.0.2) date 2025-07-23 20:38:51*
%MOMM*%
%LPD*%
G01*
G04 APERTURE LIST*
G04 Aperture macros list*
%AMRoundRect*
0 Rectangle with rounded corners*
0 $1 Rounding radius*
0 $2 $3 $4 $5 $6 $7 $8 $9 X,Y pos of 4 corners*
0 Add a 4 corners polygon primitive as box body*
4,1,4,$2,$3,$4,$5,$6,$7,$8,$9,$2,$3,0*
0 Add four circle primitives for the rounded corners*
1,1,$1+$1,$2,$3*
1,1,$1+$1,$4,$5*
1,1,$1+$1,$6,$7*
1,1,$1+$1,$8,$9*
0 Add four rect primitives between the rounded corners*
20,1,$1+$1,$2,$3,$4,$5,0*
20,1,$1+$1,$4,$5,$6,$7,0*
20,1,$1+$1,$6,$7,$8,$9,0*
20,1,$1+$1,$8,$9,$2,$3,0*%
G04 Aperture macros list end*
%TA.AperFunction,ComponentPad*%
%ADD10C,1.875000*%
%TD*%
%TA.AperFunction,ComponentPad*%
%ADD11R,1.700000X1.700000*%
%TD*%
%TA.AperFunction,ComponentPad*%
%ADD12C,1.700000*%
%TD*%
%TA.AperFunction,ComponentPad*%
%ADD13RoundRect,0.250000X0.600000X0.725000X-0.600000X0.725000X-0.600000X-0.725000X0.600000X-0.725000X0*%
%TD*%
%TA.AperFunction,ComponentPad*%
%ADD14O,1.700000X1.950000*%
%TD*%
%TA.AperFunction,ComponentPad*%
%ADD15RoundRect,0.250000X-0.725000X0.600000X-0.725000X-0.600000X0.725000X-0.600000X0.725000X0.600000X0*%
%TD*%
%TA.AperFunction,ComponentPad*%
%ADD16O,1.950000X1.700000*%
%TD*%
%TA.AperFunction,HeatsinkPad*%
%ADD17C,0.500000*%
%TD*%
%TA.AperFunction,ViaPad*%
%ADD18C,0.600000*%
%TD*%
%TA.AperFunction,ViaPad*%
%ADD19C,0.350000*%
%TD*%
%TA.AperFunction,ViaPad*%
%ADD20C,0.500000*%
%TD*%
%TA.AperFunction,Conductor*%
%ADD21C,0.150000*%
%TD*%
G04 APERTURE END LIST*
D10*
%TO.N,GND*%
%TO.C,J4*%
X159700000Y-126910000D03*
X159700000Y-119690000D03*
%TD*%
D11*
%TO.N,CAN_H*%
%TO.C,J2*%
X132700000Y-144375000D03*
D12*
%TO.N,Net-(J2-Pin_2)*%
X132700000Y-141835000D03*
%TD*%
D13*
%TO.N,+3.3V*%
%TO.C,J5*%
X147600000Y-143325000D03*
D14*
%TO.N,+24V*%
X145100000Y-143325000D03*
%TO.N,CAN_L*%
X142600000Y-143325000D03*
%TO.N,CAN_H*%
X140100000Y-143325000D03*
%TO.N,GND*%
X137600000Y-143325000D03*
%TD*%
D11*
%TO.N,+3.3V*%
%TO.C,J6*%
X131840000Y-107800000D03*
D12*
%TO.N,SWCLK*%
X134380000Y-107800000D03*
%TO.N,GND*%
X136920000Y-107800000D03*
%TO.N,SWDIO*%
X139460000Y-107800000D03*
%TO.N,GND*%
X142000000Y-107800000D03*
%TO.N,NRST*%
X144540000Y-107800000D03*
%TO.N,SWO*%
X147080000Y-107800000D03*
%TD*%
D15*
%TO.N,/OA1*%
%TO.C,J1*%
X165525000Y-134750000D03*
D16*
%TO.N,/OA2*%
X165525000Y-137250000D03*
%TO.N,/OB1*%
X165525000Y-139750000D03*
%TO.N,/OB2*%
X165525000Y-142250000D03*
%TD*%
D11*
%TO.N,CAN_L*%
%TO.C,J3*%
X152500000Y-144375000D03*
D12*
%TO.N,Net-(J3-Pin_2)*%
X152500000Y-141835000D03*
%TD*%
D17*
%TO.N,GND*%
%TO.C,U2*%
X147600000Y-136000000D03*
X149600000Y-136000000D03*
X150600000Y-136000000D03*
X147600000Y-135000000D03*
X148600000Y-135000000D03*
X149600000Y-135000000D03*
X150600000Y-135000000D03*
X147600000Y-134000000D03*
X148600000Y-134000000D03*
X149600000Y-134000000D03*
X150600000Y-134000000D03*
X147600000Y-133000000D03*
X148600000Y-133000000D03*
X149600000Y-133000000D03*
X150600000Y-133000000D03*
%TD*%
D18*
%TO.N,+3.3V*%
X150200000Y-109100000D03*
%TO.N,GND*%
X145352500Y-112625000D03*
X126100000Y-120200000D03*
D19*
%TO.N,USB_D+*%
X153750000Y-123250000D03*
%TO.N,USB_D-*%
X153750000Y-123800003D03*
D18*
%TO.N,GND*%
X142200000Y-126400000D03*
X133000000Y-118500000D03*
D20*
X151500000Y-118791871D03*
D18*
X139200000Y-130400000D03*
X130000000Y-131300000D03*
D19*
X143725000Y-132875000D03*
D18*
X147500000Y-129350000D03*
X129700000Y-136200000D03*
X155525000Y-133300000D03*
X126200000Y-128000000D03*
X142750000Y-130500000D03*
X160400000Y-129700000D03*
%TO.N,+3.3V*%
X147200000Y-131500000D03*
D19*
X150200000Y-131300000D03*
X123500000Y-134000000D03*
D18*
X149700000Y-120400000D03*
X136500000Y-121250000D03*
X141500000Y-132750000D03*
X137600000Y-111600000D03*
%TO.N,+24V*%
X158475000Y-133200000D03*
X152000000Y-136400000D03*
X151600000Y-132500000D03*
D20*
%TO.N,Net-(U2-5VOUT)*%
X145100000Y-136900000D03*
D19*
%TO.N,DAC*%
X145000000Y-128500000D03*
D20*
%TO.N,Net-(C14-Pad2)*%
X143183619Y-139408613D03*
%TO.N,CAN_H*%
X136500000Y-139000000D03*
%TO.N,CAN_L*%
X137500000Y-139000000D03*
%TO.N,SWCLK*%
X143400000Y-118400000D03*
D18*
%TO.N,NRST*%
X149300000Y-116000000D03*
X146700000Y-112700000D03*
D19*
%TO.N,USB_D-*%
X146021069Y-123775000D03*
%TO.N,USB_D+*%
X146021069Y-123225000D03*
%TO.N,RX*%
X146250000Y-132500000D03*
%TO.N,AS_SCL*%
X139500000Y-124400000D03*
D20*
%TO.N,AS_SDA*%
X140400000Y-116600000D03*
%TO.N,MCU_CANTX*%
X138700000Y-118300000D03*
%TO.N,MCU_CANRX*%
X139200000Y-117500000D03*
%TO.N,AS_OUT*%
X141500000Y-117200000D03*
D19*
%TO.N,AS_DIR*%
X140767933Y-119344292D03*
D20*
%TO.N,AS_PGO*%
X141900000Y-117800000D03*
D19*
%TO.N,DIAG*%
X145750000Y-134250000D03*
%TO.N,STEP*%
X150031801Y-129450000D03*
%TO.N,SPREAD*%
X147200000Y-139000000D03*
%TO.N,DIR*%
X149500000Y-131000000D03*
%TO.N,ENABLE*%
X150650044Y-137898957D03*
D18*
%TO.N,/OB1*%
X154300000Y-137100000D03*
%TO.N,/OB2*%
X151700000Y-138000000D03*
%TO.N,/OA1*%
X153076338Y-134216344D03*
%TO.N,/OA2*%
X154100000Y-134650000D03*
%TD*%
D21*
%TO.N,GND*%
X156500000Y-117000000D02*
X156250000Y-117000000D01*
%TD*%
%TA.AperFunction,Conductor*%
%TO.N,GND*%
G36*
X159003736Y-105500726D02*
G01*
X159293796Y-105518271D01*
X159308659Y-105520076D01*
X159590798Y-105571780D01*
X159605335Y-105575363D01*
X159879172Y-105660695D01*
X159893163Y-105666000D01*
X160154743Y-105783727D01*
X160167989Y-105790680D01*
X160413465Y-105939075D01*
X160425776Y-105947573D01*
X160651573Y-106124473D01*
X160662781Y-106134403D01*
X160865596Y-106337218D01*
X160875526Y-106348426D01*
X161032590Y-106548904D01*
X161052422Y-106574217D01*
X161060926Y-106586537D01*
X161096495Y-106645375D01*
X161209316Y-106832004D01*
X161216275Y-106845263D01*
X161333997Y-107106831D01*
X161339306Y-107120832D01*
X161424635Y-107394663D01*
X161428219Y-107409201D01*
X161479923Y-107691340D01*
X161481728Y-107706205D01*
X161499274Y-107996263D01*
X161499500Y-108003750D01*
X161499500Y-129607317D01*
X161530044Y-129819764D01*
X161530047Y-129819774D01*
X161590517Y-130025715D01*
X161679672Y-130220938D01*
X161679679Y-130220951D01*
X161746226Y-130324500D01*
X161795637Y-130401386D01*
X161795720Y-130401514D01*
X161936275Y-130563724D01*
X162060277Y-130671172D01*
X162098487Y-130704281D01*
X162227531Y-130787211D01*
X162279048Y-130820320D01*
X162279061Y-130820327D01*
X162474284Y-130909482D01*
X162474288Y-130909483D01*
X162474290Y-130909484D01*
X162680231Y-130969954D01*
X162680232Y-130969954D01*
X162680235Y-130969955D01*
X162743584Y-130979062D01*
X162892682Y-131000500D01*
X162934108Y-131000500D01*
X167734108Y-131000500D01*
X167793907Y-131000500D01*
X167806061Y-131001097D01*
X167924317Y-131012744D01*
X167948145Y-131017483D01*
X168056005Y-131050202D01*
X168078453Y-131059501D01*
X168162113Y-131104218D01*
X168177849Y-131112629D01*
X168198059Y-131126133D01*
X168285179Y-131197630D01*
X168302369Y-131214820D01*
X168373866Y-131301940D01*
X168387370Y-131322150D01*
X168440291Y-131421158D01*
X168440495Y-131421538D01*
X168449798Y-131443997D01*
X168482514Y-131551848D01*
X168487256Y-131575688D01*
X168497166Y-131676308D01*
X168498903Y-131693937D01*
X168499500Y-131706092D01*
X168499500Y-145993038D01*
X168498720Y-146006923D01*
X168488540Y-146097264D01*
X168482362Y-146124333D01*
X168454648Y-146203537D01*
X168442600Y-146228555D01*
X168397957Y-146299604D01*
X168380644Y-146321313D01*
X168321313Y-146380644D01*
X168299604Y-146397957D01*
X168228555Y-146442600D01*
X168203537Y-146454648D01*
X168124333Y-146482362D01*
X168097264Y-146488540D01*
X168017075Y-146497576D01*
X168006921Y-146498720D01*
X167993038Y-146499500D01*
X123003751Y-146499500D01*
X122996264Y-146499274D01*
X122706205Y-146481728D01*
X122691340Y-146479923D01*
X122409201Y-146428219D01*
X122394663Y-146424635D01*
X122120832Y-146339306D01*
X122106831Y-146333997D01*
X121845263Y-146216275D01*
X121832004Y-146209316D01*
X121586540Y-146060928D01*
X121574217Y-146052422D01*
X121348426Y-145875526D01*
X121337218Y-145865596D01*
X121134403Y-145662781D01*
X121124473Y-145651573D01*
X121070392Y-145582544D01*
X120947573Y-145425776D01*
X120939075Y-145413465D01*
X120790680Y-145167989D01*
X120783727Y-145154743D01*
X120666000Y-144893163D01*
X120660693Y-144879167D01*
X120636179Y-144800500D01*
X120575363Y-144605335D01*
X120571780Y-144590798D01*
X120551425Y-144479723D01*
X120520075Y-144308657D01*
X120518271Y-144293794D01*
X120507886Y-144122115D01*
X120500726Y-144003736D01*
X120500500Y-143996249D01*
X120500500Y-141378711D01*
X123649500Y-141378711D01*
X123649500Y-141621288D01*
X123681161Y-141861785D01*
X123743947Y-142096104D01*
X123820396Y-142280668D01*
X123836776Y-142320212D01*
X123958064Y-142530289D01*
X123958066Y-142530292D01*
X123958067Y-142530293D01*
X124105733Y-142722736D01*
X124105739Y-142722743D01*
X124277256Y-142894260D01*
X124277262Y-142894265D01*
X124469711Y-143041936D01*
X124679788Y-143163224D01*
X124903900Y-143256054D01*
X125138211Y-143318838D01*
X125318586Y-143342584D01*
X125378711Y-143350500D01*
X125378712Y-143350500D01*
X125621289Y-143350500D01*
X125669388Y-143344167D01*
X125861789Y-143318838D01*
X126096100Y-143256054D01*
X126320212Y-143163224D01*
X126530289Y-143041936D01*
X126722738Y-142894265D01*
X126894265Y-142722738D01*
X127041936Y-142530289D01*
X127163224Y-142320212D01*
X127256054Y-142096100D01*
X127318838Y-141861789D01*
X127335979Y-141731588D01*
X127336358Y-141728713D01*
X131349500Y-141728713D01*
X131349500Y-141941287D01*
X131350634Y-141948444D01*
X131365918Y-142044949D01*
X131382754Y-142151243D01*
X131441760Y-142332845D01*
X131448444Y-142353414D01*
X131544951Y-142542820D01*
X131669890Y-142714786D01*
X131783430Y-142828326D01*
X131816915Y-142889649D01*
X131811931Y-142959341D01*
X131770059Y-143015274D01*
X131739083Y-143032189D01*
X131607669Y-143081203D01*
X131607664Y-143081206D01*
X131492455Y-143167452D01*
X131492452Y-143167455D01*
X131406206Y-143282664D01*
X131406202Y-143282671D01*
X131355908Y-143417517D01*
X131349501Y-143477116D01*
X131349501Y-143477123D01*
X131349500Y-143477135D01*
X131349500Y-145272870D01*
X131349501Y-145272876D01*
X131355908Y-145332483D01*
X131406202Y-145467328D01*
X131406206Y-145467335D01*
X131492452Y-145582544D01*
X131492455Y-145582547D01*
X131607664Y-145668793D01*
X131607671Y-145668797D01*
X131742517Y-145719091D01*
X131742516Y-145719091D01*
X131749444Y-145719835D01*
X131802127Y-145725500D01*
X133597872Y-145725499D01*
X133657483Y-145719091D01*
X133792331Y-145668796D01*
X133907546Y-145582546D01*
X133993796Y-145467331D01*
X134044091Y-145332483D01*
X134050500Y-145272873D01*
X134050499Y-143477128D01*
X134044091Y-143417517D01*
X134039441Y-143405051D01*
X133993797Y-143282671D01*
X133993793Y-143282664D01*
X133921710Y-143186374D01*
X133907547Y-143167455D01*
X133907544Y-143167452D01*
X133792335Y-143081206D01*
X133792328Y-143081202D01*
X133775700Y-143075000D01*
X136252970Y-143075000D01*
X137195854Y-143075000D01*
X137157370Y-143141657D01*
X137125000Y-143262465D01*
X137125000Y-143387535D01*
X137157370Y-143508343D01*
X137195854Y-143575000D01*
X136252970Y-143575000D01*
X136283242Y-143766127D01*
X136283242Y-143766130D01*
X136348904Y-143968217D01*
X136445379Y-144157557D01*
X136570272Y-144329459D01*
X136570276Y-144329464D01*
X136720535Y-144479723D01*
X136720540Y-144479727D01*
X136892442Y-144604620D01*
X137081782Y-144701095D01*
X137283871Y-144766757D01*
X137350000Y-144777231D01*
X137350000Y-143729145D01*
X137416657Y-143767630D01*
X137537465Y-143800000D01*
X137662535Y-143800000D01*
X137783343Y-143767630D01*
X137850000Y-143729145D01*
X137850000Y-144777230D01*
X137916126Y-144766757D01*
X137916129Y-144766757D01*
X138118217Y-144701095D01*
X138307557Y-144604620D01*
X138479459Y-144479727D01*
X138479464Y-144479723D01*
X138629721Y-144329466D01*
X138749371Y-144164781D01*
X138804701Y-144122115D01*
X138874314Y-144116136D01*
X138936110Y-144148741D01*
X138950008Y-144164781D01*
X139069890Y-144329785D01*
X139069894Y-144329790D01*
X139220213Y-144480109D01*
X139392179Y-144605048D01*
X139392181Y-144605049D01*
X139392184Y-144605051D01*
X139581588Y-144701557D01*
X139783757Y-144767246D01*
X139993713Y-144800500D01*
X139993714Y-144800500D01*
X140206286Y-144800500D01*
X140206287Y-144800500D01*
X140416243Y-144767246D01*
X140618412Y-144701557D01*
X140807816Y-144605051D01*
X140829789Y-144589086D01*
X140979786Y-144480109D01*
X140979788Y-144480106D01*
X140979792Y-144480104D01*
X141130104Y-144329792D01*
X141249683Y-144165204D01*
X141305011Y-144122540D01*
X141374624Y-144116561D01*
X141436420Y-144149166D01*
X141450313Y-144165199D01*
X141543742Y-144293794D01*
X141569896Y-144329792D01*
X141720213Y-144480109D01*
X141892179Y-144605048D01*
X141892181Y-144605049D01*
X141892184Y-144605051D01*
X142081588Y-144701557D01*
X142283757Y-144767246D01*
X142493713Y-144800500D01*
X142493714Y-144800500D01*
X142706286Y-144800500D01*
X142706287Y-144800500D01*
X142916243Y-144767246D01*
X143118412Y-144701557D01*
X143307816Y-144605051D01*
X143329789Y-144589086D01*
X143479786Y-144480109D01*
X143479788Y-144480106D01*
X143479792Y-144480104D01*
X143630104Y-144329792D01*
X143749683Y-144165204D01*
X143805011Y-144122540D01*
X143874624Y-144116561D01*
X143936420Y-144149166D01*
X143950313Y-144165199D01*
X144043742Y-144293794D01*
X144069896Y-144329792D01*
X144220213Y-144480109D01*
X144392179Y-144605048D01*
X144392181Y-144605049D01*
X144392184Y-144605051D01*
X144581588Y-144701557D01*
X144783757Y-144767246D01*
X144993713Y-144800500D01*
X144993714Y-144800500D01*
X145206286Y-144800500D01*
X145206287Y-144800500D01*
X145416243Y-144767246D01*
X145618412Y-144701557D01*
X145807816Y-144605051D01*
X145979792Y-144480104D01*
X146118604Y-144341291D01*
X146179923Y-144307809D01*
X146249615Y-144312793D01*
X146305549Y-144354664D01*
X146311821Y-144363878D01*
X146315185Y-144369333D01*
X146315186Y-144369334D01*
X146407288Y-144518656D01*
X146531344Y-144642712D01*
X146680666Y-144734814D01*
X146847203Y-144789999D01*
X146949991Y-144800500D01*
X148250008Y-144800499D01*
X148352797Y-144789999D01*
X148519334Y-144734814D01*
X148668656Y-144642712D01*
X148792712Y-144518656D01*
X148884814Y-144369334D01*
X148939999Y-144202797D01*
X148950500Y-144100009D01*
X148950499Y-142549992D01*
X148948851Y-142533863D01*
X148939999Y-142447203D01*
X148939998Y-142447200D01*
X148908920Y-142353414D01*
X148884814Y-142280666D01*
X148792712Y-142131344D01*
X148668656Y-142007288D01*
X148561649Y-141941286D01*
X148519336Y-141915187D01*
X148519331Y-141915185D01*
X148517862Y-141914698D01*
X148352797Y-141860001D01*
X148352795Y-141860000D01*
X148250010Y-141849500D01*
X146949998Y-141849500D01*
X146949981Y-141849501D01*
X146847203Y-141860000D01*
X146847200Y-141860001D01*
X146680668Y-141915185D01*
X146680663Y-141915187D01*
X146531342Y-142007289D01*
X146407289Y-142131342D01*
X146311821Y-142286121D01*
X146259873Y-142332845D01*
X146190910Y-142344068D01*
X146126828Y-142316224D01*
X146118601Y-142308705D01*
X145979786Y-142169890D01*
X145807820Y-142044951D01*
X145618414Y-141948444D01*
X145618413Y-141948443D01*
X145618412Y-141948443D01*
X145416243Y-141882754D01*
X145416241Y-141882753D01*
X145416240Y-141882753D01*
X145254957Y-141857208D01*
X145206287Y-141849500D01*
X144993713Y-141849500D01*
X144945042Y-141857208D01*
X144783760Y-141882753D01*
X144581585Y-141948444D01*
X144392179Y-142044951D01*
X144220213Y-142169890D01*
X144069894Y-142320209D01*
X144069890Y-142320214D01*
X143950318Y-142484793D01*
X143894989Y-142527459D01*
X143825375Y-142533438D01*
X143763580Y-142500833D01*
X143749682Y-142484793D01*
X143630109Y-142320214D01*
X143630105Y-142320209D01*
X143479786Y-142169890D01*
X143307820Y-142044951D01*
X143118414Y-141948444D01*
X143118413Y-141948443D01*
X143118412Y-141948443D01*
X142916243Y-141882754D01*
X142916241Y-141882753D01*
X142916240Y-141882753D01*
X142754957Y-141857208D01*
X142706287Y-141849500D01*
X142493713Y-141849500D01*
X142445042Y-141857208D01*
X142283760Y-141882753D01*
X142081585Y-141948444D01*
X141892179Y-142044951D01*
X141720213Y-142169890D01*
X141569894Y-142320209D01*
X141569890Y-142320214D01*
X141450318Y-142484793D01*
X141394989Y-142527459D01*
X141325375Y-142533438D01*
X141263580Y-142500833D01*
X141249682Y-142484793D01*
X141130109Y-142320214D01*
X141130105Y-142320209D01*
X140979786Y-142169890D01*
X140807820Y-142044951D01*
X140618414Y-141948444D01*
X140618413Y-141948443D01*
X140618412Y-141948443D01*
X140416243Y-141882754D01*
X140416241Y-141882753D01*
X140416240Y-141882753D01*
X140254957Y-141857208D01*
X140206287Y-141849500D01*
X139993713Y-141849500D01*
X139945042Y-141857208D01*
X139783760Y-141882753D01*
X139581585Y-141948444D01*
X139392179Y-142044951D01*
X139220213Y-142169890D01*
X139069894Y-142320209D01*
X139069890Y-142320214D01*
X138950008Y-142485218D01*
X138894678Y-142527884D01*
X138825065Y-142533863D01*
X138763270Y-142501257D01*
X138749372Y-142485218D01*
X138629727Y-142320540D01*
X138629723Y-142320535D01*
X138479464Y-142170276D01*
X138479459Y-142170272D01*
X138307557Y-142045379D01*
X138118215Y-141948903D01*
X137916124Y-141883241D01*
X137850000Y-141872768D01*
X137850000Y-142920854D01*
X137783343Y-142882370D01*
X137662535Y-142850000D01*
X137537465Y-142850000D01*
X137416657Y-142882370D01*
X137350000Y-142920854D01*
X137350000Y-141872768D01*
X137349999Y-141872768D01*
X137283875Y-141883241D01*
X137081784Y-141948903D01*
X136892442Y-142045379D01*
X136720540Y-142170272D01*
X136720535Y-142170276D01*
X136570276Y-142320535D01*
X136570272Y-142320540D01*
X136445379Y-142492442D01*
X136348904Y-142681782D01*
X136283242Y-142883869D01*
X136283242Y-142883872D01*
X136252970Y-143075000D01*
X133775700Y-143075000D01*
X133660917Y-143032189D01*
X133604983Y-142990318D01*
X133580566Y-142924853D01*
X133595418Y-142856580D01*
X133616563Y-142828332D01*
X133730104Y-142714792D01*
X133855051Y-142542816D01*
X133951557Y-142353412D01*
X134017246Y-142151243D01*
X134050500Y-141941287D01*
X134050500Y-141728713D01*
X151149500Y-141728713D01*
X151149500Y-141941287D01*
X151150634Y-141948444D01*
X151165918Y-142044949D01*
X151182754Y-142151243D01*
X151241760Y-142332845D01*
X151248444Y-142353414D01*
X151344951Y-142542820D01*
X151469890Y-142714786D01*
X151583430Y-142828326D01*
X151616915Y-142889649D01*
X151611931Y-142959341D01*
X151570059Y-143015274D01*
X151539083Y-143032189D01*
X151407669Y-143081203D01*
X151407664Y-143081206D01*
X151292455Y-143167452D01*
X151292452Y-143167455D01*
X151206206Y-143282664D01*
X151206202Y-143282671D01*
X151155908Y-143417517D01*
X151149501Y-143477116D01*
X151149501Y-143477123D01*
X151149500Y-143477135D01*
X151149500Y-145272870D01*
X151149501Y-145272876D01*
X151155908Y-145332483D01*
X151206202Y-145467328D01*
X151206206Y-145467335D01*
X151292452Y-145582544D01*
X151292455Y-145582547D01*
X151407664Y-145668793D01*
X151407671Y-145668797D01*
X151542517Y-145719091D01*
X151542516Y-145719091D01*
X151549444Y-145719835D01*
X151602127Y-145725500D01*
X153397872Y-145725499D01*
X153457483Y-145719091D01*
X153592331Y-145668796D01*
X153707546Y-145582546D01*
X153793796Y-145467331D01*
X153844091Y-145332483D01*
X153850500Y-145272873D01*
X153850499Y-143477128D01*
X153844091Y-143417517D01*
X153839441Y-143405051D01*
X153793797Y-143282671D01*
X153793793Y-143282664D01*
X153707547Y-143167455D01*
X153707544Y-143167452D01*
X153592335Y-143081206D01*
X153592328Y-143081202D01*
X153460917Y-143032189D01*
X153404983Y-142990318D01*
X153380566Y-142924853D01*
X153395418Y-142856580D01*
X153416563Y-142828332D01*
X153530104Y-142714792D01*
X153655051Y-142542816D01*
X153751557Y-142353412D01*
X153817246Y-142151243D01*
X153850500Y-141941287D01*
X153850500Y-141728713D01*
X153817246Y-141518757D01*
X153751557Y-141316588D01*
X153655051Y-141127184D01*
X153655049Y-141127181D01*
X153655048Y-141127179D01*
X153530109Y-140955213D01*
X153379786Y-140804890D01*
X153207820Y-140679951D01*
X153018414Y-140583444D01*
X153018413Y-140583443D01*
X153018412Y-140583443D01*
X152816243Y-140517754D01*
X152816241Y-140517753D01*
X152816240Y-140517753D01*
X152654957Y-140492208D01*
X152606287Y-140484500D01*
X152393713Y-140484500D01*
X152345042Y-140492208D01*
X152183760Y-140517753D01*
X151981585Y-140583444D01*
X151792179Y-140679951D01*
X151620213Y-140804890D01*
X151469890Y-140955213D01*
X151344951Y-141127179D01*
X151248444Y-141316585D01*
X151182753Y-141518760D01*
X151152835Y-141707656D01*
X151149500Y-141728713D01*
X134050500Y-141728713D01*
X134017246Y-141518757D01*
X133951557Y-141316588D01*
X133855051Y-141127184D01*
X133855049Y-141127181D01*
X133855048Y-141127179D01*
X133730109Y-140955213D01*
X133579786Y-140804890D01*
X133407820Y-140679951D01*
X133218414Y-140583444D01*
X133218413Y-140583443D01*
X133218412Y-140583443D01*
X133016243Y-140517754D01*
X133016241Y-140517753D01*
X133016240Y-140517753D01*
X132854957Y-140492208D01*
X132806287Y-140484500D01*
X132593713Y-140484500D01*
X132545042Y-140492208D01*
X132383760Y-140517753D01*
X132181585Y-140583444D01*
X131992179Y-140679951D01*
X131820213Y-140804890D01*
X131669890Y-140955213D01*
X131544951Y-141127179D01*
X131448444Y-141316585D01*
X131382753Y-141518760D01*
X131352835Y-141707656D01*
X131349500Y-141728713D01*
X127336358Y-141728713D01*
X127339130Y-141707656D01*
X127350500Y-141621288D01*
X127350500Y-141378711D01*
X127329592Y-141219896D01*
X127318838Y-141138211D01*
X127256054Y-140903900D01*
X127163224Y-140679788D01*
X127041936Y-140469711D01*
X126894265Y-140277262D01*
X126894260Y-140277256D01*
X126722743Y-140105739D01*
X126722736Y-140105733D01*
X126530293Y-139958067D01*
X126530292Y-139958066D01*
X126530289Y-139958064D01*
X126320212Y-139836776D01*
X126320205Y-139836773D01*
X126096104Y-139743947D01*
X125861785Y-139681161D01*
X125621289Y-139649500D01*
X125621288Y-139649500D01*
X125378712Y-139649500D01*
X125378711Y-139649500D01*
X125138214Y-139681161D01*
X124903895Y-139743947D01*
X124679794Y-139836773D01*
X124679785Y-139836777D01*
X124469706Y-139958067D01*
X124277263Y-140105733D01*
X124277256Y-140105739D01*
X124105739Y-140277256D01*
X124105733Y-140277263D01*
X123958067Y-140469706D01*
X123836777Y-140679785D01*
X123836773Y-140679794D01*
X123743947Y-140903895D01*
X123681161Y-141138214D01*
X123649500Y-141378711D01*
X120500500Y-141378711D01*
X120500500Y-139073920D01*
X135749499Y-139073920D01*
X135778340Y-139218907D01*
X135778343Y-139218917D01*
X135834912Y-139355488D01*
X135834919Y-139355501D01*
X135917048Y-139478415D01*
X135917051Y-139478419D01*
X136021580Y-139582948D01*
X136021584Y-139582951D01*
X136144498Y-139665080D01*
X136144511Y-139665087D01*
X136281082Y-139721656D01*
X136281087Y-139721658D01*
X136281091Y-139721658D01*
X136281092Y-139721659D01*
X136426079Y-139750500D01*
X136426082Y-139750500D01*
X136573920Y-139750500D01*
X136671462Y-139731096D01*
X136718913Y-139721658D01*
X136824547Y-139677902D01*
X136855488Y-139665087D01*
X136855488Y-139665086D01*
X136855495Y-139665084D01*
X136931111Y-139614559D01*
X136997786Y-139593682D01*
X137065166Y-139612166D01*
X137068848Y-139614531D01*
X137144505Y-139665084D01*
X137144507Y-139665085D01*
X137144511Y-139665087D01*
X137281082Y-139721656D01*
X137281087Y-139721658D01*
X137281091Y-139721658D01*
X137281092Y-139721659D01*
X137426079Y-139750500D01*
X137426082Y-139750500D01*
X137573920Y-139750500D01*
X137671462Y-139731096D01*
X137718913Y-139721658D01*
X137824547Y-139677902D01*
X137855488Y-139665087D01*
X137855488Y-139665086D01*
X137855495Y-139665084D01*
X137978416Y-139582951D01*
X138078834Y-139482533D01*
X142433118Y-139482533D01*
X142461959Y-139627520D01*
X142461962Y-139627530D01*
X142518531Y-139764101D01*
X142518538Y-139764114D01*
X142600667Y-139887028D01*
X142600670Y-139887032D01*
X142705199Y-139991561D01*
X142705203Y-139991564D01*
X142828117Y-140073693D01*
X142828130Y-140073700D01*
X142905480Y-140105739D01*
X142964706Y-140130271D01*
X142964710Y-140130271D01*
X142964711Y-140130272D01*
X143109698Y-140159113D01*
X143109701Y-140159113D01*
X143257539Y-140159113D01*
X143355081Y-140139709D01*
X143402532Y-140130271D01*
X143539114Y-140073697D01*
X143662035Y-139991564D01*
X143766570Y-139887029D01*
X143848703Y-139764108D01*
X143905277Y-139627526D01*
X143925732Y-139524695D01*
X143934119Y-139482533D01*
X143934119Y-139334692D01*
X143905278Y-139189705D01*
X143905277Y-139189704D01*
X143905277Y-139189700D01*
X143905275Y-139189695D01*
X143854260Y-139066533D01*
X146524499Y-139066533D01*
X146550458Y-139197030D01*
X146550461Y-139197040D01*
X146601376Y-139319961D01*
X146601386Y-139319979D01*
X146675301Y-139430601D01*
X146675307Y-139430609D01*
X146769390Y-139524692D01*
X146769398Y-139524698D01*
X146880020Y-139598613D01*
X146880023Y-139598614D01*
X146880031Y-139598620D01*
X146880037Y-139598622D01*
X146880038Y-139598623D01*
X146988896Y-139643713D01*
X147002964Y-139649540D01*
X147002968Y-139649540D01*
X147002969Y-139649541D01*
X147133466Y-139675500D01*
X147133469Y-139675500D01*
X147266533Y-139675500D01*
X147354325Y-139658035D01*
X147397036Y-139649540D01*
X147519969Y-139598620D01*
X147630606Y-139524695D01*
X147724695Y-139430606D01*
X147798620Y-139319969D01*
X147849540Y-139197036D01*
X147858035Y-139154325D01*
X147875500Y-139066533D01*
X147875500Y-138933466D01*
X147849541Y-138802969D01*
X147849540Y-138802968D01*
X147849540Y-138802964D01*
X147840476Y-138781082D01*
X147798623Y-138680038D01*
X147798622Y-138680037D01*
X147798620Y-138680031D01*
X147774886Y-138644511D01*
X147724698Y-138569398D01*
X147724692Y-138569390D01*
X147630609Y-138475307D01*
X147630601Y-138475301D01*
X147519979Y-138401386D01*
X147519972Y-138401382D01*
X147519969Y-138401380D01*
X147519965Y-138401378D01*
X147519961Y-138401376D01*
X147397040Y-138350461D01*
X147397030Y-138350458D01*
X147266533Y-138324500D01*
X147266531Y-138324500D01*
X147133469Y-138324500D01*
X147133467Y-138324500D01*
X147002969Y-138350458D01*
X147002959Y-138350461D01*
X146880038Y-138401376D01*
X146880020Y-138401386D01*
X146769398Y-138475301D01*
X146769390Y-138475307D01*
X146675307Y-138569390D01*
X146675301Y-138569398D01*
X146601386Y-138680020D01*
X146601376Y-138680038D01*
X146550461Y-138802959D01*
X146550458Y-138802969D01*
X146524500Y-138933466D01*
X146524500Y-138933469D01*
X146524500Y-139066531D01*
X146524500Y-139066533D01*
X146524499Y-139066533D01*
X143854260Y-139066533D01*
X143848706Y-139053124D01*
X143848696Y-139053106D01*
X143810719Y-138996269D01*
X143810718Y-138996268D01*
X143766570Y-138930197D01*
X143766567Y-138930193D01*
X143662038Y-138825664D01*
X143662034Y-138825661D01*
X143539120Y-138743532D01*
X143539107Y-138743525D01*
X143402536Y-138686956D01*
X143402526Y-138686953D01*
X143257539Y-138658113D01*
X143257537Y-138658113D01*
X143109701Y-138658113D01*
X143109699Y-138658113D01*
X142964711Y-138686953D01*
X142964701Y-138686956D01*
X142828130Y-138743525D01*
X142828117Y-138743532D01*
X142705203Y-138825661D01*
X142705199Y-138825664D01*
X142600670Y-138930193D01*
X142600667Y-138930197D01*
X142518538Y-139053111D01*
X142518531Y-139053124D01*
X142461962Y-139189695D01*
X142461959Y-139189705D01*
X142433119Y-139334692D01*
X142433119Y-139334695D01*
X142433119Y-139482531D01*
X142433119Y-139482533D01*
X142433118Y-139482533D01*
X138078834Y-139482533D01*
X138082951Y-139478416D01*
X138165084Y-139355495D01*
X138221658Y-139218913D01*
X138250500Y-139073918D01*
X138250500Y-138926082D01*
X138250500Y-138926079D01*
X138221659Y-138781092D01*
X138221658Y-138781091D01*
X138221658Y-138781087D01*
X138206101Y-138743529D01*
X138165087Y-138644511D01*
X138165080Y-138644498D01*
X138082951Y-138521584D01*
X138082948Y-138521580D01*
X137978419Y-138417051D01*
X137978415Y-138417048D01*
X137855501Y-138334919D01*
X137855488Y-138334912D01*
X137718917Y-138278343D01*
X137718907Y-138278340D01*
X137573920Y-138249500D01*
X137573918Y-138249500D01*
X137426082Y-138249500D01*
X137426080Y-138249500D01*
X137281092Y-138278340D01*
X137281082Y-138278343D01*
X137144511Y-138334912D01*
X137144498Y-138334919D01*
X137068891Y-138385439D01*
X137002213Y-138406317D01*
X136934833Y-138387832D01*
X136931109Y-138385439D01*
X136855501Y-138334919D01*
X136855488Y-138334912D01*
X136718917Y-138278343D01*
X136718907Y-138278340D01*
X136573920Y-138249500D01*
X136573918Y-138249500D01*
X136426082Y-138249500D01*
X136426080Y-138249500D01*
X136281092Y-138278340D01*
X136281082Y-138278343D01*
X136144511Y-138334912D01*
X136144498Y-138334919D01*
X136021584Y-138417048D01*
X136021580Y-138417051D01*
X135917051Y-138521580D01*
X135917048Y-138521584D01*
X135834919Y-138644498D01*
X135834912Y-138644511D01*
X135778343Y-138781082D01*
X135778340Y-138781092D01*
X135749500Y-138926079D01*
X135749500Y-138926082D01*
X135749500Y-139073918D01*
X135749500Y-139073920D01*
X135749499Y-139073920D01*
X120500500Y-139073920D01*
X120500500Y-137965490D01*
X149974543Y-137965490D01*
X150000502Y-138095987D01*
X150000505Y-138095997D01*
X150051420Y-138218918D01*
X150051430Y-138218936D01*
X150125345Y-138329558D01*
X150125351Y-138329566D01*
X150219434Y-138423649D01*
X150219442Y-138423655D01*
X150330064Y-138497570D01*
X150330067Y-138497571D01*
X150330075Y-138497577D01*
X150330081Y-138497579D01*
X150330082Y-138497580D01*
X150395375Y-138524625D01*
X150453008Y-138548497D01*
X150453012Y-138548497D01*
X150453013Y-138548498D01*
X150583510Y-138574457D01*
X150583513Y-138574457D01*
X150716577Y-138574457D01*
X150804369Y-138556992D01*
X150847080Y-138548497D01*
X150904713Y-138524625D01*
X150960985Y-138501317D01*
X151030454Y-138493848D01*
X151092933Y-138525124D01*
X151096118Y-138528197D01*
X151189707Y-138621786D01*
X151189711Y-138621789D01*
X151320814Y-138709390D01*
X151320827Y-138709397D01*
X151466498Y-138769735D01*
X151466503Y-138769737D01*
X151621153Y-138800499D01*
X151621156Y-138800500D01*
X151621158Y-138800500D01*
X151778844Y-138800500D01*
X151778845Y-138800499D01*
X151933497Y-138769737D01*
X152079179Y-138709394D01*
X152210289Y-138621789D01*
X152321789Y-138510289D01*
X152409394Y-138379179D01*
X152469737Y-138233497D01*
X152500500Y-138078842D01*
X152500500Y-137921158D01*
X152500500Y-137921155D01*
X152500499Y-137921153D01*
X152478269Y-137809397D01*
X152469737Y-137766503D01*
X152442989Y-137701926D01*
X152409397Y-137620827D01*
X152409390Y-137620814D01*
X152321789Y-137489711D01*
X152321786Y-137489707D01*
X152210294Y-137378215D01*
X152209173Y-137377295D01*
X152208743Y-137376664D01*
X152205982Y-137373903D01*
X152206505Y-137373379D01*
X152169840Y-137319548D01*
X152167971Y-137249704D01*
X152204159Y-137189936D01*
X152240380Y-137166885D01*
X152379179Y-137109394D01*
X152510289Y-137021789D01*
X152510925Y-137021153D01*
X153499500Y-137021153D01*
X153499500Y-137178846D01*
X153530261Y-137333489D01*
X153530264Y-137333501D01*
X153590602Y-137479172D01*
X153590609Y-137479185D01*
X153678210Y-137610288D01*
X153678213Y-137610292D01*
X153789707Y-137721786D01*
X153789711Y-137721789D01*
X153920814Y-137809390D01*
X153920827Y-137809397D01*
X154066498Y-137869735D01*
X154066503Y-137869737D01*
X154221153Y-137900499D01*
X154221156Y-137900500D01*
X154221158Y-137900500D01*
X154378844Y-137900500D01*
X154378845Y-137900499D01*
X154533497Y-137869737D01*
X154679179Y-137809394D01*
X154810289Y-137721789D01*
X154921789Y-137610289D01*
X155009394Y-137479179D01*
X155069737Y-137333497D01*
X155100500Y-137178842D01*
X155100500Y-137021158D01*
X155100500Y-137021155D01*
X155100499Y-137021153D01*
X155078447Y-136910292D01*
X155069737Y-136866503D01*
X155033569Y-136779185D01*
X155009397Y-136720827D01*
X155009390Y-136720814D01*
X154921789Y-136589711D01*
X154921786Y-136589707D01*
X154810292Y-136478213D01*
X154810288Y-136478210D01*
X154679185Y-136390609D01*
X154679172Y-136390602D01*
X154533501Y-136330264D01*
X154533489Y-136330261D01*
X154378845Y-136299500D01*
X154378842Y-136299500D01*
X154221158Y-136299500D01*
X154221155Y-136299500D01*
X154066510Y-136330261D01*
X154066498Y-136330264D01*
X153920827Y-136390602D01*
X153920814Y-136390609D01*
X153789711Y-136478210D01*
X153789707Y-136478213D01*
X153678213Y-136589707D01*
X153678210Y-136589711D01*
X153590609Y-136720814D01*
X153590602Y-136720827D01*
X153530264Y-136866498D01*
X153530261Y-136866510D01*
X153499500Y-137021153D01*
X152510925Y-137021153D01*
X152604694Y-136927385D01*
X152621786Y-136910292D01*
X152621789Y-136910289D01*
X152709394Y-136779179D01*
X152769737Y-136633497D01*
X152800500Y-136478842D01*
X152800500Y-136321158D01*
X152800500Y-136321156D01*
X152800500Y-136321155D01*
X152800499Y-136321153D01*
X152783344Y-136234912D01*
X152769737Y-136166503D01*
X152761429Y-136146446D01*
X152709397Y-136020827D01*
X152709390Y-136020814D01*
X152621789Y-135889711D01*
X152621786Y-135889707D01*
X152510292Y-135778213D01*
X152510288Y-135778210D01*
X152379185Y-135690609D01*
X152379172Y-135690602D01*
X152233501Y-135630264D01*
X152233489Y-135630261D01*
X152078845Y-135599500D01*
X152078842Y-135599500D01*
X151921158Y-135599500D01*
X151921155Y-135599500D01*
X151766510Y-135630261D01*
X151766498Y-135630264D01*
X151620827Y-135690602D01*
X151620814Y-135690609D01*
X151484646Y-135781595D01*
X151483487Y-135779861D01*
X151427883Y-135803451D01*
X151359020Y-135791632D01*
X151307479Y-135744460D01*
X151299016Y-135727732D01*
X151277577Y-135675974D01*
X150953554Y-135999999D01*
X150953554Y-136000000D01*
X151165111Y-136211557D01*
X151198596Y-136272880D01*
X151198975Y-136314983D01*
X151200097Y-136315094D01*
X151199500Y-136321156D01*
X151199500Y-136478846D01*
X151230261Y-136633489D01*
X151230264Y-136633501D01*
X151290602Y-136779172D01*
X151290609Y-136779185D01*
X151378210Y-136910288D01*
X151378213Y-136910292D01*
X151489708Y-137021787D01*
X151490824Y-137022703D01*
X151491251Y-137023330D01*
X151494018Y-137026097D01*
X151493493Y-137026621D01*
X151530158Y-137080449D01*
X151532029Y-137150293D01*
X151495841Y-137210061D01*
X151459612Y-137233117D01*
X151320823Y-137290604D01*
X151320816Y-137290608D01*
X151207025Y-137366641D01*
X151140348Y-137387518D01*
X151072968Y-137369033D01*
X151069245Y-137366641D01*
X150970016Y-137300339D01*
X150970015Y-137300338D01*
X150970013Y-137300337D01*
X150970010Y-137300335D01*
X150970005Y-137300333D01*
X150847084Y-137249418D01*
X150847074Y-137249415D01*
X150716577Y-137223457D01*
X150716575Y-137223457D01*
X150583513Y-137223457D01*
X150583511Y-137223457D01*
X150453013Y-137249415D01*
X150453003Y-137249418D01*
X150330082Y-137300333D01*
X150330064Y-137300343D01*
X150219442Y-137374258D01*
X150219434Y-137374264D01*
X150125351Y-137468347D01*
X150125345Y-137468355D01*
X150051430Y-137578977D01*
X150051420Y-137578995D01*
X150000505Y-137701916D01*
X150000502Y-137701926D01*
X149974544Y-137832423D01*
X149974544Y-137832426D01*
X149974544Y-137965488D01*
X149974544Y-137965490D01*
X149974543Y-137965490D01*
X120500500Y-137965490D01*
X120500500Y-136973920D01*
X144349499Y-136973920D01*
X144378340Y-137118907D01*
X144378343Y-137118917D01*
X144434912Y-137255488D01*
X144434919Y-137255501D01*
X144517048Y-137378415D01*
X144517051Y-137378419D01*
X144621580Y-137482948D01*
X144621584Y-137482951D01*
X144744498Y-137565080D01*
X144744511Y-137565087D01*
X144853647Y-137610292D01*
X144881087Y-137621658D01*
X144881091Y-137621658D01*
X144881092Y-137621659D01*
X145026079Y-137650500D01*
X145026082Y-137650500D01*
X145173920Y-137650500D01*
X145271462Y-137631096D01*
X145318913Y-137621658D01*
X145455495Y-137565084D01*
X145578416Y-137482951D01*
X145682951Y-137378416D01*
X145765084Y-137255495D01*
X145821658Y-137118913D01*
X145831096Y-137071462D01*
X145850500Y-136973920D01*
X145850500Y-136826079D01*
X145821659Y-136681092D01*
X145821656Y-136681081D01*
X145820205Y-136677577D01*
X147275975Y-136677577D01*
X147381236Y-136721178D01*
X147381240Y-136721179D01*
X147526126Y-136749999D01*
X147526129Y-136750000D01*
X147673871Y-136750000D01*
X147673873Y-136749999D01*
X147818760Y-136721179D01*
X147818775Y-136721175D01*
X147924024Y-136677578D01*
X147924024Y-136677577D01*
X149275975Y-136677577D01*
X149381236Y-136721178D01*
X149381240Y-136721179D01*
X149526126Y-136749999D01*
X149526129Y-136750000D01*
X149673871Y-136750000D01*
X149673873Y-136749999D01*
X149818760Y-136721179D01*
X149818775Y-136721175D01*
X149924024Y-136677578D01*
X149924024Y-136677577D01*
X150275975Y-136677577D01*
X150381236Y-136721178D01*
X150381240Y-136721179D01*
X150526126Y-136749999D01*
X150526129Y-136750000D01*
X150673871Y-136750000D01*
X150673873Y-136749999D01*
X150818760Y-136721179D01*
X150818775Y-136721175D01*
X150924024Y-136677578D01*
X150924024Y-136677577D01*
X150600001Y-136353554D01*
X150600000Y-136353554D01*
X150275975Y-136677577D01*
X149924024Y-136677577D01*
X149600001Y-136353554D01*
X149600000Y-136353554D01*
X149275975Y-136677577D01*
X147924024Y-136677577D01*
X147600001Y-136353554D01*
X147600000Y-136353554D01*
X147275975Y-136677577D01*
X145820205Y-136677577D01*
X145765087Y-136544511D01*
X145765080Y-136544498D01*
X145682951Y-136421584D01*
X145682948Y-136421580D01*
X145578419Y-136317051D01*
X145578415Y-136317048D01*
X145455501Y-136234919D01*
X145455488Y-136234912D01*
X145318917Y-136178343D01*
X145318907Y-136178340D01*
X145173920Y-136149500D01*
X145173918Y-136149500D01*
X145026082Y-136149500D01*
X145026080Y-136149500D01*
X144881092Y-136178340D01*
X144881082Y-136178343D01*
X144744511Y-136234912D01*
X144744498Y-136234919D01*
X144621584Y-136317048D01*
X144621580Y-136317051D01*
X144517051Y-136421580D01*
X144517048Y-136421584D01*
X144434919Y-136544498D01*
X144434912Y-136544511D01*
X144378343Y-136681082D01*
X144378340Y-136681092D01*
X144349500Y-136826079D01*
X144349500Y-136826082D01*
X144349500Y-136973918D01*
X144349500Y-136973920D01*
X144349499Y-136973920D01*
X120500500Y-136973920D01*
X120500500Y-135926126D01*
X146850000Y-135926126D01*
X146850000Y-136073873D01*
X146878820Y-136218759D01*
X146878822Y-136218767D01*
X146922421Y-136324024D01*
X147246446Y-136000000D01*
X147246446Y-135999999D01*
X147226556Y-135980109D01*
X147500000Y-135980109D01*
X147500000Y-136019891D01*
X147515224Y-136056645D01*
X147543355Y-136084776D01*
X147580109Y-136100000D01*
X147619891Y-136100000D01*
X147656645Y-136084776D01*
X147684776Y-136056645D01*
X147700000Y-136019891D01*
X147700000Y-136000000D01*
X147953554Y-136000000D01*
X148311349Y-136357795D01*
X148344834Y-136419118D01*
X148339850Y-136488810D01*
X148315511Y-136526680D01*
X148315780Y-136528726D01*
X148368406Y-136559109D01*
X148521009Y-136599999D01*
X148521011Y-136600000D01*
X148678989Y-136600000D01*
X148678990Y-136599999D01*
X148831588Y-136559111D01*
X148832186Y-136558766D01*
X148853952Y-136425490D01*
X148859271Y-136414405D01*
X148860149Y-136402142D01*
X148879930Y-136371362D01*
X148884184Y-136362500D01*
X148886571Y-136361029D01*
X148888650Y-136357795D01*
X149246445Y-135999999D01*
X149226555Y-135980109D01*
X149500000Y-135980109D01*
X149500000Y-136019891D01*
X149515224Y-136056645D01*
X149543355Y-136084776D01*
X149580109Y-136100000D01*
X149619891Y-136100000D01*
X149656645Y-136084776D01*
X149684776Y-136056645D01*
X149700000Y-136019891D01*
X149700000Y-136000000D01*
X149953554Y-136000000D01*
X150100000Y-136146446D01*
X150246446Y-136000000D01*
X150226555Y-135980109D01*
X150500000Y-135980109D01*
X150500000Y-136019891D01*
X150515224Y-136056645D01*
X150543355Y-136084776D01*
X150580109Y-136100000D01*
X150619891Y-136100000D01*
X150656645Y-136084776D01*
X150684776Y-136056645D01*
X150700000Y-136019891D01*
X150700000Y-135980109D01*
X150684776Y-135943355D01*
X150656645Y-135915224D01*
X150619891Y-135900000D01*
X150580109Y-135900000D01*
X150543355Y-135915224D01*
X150515224Y-135943355D01*
X150500000Y-135980109D01*
X150226555Y-135980109D01*
X150100000Y-135853554D01*
X149953554Y-136000000D01*
X149700000Y-136000000D01*
X149700000Y-135980109D01*
X149684776Y-135943355D01*
X149656645Y-135915224D01*
X149619891Y-135900000D01*
X149580109Y-135900000D01*
X149543355Y-135915224D01*
X149515224Y-135943355D01*
X149500000Y-135980109D01*
X149226555Y-135980109D01*
X148746446Y-135500000D01*
X149453554Y-135500000D01*
X149600000Y-135646446D01*
X149746446Y-135500000D01*
X150453554Y-135500000D01*
X150600000Y-135646446D01*
X150746446Y-135500000D01*
X150600000Y-135353554D01*
X150453554Y-135500000D01*
X149746446Y-135500000D01*
X149600000Y-135353554D01*
X149453554Y-135500000D01*
X148746446Y-135500000D01*
X148600000Y-135353554D01*
X147953554Y-136000000D01*
X147700000Y-136000000D01*
X147700000Y-135980109D01*
X147684776Y-135943355D01*
X147656645Y-135915224D01*
X147619891Y-135900000D01*
X147580109Y-135900000D01*
X147543355Y-135915224D01*
X147515224Y-135943355D01*
X147500000Y-135980109D01*
X147226556Y-135980109D01*
X146922421Y-135675974D01*
X146922420Y-135675974D01*
X146878823Y-135781228D01*
X146878820Y-135781240D01*
X146850000Y-135926126D01*
X120500500Y-135926126D01*
X120500500Y-135500000D01*
X147453554Y-135500000D01*
X147600000Y-135646446D01*
X147746446Y-135500000D01*
X147600000Y-135353554D01*
X147453554Y-135500000D01*
X120500500Y-135500000D01*
X120500500Y-134926126D01*
X146850000Y-134926126D01*
X146850000Y-135073873D01*
X146878820Y-135218759D01*
X146878822Y-135218767D01*
X146922421Y-135324024D01*
X147246446Y-135000000D01*
X147246446Y-134999999D01*
X147226556Y-134980109D01*
X147500000Y-134980109D01*
X147500000Y-135019891D01*
X147515224Y-135056645D01*
X147543355Y-135084776D01*
X147580109Y-135100000D01*
X147619891Y-135100000D01*
X147656645Y-135084776D01*
X147684776Y-135056645D01*
X147700000Y-135019891D01*
X147700000Y-135000000D01*
X147953554Y-135000000D01*
X148100000Y-135146446D01*
X148246446Y-135000000D01*
X148226555Y-134980109D01*
X148500000Y-134980109D01*
X148500000Y-135019891D01*
X148515224Y-135056645D01*
X148543355Y-135084776D01*
X148580109Y-135100000D01*
X148619891Y-135100000D01*
X148656645Y-135084776D01*
X148684776Y-135056645D01*
X148700000Y-135019891D01*
X148700000Y-135000000D01*
X148953554Y-135000000D01*
X149100000Y-135146446D01*
X149246446Y-135000000D01*
X149226555Y-134980109D01*
X149500000Y-134980109D01*
X149500000Y-135019891D01*
X149515224Y-135056645D01*
X149543355Y-135084776D01*
X149580109Y-135100000D01*
X149619891Y-135100000D01*
X149656645Y-135084776D01*
X149684776Y-135056645D01*
X149700000Y-135019891D01*
X149700000Y-135000000D01*
X149953554Y-135000000D01*
X150100000Y-135146446D01*
X150246446Y-135000000D01*
X150226555Y-134980109D01*
X150500000Y-134980109D01*
X150500000Y-135019891D01*
X150515224Y-135056645D01*
X150543355Y-135084776D01*
X150580109Y-135100000D01*
X150619891Y-135100000D01*
X150656645Y-135084776D01*
X150684776Y-135056645D01*
X150700000Y-135019891D01*
X150700000Y-134999999D01*
X150953554Y-134999999D01*
X150953554Y-135000001D01*
X151277577Y-135324024D01*
X151277578Y-135324024D01*
X151321175Y-135218775D01*
X151321179Y-135218760D01*
X151349999Y-135073873D01*
X151350000Y-135073871D01*
X151350000Y-134926128D01*
X151349999Y-134926126D01*
X151321179Y-134781240D01*
X151321178Y-134781236D01*
X151277577Y-134675975D01*
X150953554Y-134999999D01*
X150700000Y-134999999D01*
X150700000Y-134980109D01*
X150684776Y-134943355D01*
X150656645Y-134915224D01*
X150619891Y-134900000D01*
X150580109Y-134900000D01*
X150543355Y-134915224D01*
X150515224Y-134943355D01*
X150500000Y-134980109D01*
X150226555Y-134980109D01*
X150100000Y-134853554D01*
X149953554Y-135000000D01*
X149700000Y-135000000D01*
X149700000Y-134980109D01*
X149684776Y-134943355D01*
X149656645Y-134915224D01*
X149619891Y-134900000D01*
X149580109Y-134900000D01*
X149543355Y-134915224D01*
X149515224Y-134943355D01*
X149500000Y-134980109D01*
X149226555Y-134980109D01*
X149100000Y-134853554D01*
X148953554Y-135000000D01*
X148700000Y-135000000D01*
X148700000Y-134980109D01*
X148684776Y-134943355D01*
X148656645Y-134915224D01*
X148619891Y-134900000D01*
X148580109Y-134900000D01*
X148543355Y-134915224D01*
X148515224Y-134943355D01*
X148500000Y-134980109D01*
X148226555Y-134980109D01*
X148100000Y-134853554D01*
X147953554Y-135000000D01*
X147700000Y-135000000D01*
X147700000Y-134980109D01*
X147684776Y-134943355D01*
X147656645Y-134915224D01*
X147619891Y-134900000D01*
X147580109Y-134900000D01*
X147543355Y-134915224D01*
X147515224Y-134943355D01*
X147500000Y-134980109D01*
X147226556Y-134980109D01*
X146922421Y-134675974D01*
X146922420Y-134675974D01*
X146878823Y-134781228D01*
X146878820Y-134781240D01*
X146850000Y-134926126D01*
X120500500Y-134926126D01*
X120500500Y-134066533D01*
X122824499Y-134066533D01*
X122850458Y-134197030D01*
X122850461Y-134197040D01*
X122901376Y-134319961D01*
X122901386Y-134319979D01*
X122975301Y-134430601D01*
X122975307Y-134430609D01*
X123069390Y-134524692D01*
X123069398Y-134524698D01*
X123180020Y-134598613D01*
X123180023Y-134598614D01*
X123180031Y-134598620D01*
X123302964Y-134649540D01*
X123302968Y-134649540D01*
X123302969Y-134649541D01*
X123433466Y-134675500D01*
X123433469Y-134675500D01*
X123566533Y-134675500D01*
X123654325Y-134658035D01*
X123697036Y-134649540D01*
X123819969Y-134598620D01*
X123930606Y-134524695D01*
X124024695Y-134430606D01*
X124098620Y-134319969D01*
X124100043Y-134316533D01*
X145074499Y-134316533D01*
X145100458Y-134447030D01*
X145100461Y-134447040D01*
X145151376Y-134569961D01*
X145151386Y-134569979D01*
X145225301Y-134680601D01*
X145225307Y-134680609D01*
X145319390Y-134774692D01*
X145319398Y-134774698D01*
X145430020Y-134848613D01*
X145430023Y-134848614D01*
X145430031Y-134848620D01*
X145552964Y-134899540D01*
X145552968Y-134899540D01*
X145552969Y-134899541D01*
X145683466Y-134925500D01*
X145683469Y-134925500D01*
X145816533Y-134925500D01*
X145904325Y-134908035D01*
X145947036Y-134899540D01*
X146069969Y-134848620D01*
X146180606Y-134774695D01*
X146274695Y-134680606D01*
X146348620Y-134569969D01*
X146377602Y-134500000D01*
X147453554Y-134500000D01*
X147600000Y-134646446D01*
X147746446Y-134500000D01*
X148453554Y-134500000D01*
X148600000Y-134646446D01*
X148746446Y-134500000D01*
X149453554Y-134500000D01*
X149600000Y-134646446D01*
X149746446Y-134500000D01*
X150453554Y-134500000D01*
X150600000Y-134646446D01*
X150746446Y-134500000D01*
X150600000Y-134353554D01*
X150453554Y-134500000D01*
X149746446Y-134500000D01*
X149600000Y-134353554D01*
X149453554Y-134500000D01*
X148746446Y-134500000D01*
X148600000Y-134353554D01*
X148453554Y-134500000D01*
X147746446Y-134500000D01*
X147600000Y-134353554D01*
X147453554Y-134500000D01*
X146377602Y-134500000D01*
X146399540Y-134447036D01*
X146408035Y-134404325D01*
X146425500Y-134316533D01*
X146425500Y-134183466D01*
X146399541Y-134052969D01*
X146399540Y-134052968D01*
X146399540Y-134052964D01*
X146348620Y-133930031D01*
X146346011Y-133926126D01*
X146850000Y-133926126D01*
X146850000Y-134073873D01*
X146878820Y-134218759D01*
X146878822Y-134218767D01*
X146922421Y-134324024D01*
X147246446Y-134000000D01*
X147246446Y-133999999D01*
X147226556Y-133980109D01*
X147500000Y-133980109D01*
X147500000Y-134019891D01*
X147515224Y-134056645D01*
X147543355Y-134084776D01*
X147580109Y-134100000D01*
X147619891Y-134100000D01*
X147656645Y-134084776D01*
X147684776Y-134056645D01*
X147700000Y-134019891D01*
X147700000Y-134000000D01*
X147953554Y-134000000D01*
X148100000Y-134146446D01*
X148246446Y-134000000D01*
X148226555Y-133980109D01*
X148500000Y-133980109D01*
X148500000Y-134019891D01*
X148515224Y-134056645D01*
X148543355Y-134084776D01*
X148580109Y-134100000D01*
X148619891Y-134100000D01*
X148656645Y-134084776D01*
X148684776Y-134056645D01*
X148700000Y-134019891D01*
X148700000Y-134000000D01*
X148953554Y-134000000D01*
X149100000Y-134146446D01*
X149246446Y-134000000D01*
X149226555Y-133980109D01*
X149500000Y-133980109D01*
X149500000Y-134019891D01*
X149515224Y-134056645D01*
X149543355Y-134084776D01*
X149580109Y-134100000D01*
X149619891Y-134100000D01*
X149656645Y-134084776D01*
X149684776Y-134056645D01*
X149700000Y-134019891D01*
X149700000Y-134000000D01*
X149953554Y-134000000D01*
X150100000Y-134146446D01*
X150246446Y-134000000D01*
X150226555Y-133980109D01*
X150500000Y-133980109D01*
X150500000Y-134019891D01*
X150515224Y-134056645D01*
X150543355Y-134084776D01*
X150580109Y-134100000D01*
X150619891Y-134100000D01*
X150656645Y-134084776D01*
X150684776Y-134056645D01*
X150700000Y-134019891D01*
X150700000Y-133999999D01*
X150953554Y-133999999D01*
X150953554Y-134000001D01*
X151277577Y-134324024D01*
X151277578Y-134324024D01*
X151321175Y-134218775D01*
X151321179Y-134218760D01*
X151337344Y-134137497D01*
X152275838Y-134137497D01*
X152275838Y-134295190D01*
X152306599Y-134449833D01*
X152306602Y-134449845D01*
X152366940Y-134595516D01*
X152366947Y-134595529D01*
X152454548Y-134726632D01*
X152454551Y-134726636D01*
X152566045Y-134838130D01*
X152566049Y-134838133D01*
X152697152Y-134925734D01*
X152697165Y-134925741D01*
X152828423Y-134980109D01*
X152842841Y-134986081D01*
X152997491Y-135016843D01*
X152997494Y-135016844D01*
X152997496Y-135016844D01*
X153155182Y-135016844D01*
X153274448Y-134993120D01*
X153344040Y-134999347D01*
X153399217Y-135042210D01*
X153401742Y-135045846D01*
X153478210Y-135160288D01*
X153478213Y-135160292D01*
X153589707Y-135271786D01*
X153589711Y-135271789D01*
X153720814Y-135359390D01*
X153720827Y-135359397D01*
X153866498Y-135419735D01*
X153866503Y-135419737D01*
X154021153Y-135450499D01*
X154021156Y-135450500D01*
X154021158Y-135450500D01*
X154178844Y-135450500D01*
X154178845Y-135450499D01*
X154333497Y-135419737D01*
X154479179Y-135359394D01*
X154610289Y-135271789D01*
X154721789Y-135160289D01*
X154809394Y-135029179D01*
X154869737Y-134883497D01*
X154900500Y-134728842D01*
X154900500Y-134571158D01*
X154900500Y-134571155D01*
X154900499Y-134571153D01*
X154876368Y-134449841D01*
X154869737Y-134416503D01*
X154843663Y-134353554D01*
X154809397Y-134270827D01*
X154809390Y-134270814D01*
X154721789Y-134139711D01*
X154721786Y-134139707D01*
X154682062Y-134099983D01*
X164049500Y-134099983D01*
X164049500Y-135400001D01*
X164049501Y-135400018D01*
X164060000Y-135502796D01*
X164060001Y-135502799D01*
X164115185Y-135669331D01*
X164115187Y-135669336D01*
X164128308Y-135690609D01*
X164184202Y-135781228D01*
X164207289Y-135818657D01*
X164331344Y-135942712D01*
X164486120Y-136038178D01*
X164532845Y-136090126D01*
X164544068Y-136159088D01*
X164516224Y-136223171D01*
X164508706Y-136231398D01*
X164369889Y-136370215D01*
X164244951Y-136542179D01*
X164148444Y-136731585D01*
X164082753Y-136933760D01*
X164059520Y-137080449D01*
X164049500Y-137143713D01*
X164049500Y-137356287D01*
X164052973Y-137378215D01*
X164082569Y-137565080D01*
X164082754Y-137566243D01*
X164133294Y-137721789D01*
X164148444Y-137768414D01*
X164244951Y-137957820D01*
X164369890Y-138129786D01*
X164520209Y-138280105D01*
X164520214Y-138280109D01*
X164684793Y-138399682D01*
X164727459Y-138455011D01*
X164733438Y-138524625D01*
X164700833Y-138586420D01*
X164684793Y-138600318D01*
X164520214Y-138719890D01*
X164520209Y-138719894D01*
X164369890Y-138870213D01*
X164244951Y-139042179D01*
X164148444Y-139231585D01*
X164082753Y-139433760D01*
X164054497Y-139612166D01*
X164049500Y-139643713D01*
X164049500Y-139856287D01*
X164082754Y-140066243D01*
X164112929Y-140159113D01*
X164148444Y-140268414D01*
X164244951Y-140457820D01*
X164369890Y-140629786D01*
X164520209Y-140780105D01*
X164520214Y-140780109D01*
X164684793Y-140899682D01*
X164727459Y-140955011D01*
X164733438Y-141024625D01*
X164700833Y-141086420D01*
X164684793Y-141100318D01*
X164520214Y-141219890D01*
X164520209Y-141219894D01*
X164369890Y-141370213D01*
X164244951Y-141542179D01*
X164148444Y-141731585D01*
X164082753Y-141933760D01*
X164049500Y-142143713D01*
X164049500Y-142356286D01*
X164079043Y-142542816D01*
X164082754Y-142566243D01*
X164133604Y-142722743D01*
X164148444Y-142768414D01*
X164244951Y-142957820D01*
X164369890Y-143129786D01*
X164520213Y-143280109D01*
X164692179Y-143405048D01*
X164692181Y-143405049D01*
X164692184Y-143405051D01*
X164881588Y-143501557D01*
X165083757Y-143567246D01*
X165293713Y-143600500D01*
X165293714Y-143600500D01*
X165756286Y-143600500D01*
X165756287Y-143600500D01*
X165966243Y-143567246D01*
X166168412Y-143501557D01*
X166357816Y-143405051D01*
X166476479Y-143318838D01*
X166529786Y-143280109D01*
X166529788Y-143280106D01*
X166529792Y-143280104D01*
X166680104Y-143129792D01*
X166680106Y-143129788D01*
X166680109Y-143129786D01*
X166805048Y-142957820D01*
X166805047Y-142957820D01*
X166805051Y-142957816D01*
X166901557Y-142768412D01*
X166967246Y-142566243D01*
X167000500Y-142356287D01*
X167000500Y-142143713D01*
X166967246Y-141933757D01*
X166901557Y-141731588D01*
X166805051Y-141542184D01*
X166805049Y-141542181D01*
X166805048Y-141542179D01*
X166680109Y-141370213D01*
X166529792Y-141219896D01*
X166529784Y-141219890D01*
X166365204Y-141100316D01*
X166322540Y-141044989D01*
X166316561Y-140975376D01*
X166349166Y-140913580D01*
X166365199Y-140899686D01*
X166529792Y-140780104D01*
X166680104Y-140629792D01*
X166680106Y-140629788D01*
X166680109Y-140629786D01*
X166805048Y-140457820D01*
X166805047Y-140457820D01*
X166805051Y-140457816D01*
X166901557Y-140268412D01*
X166967246Y-140066243D01*
X167000500Y-139856287D01*
X167000500Y-139643713D01*
X166967246Y-139433757D01*
X166901557Y-139231588D01*
X166805051Y-139042184D01*
X166805049Y-139042181D01*
X166805048Y-139042179D01*
X166680109Y-138870213D01*
X166529792Y-138719896D01*
X166515332Y-138709390D01*
X166365204Y-138600316D01*
X166322540Y-138544989D01*
X166316561Y-138475376D01*
X166349166Y-138413580D01*
X166365199Y-138399686D01*
X166529792Y-138280104D01*
X166680104Y-138129792D01*
X166680106Y-138129788D01*
X166680109Y-138129786D01*
X166789086Y-137979789D01*
X166805051Y-137957816D01*
X166901557Y-137768412D01*
X166967246Y-137566243D01*
X167000500Y-137356287D01*
X167000500Y-137143713D01*
X166967246Y-136933757D01*
X166901557Y-136731588D01*
X166805051Y-136542184D01*
X166805049Y-136542181D01*
X166805048Y-136542179D01*
X166680109Y-136370213D01*
X166541294Y-136231398D01*
X166507809Y-136170075D01*
X166512793Y-136100383D01*
X166554665Y-136044450D01*
X166563879Y-136038178D01*
X166569331Y-136034814D01*
X166569334Y-136034814D01*
X166718656Y-135942712D01*
X166842712Y-135818656D01*
X166934814Y-135669334D01*
X166989999Y-135502797D01*
X167000500Y-135400009D01*
X167000499Y-134099992D01*
X166993166Y-134028211D01*
X166989999Y-133997203D01*
X166989998Y-133997200D01*
X166984335Y-133980109D01*
X166934814Y-133830666D01*
X166842712Y-133681344D01*
X166718656Y-133557288D01*
X166569334Y-133465186D01*
X166402797Y-133410001D01*
X166402795Y-133410000D01*
X166300010Y-133399500D01*
X164749998Y-133399500D01*
X164749981Y-133399501D01*
X164647203Y-133410000D01*
X164647200Y-133410001D01*
X164480668Y-133465185D01*
X164480663Y-133465187D01*
X164331342Y-133557289D01*
X164207289Y-133681342D01*
X164115187Y-133830663D01*
X164115185Y-133830668D01*
X164103147Y-133866996D01*
X164060001Y-133997203D01*
X164060001Y-133997204D01*
X164060000Y-133997204D01*
X164049500Y-134099983D01*
X154682062Y-134099983D01*
X154610292Y-134028213D01*
X154610288Y-134028210D01*
X154479185Y-133940609D01*
X154479172Y-133940602D01*
X154333501Y-133880264D01*
X154333489Y-133880261D01*
X154178845Y-133849500D01*
X154178842Y-133849500D01*
X154021158Y-133849500D01*
X154021153Y-133849500D01*
X153901888Y-133873223D01*
X153832296Y-133866996D01*
X153777119Y-133824132D01*
X153774595Y-133820497D01*
X153698127Y-133706055D01*
X153698124Y-133706051D01*
X153586630Y-133594557D01*
X153586626Y-133594554D01*
X153455523Y-133506953D01*
X153455510Y-133506946D01*
X153309839Y-133446608D01*
X153309827Y-133446605D01*
X153155183Y-133415844D01*
X153155180Y-133415844D01*
X152997496Y-133415844D01*
X152997493Y-133415844D01*
X152842848Y-133446605D01*
X152842836Y-133446608D01*
X152697165Y-133506946D01*
X152697152Y-133506953D01*
X152566049Y-133594554D01*
X152566045Y-133594557D01*
X152454551Y-133706051D01*
X152454548Y-133706055D01*
X152366947Y-133837158D01*
X152366940Y-133837171D01*
X152306602Y-133982842D01*
X152306599Y-133982854D01*
X152275838Y-134137497D01*
X151337344Y-134137497D01*
X151343367Y-134107219D01*
X151349999Y-134073873D01*
X151350000Y-134073871D01*
X151350000Y-133926128D01*
X151349999Y-133926126D01*
X151321179Y-133781240D01*
X151321178Y-133781236D01*
X151277577Y-133675975D01*
X150953554Y-133999999D01*
X150700000Y-133999999D01*
X150700000Y-133980109D01*
X150684776Y-133943355D01*
X150656645Y-133915224D01*
X150619891Y-133900000D01*
X150580109Y-133900000D01*
X150543355Y-133915224D01*
X150515224Y-133943355D01*
X150500000Y-133980109D01*
X150226555Y-133980109D01*
X150100000Y-133853554D01*
X149953554Y-134000000D01*
X149700000Y-134000000D01*
X149700000Y-133980109D01*
X149684776Y-133943355D01*
X149656645Y-133915224D01*
X149619891Y-133900000D01*
X149580109Y-133900000D01*
X149543355Y-133915224D01*
X149515224Y-133943355D01*
X149500000Y-133980109D01*
X149226555Y-133980109D01*
X149100000Y-133853554D01*
X148953554Y-134000000D01*
X148700000Y-134000000D01*
X148700000Y-133980109D01*
X148684776Y-133943355D01*
X148656645Y-133915224D01*
X148619891Y-133900000D01*
X148580109Y-133900000D01*
X148543355Y-133915224D01*
X148515224Y-133943355D01*
X148500000Y-133980109D01*
X148226555Y-133980109D01*
X148100000Y-133853554D01*
X147953554Y-134000000D01*
X147700000Y-134000000D01*
X147700000Y-133980109D01*
X147684776Y-133943355D01*
X147656645Y-133915224D01*
X147619891Y-133900000D01*
X147580109Y-133900000D01*
X147543355Y-133915224D01*
X147515224Y-133943355D01*
X147500000Y-133980109D01*
X147226556Y-133980109D01*
X146922421Y-133675974D01*
X146922420Y-133675974D01*
X146878823Y-133781228D01*
X146878820Y-133781240D01*
X146850000Y-133926126D01*
X146346011Y-133926126D01*
X146338726Y-133915224D01*
X146274698Y-133819398D01*
X146274692Y-133819390D01*
X146180609Y-133725307D01*
X146180601Y-133725301D01*
X146069979Y-133651386D01*
X146069972Y-133651382D01*
X146069969Y-133651380D01*
X146069965Y-133651378D01*
X146069961Y-133651376D01*
X145947040Y-133600461D01*
X145947030Y-133600458D01*
X145816533Y-133574500D01*
X145816531Y-133574500D01*
X145683469Y-133574500D01*
X145683467Y-133574500D01*
X145552969Y-133600458D01*
X145552959Y-133600461D01*
X145430038Y-133651376D01*
X145430020Y-133651386D01*
X145319398Y-133725301D01*
X145319390Y-133725307D01*
X145225307Y-133819390D01*
X145225301Y-133819398D01*
X145151386Y-133930020D01*
X145151376Y-133930038D01*
X145100464Y-134052953D01*
X145100458Y-134052969D01*
X145074500Y-134183466D01*
X145074500Y-134183469D01*
X145074500Y-134316531D01*
X145074500Y-134316533D01*
X145074499Y-134316533D01*
X124100043Y-134316533D01*
X124149540Y-134197036D01*
X124158263Y-134153185D01*
X124175500Y-134066533D01*
X124175500Y-133933466D01*
X124149541Y-133802969D01*
X124149540Y-133802968D01*
X124149540Y-133802964D01*
X124098620Y-133680031D01*
X124095909Y-133675974D01*
X124024698Y-133569398D01*
X124024692Y-133569390D01*
X123930609Y-133475307D01*
X123930601Y-133475301D01*
X123819979Y-133401386D01*
X123819972Y-133401382D01*
X123819969Y-133401380D01*
X123819965Y-133401378D01*
X123819961Y-133401376D01*
X123697040Y-133350461D01*
X123697030Y-133350458D01*
X123566533Y-133324500D01*
X123566531Y-133324500D01*
X123433469Y-133324500D01*
X123433467Y-133324500D01*
X123302969Y-133350458D01*
X123302959Y-133350461D01*
X123180038Y-133401376D01*
X123180020Y-133401386D01*
X123069398Y-133475301D01*
X123069390Y-133475307D01*
X122975307Y-133569390D01*
X122975301Y-133569398D01*
X122901386Y-133680020D01*
X122901376Y-133680038D01*
X122850461Y-133802959D01*
X122850458Y-133802969D01*
X122824500Y-133933466D01*
X122824500Y-133933469D01*
X122824500Y-134066531D01*
X122824500Y-134066533D01*
X122824499Y-134066533D01*
X120500500Y-134066533D01*
X120500500Y-132671153D01*
X140699500Y-132671153D01*
X140699500Y-132828846D01*
X140730261Y-132983489D01*
X140730264Y-132983501D01*
X140790602Y-133129172D01*
X140790609Y-133129185D01*
X140878210Y-133260288D01*
X140878213Y-133260292D01*
X140989707Y-133371786D01*
X140989711Y-133371789D01*
X141120814Y-133459390D01*
X141120827Y-133459397D01*
X141235632Y-133506950D01*
X141266503Y-133519737D01*
X141421153Y-133550499D01*
X141421156Y-133550500D01*
X141421158Y-133550500D01*
X141578844Y-133550500D01*
X141578845Y-133550499D01*
X141733497Y-133519737D01*
X141781147Y-133500000D01*
X147453554Y-133500000D01*
X147600000Y-133646446D01*
X147746446Y-133500000D01*
X148453554Y-133500000D01*
X148600000Y-133646446D01*
X148746446Y-133500000D01*
X149453554Y-133500000D01*
X149600000Y-133646446D01*
X149746446Y-133500000D01*
X150453554Y-133500000D01*
X150600000Y-133646446D01*
X150746446Y-133500000D01*
X150600000Y-133353554D01*
X150453554Y-133500000D01*
X149746446Y-133500000D01*
X149600000Y-133353554D01*
X149453554Y-133500000D01*
X148746446Y-133500000D01*
X148600000Y-133353554D01*
X148453554Y-133500000D01*
X147746446Y-133500000D01*
X147600000Y-133353554D01*
X147453554Y-133500000D01*
X141781147Y-133500000D01*
X141879179Y-133459394D01*
X142010289Y-133371789D01*
X142121789Y-133260289D01*
X142209394Y-133129179D01*
X142212719Y-133121153D01*
X142252672Y-133024695D01*
X142269737Y-132983497D01*
X142300500Y-132828842D01*
X142300500Y-132671158D01*
X142300500Y-132671155D01*
X142300499Y-132671153D01*
X142282012Y-132578213D01*
X142279689Y-132566533D01*
X145574499Y-132566533D01*
X145600458Y-132697030D01*
X145600461Y-132697040D01*
X145651376Y-132819961D01*
X145651386Y-132819979D01*
X145725301Y-132930601D01*
X145725307Y-132930609D01*
X145819390Y-133024692D01*
X145819398Y-133024698D01*
X145930020Y-133098613D01*
X145930023Y-133098614D01*
X145930031Y-133098620D01*
X145930037Y-133098622D01*
X145930038Y-133098623D01*
X146003822Y-133129185D01*
X146052964Y-133149540D01*
X146052968Y-133149540D01*
X146052969Y-133149541D01*
X146183466Y-133175500D01*
X146183469Y-133175500D01*
X146316533Y-133175500D01*
X146404325Y-133158035D01*
X146447036Y-133149540D01*
X146569969Y-133098620D01*
X146667191Y-133033658D01*
X146733866Y-133012781D01*
X146801246Y-133031265D01*
X146847937Y-133083244D01*
X146857697Y-133112569D01*
X146878820Y-133218761D01*
X146878822Y-133218767D01*
X146922421Y-133324024D01*
X147266337Y-132980109D01*
X147500000Y-132980109D01*
X147500000Y-133019891D01*
X147515224Y-133056645D01*
X147543355Y-133084776D01*
X147580109Y-133100000D01*
X147619891Y-133100000D01*
X147656645Y-133084776D01*
X147684776Y-133056645D01*
X147700000Y-133019891D01*
X147700000Y-133000000D01*
X147953554Y-133000000D01*
X148100000Y-133146446D01*
X148246446Y-133000000D01*
X148226555Y-132980109D01*
X148500000Y-132980109D01*
X148500000Y-133019891D01*
X148515224Y-133056645D01*
X148543355Y-133084776D01*
X148580109Y-133100000D01*
X148619891Y-133100000D01*
X148656645Y-133084776D01*
X148684776Y-133056645D01*
X148700000Y-133019891D01*
X148700000Y-133000000D01*
X148953554Y-133000000D01*
X149100000Y-133146446D01*
X149246446Y-133000000D01*
X149226555Y-132980109D01*
X149500000Y-132980109D01*
X149500000Y-133019891D01*
X149515224Y-133056645D01*
X149543355Y-133084776D01*
X149580109Y-133100000D01*
X149619891Y-133100000D01*
X149656645Y-133084776D01*
X149684776Y-133056645D01*
X149700000Y-133019891D01*
X149700000Y-133000000D01*
X149953554Y-133000000D01*
X150100000Y-133146446D01*
X150246446Y-133000000D01*
X150226555Y-132980109D01*
X150500000Y-132980109D01*
X150500000Y-133019891D01*
X150515224Y-133056645D01*
X150543355Y-133084776D01*
X150580109Y-133100000D01*
X150619891Y-133100000D01*
X150656645Y-133084776D01*
X150684776Y-133056645D01*
X150700000Y-133019891D01*
X150700000Y-132980109D01*
X150684776Y-132943355D01*
X150656645Y-132915224D01*
X150619891Y-132900000D01*
X150580109Y-132900000D01*
X150543355Y-132915224D01*
X150515224Y-132943355D01*
X150500000Y-132980109D01*
X150226555Y-132980109D01*
X150100000Y-132853554D01*
X149953554Y-133000000D01*
X149700000Y-133000000D01*
X149700000Y-132980109D01*
X149684776Y-132943355D01*
X149656645Y-132915224D01*
X149619891Y-132900000D01*
X149580109Y-132900000D01*
X149543355Y-132915224D01*
X149515224Y-132943355D01*
X149500000Y-132980109D01*
X149226555Y-132980109D01*
X149100000Y-132853554D01*
X148953554Y-133000000D01*
X148700000Y-133000000D01*
X148700000Y-132980109D01*
X148684776Y-132943355D01*
X148656645Y-132915224D01*
X148619891Y-132900000D01*
X148580109Y-132900000D01*
X148543355Y-132915224D01*
X148515224Y-132943355D01*
X148500000Y-132980109D01*
X148226555Y-132980109D01*
X148100000Y-132853554D01*
X147953554Y-133000000D01*
X147700000Y-133000000D01*
X147700000Y-132980109D01*
X147684776Y-132943355D01*
X147656645Y-132915224D01*
X147619891Y-132900000D01*
X147580109Y-132900000D01*
X147543355Y-132915224D01*
X147515224Y-132943355D01*
X147500000Y-132980109D01*
X147266337Y-132980109D01*
X147385489Y-132860957D01*
X147924024Y-132322421D01*
X147924022Y-132322420D01*
X148275974Y-132322420D01*
X148275974Y-132322421D01*
X148600000Y-132646446D01*
X148600001Y-132646446D01*
X148924024Y-132322421D01*
X148924022Y-132322420D01*
X149275974Y-132322420D01*
X149275974Y-132322421D01*
X149600000Y-132646446D01*
X149600001Y-132646446D01*
X149924024Y-132322421D01*
X149924022Y-132322420D01*
X150275974Y-132322420D01*
X150275974Y-132322421D01*
X150776777Y-132823223D01*
X151277577Y-133324024D01*
X151290412Y-133321471D01*
X151310018Y-133297143D01*
X151376312Y-133275077D01*
X151404931Y-133277381D01*
X151521155Y-133300500D01*
X151521158Y-133300500D01*
X151678844Y-133300500D01*
X151678845Y-133300499D01*
X151833497Y-133269737D01*
X151979179Y-133209394D01*
X152110289Y-133121789D01*
X152110925Y-133121153D01*
X157674500Y-133121153D01*
X157674500Y-133278846D01*
X157705261Y-133433489D01*
X157705264Y-133433501D01*
X157765602Y-133579172D01*
X157765609Y-133579185D01*
X157853210Y-133710288D01*
X157853213Y-133710292D01*
X157964707Y-133821786D01*
X157964711Y-133821789D01*
X158095814Y-133909390D01*
X158095827Y-133909397D01*
X158236078Y-133967490D01*
X158241503Y-133969737D01*
X158379568Y-133997200D01*
X158396153Y-134000499D01*
X158396156Y-134000500D01*
X158396158Y-134000500D01*
X158553844Y-134000500D01*
X158680949Y-133975217D01*
X158680949Y-133975216D01*
X158708497Y-133969737D01*
X158854179Y-133909394D01*
X158985289Y-133821789D01*
X159096789Y-133710289D01*
X159184394Y-133579179D01*
X159193462Y-133557288D01*
X159227419Y-133475307D01*
X159244737Y-133433497D01*
X159275500Y-133278842D01*
X159275500Y-133121158D01*
X159275500Y-133121155D01*
X159275499Y-133121153D01*
X159256312Y-133024695D01*
X159244737Y-132966503D01*
X159235149Y-132943355D01*
X159184397Y-132820827D01*
X159184390Y-132820814D01*
X159096789Y-132689711D01*
X159096786Y-132689707D01*
X158985292Y-132578213D01*
X158985288Y-132578210D01*
X158854185Y-132490609D01*
X158854172Y-132490602D01*
X158708501Y-132430264D01*
X158708489Y-132430261D01*
X158553845Y-132399500D01*
X158553842Y-132399500D01*
X158396158Y-132399500D01*
X158396155Y-132399500D01*
X158241510Y-132430261D01*
X158241498Y-132430264D01*
X158095827Y-132490602D01*
X158095814Y-132490609D01*
X157964711Y-132578210D01*
X157964707Y-132578213D01*
X157853213Y-132689707D01*
X157853210Y-132689711D01*
X157765609Y-132820814D01*
X157765602Y-132820827D01*
X157705264Y-132966498D01*
X157705261Y-132966510D01*
X157674500Y-133121153D01*
X152110925Y-133121153D01*
X152148834Y-133083244D01*
X152204694Y-133027385D01*
X152221786Y-133010292D01*
X152221789Y-133010289D01*
X152309394Y-132879179D01*
X152369737Y-132733497D01*
X152400500Y-132578842D01*
X152400500Y-132421158D01*
X152400500Y-132421155D01*
X152400499Y-132421153D01*
X152380860Y-132322421D01*
X152369737Y-132266503D01*
X152358918Y-132240383D01*
X152309397Y-132120827D01*
X152309390Y-132120814D01*
X152221789Y-131989711D01*
X152221786Y-131989707D01*
X152110292Y-131878213D01*
X152110288Y-131878210D01*
X151979185Y-131790609D01*
X151979172Y-131790602D01*
X151833501Y-131730264D01*
X151833489Y-131730261D01*
X151678845Y-131699500D01*
X151678842Y-131699500D01*
X151521158Y-131699500D01*
X151521155Y-131699500D01*
X151366510Y-131730261D01*
X151366498Y-131730264D01*
X151220827Y-131790602D01*
X151220814Y-131790609D01*
X151089711Y-131878210D01*
X151089707Y-131878213D01*
X150978213Y-131989707D01*
X150978210Y-131989711D01*
X150890609Y-132120814D01*
X150890604Y-132120824D01*
X150863616Y-132185979D01*
X150819774Y-132240383D01*
X150753480Y-132262447D01*
X150724863Y-132260143D01*
X150673871Y-132250000D01*
X150526128Y-132250000D01*
X150381240Y-132278820D01*
X150381228Y-132278823D01*
X150275974Y-132322420D01*
X149924022Y-132322420D01*
X149818767Y-132278822D01*
X149818759Y-132278820D01*
X149673872Y-132250000D01*
X149526128Y-132250000D01*
X149381240Y-132278820D01*
X149381228Y-132278823D01*
X149275974Y-132322420D01*
X148924022Y-132322420D01*
X148818767Y-132278822D01*
X148818759Y-132278820D01*
X148673872Y-132250000D01*
X148526128Y-132250000D01*
X148381240Y-132278820D01*
X148381228Y-132278823D01*
X148275974Y-132322420D01*
X147924022Y-132322420D01*
X147818762Y-132278820D01*
X147813017Y-132277077D01*
X147754581Y-132238775D01*
X147726129Y-132174960D01*
X147736695Y-132105894D01*
X147761337Y-132070740D01*
X147821789Y-132010289D01*
X147909394Y-131879179D01*
X147969737Y-131733497D01*
X148000500Y-131578842D01*
X148000500Y-131421158D01*
X148000500Y-131421155D01*
X148000499Y-131421153D01*
X147980372Y-131319969D01*
X147969737Y-131266503D01*
X147956053Y-131233466D01*
X147909397Y-131120827D01*
X147909390Y-131120814D01*
X147873121Y-131066533D01*
X148824499Y-131066533D01*
X148850458Y-131197030D01*
X148850461Y-131197040D01*
X148901376Y-131319961D01*
X148901386Y-131319979D01*
X148975301Y-131430601D01*
X148975307Y-131430609D01*
X149069390Y-131524692D01*
X149069398Y-131524698D01*
X149180020Y-131598613D01*
X149180023Y-131598614D01*
X149180031Y-131598620D01*
X149180037Y-131598622D01*
X149180038Y-131598623D01*
X149265707Y-131634108D01*
X149302964Y-131649540D01*
X149302968Y-131649540D01*
X149302969Y-131649541D01*
X149433466Y-131675500D01*
X149572205Y-131675500D01*
X149639244Y-131695185D01*
X149670933Y-131726314D01*
X149671441Y-131725898D01*
X149675307Y-131730609D01*
X149769390Y-131824692D01*
X149769398Y-131824698D01*
X149880020Y-131898613D01*
X149880023Y-131898614D01*
X149880031Y-131898620D01*
X149880037Y-131898622D01*
X149880038Y-131898623D01*
X149886694Y-131901380D01*
X150002964Y-131949540D01*
X150002968Y-131949540D01*
X150002969Y-131949541D01*
X150133466Y-131975500D01*
X150133469Y-131975500D01*
X150266533Y-131975500D01*
X150354325Y-131958035D01*
X150397036Y-131949540D01*
X150519969Y-131898620D01*
X150630606Y-131824695D01*
X150724695Y-131730606D01*
X150798620Y-131619969D01*
X150849540Y-131497036D01*
X150858035Y-131454325D01*
X150875500Y-131366533D01*
X150875500Y-131233466D01*
X150849541Y-131102969D01*
X150849540Y-131102968D01*
X150849540Y-131102964D01*
X150834449Y-131066531D01*
X150798623Y-130980038D01*
X150798622Y-130980037D01*
X150798620Y-130980031D01*
X150791887Y-130969955D01*
X150724698Y-130869398D01*
X150724692Y-130869390D01*
X150630609Y-130775307D01*
X150630601Y-130775301D01*
X150519979Y-130701386D01*
X150519972Y-130701382D01*
X150519969Y-130701380D01*
X150519965Y-130701378D01*
X150519961Y-130701376D01*
X150397040Y-130650461D01*
X150397030Y-130650458D01*
X150266533Y-130624500D01*
X150266531Y-130624500D01*
X150133469Y-130624500D01*
X150127795Y-130624500D01*
X150060756Y-130604815D01*
X150029066Y-130573685D01*
X150028559Y-130574102D01*
X150024692Y-130569390D01*
X149930609Y-130475307D01*
X149930601Y-130475301D01*
X149819979Y-130401386D01*
X149819972Y-130401382D01*
X149819969Y-130401380D01*
X149819965Y-130401378D01*
X149819961Y-130401376D01*
X149697040Y-130350461D01*
X149697030Y-130350458D01*
X149566533Y-130324500D01*
X149566531Y-130324500D01*
X149433469Y-130324500D01*
X149433467Y-130324500D01*
X149302969Y-130350458D01*
X149302959Y-130350461D01*
X149180038Y-130401376D01*
X149180020Y-130401386D01*
X149069398Y-130475301D01*
X149069390Y-130475307D01*
X148975307Y-130569390D01*
X148975301Y-130569398D01*
X148901386Y-130680020D01*
X148901376Y-130680038D01*
X148850461Y-130802959D01*
X148850458Y-130802969D01*
X148824500Y-130933466D01*
X148824500Y-130933469D01*
X148824500Y-131066531D01*
X148824500Y-131066533D01*
X148824499Y-131066533D01*
X147873121Y-131066533D01*
X147826171Y-130996268D01*
X147826170Y-130996266D01*
X147821793Y-130989716D01*
X147821786Y-130989707D01*
X147710292Y-130878213D01*
X147710288Y-130878210D01*
X147579185Y-130790609D01*
X147579172Y-130790602D01*
X147433501Y-130730264D01*
X147433489Y-130730261D01*
X147278845Y-130699500D01*
X147278842Y-130699500D01*
X147121158Y-130699500D01*
X147121155Y-130699500D01*
X146966510Y-130730261D01*
X146966498Y-130730264D01*
X146820827Y-130790602D01*
X146820814Y-130790609D01*
X146689711Y-130878210D01*
X146689707Y-130878213D01*
X146578213Y-130989707D01*
X146578210Y-130989711D01*
X146490609Y-131120814D01*
X146490602Y-131120827D01*
X146430264Y-131266498D01*
X146430261Y-131266510D01*
X146399500Y-131421153D01*
X146399500Y-131421158D01*
X146399500Y-131578842D01*
X146399500Y-131578844D01*
X146399499Y-131578844D01*
X146418887Y-131676308D01*
X146412660Y-131745900D01*
X146369797Y-131801077D01*
X146303907Y-131824322D01*
X146297270Y-131824500D01*
X146183467Y-131824500D01*
X146052969Y-131850458D01*
X146052959Y-131850461D01*
X145930038Y-131901376D01*
X145930020Y-131901386D01*
X145819398Y-131975301D01*
X145819390Y-131975307D01*
X145725307Y-132069390D01*
X145725301Y-132069398D01*
X145651386Y-132180020D01*
X145651376Y-132180038D01*
X145600461Y-132302959D01*
X145600458Y-132302969D01*
X145574500Y-132433466D01*
X145574500Y-132433469D01*
X145574500Y-132566531D01*
X145574500Y-132566533D01*
X145574499Y-132566533D01*
X142279689Y-132566533D01*
X142269737Y-132516503D01*
X142221273Y-132399500D01*
X142209395Y-132370823D01*
X142209390Y-132370814D01*
X142121789Y-132239711D01*
X142121786Y-132239707D01*
X142010292Y-132128213D01*
X142010288Y-132128210D01*
X141879185Y-132040609D01*
X141879172Y-132040602D01*
X141733501Y-131980264D01*
X141733489Y-131980261D01*
X141578845Y-131949500D01*
X141578842Y-131949500D01*
X141421158Y-131949500D01*
X141421155Y-131949500D01*
X141266510Y-131980261D01*
X141266498Y-131980264D01*
X141120827Y-132040602D01*
X141120814Y-132040609D01*
X140989711Y-132128210D01*
X140989707Y-132128213D01*
X140878213Y-132239707D01*
X140878210Y-132239711D01*
X140790609Y-132370814D01*
X140790602Y-132370827D01*
X140730264Y-132516498D01*
X140730261Y-132516510D01*
X140699500Y-132671153D01*
X120500500Y-132671153D01*
X120500500Y-129516533D01*
X149356300Y-129516533D01*
X149382259Y-129647030D01*
X149382262Y-129647040D01*
X149433177Y-129769961D01*
X149433187Y-129769979D01*
X149507102Y-129880601D01*
X149507108Y-129880609D01*
X149601191Y-129974692D01*
X149601199Y-129974698D01*
X149711821Y-130048613D01*
X149711824Y-130048614D01*
X149711832Y-130048620D01*
X149834765Y-130099540D01*
X149834769Y-130099540D01*
X149834770Y-130099541D01*
X149965267Y-130125500D01*
X149965270Y-130125500D01*
X150098334Y-130125500D01*
X150186126Y-130108035D01*
X150228837Y-130099540D01*
X150351770Y-130048620D01*
X150462407Y-129974695D01*
X150556496Y-129880606D01*
X150630421Y-129769969D01*
X150681341Y-129647036D01*
X150707301Y-129516531D01*
X150707301Y-129383469D01*
X150707301Y-129383466D01*
X150681342Y-129252969D01*
X150681341Y-129252968D01*
X150681341Y-129252964D01*
X150630421Y-129130031D01*
X150609428Y-129098613D01*
X150556499Y-129019398D01*
X150556493Y-129019390D01*
X150462410Y-128925307D01*
X150462402Y-128925301D01*
X150351780Y-128851386D01*
X150351773Y-128851382D01*
X150351770Y-128851380D01*
X150351766Y-128851378D01*
X150351762Y-128851376D01*
X150228841Y-128800461D01*
X150228831Y-128800458D01*
X150098334Y-128774500D01*
X150098332Y-128774500D01*
X149965270Y-128774500D01*
X149965268Y-128774500D01*
X149834770Y-128800458D01*
X149834760Y-128800461D01*
X149711839Y-128851376D01*
X149711821Y-128851386D01*
X149601199Y-128925301D01*
X149601191Y-128925307D01*
X149507108Y-129019390D01*
X149507102Y-129019398D01*
X149433187Y-129130020D01*
X149433177Y-129130038D01*
X149382262Y-129252959D01*
X149382259Y-129252969D01*
X149356301Y-129383466D01*
X149356301Y-129383469D01*
X149356301Y-129516531D01*
X149356301Y-129516533D01*
X149356300Y-129516533D01*
X120500500Y-129516533D01*
X120500500Y-128566533D01*
X144324499Y-128566533D01*
X144350458Y-128697030D01*
X144350461Y-128697040D01*
X144401376Y-128819961D01*
X144401386Y-128819979D01*
X144475301Y-128930601D01*
X144475307Y-128930609D01*
X144569390Y-129024692D01*
X144569398Y-129024698D01*
X144680020Y-129098613D01*
X144680023Y-129098614D01*
X144680031Y-129098620D01*
X144680037Y-129098622D01*
X144680038Y-129098623D01*
X144802959Y-129149538D01*
X144802964Y-129149540D01*
X144802968Y-129149540D01*
X144802969Y-129149541D01*
X144933466Y-129175500D01*
X144933469Y-129175500D01*
X145066533Y-129175500D01*
X145154325Y-129158035D01*
X145197036Y-129149540D01*
X145319969Y-129098620D01*
X145430606Y-129024695D01*
X145524695Y-128930606D01*
X145598620Y-128819969D01*
X145649540Y-128697036D01*
X145675500Y-128566531D01*
X145675500Y-128433469D01*
X145675500Y-128433466D01*
X145649541Y-128302969D01*
X145649540Y-128302968D01*
X145649540Y-128302964D01*
X145598620Y-128180031D01*
X145598613Y-128180020D01*
X145551524Y-128109546D01*
X145551522Y-128109544D01*
X145524693Y-128069391D01*
X145430609Y-127975307D01*
X145430601Y-127975301D01*
X145319979Y-127901386D01*
X145319972Y-127901382D01*
X145319969Y-127901380D01*
X145319965Y-127901378D01*
X145319961Y-127901376D01*
X145197040Y-127850461D01*
X145197030Y-127850458D01*
X145066533Y-127824500D01*
X145066531Y-127824500D01*
X144933469Y-127824500D01*
X144933467Y-127824500D01*
X144802969Y-127850458D01*
X144802959Y-127850461D01*
X144680038Y-127901376D01*
X144680020Y-127901386D01*
X144569398Y-127975301D01*
X144569390Y-127975307D01*
X144475307Y-128069390D01*
X144475301Y-128069398D01*
X144401386Y-128180020D01*
X144401376Y-128180038D01*
X144350461Y-128302959D01*
X144350458Y-128302969D01*
X144324500Y-128433466D01*
X144324500Y-128433469D01*
X144324500Y-128566531D01*
X144324500Y-128566533D01*
X144324499Y-128566533D01*
X120500500Y-128566533D01*
X120500500Y-126796866D01*
X158262500Y-126796866D01*
X158262500Y-127023133D01*
X158297895Y-127246611D01*
X158367818Y-127461810D01*
X158470542Y-127663418D01*
X158522084Y-127734359D01*
X158522085Y-127734360D01*
X159118092Y-127138353D01*
X159146132Y-127206048D01*
X159214531Y-127308414D01*
X159301586Y-127395469D01*
X159403952Y-127463868D01*
X159471645Y-127491907D01*
X158875638Y-128087913D01*
X158946585Y-128139459D01*
X159148189Y-128242181D01*
X159363388Y-128312104D01*
X159363387Y-128312104D01*
X159586867Y-128347500D01*
X159813133Y-128347500D01*
X160036611Y-128312104D01*
X160251810Y-128242181D01*
X160453406Y-128139463D01*
X160453412Y-128139459D01*
X160524359Y-128087913D01*
X160524360Y-128087913D01*
X159928353Y-127491907D01*
X159996048Y-127463868D01*
X160098414Y-127395469D01*
X160185469Y-127308414D01*
X160253868Y-127206048D01*
X160281907Y-127138353D01*
X160877913Y-127734360D01*
X160877913Y-127734359D01*
X160929459Y-127663412D01*
X160929463Y-127663406D01*
X161032181Y-127461810D01*
X161102104Y-127246611D01*
X161137500Y-127023133D01*
X161137500Y-126796866D01*
X161102104Y-126573388D01*
X161032181Y-126358189D01*
X160929459Y-126156585D01*
X160877913Y-126085639D01*
X160877913Y-126085638D01*
X160281907Y-126681645D01*
X160253868Y-126613952D01*
X160185469Y-126511586D01*
X160098414Y-126424531D01*
X159996048Y-126356132D01*
X159928353Y-126328092D01*
X160524360Y-125732085D01*
X160524359Y-125732084D01*
X160453418Y-125680542D01*
X160251810Y-125577818D01*
X160036611Y-125507895D01*
X160036612Y-125507895D01*
X159813133Y-125472500D01*
X159586867Y-125472500D01*
X159363388Y-125507895D01*
X159148189Y-125577818D01*
X158946587Y-125680539D01*
X158875639Y-125732085D01*
X159471646Y-126328092D01*
X159403952Y-126356132D01*
X159301586Y-126424531D01*
X159214531Y-126511586D01*
X159146132Y-126613952D01*
X159118092Y-126681646D01*
X158522085Y-126085639D01*
X158470539Y-126156587D01*
X158367818Y-126358189D01*
X158297895Y-126573388D01*
X158262500Y-126796866D01*
X120500500Y-126796866D01*
X120500500Y-124466533D01*
X138824499Y-124466533D01*
X138850458Y-124597030D01*
X138850461Y-124597040D01*
X138901376Y-124719961D01*
X138901386Y-124719979D01*
X138975301Y-124830601D01*
X138975307Y-124830609D01*
X139069390Y-124924692D01*
X139069398Y-124924698D01*
X139180020Y-124998613D01*
X139180023Y-124998614D01*
X139180031Y-124998620D01*
X139302964Y-125049540D01*
X139302968Y-125049540D01*
X139302969Y-125049541D01*
X139433466Y-125075500D01*
X139433469Y-125075500D01*
X139566533Y-125075500D01*
X139654325Y-125058035D01*
X139697036Y-125049540D01*
X139819969Y-124998620D01*
X139930606Y-124924695D01*
X140024695Y-124830606D01*
X140098620Y-124719969D01*
X140149540Y-124597036D01*
X140158035Y-124554325D01*
X140175500Y-124466533D01*
X140175500Y-124333466D01*
X140149541Y-124202969D01*
X140149540Y-124202968D01*
X140149540Y-124202964D01*
X140104812Y-124094979D01*
X140098623Y-124080038D01*
X140098622Y-124080037D01*
X140098620Y-124080031D01*
X140043169Y-123997043D01*
X140024698Y-123969398D01*
X140024692Y-123969390D01*
X139930609Y-123875307D01*
X139930601Y-123875301D01*
X139819979Y-123801386D01*
X139819972Y-123801382D01*
X139819969Y-123801380D01*
X139819965Y-123801378D01*
X139819961Y-123801376D01*
X139697040Y-123750461D01*
X139697030Y-123750458D01*
X139566533Y-123724500D01*
X139566531Y-123724500D01*
X139433469Y-123724500D01*
X139433467Y-123724500D01*
X139302969Y-123750458D01*
X139302959Y-123750461D01*
X139180038Y-123801376D01*
X139180020Y-123801386D01*
X139069398Y-123875301D01*
X139069390Y-123875307D01*
X138975307Y-123969390D01*
X138975301Y-123969398D01*
X138901386Y-124080020D01*
X138901376Y-124080038D01*
X138850461Y-124202959D01*
X138850458Y-124202969D01*
X138824500Y-124333466D01*
X138824500Y-124333469D01*
X138824500Y-124466531D01*
X138824500Y-124466533D01*
X138824499Y-124466533D01*
X120500500Y-124466533D01*
X120500500Y-123291533D01*
X145345568Y-123291533D01*
X145371527Y-123422029D01*
X145371528Y-123422032D01*
X145371529Y-123422036D01*
X145381885Y-123447038D01*
X145384168Y-123452549D01*
X145391635Y-123522019D01*
X145384168Y-123547451D01*
X145371528Y-123577967D01*
X145371527Y-123577970D01*
X145345569Y-123708466D01*
X145345569Y-123708469D01*
X145345569Y-123841531D01*
X145345569Y-123841533D01*
X145345568Y-123841533D01*
X145371527Y-123972030D01*
X145371530Y-123972040D01*
X145422445Y-124094961D01*
X145422455Y-124094979D01*
X145496370Y-124205601D01*
X145496376Y-124205609D01*
X145590459Y-124299692D01*
X145590467Y-124299698D01*
X145701089Y-124373613D01*
X145701092Y-124373614D01*
X145701100Y-124373620D01*
X145824033Y-124424540D01*
X145824037Y-124424540D01*
X145824038Y-124424541D01*
X145954535Y-124450500D01*
X145954538Y-124450500D01*
X146087602Y-124450500D01*
X146175394Y-124433035D01*
X146218105Y-124424540D01*
X146341038Y-124373620D01*
X146451675Y-124299695D01*
X146545764Y-124205606D01*
X146619689Y-124094969D01*
X146670609Y-123972036D01*
X146679104Y-123929325D01*
X146696569Y-123841533D01*
X146696569Y-123708466D01*
X146670610Y-123577969D01*
X146670609Y-123577965D01*
X146668325Y-123572450D01*
X146657970Y-123547452D01*
X146650501Y-123477986D01*
X146657970Y-123452549D01*
X146670609Y-123422036D01*
X146691596Y-123316533D01*
X153074499Y-123316533D01*
X153100458Y-123447030D01*
X153100460Y-123447035D01*
X153113099Y-123477550D01*
X153120566Y-123547020D01*
X153113100Y-123572450D01*
X153100459Y-123602970D01*
X153100458Y-123602973D01*
X153074500Y-123733469D01*
X153074500Y-123733472D01*
X153074500Y-123866534D01*
X153074500Y-123866536D01*
X153074499Y-123866536D01*
X153100458Y-123997033D01*
X153100461Y-123997043D01*
X153151376Y-124119964D01*
X153151386Y-124119982D01*
X153225301Y-124230604D01*
X153225307Y-124230612D01*
X153319390Y-124324695D01*
X153319398Y-124324701D01*
X153430020Y-124398616D01*
X153430023Y-124398617D01*
X153430031Y-124398623D01*
X153552964Y-124449543D01*
X153552968Y-124449543D01*
X153552969Y-124449544D01*
X153683466Y-124475503D01*
X153683469Y-124475503D01*
X153816533Y-124475503D01*
X153904325Y-124458038D01*
X153947036Y-124449543D01*
X154069969Y-124398623D01*
X154180606Y-124324698D01*
X154274695Y-124230609D01*
X154348620Y-124119972D01*
X154399540Y-123997039D01*
X154423755Y-123875307D01*
X154425500Y-123866536D01*
X154425500Y-123733469D01*
X154399541Y-123602972D01*
X154399539Y-123602964D01*
X154386901Y-123572453D01*
X154379432Y-123502984D01*
X154386902Y-123477546D01*
X154399539Y-123447038D01*
X154399541Y-123447031D01*
X154425500Y-123316533D01*
X154425500Y-123183466D01*
X154399541Y-123052969D01*
X154399540Y-123052968D01*
X154399540Y-123052964D01*
X154348620Y-122930031D01*
X154331920Y-122905038D01*
X154274698Y-122819398D01*
X154274692Y-122819390D01*
X154180609Y-122725307D01*
X154180601Y-122725301D01*
X154069979Y-122651386D01*
X154069972Y-122651382D01*
X154069969Y-122651380D01*
X154069965Y-122651378D01*
X154069961Y-122651376D01*
X153947040Y-122600461D01*
X153947030Y-122600458D01*
X153816533Y-122574500D01*
X153816531Y-122574500D01*
X153683469Y-122574500D01*
X153683467Y-122574500D01*
X153552969Y-122600458D01*
X153552959Y-122600461D01*
X153430038Y-122651376D01*
X153430020Y-122651386D01*
X153319398Y-122725301D01*
X153319390Y-122725307D01*
X153225307Y-122819390D01*
X153225301Y-122819398D01*
X153151386Y-122930020D01*
X153151376Y-122930038D01*
X153100461Y-123052959D01*
X153100458Y-123052969D01*
X153074500Y-123183466D01*
X153074500Y-123183469D01*
X153074500Y-123316531D01*
X153074500Y-123316533D01*
X153074499Y-123316533D01*
X146691596Y-123316533D01*
X146696569Y-123291531D01*
X146696569Y-123158469D01*
X146696569Y-123158466D01*
X146670610Y-123027969D01*
X146670609Y-123027968D01*
X146670609Y-123027964D01*
X146619689Y-122905031D01*
X146562468Y-122819394D01*
X146545767Y-122794398D01*
X146545761Y-122794390D01*
X146451678Y-122700307D01*
X146451670Y-122700301D01*
X146341048Y-122626386D01*
X146341041Y-122626382D01*
X146341038Y-122626380D01*
X146341034Y-122626378D01*
X146341030Y-122626376D01*
X146218109Y-122575461D01*
X146218099Y-122575458D01*
X146087602Y-122549500D01*
X146087600Y-122549500D01*
X145954538Y-122549500D01*
X145954536Y-122549500D01*
X145824038Y-122575458D01*
X145824028Y-122575461D01*
X145701107Y-122626376D01*
X145701089Y-122626386D01*
X145590467Y-122700301D01*
X145590459Y-122700307D01*
X145496376Y-122794390D01*
X145496370Y-122794398D01*
X145422455Y-122905020D01*
X145422445Y-122905038D01*
X145371530Y-123027959D01*
X145371527Y-123027969D01*
X145345569Y-123158466D01*
X145345569Y-123158469D01*
X145345569Y-123291531D01*
X145345569Y-123291533D01*
X145345568Y-123291533D01*
X120500500Y-123291533D01*
X120500500Y-121171153D01*
X135699500Y-121171153D01*
X135699500Y-121328846D01*
X135730261Y-121483489D01*
X135730264Y-121483501D01*
X135790602Y-121629172D01*
X135790609Y-121629185D01*
X135878210Y-121760288D01*
X135878213Y-121760292D01*
X135989707Y-121871786D01*
X135989711Y-121871789D01*
X136120814Y-121959390D01*
X136120827Y-121959397D01*
X136266498Y-122019735D01*
X136266503Y-122019737D01*
X136421153Y-122050499D01*
X136421156Y-122050500D01*
X136421158Y-122050500D01*
X136578844Y-122050500D01*
X136578845Y-122050499D01*
X136733497Y-122019737D01*
X136879179Y-121959394D01*
X137010289Y-121871789D01*
X137121789Y-121760289D01*
X137209394Y-121629179D01*
X137269737Y-121483497D01*
X137300500Y-121328842D01*
X137300500Y-121171158D01*
X137300500Y-121171155D01*
X137300499Y-121171153D01*
X137270788Y-121021789D01*
X137269737Y-121016503D01*
X137229542Y-120919463D01*
X137209397Y-120870827D01*
X137209390Y-120870814D01*
X137121789Y-120739711D01*
X137121786Y-120739707D01*
X137010292Y-120628213D01*
X137010288Y-120628210D01*
X136879185Y-120540609D01*
X136879172Y-120540602D01*
X136733501Y-120480264D01*
X136733489Y-120480261D01*
X136578845Y-120449500D01*
X136578842Y-120449500D01*
X136421158Y-120449500D01*
X136421155Y-120449500D01*
X136266510Y-120480261D01*
X136266498Y-120480264D01*
X136120827Y-120540602D01*
X136120814Y-120540609D01*
X135989711Y-120628210D01*
X135989707Y-120628213D01*
X135878213Y-120739707D01*
X135878210Y-120739711D01*
X135790609Y-120870814D01*
X135790602Y-120870827D01*
X135730264Y-121016498D01*
X135730261Y-121016510D01*
X135699500Y-121171153D01*
X120500500Y-121171153D01*
X120500500Y-120321153D01*
X148899500Y-120321153D01*
X148899500Y-120478846D01*
X148930261Y-120633489D01*
X148930264Y-120633501D01*
X148990602Y-120779172D01*
X148990609Y-120779185D01*
X149078210Y-120910288D01*
X149078213Y-120910292D01*
X149189707Y-121021786D01*
X149189711Y-121021789D01*
X149320814Y-121109390D01*
X149320827Y-121109397D01*
X149466498Y-121169735D01*
X149466503Y-121169737D01*
X149621153Y-121200499D01*
X149621156Y-121200500D01*
X149621158Y-121200500D01*
X149778844Y-121200500D01*
X149778845Y-121200499D01*
X149933497Y-121169737D01*
X150079179Y-121109394D01*
X150210289Y-121021789D01*
X150321789Y-120910289D01*
X150409394Y-120779179D01*
X150469737Y-120633497D01*
X150500500Y-120478842D01*
X150500500Y-120321158D01*
X150500500Y-120321155D01*
X150500499Y-120321153D01*
X150485126Y-120243868D01*
X150469737Y-120166503D01*
X150437392Y-120088414D01*
X150409397Y-120020827D01*
X150409390Y-120020814D01*
X150321789Y-119889711D01*
X150321786Y-119889707D01*
X150210292Y-119778213D01*
X150210288Y-119778210D01*
X150079185Y-119690609D01*
X150079178Y-119690605D01*
X150069401Y-119686556D01*
X150069399Y-119686554D01*
X149933501Y-119630264D01*
X149933489Y-119630261D01*
X149778845Y-119599500D01*
X149778842Y-119599500D01*
X149621158Y-119599500D01*
X149621155Y-119599500D01*
X149466510Y-119630261D01*
X149466498Y-119630264D01*
X149320827Y-119690602D01*
X149320814Y-119690609D01*
X149189711Y-119778210D01*
X149189707Y-119778213D01*
X149078213Y-119889707D01*
X149078210Y-119889711D01*
X148990609Y-120020814D01*
X148990602Y-120020827D01*
X148930264Y-120166498D01*
X148930261Y-120166510D01*
X148899500Y-120321153D01*
X120500500Y-120321153D01*
X120500500Y-119410825D01*
X140092432Y-119410825D01*
X140118391Y-119541322D01*
X140118394Y-119541332D01*
X140169309Y-119664253D01*
X140169319Y-119664271D01*
X140243234Y-119774893D01*
X140243240Y-119774901D01*
X140337323Y-119868984D01*
X140337331Y-119868990D01*
X140447953Y-119942905D01*
X140447956Y-119942906D01*
X140447964Y-119942912D01*
X140447970Y-119942914D01*
X140447971Y-119942915D01*
X140570892Y-119993830D01*
X140570897Y-119993832D01*
X140570901Y-119993832D01*
X140570902Y-119993833D01*
X140701399Y-120019792D01*
X140701402Y-120019792D01*
X140834466Y-120019792D01*
X140922258Y-120002327D01*
X140964969Y-119993832D01*
X141087902Y-119942912D01*
X141198539Y-119868987D01*
X141292628Y-119774898D01*
X141366553Y-119664261D01*
X141402753Y-119576866D01*
X158262500Y-119576866D01*
X158262500Y-119803133D01*
X158297895Y-120026611D01*
X158367818Y-120241810D01*
X158470542Y-120443418D01*
X158522084Y-120514359D01*
X158522085Y-120514360D01*
X159118092Y-119918353D01*
X159146132Y-119986048D01*
X159214531Y-120088414D01*
X159301586Y-120175469D01*
X159403952Y-120243868D01*
X159471645Y-120271907D01*
X158875638Y-120867913D01*
X158946585Y-120919459D01*
X159148189Y-121022181D01*
X159363388Y-121092104D01*
X159363387Y-121092104D01*
X159586867Y-121127500D01*
X159813133Y-121127500D01*
X160036611Y-121092104D01*
X160251810Y-121022181D01*
X160453406Y-120919463D01*
X160453412Y-120919459D01*
X160524359Y-120867913D01*
X160524360Y-120867913D01*
X159928353Y-120271907D01*
X159996048Y-120243868D01*
X160098414Y-120175469D01*
X160185469Y-120088414D01*
X160253868Y-119986048D01*
X160281907Y-119918353D01*
X160877913Y-120514360D01*
X160877913Y-120514359D01*
X160929459Y-120443412D01*
X160929463Y-120443406D01*
X161032181Y-120241810D01*
X161102104Y-120026611D01*
X161137500Y-119803133D01*
X161137500Y-119576866D01*
X161102104Y-119353388D01*
X161032181Y-119138189D01*
X160929459Y-118936585D01*
X160877913Y-118865639D01*
X160877913Y-118865638D01*
X160281907Y-119461645D01*
X160253868Y-119393952D01*
X160185469Y-119291586D01*
X160098414Y-119204531D01*
X159996048Y-119136132D01*
X159928353Y-119108092D01*
X160524360Y-118512085D01*
X160524359Y-118512084D01*
X160453418Y-118460542D01*
X160251810Y-118357818D01*
X160036611Y-118287895D01*
X160036612Y-118287895D01*
X159813133Y-118252500D01*
X159586867Y-118252500D01*
X159363388Y-118287895D01*
X159148189Y-118357818D01*
X158946587Y-118460539D01*
X158875639Y-118512085D01*
X159471646Y-119108092D01*
X159403952Y-119136132D01*
X159301586Y-119204531D01*
X159214531Y-119291586D01*
X159146132Y-119393952D01*
X159118092Y-119461646D01*
X158522085Y-118865639D01*
X158470539Y-118936587D01*
X158367818Y-119138189D01*
X158297895Y-119353388D01*
X158262500Y-119576866D01*
X141402753Y-119576866D01*
X141417473Y-119541328D01*
X141443433Y-119410823D01*
X141443433Y-119277761D01*
X141443433Y-119277758D01*
X141417474Y-119147261D01*
X141417473Y-119147260D01*
X141417473Y-119147256D01*
X141412865Y-119136132D01*
X141366556Y-119024330D01*
X141366555Y-119024329D01*
X141366553Y-119024323D01*
X141364772Y-119021658D01*
X141292631Y-118913690D01*
X141292625Y-118913682D01*
X141198542Y-118819599D01*
X141198534Y-118819593D01*
X141087912Y-118745678D01*
X141087905Y-118745674D01*
X141087902Y-118745672D01*
X141087898Y-118745670D01*
X141087894Y-118745668D01*
X140964973Y-118694753D01*
X140964963Y-118694750D01*
X140834466Y-118668792D01*
X140834464Y-118668792D01*
X140701402Y-118668792D01*
X140701400Y-118668792D01*
X140570902Y-118694750D01*
X140570892Y-118694753D01*
X140447971Y-118745668D01*
X140447953Y-118745678D01*
X140337331Y-118819593D01*
X140337323Y-118819599D01*
X140243240Y-118913682D01*
X140243234Y-118913690D01*
X140169319Y-119024312D01*
X140169309Y-119024330D01*
X140118394Y-119147251D01*
X140118391Y-119147261D01*
X140092433Y-119277758D01*
X140092433Y-119277761D01*
X140092433Y-119410823D01*
X140092433Y-119410825D01*
X140092432Y-119410825D01*
X120500500Y-119410825D01*
X120500500Y-118373920D01*
X137949499Y-118373920D01*
X137978340Y-118518907D01*
X137978343Y-118518917D01*
X138034912Y-118655488D01*
X138034919Y-118655501D01*
X138117048Y-118778415D01*
X138117051Y-118778419D01*
X138221580Y-118882948D01*
X138221584Y-118882951D01*
X138344498Y-118965080D01*
X138344511Y-118965087D01*
X138481082Y-119021656D01*
X138481087Y-119021658D01*
X138481091Y-119021658D01*
X138481092Y-119021659D01*
X138626079Y-119050500D01*
X138626082Y-119050500D01*
X138773920Y-119050500D01*
X138905515Y-119024323D01*
X138918913Y-119021658D01*
X139055495Y-118965084D01*
X139178416Y-118882951D01*
X139282951Y-118778416D01*
X139365084Y-118655495D01*
X139421658Y-118518913D01*
X139444838Y-118402384D01*
X139450500Y-118373920D01*
X139450500Y-118291428D01*
X139470185Y-118224389D01*
X139522989Y-118178634D01*
X139527048Y-118176867D01*
X139555488Y-118165087D01*
X139555488Y-118165086D01*
X139555495Y-118165084D01*
X139678416Y-118082951D01*
X139782951Y-117978416D01*
X139865084Y-117855495D01*
X139921658Y-117718913D01*
X139931096Y-117671462D01*
X139950500Y-117573920D01*
X139950500Y-117426078D01*
X139950249Y-117423531D01*
X139950500Y-117422207D01*
X139950500Y-117419990D01*
X139950920Y-117419990D01*
X139963265Y-117354885D01*
X140011328Y-117304173D01*
X140079178Y-117287496D01*
X140121102Y-117296811D01*
X140181087Y-117321658D01*
X140181091Y-117321658D01*
X140181092Y-117321659D01*
X140326079Y-117350500D01*
X140326082Y-117350500D01*
X140473920Y-117350500D01*
X140547410Y-117335881D01*
X140618913Y-117321658D01*
X140618927Y-117321651D01*
X140620090Y-117321300D01*
X140620744Y-117321294D01*
X140624887Y-117320470D01*
X140625043Y-117321255D01*
X140689957Y-117320669D01*
X140749074Y-117357911D01*
X140776412Y-117413129D01*
X140776573Y-117413081D01*
X140776865Y-117414045D01*
X140777714Y-117415759D01*
X140778340Y-117418906D01*
X140778343Y-117418917D01*
X140834912Y-117555488D01*
X140834919Y-117555501D01*
X140917048Y-117678415D01*
X140917051Y-117678419D01*
X141021583Y-117782951D01*
X141105533Y-117839044D01*
X141150338Y-117892656D01*
X141158259Y-117917954D01*
X141178340Y-118018907D01*
X141178343Y-118018917D01*
X141234912Y-118155488D01*
X141234919Y-118155501D01*
X141317048Y-118278415D01*
X141317051Y-118278419D01*
X141421580Y-118382948D01*
X141421584Y-118382951D01*
X141544498Y-118465080D01*
X141544511Y-118465087D01*
X141681082Y-118521656D01*
X141681087Y-118521658D01*
X141681091Y-118521658D01*
X141681092Y-118521659D01*
X141826079Y-118550500D01*
X141826082Y-118550500D01*
X141973920Y-118550500D01*
X142071462Y-118531096D01*
X142118913Y-118521658D01*
X142255495Y-118465084D01*
X142378416Y-118382951D01*
X142403549Y-118357818D01*
X142437819Y-118323549D01*
X142499142Y-118290064D01*
X142568834Y-118295048D01*
X142624767Y-118336920D01*
X142649184Y-118402384D01*
X142649500Y-118411230D01*
X142649500Y-118473918D01*
X142649500Y-118473920D01*
X142649499Y-118473920D01*
X142678340Y-118618907D01*
X142678343Y-118618917D01*
X142734912Y-118755488D01*
X142734919Y-118755501D01*
X142817048Y-118878415D01*
X142817051Y-118878419D01*
X142921580Y-118982948D01*
X142921584Y-118982951D01*
X143044498Y-119065080D01*
X143044511Y-119065087D01*
X143102289Y-119089019D01*
X143181087Y-119121658D01*
X143181091Y-119121658D01*
X143181092Y-119121659D01*
X143326079Y-119150500D01*
X143326082Y-119150500D01*
X143473920Y-119150500D01*
X143571462Y-119131096D01*
X143618913Y-119121658D01*
X143755495Y-119065084D01*
X143878416Y-118982951D01*
X143982951Y-118878416D01*
X144065084Y-118755495D01*
X144069155Y-118745668D01*
X144090244Y-118694753D01*
X144121658Y-118618913D01*
X144141004Y-118521659D01*
X144150500Y-118473920D01*
X144150500Y-118326079D01*
X144121659Y-118181092D01*
X144121658Y-118181091D01*
X144121658Y-118181087D01*
X144115029Y-118165084D01*
X144065087Y-118044511D01*
X144065080Y-118044498D01*
X143982951Y-117921584D01*
X143982948Y-117921580D01*
X143878419Y-117817051D01*
X143878415Y-117817048D01*
X143755501Y-117734919D01*
X143755488Y-117734912D01*
X143618917Y-117678343D01*
X143618907Y-117678340D01*
X143473920Y-117649500D01*
X143473918Y-117649500D01*
X143326082Y-117649500D01*
X143326080Y-117649500D01*
X143181092Y-117678340D01*
X143181082Y-117678343D01*
X143044511Y-117734912D01*
X143044498Y-117734919D01*
X142921584Y-117817048D01*
X142921580Y-117817051D01*
X142862181Y-117876451D01*
X142800858Y-117909936D01*
X142731166Y-117904952D01*
X142675233Y-117863080D01*
X142650816Y-117797616D01*
X142650500Y-117788770D01*
X142650500Y-117726079D01*
X142621659Y-117581092D01*
X142621658Y-117581091D01*
X142621658Y-117581087D01*
X142611060Y-117555501D01*
X142565087Y-117444511D01*
X142565080Y-117444498D01*
X142482951Y-117321584D01*
X142482948Y-117321580D01*
X142378419Y-117217051D01*
X142378415Y-117217048D01*
X142294466Y-117160955D01*
X142249661Y-117107343D01*
X142241740Y-117082044D01*
X142221658Y-116981087D01*
X142221656Y-116981082D01*
X142165087Y-116844511D01*
X142165080Y-116844498D01*
X142082951Y-116721584D01*
X142082948Y-116721580D01*
X141978419Y-116617051D01*
X141978415Y-116617048D01*
X141855501Y-116534919D01*
X141855488Y-116534912D01*
X141718917Y-116478343D01*
X141718907Y-116478340D01*
X141573920Y-116449500D01*
X141573918Y-116449500D01*
X141426082Y-116449500D01*
X141426080Y-116449500D01*
X141281087Y-116478341D01*
X141279889Y-116478705D01*
X141279231Y-116478710D01*
X141275113Y-116479530D01*
X141274957Y-116478748D01*
X141210022Y-116479324D01*
X141150911Y-116442072D01*
X141123589Y-116386869D01*
X141123427Y-116386919D01*
X141123131Y-116385943D01*
X141122283Y-116384230D01*
X141121658Y-116381088D01*
X141121656Y-116381082D01*
X141065087Y-116244511D01*
X141065080Y-116244498D01*
X140982951Y-116121584D01*
X140982948Y-116121580D01*
X140878419Y-116017051D01*
X140878416Y-116017049D01*
X140755501Y-115934919D01*
X140755488Y-115934912D01*
X140722271Y-115921153D01*
X148499500Y-115921153D01*
X148499500Y-116078846D01*
X148530261Y-116233489D01*
X148530264Y-116233501D01*
X148590602Y-116379172D01*
X148590609Y-116379185D01*
X148678210Y-116510288D01*
X148678213Y-116510292D01*
X148789707Y-116621786D01*
X148789711Y-116621789D01*
X148920814Y-116709390D01*
X148920827Y-116709397D01*
X149007086Y-116745126D01*
X149066503Y-116769737D01*
X149197696Y-116795833D01*
X149221153Y-116800499D01*
X149221156Y-116800500D01*
X149221158Y-116800500D01*
X149378844Y-116800500D01*
X149378845Y-116800499D01*
X149533497Y-116769737D01*
X149679179Y-116709394D01*
X149810289Y-116621789D01*
X149921789Y-116510289D01*
X150009394Y-116379179D01*
X150069737Y-116233497D01*
X150100500Y-116078842D01*
X150100500Y-115921158D01*
X150100500Y-115921155D01*
X150100499Y-115921153D01*
X150069737Y-115766503D01*
X150069735Y-115766498D01*
X150009397Y-115620827D01*
X150009390Y-115620814D01*
X149921789Y-115489711D01*
X149921786Y-115489707D01*
X149810292Y-115378213D01*
X149810288Y-115378210D01*
X149679185Y-115290609D01*
X149679172Y-115290602D01*
X149533501Y-115230264D01*
X149533489Y-115230261D01*
X149378845Y-115199500D01*
X149378842Y-115199500D01*
X149221158Y-115199500D01*
X149221155Y-115199500D01*
X149066510Y-115230261D01*
X149066498Y-115230264D01*
X148920827Y-115290602D01*
X148920814Y-115290609D01*
X148789711Y-115378210D01*
X148789707Y-115378213D01*
X148678213Y-115489707D01*
X148678210Y-115489711D01*
X148590609Y-115620814D01*
X148590602Y-115620827D01*
X148530264Y-115766498D01*
X148530261Y-115766510D01*
X148499500Y-115921153D01*
X140722271Y-115921153D01*
X140618917Y-115878343D01*
X140618907Y-115878340D01*
X140473920Y-115849500D01*
X140473918Y-115849500D01*
X140326082Y-115849500D01*
X140326080Y-115849500D01*
X140181092Y-115878340D01*
X140181082Y-115878343D01*
X140044511Y-115934912D01*
X140044498Y-115934919D01*
X139921584Y-116017048D01*
X139921580Y-116017051D01*
X139817051Y-116121580D01*
X139817048Y-116121584D01*
X139734919Y-116244498D01*
X139734912Y-116244511D01*
X139678343Y-116381082D01*
X139678340Y-116381092D01*
X139649500Y-116526079D01*
X139649500Y-116673919D01*
X139649752Y-116676480D01*
X139649500Y-116677808D01*
X139649500Y-116680010D01*
X139649082Y-116680010D01*
X139636728Y-116745126D01*
X139588660Y-116795833D01*
X139520808Y-116812502D01*
X139478896Y-116803187D01*
X139418917Y-116778343D01*
X139418907Y-116778340D01*
X139273920Y-116749500D01*
X139273918Y-116749500D01*
X139126082Y-116749500D01*
X139126080Y-116749500D01*
X138981092Y-116778340D01*
X138981082Y-116778343D01*
X138844511Y-116834912D01*
X138844498Y-116834919D01*
X138721584Y-116917048D01*
X138721580Y-116917051D01*
X138617051Y-117021580D01*
X138617048Y-117021584D01*
X138534919Y-117144498D01*
X138534912Y-117144511D01*
X138478343Y-117281082D01*
X138478340Y-117281092D01*
X138449500Y-117426079D01*
X138449500Y-117508571D01*
X138429815Y-117575610D01*
X138377011Y-117621365D01*
X138372953Y-117623132D01*
X138344508Y-117634914D01*
X138344498Y-117634919D01*
X138221584Y-117717048D01*
X138221580Y-117717051D01*
X138117051Y-117821580D01*
X138117048Y-117821584D01*
X138034919Y-117944498D01*
X138034912Y-117944511D01*
X137978343Y-118081082D01*
X137978340Y-118081092D01*
X137949500Y-118226079D01*
X137949500Y-118226082D01*
X137949500Y-118373918D01*
X137949500Y-118373920D01*
X137949499Y-118373920D01*
X120500500Y-118373920D01*
X120500500Y-112621153D01*
X145899500Y-112621153D01*
X145899500Y-112778846D01*
X145930261Y-112933489D01*
X145930264Y-112933501D01*
X145990602Y-113079172D01*
X145990609Y-113079185D01*
X146078210Y-113210288D01*
X146078213Y-113210292D01*
X146189707Y-113321786D01*
X146189711Y-113321789D01*
X146320814Y-113409390D01*
X146320827Y-113409397D01*
X146466498Y-113469735D01*
X146466503Y-113469737D01*
X146621153Y-113500499D01*
X146621156Y-113500500D01*
X146621158Y-113500500D01*
X146778844Y-113500500D01*
X146778845Y-113500499D01*
X146933497Y-113469737D01*
X147079179Y-113409394D01*
X147210289Y-113321789D01*
X147321789Y-113210289D01*
X147409394Y-113079179D01*
X147469737Y-112933497D01*
X147500500Y-112778842D01*
X147500500Y-112621158D01*
X147500500Y-112621155D01*
X147500499Y-112621153D01*
X147469738Y-112466510D01*
X147469737Y-112466503D01*
X147442398Y-112400500D01*
X147409397Y-112320827D01*
X147409390Y-112320814D01*
X147321789Y-112189711D01*
X147321786Y-112189707D01*
X147210292Y-112078213D01*
X147210288Y-112078210D01*
X147079185Y-111990609D01*
X147079172Y-111990602D01*
X146933501Y-111930264D01*
X146933489Y-111930261D01*
X146778845Y-111899500D01*
X146778842Y-111899500D01*
X146621158Y-111899500D01*
X146621155Y-111899500D01*
X146466510Y-111930261D01*
X146466498Y-111930264D01*
X146320827Y-111990602D01*
X146320814Y-111990609D01*
X146189711Y-112078210D01*
X146189707Y-112078213D01*
X146078213Y-112189707D01*
X146078210Y-112189711D01*
X145990609Y-112320814D01*
X145990602Y-112320827D01*
X145930264Y-112466498D01*
X145930261Y-112466510D01*
X145899500Y-112621153D01*
X120500500Y-112621153D01*
X120500500Y-111521153D01*
X136799500Y-111521153D01*
X136799500Y-111678846D01*
X136830261Y-111833489D01*
X136830264Y-111833501D01*
X136890602Y-111979172D01*
X136890609Y-111979185D01*
X136978210Y-112110288D01*
X136978213Y-112110292D01*
X137089707Y-112221786D01*
X137089711Y-112221789D01*
X137220814Y-112309390D01*
X137220827Y-112309397D01*
X137320060Y-112350500D01*
X137366503Y-112369737D01*
X137521153Y-112400499D01*
X137521156Y-112400500D01*
X137521158Y-112400500D01*
X137678844Y-112400500D01*
X137678845Y-112400499D01*
X137833497Y-112369737D01*
X137951592Y-112320821D01*
X137979172Y-112309397D01*
X137979172Y-112309396D01*
X137979179Y-112309394D01*
X138110289Y-112221789D01*
X138221789Y-112110289D01*
X138309394Y-111979179D01*
X138369737Y-111833497D01*
X138400500Y-111678842D01*
X138400500Y-111521158D01*
X138400500Y-111521155D01*
X138400499Y-111521153D01*
X138369738Y-111366510D01*
X138369737Y-111366503D01*
X138350560Y-111320205D01*
X138309397Y-111220827D01*
X138309390Y-111220814D01*
X138221789Y-111089711D01*
X138221786Y-111089707D01*
X138110292Y-110978213D01*
X138110288Y-110978210D01*
X137979185Y-110890609D01*
X137979172Y-110890602D01*
X137833501Y-110830264D01*
X137833489Y-110830261D01*
X137678845Y-110799500D01*
X137678842Y-110799500D01*
X137521158Y-110799500D01*
X137521155Y-110799500D01*
X137366510Y-110830261D01*
X137366498Y-110830264D01*
X137220827Y-110890602D01*
X137220814Y-110890609D01*
X137089711Y-110978210D01*
X137089707Y-110978213D01*
X136978213Y-111089707D01*
X136978210Y-111089711D01*
X136890609Y-111220814D01*
X136890602Y-111220827D01*
X136830264Y-111366498D01*
X136830261Y-111366510D01*
X136799500Y-111521153D01*
X120500500Y-111521153D01*
X120500500Y-110378711D01*
X154649500Y-110378711D01*
X154649500Y-110621288D01*
X154677011Y-110830264D01*
X154681162Y-110861789D01*
X154688884Y-110890606D01*
X154743947Y-111096104D01*
X154795604Y-111220814D01*
X154836776Y-111320212D01*
X154958064Y-111530289D01*
X154958066Y-111530292D01*
X154958067Y-111530293D01*
X155105733Y-111722736D01*
X155105739Y-111722743D01*
X155277256Y-111894260D01*
X155277263Y-111894266D01*
X155324177Y-111930264D01*
X155469711Y-112041936D01*
X155679788Y-112163224D01*
X155903900Y-112256054D01*
X156138211Y-112318838D01*
X156318586Y-112342584D01*
X156378711Y-112350500D01*
X156378712Y-112350500D01*
X156621289Y-112350500D01*
X156669388Y-112344167D01*
X156861789Y-112318838D01*
X157096100Y-112256054D01*
X157320212Y-112163224D01*
X157530289Y-112041936D01*
X157722738Y-111894265D01*
X157894265Y-111722738D01*
X158041936Y-111530289D01*
X158163224Y-111320212D01*
X158256054Y-111096100D01*
X158318838Y-110861789D01*
X158350500Y-110621288D01*
X158350500Y-110378712D01*
X158318838Y-110138211D01*
X158256054Y-109903900D01*
X158163224Y-109679788D01*
X158041936Y-109469711D01*
X157937416Y-109333497D01*
X157894266Y-109277263D01*
X157894260Y-109277256D01*
X157722743Y-109105739D01*
X157722736Y-109105733D01*
X157530293Y-108958067D01*
X157530292Y-108958066D01*
X157530289Y-108958064D01*
X157320212Y-108836776D01*
X157320205Y-108836773D01*
X157096104Y-108743947D01*
X156924151Y-108697872D01*
X156861789Y-108681162D01*
X156861788Y-108681161D01*
X156861785Y-108681161D01*
X156621289Y-108649500D01*
X156621288Y-108649500D01*
X156378712Y-108649500D01*
X156378711Y-108649500D01*
X156138214Y-108681161D01*
X155903895Y-108743947D01*
X155679794Y-108836773D01*
X155679785Y-108836777D01*
X155469706Y-108958067D01*
X155277263Y-109105733D01*
X155277256Y-109105739D01*
X155105739Y-109277256D01*
X155105733Y-109277263D01*
X154958067Y-109469706D01*
X154836777Y-109679785D01*
X154836773Y-109679794D01*
X154743947Y-109903895D01*
X154681161Y-110138214D01*
X154649500Y-110378711D01*
X120500500Y-110378711D01*
X120500500Y-108003750D01*
X120500726Y-107996263D01*
X120504486Y-107934108D01*
X120518271Y-107706201D01*
X120520076Y-107691340D01*
X120571780Y-107409201D01*
X120575364Y-107394663D01*
X120660696Y-107120822D01*
X120665998Y-107106841D01*
X120758128Y-106902135D01*
X130489500Y-106902135D01*
X130489500Y-108697870D01*
X130489501Y-108697876D01*
X130495908Y-108757483D01*
X130546202Y-108892328D01*
X130546206Y-108892335D01*
X130632452Y-109007544D01*
X130632455Y-109007547D01*
X130747664Y-109093793D01*
X130747671Y-109093797D01*
X130882517Y-109144091D01*
X130882516Y-109144091D01*
X130889444Y-109144835D01*
X130942127Y-109150500D01*
X132737872Y-109150499D01*
X132797483Y-109144091D01*
X132932331Y-109093796D01*
X133047546Y-109007546D01*
X133133796Y-108892331D01*
X133182810Y-108760916D01*
X133224681Y-108704984D01*
X133290145Y-108680566D01*
X133358418Y-108695417D01*
X133386673Y-108716569D01*
X133500213Y-108830109D01*
X133672179Y-108955048D01*
X133672181Y-108955049D01*
X133672184Y-108955051D01*
X133861588Y-109051557D01*
X134063757Y-109117246D01*
X134273713Y-109150500D01*
X134273714Y-109150500D01*
X134486286Y-109150500D01*
X134486287Y-109150500D01*
X134696243Y-109117246D01*
X134898412Y-109051557D01*
X135087816Y-108955051D01*
X135143290Y-108914747D01*
X135259786Y-108830109D01*
X135259788Y-108830106D01*
X135259792Y-108830104D01*
X135410104Y-108679792D01*
X135410106Y-108679788D01*
X135410109Y-108679786D01*
X135495890Y-108561717D01*
X135535051Y-108507816D01*
X135539793Y-108498508D01*
X135587763Y-108447711D01*
X135655583Y-108430911D01*
X135721719Y-108453445D01*
X135760763Y-108498500D01*
X135765373Y-108507547D01*
X135804728Y-108561716D01*
X136437037Y-107929408D01*
X136454075Y-107992993D01*
X136519901Y-108107007D01*
X136612993Y-108200099D01*
X136727007Y-108265925D01*
X136790590Y-108282962D01*
X136158282Y-108915269D01*
X136158282Y-108915270D01*
X136212449Y-108954624D01*
X136401782Y-109051095D01*
X136603870Y-109116757D01*
X136813754Y-109150000D01*
X137026246Y-109150000D01*
X137236127Y-109116757D01*
X137236130Y-109116757D01*
X137438217Y-109051095D01*
X137627554Y-108954622D01*
X137681716Y-108915270D01*
X137681717Y-108915270D01*
X137049408Y-108282962D01*
X137112993Y-108265925D01*
X137227007Y-108200099D01*
X137320099Y-108107007D01*
X137385925Y-107992993D01*
X137402962Y-107929409D01*
X138035270Y-108561717D01*
X138035270Y-108561716D01*
X138074622Y-108507555D01*
X138079232Y-108498507D01*
X138127205Y-108447709D01*
X138195025Y-108430912D01*
X138261161Y-108453447D01*
X138300204Y-108498504D01*
X138304949Y-108507817D01*
X138429890Y-108679786D01*
X138580213Y-108830109D01*
X138752179Y-108955048D01*
X138752181Y-108955049D01*
X138752184Y-108955051D01*
X138941588Y-109051557D01*
X139143757Y-109117246D01*
X139353713Y-109150500D01*
X139353714Y-109150500D01*
X139566286Y-109150500D01*
X139566287Y-109150500D01*
X139776243Y-109117246D01*
X139978412Y-109051557D01*
X140167816Y-108955051D01*
X140223290Y-108914747D01*
X140339786Y-108830109D01*
X140339788Y-108830106D01*
X140339792Y-108830104D01*
X140490104Y-108679792D01*
X140490106Y-108679788D01*
X140490109Y-108679786D01*
X140575890Y-108561717D01*
X140615051Y-108507816D01*
X140619793Y-108498508D01*
X140667763Y-108447711D01*
X140735583Y-108430911D01*
X140801719Y-108453445D01*
X140840763Y-108498500D01*
X140845373Y-108507547D01*
X140884728Y-108561716D01*
X141517037Y-107929408D01*
X141534075Y-107992993D01*
X141599901Y-108107007D01*
X141692993Y-108200099D01*
X141807007Y-108265925D01*
X141870590Y-108282962D01*
X141238282Y-108915269D01*
X141238282Y-108915270D01*
X141292449Y-108954624D01*
X141481782Y-109051095D01*
X141683870Y-109116757D01*
X141893754Y-109150000D01*
X142106246Y-109150000D01*
X142316127Y-109116757D01*
X142316130Y-109116757D01*
X142518217Y-109051095D01*
X142707554Y-108954622D01*
X142761716Y-108915270D01*
X142761717Y-108915270D01*
X142129408Y-108282962D01*
X142192993Y-108265925D01*
X142307007Y-108200099D01*
X142400099Y-108107007D01*
X142465925Y-107992993D01*
X142482962Y-107929408D01*
X143115270Y-108561717D01*
X143115270Y-108561716D01*
X143154622Y-108507555D01*
X143159232Y-108498507D01*
X143207205Y-108447709D01*
X143275025Y-108430912D01*
X143341161Y-108453447D01*
X143380204Y-108498504D01*
X143384949Y-108507817D01*
X143509890Y-108679786D01*
X143660213Y-108830109D01*
X143832179Y-108955048D01*
X143832181Y-108955049D01*
X143832184Y-108955051D01*
X144021588Y-109051557D01*
X144223757Y-109117246D01*
X144433713Y-109150500D01*
X144433714Y-109150500D01*
X144646286Y-109150500D01*
X144646287Y-109150500D01*
X144856243Y-109117246D01*
X145058412Y-109051557D01*
X145247816Y-108955051D01*
X145303290Y-108914747D01*
X145419786Y-108830109D01*
X145419788Y-108830106D01*
X145419792Y-108830104D01*
X145570104Y-108679792D01*
X145570106Y-108679788D01*
X145570109Y-108679786D01*
X145695048Y-108507820D01*
X145695047Y-108507820D01*
X145695051Y-108507816D01*
X145699514Y-108499054D01*
X145747488Y-108448259D01*
X145815308Y-108431463D01*
X145881444Y-108453999D01*
X145920486Y-108499056D01*
X145924951Y-108507820D01*
X146049890Y-108679786D01*
X146200213Y-108830109D01*
X146372179Y-108955048D01*
X146372181Y-108955049D01*
X146372184Y-108955051D01*
X146561588Y-109051557D01*
X146763757Y-109117246D01*
X146973713Y-109150500D01*
X146973714Y-109150500D01*
X147186286Y-109150500D01*
X147186287Y-109150500D01*
X147396243Y-109117246D01*
X147598412Y-109051557D01*
X147658083Y-109021153D01*
X149399500Y-109021153D01*
X149399500Y-109178846D01*
X149430261Y-109333489D01*
X149430264Y-109333501D01*
X149490602Y-109479172D01*
X149490609Y-109479185D01*
X149578210Y-109610288D01*
X149578213Y-109610292D01*
X149689707Y-109721786D01*
X149689711Y-109721789D01*
X149820814Y-109809390D01*
X149820827Y-109809397D01*
X149966498Y-109869735D01*
X149966503Y-109869737D01*
X150121153Y-109900499D01*
X150121156Y-109900500D01*
X150121158Y-109900500D01*
X150278844Y-109900500D01*
X150278845Y-109900499D01*
X150433497Y-109869737D01*
X150579179Y-109809394D01*
X150710289Y-109721789D01*
X150821789Y-109610289D01*
X150909394Y-109479179D01*
X150969737Y-109333497D01*
X151000500Y-109178842D01*
X151000500Y-109021158D01*
X151000500Y-109021155D01*
X151000499Y-109021153D01*
X150974875Y-108892335D01*
X150969737Y-108866503D01*
X150954660Y-108830104D01*
X150909397Y-108720827D01*
X150909390Y-108720814D01*
X150821789Y-108589711D01*
X150821786Y-108589707D01*
X150710292Y-108478213D01*
X150710288Y-108478210D01*
X150579185Y-108390609D01*
X150579172Y-108390602D01*
X150433501Y-108330264D01*
X150433489Y-108330261D01*
X150278845Y-108299500D01*
X150278842Y-108299500D01*
X150121158Y-108299500D01*
X150121155Y-108299500D01*
X149966510Y-108330261D01*
X149966498Y-108330264D01*
X149820827Y-108390602D01*
X149820814Y-108390609D01*
X149689711Y-108478210D01*
X149689707Y-108478213D01*
X149578213Y-108589707D01*
X149578210Y-108589711D01*
X149490609Y-108720814D01*
X149490602Y-108720827D01*
X149430264Y-108866498D01*
X149430261Y-108866510D01*
X149399500Y-109021153D01*
X147658083Y-109021153D01*
X147787816Y-108955051D01*
X147843290Y-108914746D01*
X147843292Y-108914746D01*
X147959785Y-108830109D01*
X147959783Y-108830109D01*
X147959792Y-108830104D01*
X148110104Y-108679792D01*
X148110106Y-108679788D01*
X148110109Y-108679786D01*
X148235048Y-108507820D01*
X148235047Y-108507820D01*
X148235051Y-108507816D01*
X148331557Y-108318412D01*
X148397246Y-108116243D01*
X148430500Y-107906287D01*
X148430500Y-107693713D01*
X148397246Y-107483757D01*
X148331557Y-107281588D01*
X148235051Y-107092184D01*
X148235049Y-107092181D01*
X148235048Y-107092179D01*
X148110109Y-106920213D01*
X147959786Y-106769890D01*
X147787820Y-106644951D01*
X147598414Y-106548444D01*
X147598413Y-106548443D01*
X147598412Y-106548443D01*
X147396243Y-106482754D01*
X147396241Y-106482753D01*
X147396240Y-106482753D01*
X147234957Y-106457208D01*
X147186287Y-106449500D01*
X146973713Y-106449500D01*
X146925042Y-106457208D01*
X146763760Y-106482753D01*
X146561585Y-106548444D01*
X146372179Y-106644951D01*
X146200213Y-106769890D01*
X146049890Y-106920213D01*
X145924949Y-107092182D01*
X145920484Y-107100946D01*
X145872509Y-107151742D01*
X145804688Y-107168536D01*
X145738553Y-107145998D01*
X145699516Y-107100946D01*
X145695050Y-107092182D01*
X145570109Y-106920213D01*
X145419786Y-106769890D01*
X145247820Y-106644951D01*
X145058414Y-106548444D01*
X145058413Y-106548443D01*
X145058412Y-106548443D01*
X144856243Y-106482754D01*
X144856241Y-106482753D01*
X144856240Y-106482753D01*
X144694957Y-106457208D01*
X144646287Y-106449500D01*
X144433713Y-106449500D01*
X144385042Y-106457208D01*
X144223760Y-106482753D01*
X144021585Y-106548444D01*
X143832179Y-106644951D01*
X143660213Y-106769890D01*
X143509890Y-106920213D01*
X143384949Y-107092182D01*
X143380202Y-107101499D01*
X143332227Y-107152293D01*
X143264405Y-107169087D01*
X143198271Y-107146548D01*
X143159234Y-107101495D01*
X143154626Y-107092452D01*
X143115270Y-107038282D01*
X143115269Y-107038282D01*
X142482962Y-107670590D01*
X142465925Y-107607007D01*
X142400099Y-107492993D01*
X142307007Y-107399901D01*
X142192993Y-107334075D01*
X142129409Y-107317037D01*
X142761716Y-106684728D01*
X142707550Y-106645375D01*
X142518217Y-106548904D01*
X142316129Y-106483242D01*
X142106246Y-106450000D01*
X141893754Y-106450000D01*
X141683872Y-106483242D01*
X141683869Y-106483242D01*
X141481782Y-106548904D01*
X141292439Y-106645380D01*
X141238282Y-106684727D01*
X141238282Y-106684728D01*
X141870591Y-107317037D01*
X141807007Y-107334075D01*
X141692993Y-107399901D01*
X141599901Y-107492993D01*
X141534075Y-107607007D01*
X141517037Y-107670591D01*
X140884728Y-107038282D01*
X140884727Y-107038282D01*
X140845380Y-107092440D01*
X140845376Y-107092446D01*
X140840760Y-107101505D01*
X140792781Y-107152297D01*
X140724959Y-107169087D01*
X140658826Y-107146543D01*
X140619794Y-107101493D01*
X140615051Y-107092184D01*
X140615049Y-107092181D01*
X140615048Y-107092179D01*
X140490109Y-106920213D01*
X140339786Y-106769890D01*
X140167820Y-106644951D01*
X139978414Y-106548444D01*
X139978413Y-106548443D01*
X139978412Y-106548443D01*
X139776243Y-106482754D01*
X139776241Y-106482753D01*
X139776240Y-106482753D01*
X139614957Y-106457208D01*
X139566287Y-106449500D01*
X139353713Y-106449500D01*
X139305042Y-106457208D01*
X139143760Y-106482753D01*
X138941585Y-106548444D01*
X138752179Y-106644951D01*
X138580213Y-106769890D01*
X138429890Y-106920213D01*
X138304949Y-107092182D01*
X138300202Y-107101499D01*
X138252227Y-107152293D01*
X138184405Y-107169087D01*
X138118271Y-107146548D01*
X138079234Y-107101495D01*
X138074626Y-107092452D01*
X138035270Y-107038282D01*
X138035269Y-107038282D01*
X137402962Y-107670590D01*
X137385925Y-107607007D01*
X137320099Y-107492993D01*
X137227007Y-107399901D01*
X137112993Y-107334075D01*
X137049409Y-107317037D01*
X137681716Y-106684728D01*
X137627550Y-106645375D01*
X137438217Y-106548904D01*
X137236129Y-106483242D01*
X137026246Y-106450000D01*
X136813754Y-106450000D01*
X136603872Y-106483242D01*
X136603869Y-106483242D01*
X136401782Y-106548904D01*
X136212439Y-106645380D01*
X136158282Y-106684727D01*
X136158282Y-106684728D01*
X136790591Y-107317037D01*
X136727007Y-107334075D01*
X136612993Y-107399901D01*
X136519901Y-107492993D01*
X136454075Y-107607007D01*
X136437037Y-107670591D01*
X135804728Y-107038282D01*
X135804727Y-107038282D01*
X135765380Y-107092440D01*
X135765376Y-107092446D01*
X135760760Y-107101505D01*
X135712781Y-107152297D01*
X135644959Y-107169087D01*
X135578826Y-107146543D01*
X135539794Y-107101493D01*
X135535051Y-107092184D01*
X135535049Y-107092181D01*
X135535048Y-107092179D01*
X135410109Y-106920213D01*
X135259786Y-106769890D01*
X135087820Y-106644951D01*
X134898414Y-106548444D01*
X134898413Y-106548443D01*
X134898412Y-106548443D01*
X134696243Y-106482754D01*
X134696241Y-106482753D01*
X134696240Y-106482753D01*
X134534957Y-106457208D01*
X134486287Y-106449500D01*
X134273713Y-106449500D01*
X134225042Y-106457208D01*
X134063760Y-106482753D01*
X133861585Y-106548444D01*
X133672179Y-106644951D01*
X133500215Y-106769889D01*
X133386673Y-106883431D01*
X133325350Y-106916915D01*
X133255658Y-106911931D01*
X133199725Y-106870059D01*
X133182810Y-106839082D01*
X133133797Y-106707671D01*
X133133793Y-106707664D01*
X133047547Y-106592455D01*
X133047544Y-106592452D01*
X132932335Y-106506206D01*
X132932328Y-106506202D01*
X132797482Y-106455908D01*
X132797483Y-106455908D01*
X132737883Y-106449501D01*
X132737881Y-106449500D01*
X132737873Y-106449500D01*
X132737864Y-106449500D01*
X130942129Y-106449500D01*
X130942123Y-106449501D01*
X130882516Y-106455908D01*
X130747671Y-106506202D01*
X130747664Y-106506206D01*
X130632455Y-106592452D01*
X130632452Y-106592455D01*
X130546206Y-106707664D01*
X130546202Y-106707671D01*
X130495908Y-106842517D01*
X130489501Y-106902116D01*
X130489500Y-106902135D01*
X120758128Y-106902135D01*
X120783736Y-106845237D01*
X120790676Y-106832016D01*
X120939080Y-106586526D01*
X120947567Y-106574230D01*
X121124480Y-106348417D01*
X121134395Y-106337226D01*
X121337226Y-106134395D01*
X121348417Y-106124480D01*
X121574230Y-105947567D01*
X121586526Y-105939080D01*
X121832016Y-105790676D01*
X121845249Y-105783731D01*
X122106841Y-105665998D01*
X122120822Y-105660696D01*
X122394668Y-105575362D01*
X122409197Y-105571780D01*
X122691344Y-105520075D01*
X122706201Y-105518271D01*
X122996264Y-105500726D01*
X123003751Y-105500500D01*
X123065892Y-105500500D01*
X158934108Y-105500500D01*
X158996249Y-105500500D01*
X159003736Y-105500726D01*
G37*
%TD.AperFunction*%
%TD*%
M02*
