%TF.GenerationSoftware,KiCad,Pcbnew,9.0.2*%
%TF.CreationDate,2025-07-23T20:38:51-05:00*%
%TF.ProjectId,Smart Motor,536d6172-7420-44d6-9f74-6f722e6b6963,rev?*%
%TF.SameCoordinates,Original*%
%TF.FileFunction,Copper,L1,Top*%
%TF.FilePolarity,Positive*%
%FSLAX46Y46*%
G04 Gerber Fmt 4.6, Leading zero omitted, Abs format (unit mm)*
G04 Created by KiCad (PCBNEW 9.0.2) date 2025-07-23 20:38:51*
%MOMM*%
%LPD*%
G01*
G04 APERTURE LIST*
G04 Aperture macros list*
%AMRoundRect*
0 Rectangle with rounded corners*
0 $1 Rounding radius*
0 $2 $3 $4 $5 $6 $7 $8 $9 X,Y pos of 4 corners*
0 Add a 4 corners polygon primitive as box body*
4,1,4,$2,$3,$4,$5,$6,$7,$8,$9,$2,$3,0*
0 Add four circle primitives for the rounded corners*
1,1,$1+$1,$2,$3*
1,1,$1+$1,$4,$5*
1,1,$1+$1,$6,$7*
1,1,$1+$1,$8,$9*
0 Add four rect primitives between the rounded corners*
20,1,$1+$1,$2,$3,$4,$5,0*
20,1,$1+$1,$4,$5,$6,$7,0*
20,1,$1+$1,$6,$7,$8,$9,0*
20,1,$1+$1,$8,$9,$2,$3,0*%
G04 Aperture macros list end*
%TA.AperFunction,SMDPad,CuDef*%
%ADD10R,1.300000X0.400000*%
%TD*%
%TA.AperFunction,ComponentPad*%
%ADD11C,1.875000*%
%TD*%
%TA.AperFunction,SMDPad,CuDef*%
%ADD12RoundRect,0.237500X-0.300000X-0.237500X0.300000X-0.237500X0.300000X0.237500X-0.300000X0.237500X0*%
%TD*%
%TA.AperFunction,SMDPad,CuDef*%
%ADD13RoundRect,0.237500X0.300000X0.237500X-0.300000X0.237500X-0.300000X-0.237500X0.300000X-0.237500X0*%
%TD*%
%TA.AperFunction,SMDPad,CuDef*%
%ADD14R,1.000000X0.750000*%
%TD*%
%TA.AperFunction,SMDPad,CuDef*%
%ADD15RoundRect,0.237500X0.250000X0.237500X-0.250000X0.237500X-0.250000X-0.237500X0.250000X-0.237500X0*%
%TD*%
%TA.AperFunction,ComponentPad*%
%ADD16R,1.700000X1.700000*%
%TD*%
%TA.AperFunction,ComponentPad*%
%ADD17C,1.700000*%
%TD*%
%TA.AperFunction,SMDPad,CuDef*%
%ADD18RoundRect,0.237500X0.237500X-0.300000X0.237500X0.300000X-0.237500X0.300000X-0.237500X-0.300000X0*%
%TD*%
%TA.AperFunction,SMDPad,CuDef*%
%ADD19RoundRect,0.075000X-0.662500X-0.075000X0.662500X-0.075000X0.662500X0.075000X-0.662500X0.075000X0*%
%TD*%
%TA.AperFunction,SMDPad,CuDef*%
%ADD20RoundRect,0.075000X-0.075000X-0.662500X0.075000X-0.662500X0.075000X0.662500X-0.075000X0.662500X0*%
%TD*%
%TA.AperFunction,SMDPad,CuDef*%
%ADD21RoundRect,0.237500X-0.237500X0.250000X-0.237500X-0.250000X0.237500X-0.250000X0.237500X0.250000X0*%
%TD*%
%TA.AperFunction,ComponentPad*%
%ADD22RoundRect,0.250000X0.600000X0.725000X-0.600000X0.725000X-0.600000X-0.725000X0.600000X-0.725000X0*%
%TD*%
%TA.AperFunction,ComponentPad*%
%ADD23O,1.700000X1.950000*%
%TD*%
%TA.AperFunction,SMDPad,CuDef*%
%ADD24R,1.400000X2.000000*%
%TD*%
%TA.AperFunction,ComponentPad*%
%ADD25RoundRect,0.250000X-0.725000X0.600000X-0.725000X-0.600000X0.725000X-0.600000X0.725000X0.600000X0*%
%TD*%
%TA.AperFunction,ComponentPad*%
%ADD26O,1.950000X1.700000*%
%TD*%
%TA.AperFunction,SMDPad,CuDef*%
%ADD27R,0.800000X0.900000*%
%TD*%
%TA.AperFunction,SMDPad,CuDef*%
%ADD28RoundRect,0.237500X0.237500X-0.250000X0.237500X0.250000X-0.237500X0.250000X-0.237500X-0.250000X0*%
%TD*%
%TA.AperFunction,HeatsinkPad*%
%ADD29C,0.500000*%
%TD*%
%TA.AperFunction,ComponentPad*%
%ADD30C,0.500000*%
%TD*%
%TA.AperFunction,ViaPad*%
%ADD31C,0.600000*%
%TD*%
%TA.AperFunction,ViaPad*%
%ADD32C,0.350000*%
%TD*%
%TA.AperFunction,ViaPad*%
%ADD33C,0.500000*%
%TD*%
%TA.AperFunction,Conductor*%
%ADD34C,0.200000*%
%TD*%
%TA.AperFunction,Conductor*%
%ADD35C,0.250000*%
%TD*%
%TA.AperFunction,Conductor*%
%ADD36C,0.600000*%
%TD*%
%TA.AperFunction,Conductor*%
%ADD37C,0.300000*%
%TD*%
G04 APERTURE END LIST*
D10*
%TO.P,J4,1,1*%
%TO.N,unconnected-(J4-Pad1)*%
X157320000Y-124600000D03*
%TO.P,J4,2,2*%
%TO.N,USB_D-*%
X157320000Y-123950000D03*
%TO.P,J4,3,3*%
%TO.N,USB_D+*%
X157320000Y-123300000D03*
%TO.P,J4,4,4*%
%TO.N,unconnected-(J4-Pad4)*%
X157320000Y-122650000D03*
%TO.P,J4,5,5*%
%TO.N,GND*%
X157320000Y-122000000D03*
D11*
%TO.P,J4,MH1,MH1*%
X159700000Y-126910000D03*
%TO.P,J4,MH2,MH2*%
X159700000Y-119690000D03*
%TD*%
D12*
%TO.P,C25,1*%
%TO.N,OSC_IN*%
X129887500Y-119500000D03*
%TO.P,C25,2*%
%TO.N,GND*%
X131612500Y-119500000D03*
%TD*%
%TO.P,C20,1*%
%TO.N,+3.3V*%
X141800000Y-131500000D03*
%TO.P,C20,2*%
%TO.N,GND*%
X143525000Y-131500000D03*
%TD*%
D13*
%TO.P,C26,1*%
%TO.N,OSC_OUT*%
X132300000Y-130150000D03*
%TO.P,C26,2*%
%TO.N,GND*%
X130575000Y-130150000D03*
%TD*%
%TO.P,C22,1*%
%TO.N,+3.3V*%
X140112500Y-131500000D03*
%TO.P,C22,2*%
%TO.N,GND*%
X138387500Y-131500000D03*
%TD*%
D14*
%TO.P,S2,1*%
%TO.N,NRST*%
X151202500Y-116975000D03*
%TO.P,S2,2*%
%TO.N,unconnected-(S2-Pad2)*%
X155702500Y-116975000D03*
%TO.P,S2,3*%
%TO.N,GND*%
X151202500Y-114825000D03*
%TO.P,S2,4*%
%TO.N,unconnected-(S2-Pad4)*%
X155702500Y-114825000D03*
%TD*%
D15*
%TO.P,R12,1*%
%TO.N,Net-(R12-Pad1)*%
X127400000Y-118500000D03*
%TO.P,R12,2*%
%TO.N,GND*%
X125575000Y-118500000D03*
%TD*%
D16*
%TO.P,J2,1,Pin_1*%
%TO.N,CAN_H*%
X132700000Y-144375000D03*
D17*
%TO.P,J2,2,Pin_2*%
%TO.N,Net-(J2-Pin_2)*%
X132700000Y-141835000D03*
%TD*%
D14*
%TO.P,S1,1*%
%TO.N,MCU_CANRX*%
X127447500Y-114575000D03*
%TO.P,S1,2*%
%TO.N,unconnected-(S1-Pad2)*%
X122947500Y-114575000D03*
%TO.P,S1,3*%
%TO.N,Net-(R12-Pad1)*%
X127447500Y-116725000D03*
%TO.P,S1,4*%
%TO.N,unconnected-(S1-Pad4)*%
X122947500Y-116725000D03*
%TD*%
D18*
%TO.P,C19,1*%
%TO.N,+3.3V*%
X146450000Y-121962500D03*
%TO.P,C19,2*%
%TO.N,GND*%
X146450000Y-120237500D03*
%TD*%
D19*
%TO.P,U5,1,VBAT*%
%TO.N,+3.3V*%
X136337500Y-122250000D03*
%TO.P,U5,2,PC13*%
%TO.N,unconnected-(U5-PC13-Pad2)*%
X136337500Y-122750000D03*
%TO.P,U5,3,PC14*%
%TO.N,unconnected-(U5-PC14-Pad3)*%
X136337500Y-123250000D03*
%TO.P,U5,4,PC15*%
%TO.N,unconnected-(U5-PC15-Pad4)*%
X136337500Y-123750000D03*
%TO.P,U5,5,PF0*%
%TO.N,OSC_IN*%
X136337500Y-124250000D03*
%TO.P,U5,6,PF1*%
%TO.N,OSC_OUT*%
X136337500Y-124750000D03*
%TO.P,U5,7,PG10*%
%TO.N,NRST*%
X136337500Y-125250000D03*
%TO.P,U5,8,PA0*%
%TO.N,unconnected-(U5-PA0-Pad8)*%
X136337500Y-125750000D03*
%TO.P,U5,9,PA1*%
%TO.N,unconnected-(U5-PA1-Pad9)*%
X136337500Y-126250000D03*
%TO.P,U5,10,PA2*%
%TO.N,unconnected-(U5-PA2-Pad10)*%
X136337500Y-126750000D03*
%TO.P,U5,11,PA3*%
%TO.N,unconnected-(U5-PA3-Pad11)*%
X136337500Y-127250000D03*
%TO.P,U5,12,PA4*%
%TO.N,DAC*%
X136337500Y-127750000D03*
D20*
%TO.P,U5,13,PA5*%
%TO.N,unconnected-(U5-PA5-Pad13)*%
X137750000Y-129162500D03*
%TO.P,U5,14,PA6*%
%TO.N,unconnected-(U5-PA6-Pad14)*%
X138250000Y-129162500D03*
%TO.P,U5,15,PA7*%
%TO.N,unconnected-(U5-PA7-Pad15)*%
X138750000Y-129162500D03*
%TO.P,U5,16,PB0*%
%TO.N,unconnected-(U5-PB0-Pad16)*%
X139250000Y-129162500D03*
%TO.P,U5,17,PB1*%
%TO.N,unconnected-(U5-PB1-Pad17)*%
X139750000Y-129162500D03*
%TO.P,U5,18,PB2*%
%TO.N,unconnected-(U5-PB2-Pad18)*%
X140250000Y-129162500D03*
%TO.P,U5,19,VSSA*%
%TO.N,GND*%
X140750000Y-129162500D03*
%TO.P,U5,20,VREF+*%
%TO.N,+3.3V*%
X141250000Y-129162500D03*
%TO.P,U5,21,VDDA*%
X141750000Y-129162500D03*
%TO.P,U5,22,PB10*%
%TO.N,unconnected-(U5-PB10-Pad22)*%
X142250000Y-129162500D03*
%TO.P,U5,23,VSS*%
%TO.N,GND*%
X142750000Y-129162500D03*
%TO.P,U5,24,VDD*%
%TO.N,+3.3V*%
X143250000Y-129162500D03*
D19*
%TO.P,U5,25,PB11*%
%TO.N,unconnected-(U5-PB11-Pad25)*%
X144662500Y-127750000D03*
%TO.P,U5,26,PB12*%
%TO.N,SPREAD*%
X144662500Y-127250000D03*
%TO.P,U5,27,PB13*%
%TO.N,DIAG*%
X144662500Y-126750000D03*
%TO.P,U5,28,PB14*%
%TO.N,ENABLE*%
X144662500Y-126250000D03*
%TO.P,U5,29,PB15*%
%TO.N,DIR*%
X144662500Y-125750000D03*
%TO.P,U5,30,PA8*%
%TO.N,STEP*%
X144662500Y-125250000D03*
%TO.P,U5,31,PA9*%
%TO.N,TX*%
X144662500Y-124750000D03*
%TO.P,U5,32,PA10*%
%TO.N,RX*%
X144662500Y-124250000D03*
%TO.P,U5,33,PA11*%
%TO.N,USB_D-*%
X144662500Y-123750000D03*
%TO.P,U5,34,PA12*%
%TO.N,USB_D+*%
X144662500Y-123250000D03*
%TO.P,U5,35,VSS*%
%TO.N,GND*%
X144662500Y-122750000D03*
%TO.P,U5,36,VDD*%
%TO.N,+3.3V*%
X144662500Y-122250000D03*
D20*
%TO.P,U5,37,PA13*%
%TO.N,SWDIO*%
X143250000Y-120837500D03*
%TO.P,U5,38,PA14*%
%TO.N,SWCLK*%
X142750000Y-120837500D03*
%TO.P,U5,39,PA15*%
%TO.N,AS_SCL*%
X142250000Y-120837500D03*
%TO.P,U5,40,PB3*%
%TO.N,SWO*%
X141750000Y-120837500D03*
%TO.P,U5,41,PB4*%
%TO.N,AS_PGO*%
X141250000Y-120837500D03*
%TO.P,U5,42,PB5*%
%TO.N,AS_DIR*%
X140750000Y-120837500D03*
%TO.P,U5,43,PB6*%
%TO.N,AS_OUT*%
X140250000Y-120837500D03*
%TO.P,U5,44,PB7*%
%TO.N,AS_SDA*%
X139750000Y-120837500D03*
%TO.P,U5,45,PB8*%
%TO.N,MCU_CANRX*%
X139250000Y-120837500D03*
%TO.P,U5,46,PB9*%
%TO.N,MCU_CANTX*%
X138750000Y-120837500D03*
%TO.P,U5,47,VSS*%
%TO.N,GND*%
X138250000Y-120837500D03*
%TO.P,U5,48,VDD*%
%TO.N,+3.3V*%
X137750000Y-120837500D03*
%TD*%
D13*
%TO.P,C10,1*%
%TO.N,GND*%
X146362500Y-129500000D03*
%TO.P,C10,2*%
%TO.N,DAC*%
X144637500Y-129500000D03*
%TD*%
D21*
%TO.P,R11,1*%
%TO.N,+3.3V*%
X151000000Y-110700000D03*
%TO.P,R11,2*%
%TO.N,NRST*%
X151000000Y-112525000D03*
%TD*%
D18*
%TO.P,C23,1*%
%TO.N,+3.3V*%
X134500000Y-120225000D03*
%TO.P,C23,2*%
%TO.N,GND*%
X134500000Y-118500000D03*
%TD*%
%TO.P,C21,1*%
%TO.N,+3.3V*%
X148200000Y-121962500D03*
%TO.P,C21,2*%
%TO.N,GND*%
X148200000Y-120237500D03*
%TD*%
%TO.P,C9,1*%
%TO.N,Net-(U2-5VOUT)*%
X144000000Y-135512500D03*
%TO.P,C9,2*%
%TO.N,GND*%
X144000000Y-133787500D03*
%TD*%
D22*
%TO.P,J5,1,Pin_1*%
%TO.N,+3.3V*%
X147600000Y-143325000D03*
D23*
%TO.P,J5,2,Pin_2*%
%TO.N,+24V*%
X145100000Y-143325000D03*
%TO.P,J5,3,Pin_3*%
%TO.N,CAN_L*%
X142600000Y-143325000D03*
%TO.P,J5,4,Pin_4*%
%TO.N,CAN_H*%
X140100000Y-143325000D03*
%TO.P,J5,5,Pin_5*%
%TO.N,GND*%
X137600000Y-143325000D03*
%TD*%
D16*
%TO.P,J6,1,Pin_1*%
%TO.N,+3.3V*%
X131840000Y-107800000D03*
D17*
%TO.P,J6,2,Pin_2*%
%TO.N,SWCLK*%
X134380000Y-107800000D03*
%TO.P,J6,3,Pin_3*%
%TO.N,GND*%
X136920000Y-107800000D03*
%TO.P,J6,4,Pin_4*%
%TO.N,SWDIO*%
X139460000Y-107800000D03*
%TO.P,J6,5,Pin_5*%
%TO.N,GND*%
X142000000Y-107800000D03*
%TO.P,J6,6,Pin_6*%
%TO.N,NRST*%
X144540000Y-107800000D03*
%TO.P,J6,7,Pin_7*%
%TO.N,SWO*%
X147080000Y-107800000D03*
%TD*%
D24*
%TO.P,Y1,1*%
%TO.N,OSC_IN*%
X129730000Y-122100000D03*
%TO.P,Y1,2,GND*%
%TO.N,GND*%
X129730000Y-127900000D03*
%TO.P,Y1,3*%
%TO.N,OSC_OUT*%
X132270000Y-127900000D03*
%TO.P,Y1,4,GND__1*%
%TO.N,GND*%
X132270000Y-122100000D03*
%TD*%
D18*
%TO.P,C24,1*%
%TO.N,+3.3V*%
X136250000Y-120225000D03*
%TO.P,C24,2*%
%TO.N,GND*%
X136250000Y-118500000D03*
%TD*%
D25*
%TO.P,J1,1,Pin_1*%
%TO.N,/OA1*%
X165525000Y-134750000D03*
D26*
%TO.P,J1,2,Pin_2*%
%TO.N,/OA2*%
X165525000Y-137250000D03*
%TO.P,J1,3,Pin_3*%
%TO.N,/OB1*%
X165525000Y-139750000D03*
%TO.P,J1,4,Pin_4*%
%TO.N,/OB2*%
X165525000Y-142250000D03*
%TD*%
D16*
%TO.P,J3,1,Pin_1*%
%TO.N,CAN_L*%
X152500000Y-144375000D03*
D17*
%TO.P,J3,2,Pin_2*%
%TO.N,Net-(J3-Pin_2)*%
X152500000Y-141835000D03*
%TD*%
D27*
%TO.P,D1,1,1*%
%TO.N,CAN_L*%
X134250000Y-136750000D03*
%TO.P,D1,2,2*%
%TO.N,CAN_H*%
X136150000Y-136750000D03*
%TO.P,D1,3,3*%
%TO.N,Net-(C14-Pad2)*%
X135200000Y-134650000D03*
%TD*%
D28*
%TO.P,R1,1*%
%TO.N,TX*%
X147750000Y-125662500D03*
%TO.P,R1,2*%
%TO.N,RX*%
X147750000Y-123837500D03*
%TD*%
D29*
%TO.P,U2,29,GND*%
%TO.N,GND*%
X147600000Y-136000000D03*
D30*
X148600000Y-136000000D03*
D29*
X149600000Y-136000000D03*
X150600000Y-136000000D03*
X147600000Y-135000000D03*
X148600000Y-135000000D03*
X149600000Y-135000000D03*
X150600000Y-135000000D03*
X147600000Y-134000000D03*
X148600000Y-134000000D03*
X149600000Y-134000000D03*
X150600000Y-134000000D03*
X147600000Y-133000000D03*
X148600000Y-133000000D03*
X149600000Y-133000000D03*
X150600000Y-133000000D03*
%TD*%
D31*
%TO.N,+3.3V*%
X150200000Y-109100000D03*
%TO.N,GND*%
X145352500Y-112625000D03*
X126100000Y-120200000D03*
D32*
%TO.N,USB_D+*%
X153750000Y-123250000D03*
%TO.N,USB_D-*%
X153750000Y-123800003D03*
D31*
%TO.N,GND*%
X142200000Y-126400000D03*
X133000000Y-118500000D03*
D33*
X151500000Y-118791871D03*
D31*
X139200000Y-130400000D03*
X130000000Y-131300000D03*
D32*
X143725000Y-132875000D03*
D31*
X147500000Y-129350000D03*
X129700000Y-136200000D03*
X155525000Y-133300000D03*
X126200000Y-128000000D03*
X142750000Y-130500000D03*
X160400000Y-129700000D03*
%TO.N,+3.3V*%
X147200000Y-131500000D03*
D32*
X150200000Y-131300000D03*
X123500000Y-134000000D03*
D31*
X149700000Y-120400000D03*
X136500000Y-121250000D03*
X141500000Y-132750000D03*
X137600000Y-111600000D03*
%TO.N,+24V*%
X158475000Y-133200000D03*
X152000000Y-136400000D03*
X151600000Y-132500000D03*
D33*
%TO.N,Net-(U2-5VOUT)*%
X145100000Y-136900000D03*
D32*
%TO.N,DAC*%
X145000000Y-128500000D03*
D33*
%TO.N,Net-(C14-Pad2)*%
X143183619Y-139408613D03*
%TO.N,CAN_H*%
X136500000Y-139000000D03*
%TO.N,CAN_L*%
X137500000Y-139000000D03*
%TO.N,SWCLK*%
X143400000Y-118400000D03*
D31*
%TO.N,NRST*%
X149300000Y-116000000D03*
X146700000Y-112700000D03*
D32*
%TO.N,USB_D-*%
X146021069Y-123775000D03*
%TO.N,USB_D+*%
X146021069Y-123225000D03*
%TO.N,RX*%
X146250000Y-132500000D03*
%TO.N,AS_SCL*%
X139500000Y-124400000D03*
D33*
%TO.N,AS_SDA*%
X140400000Y-116600000D03*
%TO.N,MCU_CANTX*%
X138700000Y-118300000D03*
%TO.N,MCU_CANRX*%
X139200000Y-117500000D03*
%TO.N,AS_OUT*%
X141500000Y-117200000D03*
D32*
%TO.N,AS_DIR*%
X140767933Y-119344292D03*
D33*
%TO.N,AS_PGO*%
X141900000Y-117800000D03*
D32*
%TO.N,DIAG*%
X145750000Y-134250000D03*
%TO.N,STEP*%
X150031801Y-129450000D03*
%TO.N,SPREAD*%
X147200000Y-139000000D03*
%TO.N,DIR*%
X149500000Y-131000000D03*
%TO.N,ENABLE*%
X150650044Y-137898957D03*
D31*
%TO.N,/OB1*%
X154300000Y-137100000D03*
%TO.N,/OB2*%
X151700000Y-138000000D03*
%TO.N,/OA1*%
X153076338Y-134216344D03*
%TO.N,/OA2*%
X154100000Y-134650000D03*
%TD*%
D34*
%TO.N,OSC_OUT*%
X132270000Y-130120000D02*
X132300000Y-130150000D01*
X132270000Y-127900000D02*
X132270000Y-130120000D01*
%TO.N,+3.3V*%
X151000000Y-109900000D02*
X150200000Y-109100000D01*
X151000000Y-110700000D02*
X151000000Y-109900000D01*
%TO.N,GND*%
X153150000Y-115450000D02*
X153150000Y-118350000D01*
X152525000Y-114825000D02*
X153150000Y-115450000D01*
X153150000Y-118350000D02*
X152708129Y-118791871D01*
X151202500Y-114825000D02*
X152525000Y-114825000D01*
X152708129Y-118791871D02*
X151500000Y-118791871D01*
%TO.N,NRST*%
X150275000Y-116975000D02*
X151202500Y-116975000D01*
X149300000Y-116000000D02*
X150275000Y-116975000D01*
X150125000Y-113400000D02*
X151000000Y-112525000D01*
X149750000Y-115550000D02*
X149750000Y-113400000D01*
X149750000Y-113400000D02*
X150125000Y-113400000D01*
X149300000Y-116000000D02*
X149750000Y-115550000D01*
X146700000Y-109960000D02*
X144540000Y-107800000D01*
X146700000Y-112700000D02*
X146700000Y-109960000D01*
X146625000Y-112625000D02*
X146700000Y-112700000D01*
%TO.N,GND*%
X125575000Y-119675000D02*
X126100000Y-120200000D01*
X125575000Y-118500000D02*
X125575000Y-119675000D01*
%TO.N,MCU_CANRX*%
X137525000Y-114575000D02*
X127447500Y-114575000D01*
X139200000Y-116250000D02*
X137525000Y-114575000D01*
X139200000Y-117500000D02*
X139200000Y-116250000D01*
%TO.N,Net-(R12-Pad1)*%
X127400000Y-116772500D02*
X127447500Y-116725000D01*
X127400000Y-118500000D02*
X127400000Y-116772500D01*
%TO.N,GND*%
X143725000Y-132875000D02*
X144000000Y-133150000D01*
X144000000Y-133150000D02*
X144000000Y-133787500D01*
%TO.N,USB_D-*%
X153823785Y-123800003D02*
X153923782Y-123900000D01*
X153750000Y-123800003D02*
X153823785Y-123800003D01*
X153923782Y-123900000D02*
X156620000Y-123900000D01*
%TO.N,USB_D+*%
X153750000Y-123250000D02*
X156620000Y-123250000D01*
D35*
%TO.N,GND*%
X146512500Y-129350000D02*
X146362500Y-129500000D01*
D34*
X138387500Y-131012500D02*
X138387500Y-131500000D01*
X143100000Y-123541176D02*
X143100000Y-125500000D01*
D35*
X147500000Y-129350000D02*
X146512500Y-129350000D01*
D34*
X142750000Y-130775000D02*
X143475000Y-131500000D01*
X138250000Y-119250000D02*
X137500000Y-118500000D01*
X144662500Y-122750000D02*
X143891176Y-122750000D01*
X139200000Y-130400000D02*
X140283824Y-130400000D01*
X143891176Y-122750000D02*
X143100000Y-123541176D01*
X142750000Y-130500000D02*
X142750000Y-129162500D01*
D36*
X145352500Y-111152500D02*
X142000000Y-107800000D01*
X146450000Y-120237500D02*
X148200000Y-120237500D01*
D34*
X140283824Y-130400000D02*
X140750000Y-129933824D01*
D36*
X145352500Y-112625000D02*
X145352500Y-111152500D01*
X148200000Y-120237500D02*
X149645629Y-118791871D01*
D34*
X138250000Y-120837500D02*
X138250000Y-119250000D01*
X140750000Y-129933824D02*
X140750000Y-129162500D01*
X139000000Y-130400000D02*
X138387500Y-131012500D01*
X142750000Y-130500000D02*
X142750000Y-130775000D01*
X143100000Y-125500000D02*
X142200000Y-126400000D01*
D36*
X149645629Y-118791871D02*
X151500000Y-118791871D01*
D34*
X144200000Y-134137500D02*
X144200000Y-133500000D01*
X137500000Y-118500000D02*
X136250000Y-118500000D01*
X139200000Y-130400000D02*
X139000000Y-130400000D01*
%TO.N,+3.3V*%
X146450000Y-121962500D02*
X144950000Y-121962500D01*
X142041176Y-128100000D02*
X141750000Y-128391176D01*
X142958824Y-128100000D02*
X142041176Y-128100000D01*
X144950000Y-121962500D02*
X144662500Y-122250000D01*
X140612500Y-131500000D02*
X141500000Y-131500000D01*
X136250000Y-120225000D02*
X136250000Y-121000000D01*
D36*
X148200000Y-121900000D02*
X149700000Y-120400000D01*
X146450000Y-121962500D02*
X148200000Y-121962500D01*
D34*
X140112500Y-131500000D02*
X140250000Y-131500000D01*
X136250000Y-120225000D02*
X137137500Y-120225000D01*
X143250000Y-129162500D02*
X143250000Y-128391176D01*
X134500000Y-120225000D02*
X134500000Y-120412500D01*
X141000000Y-131500000D02*
X141000000Y-132250000D01*
X134500000Y-120412500D02*
X136337500Y-122250000D01*
X141750000Y-129162500D02*
X141250000Y-129162500D01*
X134500000Y-120225000D02*
X136250000Y-120225000D01*
X143250000Y-128391176D02*
X142958824Y-128100000D01*
X141750000Y-131500000D02*
X141750000Y-129162500D01*
X137137500Y-120225000D02*
X137750000Y-120837500D01*
X141250000Y-130362500D02*
X141250000Y-129162500D01*
X136250000Y-121000000D02*
X136500000Y-121250000D01*
X141750000Y-128391176D02*
X141750000Y-129162500D01*
D36*
X148200000Y-121962500D02*
X148200000Y-121900000D01*
D34*
X141000000Y-132250000D02*
X141500000Y-132750000D01*
X140112500Y-131500000D02*
X141250000Y-130362500D01*
%TO.N,Net-(U2-5VOUT)*%
X145100000Y-136900000D02*
X145100000Y-136100000D01*
D37*
X145150000Y-136900000D02*
X145100000Y-136900000D01*
D34*
X144862500Y-135862500D02*
X144200000Y-135862500D01*
X145100000Y-136100000D02*
X144862500Y-135862500D01*
%TO.N,DAC*%
X137157824Y-127701000D02*
X136386500Y-127701000D01*
X144637500Y-129137500D02*
X143000000Y-127500000D01*
X145000000Y-129137500D02*
X144637500Y-129500000D01*
X145000000Y-128500000D02*
X145000000Y-129137500D01*
X137358824Y-127500000D02*
X137157824Y-127701000D01*
X144637500Y-129500000D02*
X144637500Y-129137500D01*
X136386500Y-127701000D02*
X136337500Y-127750000D01*
X143000000Y-127500000D02*
X137358824Y-127500000D01*
%TO.N,Net-(C14-Pad2)*%
X143183619Y-137483619D02*
X142600000Y-136900000D01*
X138950000Y-134650000D02*
X135200000Y-134650000D01*
X142600000Y-136900000D02*
X141200000Y-136900000D01*
X143183619Y-139408613D02*
X143183619Y-137483619D01*
X141200000Y-136900000D02*
X138950000Y-134650000D01*
D37*
%TO.N,CAN_H*%
X140100000Y-142600000D02*
X136500000Y-139000000D01*
X140100000Y-143325000D02*
X140100000Y-142600000D01*
D34*
X136500000Y-139000000D02*
X136500000Y-138750000D01*
X136500000Y-138750000D02*
X136150000Y-138400000D01*
X136150000Y-138400000D02*
X136150000Y-136750000D01*
%TO.N,CAN_L*%
X137500000Y-139000000D02*
X137500000Y-136250000D01*
D37*
X140499000Y-141999000D02*
X137500000Y-139000000D01*
D34*
X137500000Y-136250000D02*
X137000000Y-135750000D01*
D37*
X140597470Y-141999000D02*
X140499000Y-141999000D01*
X141825000Y-143325000D02*
X141301000Y-142801000D01*
X142600000Y-143325000D02*
X141825000Y-143325000D01*
D34*
X135250000Y-135750000D02*
X134250000Y-136750000D01*
D37*
X141301000Y-142702530D02*
X140597470Y-141999000D01*
X141301000Y-142801000D02*
X141301000Y-142702530D01*
D34*
X137000000Y-135750000D02*
X135250000Y-135750000D01*
%TO.N,OSC_IN*%
X129730000Y-122100000D02*
X129730000Y-119657500D01*
X129730000Y-122930000D02*
X131050000Y-124250000D01*
X131050000Y-124250000D02*
X136337500Y-124250000D01*
X129730000Y-122100000D02*
X129730000Y-122930000D01*
X129730000Y-119657500D02*
X129887500Y-119500000D01*
%TO.N,OSC_OUT*%
X132270000Y-125730000D02*
X133250000Y-124750000D01*
X133250000Y-124750000D02*
X136337500Y-124750000D01*
X132270000Y-127900000D02*
X132270000Y-125730000D01*
%TO.N,SWCLK*%
X142750000Y-119050000D02*
X143400000Y-118400000D01*
X142750000Y-120837500D02*
X142750000Y-119050000D01*
%TO.N,SWDIO*%
X147900000Y-106300000D02*
X140900000Y-106300000D01*
X143250000Y-119750000D02*
X144100000Y-118900000D01*
X143250000Y-120837500D02*
X143250000Y-119750000D01*
X140900000Y-106300000D02*
X140900000Y-106360000D01*
X140900000Y-106360000D02*
X139460000Y-107800000D01*
X148600000Y-117700000D02*
X148600000Y-107000000D01*
X144100000Y-118900000D02*
X147400000Y-118900000D01*
X147400000Y-118900000D02*
X148600000Y-117700000D01*
X148600000Y-107000000D02*
X147900000Y-106300000D01*
%TO.N,SWO*%
X141750000Y-120837500D02*
X141750000Y-119050000D01*
X148100000Y-117500000D02*
X148100000Y-108820000D01*
X147800000Y-117800000D02*
X148100000Y-117500000D01*
X141750000Y-119050000D02*
X143000000Y-117800000D01*
X143000000Y-117800000D02*
X147800000Y-117800000D01*
X148100000Y-108820000D02*
X147080000Y-107800000D01*
%TO.N,NRST*%
X145000000Y-119300000D02*
X147600000Y-119300000D01*
X144500000Y-119300000D02*
X145000000Y-119300000D01*
X143900000Y-119900000D02*
X144500000Y-119300000D01*
X143100000Y-122700000D02*
X143100000Y-122400000D01*
X136337500Y-125250000D02*
X140550000Y-125250000D01*
X143100000Y-122400000D02*
X143900000Y-121600000D01*
X147600000Y-119300000D02*
X149000000Y-117900000D01*
X140550000Y-125250000D02*
X143100000Y-122700000D01*
X143900000Y-121600000D02*
X143900000Y-119900000D01*
X149300000Y-117600000D02*
X149300000Y-116000000D01*
X149000000Y-117900000D02*
X149300000Y-117600000D01*
%TO.N,USB_D-*%
X144687499Y-123725001D02*
X145971070Y-123725001D01*
X146021069Y-123775000D02*
X146071069Y-123725000D01*
X145971070Y-123725001D02*
X146021069Y-123775000D01*
X144662500Y-123750000D02*
X144687499Y-123725001D01*
%TO.N,USB_D+*%
X144662500Y-123250000D02*
X144687499Y-123274999D01*
X146021069Y-123225000D02*
X146071069Y-123275000D01*
X145971070Y-123274999D02*
X146021069Y-123225000D01*
X144687499Y-123274999D02*
X145971070Y-123274999D01*
%TO.N,TX*%
X147250000Y-124750000D02*
X147750000Y-125250000D01*
X144662500Y-124750000D02*
X147250000Y-124750000D01*
X147750000Y-125250000D02*
X147750000Y-125662500D01*
%TO.N,RX*%
X146650000Y-132100000D02*
X150257143Y-132100000D01*
X150700000Y-131657143D02*
X150700000Y-127200000D01*
X148750000Y-124750000D02*
X147837500Y-123837500D01*
X147837500Y-123837500D02*
X147750000Y-123837500D01*
X146250000Y-132500000D02*
X146650000Y-132100000D01*
X150257143Y-132100000D02*
X150700000Y-131657143D01*
X150700000Y-127200000D02*
X148750000Y-125250000D01*
X144662500Y-124250000D02*
X147337500Y-124250000D01*
X147337500Y-124250000D02*
X147750000Y-123837500D01*
X148750000Y-125250000D02*
X148750000Y-124750000D01*
%TO.N,AS_SCL*%
X142250000Y-122850000D02*
X141100000Y-124000000D01*
X142250000Y-120837500D02*
X142250000Y-122850000D01*
X140700000Y-124400000D02*
X139500000Y-124400000D01*
X141100000Y-124000000D02*
X140700000Y-124400000D01*
%TO.N,AS_SDA*%
X139750000Y-117550000D02*
X139750000Y-120837500D01*
X139800000Y-117200000D02*
X139800000Y-117500000D01*
X139800000Y-117500000D02*
X139750000Y-117550000D01*
X140400000Y-116600000D02*
X139800000Y-117200000D01*
%TO.N,MCU_CANTX*%
X138700000Y-118300000D02*
X138700000Y-118700000D01*
X138750000Y-118750000D02*
X138750000Y-120837500D01*
X138700000Y-118700000D02*
X138750000Y-118750000D01*
%TO.N,MCU_CANRX*%
X139200000Y-117500000D02*
X139250000Y-117550000D01*
X139250000Y-117550000D02*
X139250000Y-120837500D01*
%TO.N,AS_OUT*%
X141500000Y-117200000D02*
X140650000Y-117200000D01*
X140250000Y-117600000D02*
X140250000Y-120837500D01*
X140650000Y-117200000D02*
X140250000Y-117600000D01*
%TO.N,AS_DIR*%
X140767933Y-119344292D02*
X140800000Y-119376359D01*
X140800000Y-119376359D02*
X140800000Y-120787500D01*
X140800000Y-120787500D02*
X140750000Y-120837500D01*
%TO.N,AS_PGO*%
X141250000Y-118450000D02*
X141250000Y-120837500D01*
X141900000Y-117800000D02*
X141250000Y-118450000D01*
%TO.N,DIAG*%
X145398000Y-133898000D02*
X145398000Y-133330900D01*
X146892134Y-130276000D02*
X147069134Y-130099000D01*
X148599000Y-128500000D02*
X148151000Y-128052000D01*
X147318800Y-127953000D02*
X147001700Y-127953000D01*
X144801000Y-131299000D02*
X145828433Y-130271567D01*
X145832866Y-130276000D02*
X146892134Y-130276000D01*
X148599000Y-129583900D02*
X148599000Y-128500000D01*
X145798700Y-126750000D02*
X144662500Y-126750000D01*
X144801000Y-132733900D02*
X144801000Y-131299000D01*
X145828433Y-130271567D02*
X145832866Y-130276000D01*
X147417800Y-128052000D02*
X147318800Y-127953000D01*
X148151000Y-128052000D02*
X147417800Y-128052000D01*
X148083900Y-130099000D02*
X148599000Y-129583900D01*
X145750000Y-134250000D02*
X145398000Y-133898000D01*
X147069134Y-130099000D02*
X148083900Y-130099000D01*
X145398000Y-133330900D02*
X144801000Y-132733900D01*
X147001700Y-127953000D02*
X145798700Y-126750000D01*
%TO.N,STEP*%
X146750000Y-125750000D02*
X146250000Y-125250000D01*
X147500000Y-126750000D02*
X146750000Y-126000000D01*
X146750000Y-126000000D02*
X146750000Y-125750000D01*
X149500000Y-126750000D02*
X147500000Y-126750000D01*
X150031801Y-129450000D02*
X150000000Y-129418199D01*
X146250000Y-125250000D02*
X144662500Y-125250000D01*
X150000000Y-129418199D02*
X150000000Y-127250000D01*
X150000000Y-127250000D02*
X149500000Y-126750000D01*
%TO.N,SPREAD*%
X145500000Y-128750000D02*
X145750000Y-128500000D01*
X145000000Y-130443134D02*
X145500000Y-129943134D01*
X143124000Y-132276000D02*
X144054634Y-132276000D01*
X145250000Y-139000000D02*
X143584619Y-137334619D01*
X142766100Y-136499000D02*
X142749000Y-136499000D01*
X144054634Y-132276000D02*
X144363500Y-131967134D01*
X143584619Y-137317519D02*
X142766100Y-136499000D01*
X145750000Y-128500000D02*
X145750000Y-127268400D01*
X144363500Y-131036500D02*
X144956866Y-130443134D01*
X145731600Y-127250000D02*
X144662500Y-127250000D01*
X147200000Y-139000000D02*
X145250000Y-139000000D01*
X143584619Y-137334619D02*
X143584619Y-137317519D01*
X142600000Y-136350000D02*
X142600000Y-132800000D01*
X142600000Y-132800000D02*
X143124000Y-132276000D01*
X144956866Y-130443134D02*
X145000000Y-130443134D01*
X145750000Y-127268400D02*
X145731600Y-127250000D01*
X145500000Y-129943134D02*
X145500000Y-128750000D01*
X142749000Y-136499000D02*
X142600000Y-136350000D01*
X144363500Y-131967134D02*
X144363500Y-131036500D01*
%TO.N,DIR*%
X147750000Y-127250000D02*
X147651000Y-127151000D01*
X146349000Y-126166100D02*
X146349000Y-126083900D01*
X147333900Y-127151000D02*
X146349000Y-126166100D01*
X149500000Y-131000000D02*
X149500000Y-127500000D01*
X146349000Y-126083900D02*
X146015100Y-125750000D01*
X147651000Y-127151000D02*
X147333900Y-127151000D01*
X149500000Y-127500000D02*
X149250000Y-127250000D01*
X146015100Y-125750000D02*
X144662500Y-125750000D01*
X149250000Y-127250000D02*
X147750000Y-127250000D01*
%TO.N,ENABLE*%
X147583900Y-127651000D02*
X147484900Y-127552000D01*
X145883550Y-130783550D02*
X146966450Y-130783550D01*
X149000000Y-128250000D02*
X148401000Y-127651000D01*
X145300000Y-131367100D02*
X145883550Y-130783550D01*
X148200000Y-138300000D02*
X146494366Y-138300000D01*
X146494366Y-138300000D02*
X146411500Y-138217134D01*
X147250000Y-130500000D02*
X148250000Y-130500000D01*
X145948000Y-126332200D02*
X145948000Y-126250000D01*
X148401000Y-127651000D02*
X147583900Y-127651000D01*
X146966450Y-130783550D02*
X147250000Y-130500000D01*
X150650044Y-137898957D02*
X150649001Y-137900000D01*
X145948000Y-126250000D02*
X144662500Y-126250000D01*
X146411500Y-138217134D02*
X146411500Y-133411500D01*
X148600000Y-137900000D02*
X148200000Y-138300000D01*
X145300000Y-132300000D02*
X145300000Y-131367100D01*
X147167800Y-127552000D02*
X145948000Y-126332200D01*
X146411500Y-133411500D02*
X145300000Y-132300000D01*
X147484900Y-127552000D02*
X147167800Y-127552000D01*
X150649001Y-137900000D02*
X148600000Y-137900000D01*
X149000000Y-129750000D02*
X149000000Y-128250000D01*
X148250000Y-130500000D02*
X149000000Y-129750000D01*
D37*
%TO.N,/OB1*%
X154300000Y-137100000D02*
X155900000Y-138700000D01*
X157900000Y-138700000D02*
X158950000Y-139750000D01*
X155900000Y-138700000D02*
X157900000Y-138700000D01*
X158950000Y-139750000D02*
X165525000Y-139750000D01*
%TO.N,/OB2*%
X159750000Y-142250000D02*
X165525000Y-142250000D01*
X152100859Y-138600859D02*
X153000000Y-139500000D01*
X152100859Y-138400859D02*
X152100859Y-138600859D01*
X153000000Y-139500000D02*
X157000000Y-139500000D01*
X151700000Y-138000000D02*
X152100859Y-138400859D01*
X157000000Y-139500000D02*
X159750000Y-142250000D01*
%TO.N,/OA1*%
X153292682Y-134000000D02*
X156000000Y-134000000D01*
X156000000Y-134000000D02*
X156750000Y-134750000D01*
X156750000Y-134750000D02*
X165525000Y-134750000D01*
X153076338Y-134216344D02*
X153292682Y-134000000D01*
%TO.N,/OA2*%
X154100000Y-134700000D02*
X154400000Y-135000000D01*
X154400000Y-135300000D02*
X156350000Y-137250000D01*
X154100000Y-134650000D02*
X154100000Y-134700000D01*
X154400000Y-135000000D02*
X154400000Y-135300000D01*
X156350000Y-137250000D02*
X165525000Y-137250000D01*
%TD*%
%TA.AperFunction,Conductor*%
%TO.N,GND*%
G36*
X130614733Y-124704497D02*
G01*
X130630692Y-124704008D01*
X130663230Y-124717680D01*
X130676271Y-124725507D01*
X130681284Y-124730520D01*
X130768095Y-124780639D01*
X130768996Y-124781159D01*
X130769014Y-124781170D01*
X130798270Y-124798061D01*
X130818215Y-124809577D01*
X130970943Y-124850501D01*
X130970946Y-124850501D01*
X130976000Y-124850501D01*
X131043039Y-124870186D01*
X131088794Y-124922990D01*
X131100000Y-124974501D01*
X131100000Y-126588115D01*
X131080315Y-126655154D01*
X131027511Y-126700909D01*
X130958353Y-126710853D01*
X130894797Y-126681828D01*
X130876734Y-126662426D01*
X130787190Y-126542812D01*
X130787187Y-126542809D01*
X130672093Y-126456649D01*
X130672086Y-126456645D01*
X130537379Y-126406403D01*
X130537372Y-126406401D01*
X130477844Y-126400000D01*
X129980000Y-126400000D01*
X129980000Y-127776000D01*
X129960315Y-127843039D01*
X129907511Y-127888794D01*
X129856000Y-127900000D01*
X129730000Y-127900000D01*
X129730000Y-128026000D01*
X129710315Y-128093039D01*
X129657511Y-128138794D01*
X129606000Y-128150000D01*
X128530000Y-128150000D01*
X128530000Y-128947844D01*
X128536401Y-129007372D01*
X128536403Y-129007379D01*
X128586645Y-129142086D01*
X128586649Y-129142093D01*
X128672809Y-129257187D01*
X128672812Y-129257190D01*
X128787906Y-129343350D01*
X128787913Y-129343354D01*
X128922620Y-129393596D01*
X128922627Y-129393598D01*
X128982155Y-129399999D01*
X128982172Y-129400000D01*
X129502430Y-129400000D01*
X129569469Y-129419685D01*
X129615224Y-129472489D01*
X129625168Y-129541647D01*
X129607968Y-129589098D01*
X129602049Y-129598692D01*
X129602046Y-129598699D01*
X129547819Y-129762347D01*
X129537500Y-129863345D01*
X129537500Y-129900000D01*
X130451000Y-129900000D01*
X130518039Y-129919685D01*
X130563794Y-129972489D01*
X130575000Y-130024000D01*
X130575000Y-130150000D01*
X130701000Y-130150000D01*
X130768039Y-130169685D01*
X130813794Y-130222489D01*
X130825000Y-130274000D01*
X130825000Y-131124999D01*
X130924140Y-131124999D01*
X130924152Y-131124998D01*
X130963397Y-131120989D01*
X131032090Y-131133758D01*
X131082975Y-131181639D01*
X131100000Y-131244347D01*
X131100000Y-131520155D01*
X131080315Y-131587194D01*
X131027511Y-131632949D01*
X131027312Y-131633040D01*
X130244453Y-131988885D01*
X130193141Y-132000000D01*
X125474000Y-132000000D01*
X125406961Y-131980315D01*
X125361206Y-131927511D01*
X125350000Y-131876000D01*
X125350000Y-130436654D01*
X129537501Y-130436654D01*
X129547819Y-130537652D01*
X129602046Y-130701300D01*
X129602051Y-130701311D01*
X129692552Y-130848034D01*
X129692555Y-130848038D01*
X129814461Y-130969944D01*
X129814465Y-130969947D01*
X129961188Y-131060448D01*
X129961199Y-131060453D01*
X130124847Y-131114680D01*
X130225851Y-131124999D01*
X130325000Y-131124998D01*
X130325000Y-130400000D01*
X129537501Y-130400000D01*
X129537501Y-130436654D01*
X125350000Y-130436654D01*
X125350000Y-126852155D01*
X128530000Y-126852155D01*
X128530000Y-127650000D01*
X129480000Y-127650000D01*
X129480000Y-126400000D01*
X128982155Y-126400000D01*
X128922627Y-126406401D01*
X128922620Y-126406403D01*
X128787913Y-126456645D01*
X128787906Y-126456649D01*
X128672812Y-126542809D01*
X128672809Y-126542812D01*
X128586649Y-126657906D01*
X128586645Y-126657913D01*
X128536403Y-126792620D01*
X128536401Y-126792627D01*
X128530000Y-126852155D01*
X125350000Y-126852155D01*
X125350000Y-124824000D01*
X125369685Y-124756961D01*
X125422489Y-124711206D01*
X125474000Y-124700000D01*
X130599418Y-124700000D01*
X130614733Y-124704497D01*
G37*
%TD.AperFunction*%
%TD*%
%TA.AperFunction,Conductor*%
%TO.N,GND*%
G36*
X150861980Y-132502383D02*
G01*
X150921480Y-132514218D01*
X150966175Y-132532730D01*
X151006272Y-132559522D01*
X151012164Y-132565414D01*
X151016896Y-132567474D01*
X151040476Y-132593726D01*
X151067267Y-132633822D01*
X151085781Y-132678517D01*
X151089542Y-132697427D01*
X151097617Y-132738019D01*
X151100000Y-132762210D01*
X151100000Y-137237789D01*
X151097617Y-137261982D01*
X151085781Y-137321482D01*
X151082590Y-137329183D01*
X151082499Y-137334341D01*
X151067267Y-137366179D01*
X151040481Y-137406268D01*
X151006269Y-137440479D01*
X150971975Y-137463394D01*
X150966179Y-137467267D01*
X150921482Y-137485781D01*
X150887857Y-137492469D01*
X150861978Y-137497617D01*
X150837789Y-137500000D01*
X147062211Y-137500000D01*
X147038020Y-137497617D01*
X147023189Y-137494667D01*
X146978518Y-137485781D01*
X146933822Y-137467267D01*
X146893727Y-137440477D01*
X146859522Y-137406272D01*
X146832730Y-137366175D01*
X146814218Y-137321480D01*
X146802383Y-137261980D01*
X146800000Y-137237789D01*
X146800000Y-132762210D01*
X146802383Y-132738019D01*
X146814219Y-132678517D01*
X146832729Y-132633826D01*
X146859524Y-132593724D01*
X146893724Y-132559524D01*
X146933826Y-132532729D01*
X146978514Y-132514219D01*
X147038028Y-132502381D01*
X147062211Y-132500000D01*
X150837789Y-132500000D01*
X150861980Y-132502383D01*
G37*
%TD.AperFunction*%
%TD*%
%TA.AperFunction,Conductor*%
%TO.N,GND*%
G36*
X133043039Y-115719685D02*
G01*
X133088794Y-115772489D01*
X133100000Y-115824000D01*
X133100000Y-117400000D01*
X133720358Y-117400000D01*
X133787397Y-117419685D01*
X133833152Y-117472489D01*
X133843096Y-117541647D01*
X133814071Y-117605203D01*
X133806787Y-117612166D01*
X133807069Y-117612448D01*
X133680055Y-117739461D01*
X133680052Y-117739465D01*
X133589551Y-117886188D01*
X133589546Y-117886199D01*
X133535319Y-118049847D01*
X133525000Y-118150845D01*
X133525000Y-118250000D01*
X137224999Y-118250000D01*
X137224999Y-118150860D01*
X137224998Y-118150845D01*
X137214680Y-118049847D01*
X137197611Y-117998335D01*
X137195209Y-117928507D01*
X137230941Y-117868465D01*
X137293461Y-117837272D01*
X137362920Y-117844832D01*
X137400126Y-117868868D01*
X138261044Y-118675979D01*
X138296488Y-118736191D01*
X138299173Y-118750246D01*
X138299499Y-118752723D01*
X138326793Y-118854588D01*
X138326793Y-118854589D01*
X138332886Y-118865141D01*
X138349500Y-118927142D01*
X138349500Y-119869100D01*
X138343261Y-119890345D01*
X138341682Y-119912434D01*
X138333609Y-119923217D01*
X138329815Y-119936139D01*
X138313081Y-119950638D01*
X138299810Y-119968367D01*
X138287189Y-119973074D01*
X138277011Y-119981894D01*
X138255093Y-119985045D01*
X138234346Y-119992784D01*
X138221185Y-119989921D01*
X138207853Y-119991838D01*
X138187709Y-119982638D01*
X138166073Y-119977932D01*
X138148347Y-119964663D01*
X138144297Y-119962813D01*
X138137819Y-119956781D01*
X138136319Y-119955281D01*
X138102834Y-119893958D01*
X138100000Y-119867600D01*
X138100000Y-119604911D01*
X138083968Y-119590852D01*
X138071144Y-119588852D01*
X138018891Y-119542469D01*
X138000000Y-119476681D01*
X138000000Y-119300000D01*
X137267780Y-119300000D01*
X137200741Y-119280315D01*
X137154986Y-119227511D01*
X137145042Y-119158353D01*
X137158612Y-119120917D01*
X137157399Y-119120351D01*
X137160453Y-119113800D01*
X137214680Y-118950152D01*
X137224999Y-118849154D01*
X137225000Y-118849141D01*
X137225000Y-118750000D01*
X133525001Y-118750000D01*
X133525001Y-118849154D01*
X133535319Y-118950152D01*
X133589546Y-119113800D01*
X133589551Y-119113811D01*
X133680052Y-119260534D01*
X133680055Y-119260538D01*
X133801961Y-119382444D01*
X133801965Y-119382447D01*
X133819824Y-119393463D01*
X133866549Y-119445411D01*
X133877770Y-119514373D01*
X133853531Y-119573926D01*
X133789139Y-119658839D01*
X133734882Y-119796424D01*
X133734882Y-119796425D01*
X133724500Y-119882881D01*
X133724500Y-120567118D01*
X133734882Y-120653574D01*
X133734882Y-120653575D01*
X133789139Y-120791160D01*
X133878499Y-120909000D01*
X133921194Y-120941376D01*
X133996342Y-120998362D01*
X134133923Y-121052617D01*
X134191562Y-121059539D01*
X134220381Y-121063000D01*
X134220382Y-121063000D01*
X134532745Y-121063000D01*
X134562185Y-121071644D01*
X134592172Y-121078168D01*
X134597187Y-121081922D01*
X134599784Y-121082685D01*
X134620426Y-121099319D01*
X134763681Y-121242574D01*
X134797166Y-121303897D01*
X134800000Y-121330255D01*
X134800000Y-123676000D01*
X134780315Y-123743039D01*
X134727511Y-123788794D01*
X134676000Y-123800000D01*
X133211278Y-123800000D01*
X133144239Y-123780315D01*
X133098484Y-123727511D01*
X133088540Y-123658353D01*
X133117565Y-123594797D01*
X133167945Y-123559818D01*
X133212086Y-123543354D01*
X133212093Y-123543350D01*
X133327187Y-123457190D01*
X133327190Y-123457187D01*
X133413350Y-123342093D01*
X133413354Y-123342086D01*
X133463596Y-123207379D01*
X133463598Y-123207372D01*
X133469999Y-123147844D01*
X133470000Y-123147827D01*
X133470000Y-122350000D01*
X131070000Y-122350000D01*
X131070000Y-123147838D01*
X131071236Y-123159333D01*
X131058828Y-123228092D01*
X131011216Y-123279228D01*
X130943516Y-123296505D01*
X130877223Y-123274438D01*
X130860265Y-123260265D01*
X130766818Y-123166818D01*
X130733333Y-123105495D01*
X130730499Y-123079146D01*
X130730499Y-121055136D01*
X130730155Y-121052172D01*
X130727586Y-121030014D01*
X130727586Y-121030013D01*
X130727585Y-121030011D01*
X130727585Y-121030009D01*
X130710563Y-120991459D01*
X130700000Y-120941376D01*
X130700000Y-120448388D01*
X130719685Y-120381349D01*
X130772489Y-120335594D01*
X130841647Y-120325650D01*
X130889098Y-120342850D01*
X130998692Y-120410450D01*
X130998699Y-120410453D01*
X131162348Y-120464681D01*
X131217694Y-120470335D01*
X131282386Y-120496731D01*
X131322537Y-120553911D01*
X131325401Y-120623722D01*
X131290067Y-120683999D01*
X131279404Y-120692959D01*
X131212809Y-120742812D01*
X131126649Y-120857906D01*
X131126645Y-120857913D01*
X131076403Y-120992620D01*
X131076401Y-120992627D01*
X131070000Y-121052155D01*
X131070000Y-121850000D01*
X132020000Y-121850000D01*
X132520000Y-121850000D01*
X133470000Y-121850000D01*
X133470000Y-121052172D01*
X133469999Y-121052155D01*
X133463598Y-120992627D01*
X133463596Y-120992620D01*
X133413354Y-120857913D01*
X133413350Y-120857906D01*
X133327190Y-120742812D01*
X133327187Y-120742809D01*
X133212093Y-120656649D01*
X133212086Y-120656645D01*
X133077379Y-120606403D01*
X133077372Y-120606401D01*
X133017844Y-120600000D01*
X132520000Y-120600000D01*
X132520000Y-121850000D01*
X132020000Y-121850000D01*
X132020000Y-120568355D01*
X132026865Y-120544975D01*
X132029502Y-120520751D01*
X132036533Y-120512049D01*
X132039685Y-120501316D01*
X132058098Y-120485360D01*
X132073415Y-120466405D01*
X132088876Y-120458691D01*
X132092489Y-120455561D01*
X132104997Y-120450649D01*
X132164500Y-120430932D01*
X132226298Y-120410454D01*
X132226311Y-120410448D01*
X132373034Y-120319947D01*
X132373038Y-120319944D01*
X132494944Y-120198038D01*
X132494947Y-120198034D01*
X132585448Y-120051311D01*
X132585453Y-120051300D01*
X132639680Y-119887652D01*
X132649999Y-119786654D01*
X132650000Y-119786641D01*
X132650000Y-119750000D01*
X131736500Y-119750000D01*
X131669461Y-119730315D01*
X131623706Y-119677511D01*
X131612500Y-119626000D01*
X131612500Y-119500000D01*
X131486500Y-119500000D01*
X131419461Y-119480315D01*
X131373706Y-119427511D01*
X131362500Y-119376000D01*
X131362500Y-119250000D01*
X131862500Y-119250000D01*
X132649999Y-119250000D01*
X132649999Y-119213360D01*
X132649998Y-119213345D01*
X132639680Y-119112347D01*
X132585453Y-118948699D01*
X132585448Y-118948688D01*
X132494947Y-118801965D01*
X132494944Y-118801961D01*
X132373038Y-118680055D01*
X132373034Y-118680052D01*
X132226311Y-118589551D01*
X132226300Y-118589546D01*
X132062652Y-118535319D01*
X131961654Y-118525000D01*
X131862500Y-118525000D01*
X131862500Y-119250000D01*
X131362500Y-119250000D01*
X131362500Y-118524999D01*
X131263360Y-118525000D01*
X131263344Y-118525001D01*
X131162347Y-118535319D01*
X130998699Y-118589546D01*
X130998688Y-118589551D01*
X130889097Y-118657149D01*
X130821705Y-118675590D01*
X130755041Y-118654668D01*
X130710272Y-118601026D01*
X130700000Y-118551611D01*
X130700000Y-115824000D01*
X130719685Y-115756961D01*
X130772489Y-115711206D01*
X130824000Y-115700000D01*
X132976000Y-115700000D01*
X133043039Y-115719685D01*
G37*
%TD.AperFunction*%
%TD*%
%TA.AperFunction,Conductor*%
%TO.N,GND*%
G36*
X161442539Y-117869685D02*
G01*
X161488294Y-117922489D01*
X161499500Y-117974000D01*
X161499500Y-129607317D01*
X161530044Y-129819764D01*
X161530047Y-129819774D01*
X161590517Y-130025715D01*
X161679672Y-130220938D01*
X161679679Y-130220951D01*
X161795720Y-130401514D01*
X161936275Y-130563724D01*
X162073105Y-130682287D01*
X162110879Y-130741065D01*
X162110879Y-130810935D01*
X162073105Y-130869713D01*
X162009549Y-130898738D01*
X161991902Y-130900000D01*
X158801362Y-130900000D01*
X158734323Y-130880315D01*
X158713681Y-130863681D01*
X155436319Y-127586319D01*
X155402834Y-127524996D01*
X155400000Y-127498638D01*
X155400000Y-126796866D01*
X158262500Y-126796866D01*
X158262500Y-127023133D01*
X158297895Y-127246611D01*
X158367818Y-127461810D01*
X158470542Y-127663418D01*
X158522084Y-127734359D01*
X158522085Y-127734360D01*
X159118092Y-127138353D01*
X159146132Y-127206048D01*
X159214531Y-127308414D01*
X159301586Y-127395469D01*
X159403952Y-127463868D01*
X159471645Y-127491907D01*
X158875638Y-128087913D01*
X158946585Y-128139459D01*
X159148189Y-128242181D01*
X159363388Y-128312104D01*
X159363387Y-128312104D01*
X159586867Y-128347500D01*
X159813133Y-128347500D01*
X160036611Y-128312104D01*
X160251810Y-128242181D01*
X160453406Y-128139463D01*
X160453412Y-128139459D01*
X160524359Y-128087913D01*
X160524360Y-128087913D01*
X159928353Y-127491907D01*
X159996048Y-127463868D01*
X160098414Y-127395469D01*
X160185469Y-127308414D01*
X160253868Y-127206048D01*
X160281907Y-127138353D01*
X160877913Y-127734360D01*
X160877913Y-127734359D01*
X160929459Y-127663412D01*
X160929463Y-127663406D01*
X161032181Y-127461810D01*
X161102104Y-127246611D01*
X161137500Y-127023133D01*
X161137500Y-126796866D01*
X161102104Y-126573388D01*
X161032181Y-126358189D01*
X160929459Y-126156585D01*
X160877913Y-126085639D01*
X160877913Y-126085638D01*
X160281907Y-126681645D01*
X160253868Y-126613952D01*
X160185469Y-126511586D01*
X160098414Y-126424531D01*
X159996048Y-126356132D01*
X159928353Y-126328092D01*
X160524360Y-125732085D01*
X160524359Y-125732084D01*
X160453418Y-125680542D01*
X160251810Y-125577818D01*
X160036611Y-125507895D01*
X160036612Y-125507895D01*
X159813133Y-125472500D01*
X159586867Y-125472500D01*
X159363388Y-125507895D01*
X159148189Y-125577818D01*
X158946587Y-125680539D01*
X158875639Y-125732085D01*
X159471646Y-126328092D01*
X159403952Y-126356132D01*
X159301586Y-126424531D01*
X159214531Y-126511586D01*
X159146132Y-126613952D01*
X159118092Y-126681646D01*
X158522085Y-126085639D01*
X158470539Y-126156587D01*
X158367818Y-126358189D01*
X158297895Y-126573388D01*
X158262500Y-126796866D01*
X155400000Y-126796866D01*
X155400000Y-124424500D01*
X155419685Y-124357461D01*
X155472489Y-124311706D01*
X155524000Y-124300500D01*
X156245500Y-124300500D01*
X156312539Y-124320185D01*
X156358294Y-124372989D01*
X156369500Y-124424500D01*
X156369500Y-124844856D01*
X156369502Y-124844882D01*
X156372413Y-124869987D01*
X156372415Y-124869991D01*
X156417793Y-124972764D01*
X156417794Y-124972765D01*
X156497235Y-125052206D01*
X156600009Y-125097585D01*
X156625135Y-125100500D01*
X158014864Y-125100499D01*
X158014879Y-125100497D01*
X158014882Y-125100497D01*
X158039987Y-125097586D01*
X158039988Y-125097585D01*
X158039991Y-125097585D01*
X158142765Y-125052206D01*
X158222206Y-124972765D01*
X158267585Y-124869991D01*
X158270500Y-124844865D01*
X158270499Y-124355136D01*
X158270497Y-124355117D01*
X158267586Y-124330013D01*
X158267585Y-124330011D01*
X158267585Y-124330009D01*
X158265411Y-124325086D01*
X158256339Y-124255812D01*
X158265412Y-124224911D01*
X158267585Y-124219991D01*
X158270500Y-124194865D01*
X158270499Y-123705136D01*
X158270497Y-123705117D01*
X158267586Y-123680013D01*
X158267585Y-123680011D01*
X158267585Y-123680009D01*
X158265411Y-123675086D01*
X158256339Y-123605812D01*
X158265412Y-123574911D01*
X158267585Y-123569991D01*
X158270500Y-123544865D01*
X158270499Y-123055136D01*
X158270497Y-123055117D01*
X158267586Y-123030013D01*
X158267585Y-123030011D01*
X158267585Y-123030009D01*
X158265411Y-123025086D01*
X158256339Y-122955812D01*
X158265412Y-122924911D01*
X158267585Y-122919991D01*
X158270500Y-122894865D01*
X158270500Y-122661693D01*
X158290183Y-122594657D01*
X158320194Y-122562425D01*
X158327188Y-122557189D01*
X158413352Y-122442088D01*
X158413354Y-122442086D01*
X158463596Y-122307379D01*
X158463598Y-122307372D01*
X158469999Y-122247844D01*
X158470000Y-122247827D01*
X158470000Y-122200000D01*
X158173918Y-122200000D01*
X158123831Y-122189434D01*
X158039992Y-122152415D01*
X158014868Y-122149500D01*
X156625143Y-122149500D01*
X156625117Y-122149502D01*
X156600012Y-122152413D01*
X156600008Y-122152415D01*
X156516168Y-122189434D01*
X156466082Y-122200000D01*
X156170000Y-122200000D01*
X156170000Y-122247844D01*
X156176401Y-122307372D01*
X156176403Y-122307379D01*
X156226645Y-122442086D01*
X156226647Y-122442088D01*
X156312809Y-122557186D01*
X156312811Y-122557188D01*
X156319809Y-122562427D01*
X156322546Y-122566083D01*
X156326701Y-122567981D01*
X156343290Y-122593793D01*
X156361681Y-122618359D01*
X156362696Y-122623987D01*
X156364477Y-122626758D01*
X156369500Y-122661693D01*
X156369501Y-122725498D01*
X156349817Y-122792538D01*
X156297014Y-122838294D01*
X156245501Y-122849500D01*
X155524000Y-122849500D01*
X155456961Y-122829815D01*
X155411206Y-122777011D01*
X155400000Y-122725500D01*
X155400000Y-122350000D01*
X154802155Y-121752155D01*
X156170000Y-121752155D01*
X156170000Y-121800000D01*
X157120000Y-121800000D01*
X157520000Y-121800000D01*
X158470000Y-121800000D01*
X158470000Y-121752172D01*
X158469999Y-121752155D01*
X158463598Y-121692627D01*
X158463596Y-121692620D01*
X158413354Y-121557913D01*
X158413350Y-121557906D01*
X158327190Y-121442812D01*
X158327187Y-121442809D01*
X158212093Y-121356649D01*
X158212086Y-121356645D01*
X158077379Y-121306403D01*
X158077372Y-121306401D01*
X158017844Y-121300000D01*
X157520000Y-121300000D01*
X157520000Y-121800000D01*
X157120000Y-121800000D01*
X157120000Y-121300000D01*
X156622155Y-121300000D01*
X156562627Y-121306401D01*
X156562620Y-121306403D01*
X156427913Y-121356645D01*
X156427906Y-121356649D01*
X156312812Y-121442809D01*
X156312809Y-121442812D01*
X156226649Y-121557906D01*
X156226645Y-121557913D01*
X156176403Y-121692620D01*
X156176401Y-121692627D01*
X156170000Y-121752155D01*
X154802155Y-121752155D01*
X153300000Y-120250000D01*
X151663862Y-120250000D01*
X151596823Y-120230315D01*
X151576181Y-120213681D01*
X151036319Y-119673819D01*
X151021615Y-119646891D01*
X151005023Y-119621073D01*
X151004131Y-119614872D01*
X151002834Y-119612496D01*
X151000000Y-119586138D01*
X151000000Y-119576866D01*
X158262500Y-119576866D01*
X158262500Y-119803133D01*
X158297895Y-120026611D01*
X158367818Y-120241810D01*
X158470542Y-120443418D01*
X158522084Y-120514359D01*
X158522085Y-120514360D01*
X159118092Y-119918353D01*
X159146132Y-119986048D01*
X159214531Y-120088414D01*
X159301586Y-120175469D01*
X159403952Y-120243868D01*
X159471645Y-120271907D01*
X158875638Y-120867913D01*
X158946585Y-120919459D01*
X159148189Y-121022181D01*
X159363388Y-121092104D01*
X159363387Y-121092104D01*
X159586867Y-121127500D01*
X159813133Y-121127500D01*
X160036611Y-121092104D01*
X160251810Y-121022181D01*
X160453406Y-120919463D01*
X160453412Y-120919459D01*
X160524359Y-120867913D01*
X160524360Y-120867913D01*
X159928353Y-120271907D01*
X159996048Y-120243868D01*
X160098414Y-120175469D01*
X160185469Y-120088414D01*
X160253868Y-119986048D01*
X160281907Y-119918353D01*
X160877913Y-120514360D01*
X160877913Y-120514359D01*
X160929459Y-120443412D01*
X160929463Y-120443406D01*
X161032181Y-120241810D01*
X161102104Y-120026611D01*
X161137500Y-119803133D01*
X161137500Y-119576866D01*
X161102104Y-119353388D01*
X161032181Y-119138189D01*
X160929459Y-118936585D01*
X160877913Y-118865639D01*
X160877913Y-118865638D01*
X160281907Y-119461645D01*
X160253868Y-119393952D01*
X160185469Y-119291586D01*
X160098414Y-119204531D01*
X159996048Y-119136132D01*
X159928353Y-119108092D01*
X160524360Y-118512085D01*
X160524359Y-118512084D01*
X160453418Y-118460542D01*
X160251810Y-118357818D01*
X160036611Y-118287895D01*
X160036612Y-118287895D01*
X159813133Y-118252500D01*
X159586867Y-118252500D01*
X159363388Y-118287895D01*
X159148189Y-118357818D01*
X158946587Y-118460539D01*
X158875639Y-118512085D01*
X159471646Y-119108092D01*
X159403952Y-119136132D01*
X159301586Y-119204531D01*
X159214531Y-119291586D01*
X159146132Y-119393952D01*
X159118092Y-119461646D01*
X158522085Y-118865639D01*
X158470539Y-118936587D01*
X158367818Y-119138189D01*
X158297895Y-119353388D01*
X158262500Y-119576866D01*
X151000000Y-119576866D01*
X151000000Y-118451362D01*
X151019685Y-118384323D01*
X151036319Y-118363681D01*
X151513681Y-117886319D01*
X151575004Y-117852834D01*
X151601362Y-117850000D01*
X161375500Y-117850000D01*
X161442539Y-117869685D01*
G37*
%TD.AperFunction*%
%TD*%
M02*
