%TF.GenerationSoftware,KiCad,Pcbnew,9.0.2*%
%TF.CreationDate,2025-07-23T20:38:51-05:00*%
%TF.ProjectId,Smart Motor,536d6172-7420-44d6-9f74-6f722e6b6963,rev?*%
%TF.SameCoordinates,Original*%
%TF.FileFunction,Legend,Bot*%
%TF.FilePolarity,Positive*%
%FSLAX46Y46*%
G04 Gerber Fmt 4.6, Leading zero omitted, Abs format (unit mm)*
G04 Created by KiCad (PCBNEW 9.0.2) date 2025-07-23 20:38:51*
%MOMM*%
%LPD*%
G01*
G04 APERTURE LIST*
%ADD10C,0.150000*%
%ADD11C,0.120000*%
%ADD12C,0.152400*%
G04 APERTURE END LIST*
D10*
X153704819Y-129333333D02*
X153228628Y-129000000D01*
X153704819Y-128761905D02*
X152704819Y-128761905D01*
X152704819Y-128761905D02*
X152704819Y-129142857D01*
X152704819Y-129142857D02*
X152752438Y-129238095D01*
X152752438Y-129238095D02*
X152800057Y-129285714D01*
X152800057Y-129285714D02*
X152895295Y-129333333D01*
X152895295Y-129333333D02*
X153038152Y-129333333D01*
X153038152Y-129333333D02*
X153133390Y-129285714D01*
X153133390Y-129285714D02*
X153181009Y-129238095D01*
X153181009Y-129238095D02*
X153228628Y-129142857D01*
X153228628Y-129142857D02*
X153228628Y-128761905D01*
X152800057Y-129714286D02*
X152752438Y-129761905D01*
X152752438Y-129761905D02*
X152704819Y-129857143D01*
X152704819Y-129857143D02*
X152704819Y-130095238D01*
X152704819Y-130095238D02*
X152752438Y-130190476D01*
X152752438Y-130190476D02*
X152800057Y-130238095D01*
X152800057Y-130238095D02*
X152895295Y-130285714D01*
X152895295Y-130285714D02*
X152990533Y-130285714D01*
X152990533Y-130285714D02*
X153133390Y-130238095D01*
X153133390Y-130238095D02*
X153704819Y-129666667D01*
X153704819Y-129666667D02*
X153704819Y-130285714D01*
X131054819Y-145233331D02*
X130578628Y-144899998D01*
X131054819Y-144661903D02*
X130054819Y-144661903D01*
X130054819Y-144661903D02*
X130054819Y-145042855D01*
X130054819Y-145042855D02*
X130102438Y-145138093D01*
X130102438Y-145138093D02*
X130150057Y-145185712D01*
X130150057Y-145185712D02*
X130245295Y-145233331D01*
X130245295Y-145233331D02*
X130388152Y-145233331D01*
X130388152Y-145233331D02*
X130483390Y-145185712D01*
X130483390Y-145185712D02*
X130531009Y-145138093D01*
X130531009Y-145138093D02*
X130578628Y-145042855D01*
X130578628Y-145042855D02*
X130578628Y-144661903D01*
X131054819Y-145709522D02*
X131054819Y-145899998D01*
X131054819Y-145899998D02*
X131007200Y-145995236D01*
X131007200Y-145995236D02*
X130959580Y-146042855D01*
X130959580Y-146042855D02*
X130816723Y-146138093D01*
X130816723Y-146138093D02*
X130626247Y-146185712D01*
X130626247Y-146185712D02*
X130245295Y-146185712D01*
X130245295Y-146185712D02*
X130150057Y-146138093D01*
X130150057Y-146138093D02*
X130102438Y-146090474D01*
X130102438Y-146090474D02*
X130054819Y-145995236D01*
X130054819Y-145995236D02*
X130054819Y-145804760D01*
X130054819Y-145804760D02*
X130102438Y-145709522D01*
X130102438Y-145709522D02*
X130150057Y-145661903D01*
X130150057Y-145661903D02*
X130245295Y-145614284D01*
X130245295Y-145614284D02*
X130483390Y-145614284D01*
X130483390Y-145614284D02*
X130578628Y-145661903D01*
X130578628Y-145661903D02*
X130626247Y-145709522D01*
X130626247Y-145709522D02*
X130673866Y-145804760D01*
X130673866Y-145804760D02*
X130673866Y-145995236D01*
X130673866Y-145995236D02*
X130626247Y-146090474D01*
X130626247Y-146090474D02*
X130578628Y-146138093D01*
X130578628Y-146138093D02*
X130483390Y-146185712D01*
X149811904Y-130354819D02*
X149811904Y-131164342D01*
X149811904Y-131164342D02*
X149764285Y-131259580D01*
X149764285Y-131259580D02*
X149716666Y-131307200D01*
X149716666Y-131307200D02*
X149621428Y-131354819D01*
X149621428Y-131354819D02*
X149430952Y-131354819D01*
X149430952Y-131354819D02*
X149335714Y-131307200D01*
X149335714Y-131307200D02*
X149288095Y-131259580D01*
X149288095Y-131259580D02*
X149240476Y-131164342D01*
X149240476Y-131164342D02*
X149240476Y-130354819D01*
X148811904Y-130450057D02*
X148764285Y-130402438D01*
X148764285Y-130402438D02*
X148669047Y-130354819D01*
X148669047Y-130354819D02*
X148430952Y-130354819D01*
X148430952Y-130354819D02*
X148335714Y-130402438D01*
X148335714Y-130402438D02*
X148288095Y-130450057D01*
X148288095Y-130450057D02*
X148240476Y-130545295D01*
X148240476Y-130545295D02*
X148240476Y-130640533D01*
X148240476Y-130640533D02*
X148288095Y-130783390D01*
X148288095Y-130783390D02*
X148859523Y-131354819D01*
X148859523Y-131354819D02*
X148240476Y-131354819D01*
X160416666Y-138859580D02*
X160464285Y-138907200D01*
X160464285Y-138907200D02*
X160607142Y-138954819D01*
X160607142Y-138954819D02*
X160702380Y-138954819D01*
X160702380Y-138954819D02*
X160845237Y-138907200D01*
X160845237Y-138907200D02*
X160940475Y-138811961D01*
X160940475Y-138811961D02*
X160988094Y-138716723D01*
X160988094Y-138716723D02*
X161035713Y-138526247D01*
X161035713Y-138526247D02*
X161035713Y-138383390D01*
X161035713Y-138383390D02*
X160988094Y-138192914D01*
X160988094Y-138192914D02*
X160940475Y-138097676D01*
X160940475Y-138097676D02*
X160845237Y-138002438D01*
X160845237Y-138002438D02*
X160702380Y-137954819D01*
X160702380Y-137954819D02*
X160607142Y-137954819D01*
X160607142Y-137954819D02*
X160464285Y-138002438D01*
X160464285Y-138002438D02*
X160416666Y-138050057D01*
X160083332Y-137954819D02*
X159416666Y-137954819D01*
X159416666Y-137954819D02*
X159845237Y-138954819D01*
X160416666Y-131859580D02*
X160464285Y-131907200D01*
X160464285Y-131907200D02*
X160607142Y-131954819D01*
X160607142Y-131954819D02*
X160702380Y-131954819D01*
X160702380Y-131954819D02*
X160845237Y-131907200D01*
X160845237Y-131907200D02*
X160940475Y-131811961D01*
X160940475Y-131811961D02*
X160988094Y-131716723D01*
X160988094Y-131716723D02*
X161035713Y-131526247D01*
X161035713Y-131526247D02*
X161035713Y-131383390D01*
X161035713Y-131383390D02*
X160988094Y-131192914D01*
X160988094Y-131192914D02*
X160940475Y-131097676D01*
X160940475Y-131097676D02*
X160845237Y-131002438D01*
X160845237Y-131002438D02*
X160702380Y-130954819D01*
X160702380Y-130954819D02*
X160607142Y-130954819D01*
X160607142Y-130954819D02*
X160464285Y-131002438D01*
X160464285Y-131002438D02*
X160416666Y-131050057D01*
X159559523Y-130954819D02*
X159749999Y-130954819D01*
X159749999Y-130954819D02*
X159845237Y-131002438D01*
X159845237Y-131002438D02*
X159892856Y-131050057D01*
X159892856Y-131050057D02*
X159988094Y-131192914D01*
X159988094Y-131192914D02*
X160035713Y-131383390D01*
X160035713Y-131383390D02*
X160035713Y-131764342D01*
X160035713Y-131764342D02*
X159988094Y-131859580D01*
X159988094Y-131859580D02*
X159940475Y-131907200D01*
X159940475Y-131907200D02*
X159845237Y-131954819D01*
X159845237Y-131954819D02*
X159654761Y-131954819D01*
X159654761Y-131954819D02*
X159559523Y-131907200D01*
X159559523Y-131907200D02*
X159511904Y-131859580D01*
X159511904Y-131859580D02*
X159464285Y-131764342D01*
X159464285Y-131764342D02*
X159464285Y-131526247D01*
X159464285Y-131526247D02*
X159511904Y-131431009D01*
X159511904Y-131431009D02*
X159559523Y-131383390D01*
X159559523Y-131383390D02*
X159654761Y-131335771D01*
X159654761Y-131335771D02*
X159845237Y-131335771D01*
X159845237Y-131335771D02*
X159940475Y-131383390D01*
X159940475Y-131383390D02*
X159988094Y-131431009D01*
X159988094Y-131431009D02*
X160035713Y-131526247D01*
X131742857Y-138859580D02*
X131790476Y-138907200D01*
X131790476Y-138907200D02*
X131933333Y-138954819D01*
X131933333Y-138954819D02*
X132028571Y-138954819D01*
X132028571Y-138954819D02*
X132171428Y-138907200D01*
X132171428Y-138907200D02*
X132266666Y-138811961D01*
X132266666Y-138811961D02*
X132314285Y-138716723D01*
X132314285Y-138716723D02*
X132361904Y-138526247D01*
X132361904Y-138526247D02*
X132361904Y-138383390D01*
X132361904Y-138383390D02*
X132314285Y-138192914D01*
X132314285Y-138192914D02*
X132266666Y-138097676D01*
X132266666Y-138097676D02*
X132171428Y-138002438D01*
X132171428Y-138002438D02*
X132028571Y-137954819D01*
X132028571Y-137954819D02*
X131933333Y-137954819D01*
X131933333Y-137954819D02*
X131790476Y-138002438D01*
X131790476Y-138002438D02*
X131742857Y-138050057D01*
X130790476Y-138954819D02*
X131361904Y-138954819D01*
X131076190Y-138954819D02*
X131076190Y-137954819D01*
X131076190Y-137954819D02*
X131171428Y-138097676D01*
X131171428Y-138097676D02*
X131266666Y-138192914D01*
X131266666Y-138192914D02*
X131361904Y-138240533D01*
X129885714Y-137954819D02*
X130361904Y-137954819D01*
X130361904Y-137954819D02*
X130409523Y-138431009D01*
X130409523Y-138431009D02*
X130361904Y-138383390D01*
X130361904Y-138383390D02*
X130266666Y-138335771D01*
X130266666Y-138335771D02*
X130028571Y-138335771D01*
X130028571Y-138335771D02*
X129933333Y-138383390D01*
X129933333Y-138383390D02*
X129885714Y-138431009D01*
X129885714Y-138431009D02*
X129838095Y-138526247D01*
X129838095Y-138526247D02*
X129838095Y-138764342D01*
X129838095Y-138764342D02*
X129885714Y-138859580D01*
X129885714Y-138859580D02*
X129933333Y-138907200D01*
X129933333Y-138907200D02*
X130028571Y-138954819D01*
X130028571Y-138954819D02*
X130266666Y-138954819D01*
X130266666Y-138954819D02*
X130361904Y-138907200D01*
X130361904Y-138907200D02*
X130409523Y-138859580D01*
X153416666Y-135204819D02*
X153749999Y-134728628D01*
X153988094Y-135204819D02*
X153988094Y-134204819D01*
X153988094Y-134204819D02*
X153607142Y-134204819D01*
X153607142Y-134204819D02*
X153511904Y-134252438D01*
X153511904Y-134252438D02*
X153464285Y-134300057D01*
X153464285Y-134300057D02*
X153416666Y-134395295D01*
X153416666Y-134395295D02*
X153416666Y-134538152D01*
X153416666Y-134538152D02*
X153464285Y-134633390D01*
X153464285Y-134633390D02*
X153511904Y-134681009D01*
X153511904Y-134681009D02*
X153607142Y-134728628D01*
X153607142Y-134728628D02*
X153988094Y-134728628D01*
X153083332Y-134204819D02*
X152464285Y-134204819D01*
X152464285Y-134204819D02*
X152797618Y-134585771D01*
X152797618Y-134585771D02*
X152654761Y-134585771D01*
X152654761Y-134585771D02*
X152559523Y-134633390D01*
X152559523Y-134633390D02*
X152511904Y-134681009D01*
X152511904Y-134681009D02*
X152464285Y-134776247D01*
X152464285Y-134776247D02*
X152464285Y-135014342D01*
X152464285Y-135014342D02*
X152511904Y-135109580D01*
X152511904Y-135109580D02*
X152559523Y-135157200D01*
X152559523Y-135157200D02*
X152654761Y-135204819D01*
X152654761Y-135204819D02*
X152940475Y-135204819D01*
X152940475Y-135204819D02*
X153035713Y-135157200D01*
X153035713Y-135157200D02*
X153083332Y-135109580D01*
X160416666Y-135359580D02*
X160464285Y-135407200D01*
X160464285Y-135407200D02*
X160607142Y-135454819D01*
X160607142Y-135454819D02*
X160702380Y-135454819D01*
X160702380Y-135454819D02*
X160845237Y-135407200D01*
X160845237Y-135407200D02*
X160940475Y-135311961D01*
X160940475Y-135311961D02*
X160988094Y-135216723D01*
X160988094Y-135216723D02*
X161035713Y-135026247D01*
X161035713Y-135026247D02*
X161035713Y-134883390D01*
X161035713Y-134883390D02*
X160988094Y-134692914D01*
X160988094Y-134692914D02*
X160940475Y-134597676D01*
X160940475Y-134597676D02*
X160845237Y-134502438D01*
X160845237Y-134502438D02*
X160702380Y-134454819D01*
X160702380Y-134454819D02*
X160607142Y-134454819D01*
X160607142Y-134454819D02*
X160464285Y-134502438D01*
X160464285Y-134502438D02*
X160416666Y-134550057D01*
X159511904Y-134454819D02*
X159988094Y-134454819D01*
X159988094Y-134454819D02*
X160035713Y-134931009D01*
X160035713Y-134931009D02*
X159988094Y-134883390D01*
X159988094Y-134883390D02*
X159892856Y-134835771D01*
X159892856Y-134835771D02*
X159654761Y-134835771D01*
X159654761Y-134835771D02*
X159559523Y-134883390D01*
X159559523Y-134883390D02*
X159511904Y-134931009D01*
X159511904Y-134931009D02*
X159464285Y-135026247D01*
X159464285Y-135026247D02*
X159464285Y-135264342D01*
X159464285Y-135264342D02*
X159511904Y-135359580D01*
X159511904Y-135359580D02*
X159559523Y-135407200D01*
X159559523Y-135407200D02*
X159654761Y-135454819D01*
X159654761Y-135454819D02*
X159892856Y-135454819D01*
X159892856Y-135454819D02*
X159988094Y-135407200D01*
X159988094Y-135407200D02*
X160035713Y-135359580D01*
X128954819Y-145233331D02*
X128478628Y-144899998D01*
X128954819Y-144661903D02*
X127954819Y-144661903D01*
X127954819Y-144661903D02*
X127954819Y-145042855D01*
X127954819Y-145042855D02*
X128002438Y-145138093D01*
X128002438Y-145138093D02*
X128050057Y-145185712D01*
X128050057Y-145185712D02*
X128145295Y-145233331D01*
X128145295Y-145233331D02*
X128288152Y-145233331D01*
X128288152Y-145233331D02*
X128383390Y-145185712D01*
X128383390Y-145185712D02*
X128431009Y-145138093D01*
X128431009Y-145138093D02*
X128478628Y-145042855D01*
X128478628Y-145042855D02*
X128478628Y-144661903D01*
X127954819Y-146090474D02*
X127954819Y-145899998D01*
X127954819Y-145899998D02*
X128002438Y-145804760D01*
X128002438Y-145804760D02*
X128050057Y-145757141D01*
X128050057Y-145757141D02*
X128192914Y-145661903D01*
X128192914Y-145661903D02*
X128383390Y-145614284D01*
X128383390Y-145614284D02*
X128764342Y-145614284D01*
X128764342Y-145614284D02*
X128859580Y-145661903D01*
X128859580Y-145661903D02*
X128907200Y-145709522D01*
X128907200Y-145709522D02*
X128954819Y-145804760D01*
X128954819Y-145804760D02*
X128954819Y-145995236D01*
X128954819Y-145995236D02*
X128907200Y-146090474D01*
X128907200Y-146090474D02*
X128859580Y-146138093D01*
X128859580Y-146138093D02*
X128764342Y-146185712D01*
X128764342Y-146185712D02*
X128526247Y-146185712D01*
X128526247Y-146185712D02*
X128431009Y-146138093D01*
X128431009Y-146138093D02*
X128383390Y-146090474D01*
X128383390Y-146090474D02*
X128335771Y-145995236D01*
X128335771Y-145995236D02*
X128335771Y-145804760D01*
X128335771Y-145804760D02*
X128383390Y-145709522D01*
X128383390Y-145709522D02*
X128431009Y-145661903D01*
X128431009Y-145661903D02*
X128526247Y-145614284D01*
X124059580Y-126457142D02*
X124107200Y-126409523D01*
X124107200Y-126409523D02*
X124154819Y-126266666D01*
X124154819Y-126266666D02*
X124154819Y-126171428D01*
X124154819Y-126171428D02*
X124107200Y-126028571D01*
X124107200Y-126028571D02*
X124011961Y-125933333D01*
X124011961Y-125933333D02*
X123916723Y-125885714D01*
X123916723Y-125885714D02*
X123726247Y-125838095D01*
X123726247Y-125838095D02*
X123583390Y-125838095D01*
X123583390Y-125838095D02*
X123392914Y-125885714D01*
X123392914Y-125885714D02*
X123297676Y-125933333D01*
X123297676Y-125933333D02*
X123202438Y-126028571D01*
X123202438Y-126028571D02*
X123154819Y-126171428D01*
X123154819Y-126171428D02*
X123154819Y-126266666D01*
X123154819Y-126266666D02*
X123202438Y-126409523D01*
X123202438Y-126409523D02*
X123250057Y-126457142D01*
X124154819Y-127409523D02*
X124154819Y-126838095D01*
X124154819Y-127123809D02*
X123154819Y-127123809D01*
X123154819Y-127123809D02*
X123297676Y-127028571D01*
X123297676Y-127028571D02*
X123392914Y-126933333D01*
X123392914Y-126933333D02*
X123440533Y-126838095D01*
X123250057Y-127790476D02*
X123202438Y-127838095D01*
X123202438Y-127838095D02*
X123154819Y-127933333D01*
X123154819Y-127933333D02*
X123154819Y-128171428D01*
X123154819Y-128171428D02*
X123202438Y-128266666D01*
X123202438Y-128266666D02*
X123250057Y-128314285D01*
X123250057Y-128314285D02*
X123345295Y-128361904D01*
X123345295Y-128361904D02*
X123440533Y-128361904D01*
X123440533Y-128361904D02*
X123583390Y-128314285D01*
X123583390Y-128314285D02*
X124154819Y-127742857D01*
X124154819Y-127742857D02*
X124154819Y-128361904D01*
X138192857Y-134309580D02*
X138240476Y-134357200D01*
X138240476Y-134357200D02*
X138383333Y-134404819D01*
X138383333Y-134404819D02*
X138478571Y-134404819D01*
X138478571Y-134404819D02*
X138621428Y-134357200D01*
X138621428Y-134357200D02*
X138716666Y-134261961D01*
X138716666Y-134261961D02*
X138764285Y-134166723D01*
X138764285Y-134166723D02*
X138811904Y-133976247D01*
X138811904Y-133976247D02*
X138811904Y-133833390D01*
X138811904Y-133833390D02*
X138764285Y-133642914D01*
X138764285Y-133642914D02*
X138716666Y-133547676D01*
X138716666Y-133547676D02*
X138621428Y-133452438D01*
X138621428Y-133452438D02*
X138478571Y-133404819D01*
X138478571Y-133404819D02*
X138383333Y-133404819D01*
X138383333Y-133404819D02*
X138240476Y-133452438D01*
X138240476Y-133452438D02*
X138192857Y-133500057D01*
X137240476Y-134404819D02*
X137811904Y-134404819D01*
X137526190Y-134404819D02*
X137526190Y-133404819D01*
X137526190Y-133404819D02*
X137621428Y-133547676D01*
X137621428Y-133547676D02*
X137716666Y-133642914D01*
X137716666Y-133642914D02*
X137811904Y-133690533D01*
X136383333Y-133404819D02*
X136573809Y-133404819D01*
X136573809Y-133404819D02*
X136669047Y-133452438D01*
X136669047Y-133452438D02*
X136716666Y-133500057D01*
X136716666Y-133500057D02*
X136811904Y-133642914D01*
X136811904Y-133642914D02*
X136859523Y-133833390D01*
X136859523Y-133833390D02*
X136859523Y-134214342D01*
X136859523Y-134214342D02*
X136811904Y-134309580D01*
X136811904Y-134309580D02*
X136764285Y-134357200D01*
X136764285Y-134357200D02*
X136669047Y-134404819D01*
X136669047Y-134404819D02*
X136478571Y-134404819D01*
X136478571Y-134404819D02*
X136383333Y-134357200D01*
X136383333Y-134357200D02*
X136335714Y-134309580D01*
X136335714Y-134309580D02*
X136288095Y-134214342D01*
X136288095Y-134214342D02*
X136288095Y-133976247D01*
X136288095Y-133976247D02*
X136335714Y-133881009D01*
X136335714Y-133881009D02*
X136383333Y-133833390D01*
X136383333Y-133833390D02*
X136478571Y-133785771D01*
X136478571Y-133785771D02*
X136669047Y-133785771D01*
X136669047Y-133785771D02*
X136764285Y-133833390D01*
X136764285Y-133833390D02*
X136811904Y-133881009D01*
X136811904Y-133881009D02*
X136859523Y-133976247D01*
X147609580Y-116833333D02*
X147657200Y-116785714D01*
X147657200Y-116785714D02*
X147704819Y-116642857D01*
X147704819Y-116642857D02*
X147704819Y-116547619D01*
X147704819Y-116547619D02*
X147657200Y-116404762D01*
X147657200Y-116404762D02*
X147561961Y-116309524D01*
X147561961Y-116309524D02*
X147466723Y-116261905D01*
X147466723Y-116261905D02*
X147276247Y-116214286D01*
X147276247Y-116214286D02*
X147133390Y-116214286D01*
X147133390Y-116214286D02*
X146942914Y-116261905D01*
X146942914Y-116261905D02*
X146847676Y-116309524D01*
X146847676Y-116309524D02*
X146752438Y-116404762D01*
X146752438Y-116404762D02*
X146704819Y-116547619D01*
X146704819Y-116547619D02*
X146704819Y-116642857D01*
X146704819Y-116642857D02*
X146752438Y-116785714D01*
X146752438Y-116785714D02*
X146800057Y-116833333D01*
X146800057Y-117214286D02*
X146752438Y-117261905D01*
X146752438Y-117261905D02*
X146704819Y-117357143D01*
X146704819Y-117357143D02*
X146704819Y-117595238D01*
X146704819Y-117595238D02*
X146752438Y-117690476D01*
X146752438Y-117690476D02*
X146800057Y-117738095D01*
X146800057Y-117738095D02*
X146895295Y-117785714D01*
X146895295Y-117785714D02*
X146990533Y-117785714D01*
X146990533Y-117785714D02*
X147133390Y-117738095D01*
X147133390Y-117738095D02*
X147704819Y-117166667D01*
X147704819Y-117166667D02*
X147704819Y-117785714D01*
X129461904Y-134454819D02*
X129461904Y-135264342D01*
X129461904Y-135264342D02*
X129414285Y-135359580D01*
X129414285Y-135359580D02*
X129366666Y-135407200D01*
X129366666Y-135407200D02*
X129271428Y-135454819D01*
X129271428Y-135454819D02*
X129080952Y-135454819D01*
X129080952Y-135454819D02*
X128985714Y-135407200D01*
X128985714Y-135407200D02*
X128938095Y-135359580D01*
X128938095Y-135359580D02*
X128890476Y-135264342D01*
X128890476Y-135264342D02*
X128890476Y-134454819D01*
X128509523Y-134454819D02*
X127890476Y-134454819D01*
X127890476Y-134454819D02*
X128223809Y-134835771D01*
X128223809Y-134835771D02*
X128080952Y-134835771D01*
X128080952Y-134835771D02*
X127985714Y-134883390D01*
X127985714Y-134883390D02*
X127938095Y-134931009D01*
X127938095Y-134931009D02*
X127890476Y-135026247D01*
X127890476Y-135026247D02*
X127890476Y-135264342D01*
X127890476Y-135264342D02*
X127938095Y-135359580D01*
X127938095Y-135359580D02*
X127985714Y-135407200D01*
X127985714Y-135407200D02*
X128080952Y-135454819D01*
X128080952Y-135454819D02*
X128366666Y-135454819D01*
X128366666Y-135454819D02*
X128461904Y-135407200D01*
X128461904Y-135407200D02*
X128509523Y-135359580D01*
X145609580Y-116833333D02*
X145657200Y-116785714D01*
X145657200Y-116785714D02*
X145704819Y-116642857D01*
X145704819Y-116642857D02*
X145704819Y-116547619D01*
X145704819Y-116547619D02*
X145657200Y-116404762D01*
X145657200Y-116404762D02*
X145561961Y-116309524D01*
X145561961Y-116309524D02*
X145466723Y-116261905D01*
X145466723Y-116261905D02*
X145276247Y-116214286D01*
X145276247Y-116214286D02*
X145133390Y-116214286D01*
X145133390Y-116214286D02*
X144942914Y-116261905D01*
X144942914Y-116261905D02*
X144847676Y-116309524D01*
X144847676Y-116309524D02*
X144752438Y-116404762D01*
X144752438Y-116404762D02*
X144704819Y-116547619D01*
X144704819Y-116547619D02*
X144704819Y-116642857D01*
X144704819Y-116642857D02*
X144752438Y-116785714D01*
X144752438Y-116785714D02*
X144800057Y-116833333D01*
X145704819Y-117785714D02*
X145704819Y-117214286D01*
X145704819Y-117500000D02*
X144704819Y-117500000D01*
X144704819Y-117500000D02*
X144847676Y-117404762D01*
X144847676Y-117404762D02*
X144942914Y-117309524D01*
X144942914Y-117309524D02*
X144990533Y-117214286D01*
X122459580Y-126457142D02*
X122507200Y-126409523D01*
X122507200Y-126409523D02*
X122554819Y-126266666D01*
X122554819Y-126266666D02*
X122554819Y-126171428D01*
X122554819Y-126171428D02*
X122507200Y-126028571D01*
X122507200Y-126028571D02*
X122411961Y-125933333D01*
X122411961Y-125933333D02*
X122316723Y-125885714D01*
X122316723Y-125885714D02*
X122126247Y-125838095D01*
X122126247Y-125838095D02*
X121983390Y-125838095D01*
X121983390Y-125838095D02*
X121792914Y-125885714D01*
X121792914Y-125885714D02*
X121697676Y-125933333D01*
X121697676Y-125933333D02*
X121602438Y-126028571D01*
X121602438Y-126028571D02*
X121554819Y-126171428D01*
X121554819Y-126171428D02*
X121554819Y-126266666D01*
X121554819Y-126266666D02*
X121602438Y-126409523D01*
X121602438Y-126409523D02*
X121650057Y-126457142D01*
X122554819Y-127409523D02*
X122554819Y-126838095D01*
X122554819Y-127123809D02*
X121554819Y-127123809D01*
X121554819Y-127123809D02*
X121697676Y-127028571D01*
X121697676Y-127028571D02*
X121792914Y-126933333D01*
X121792914Y-126933333D02*
X121840533Y-126838095D01*
X122554819Y-128361904D02*
X122554819Y-127790476D01*
X122554819Y-128076190D02*
X121554819Y-128076190D01*
X121554819Y-128076190D02*
X121697676Y-127980952D01*
X121697676Y-127980952D02*
X121792914Y-127885714D01*
X121792914Y-127885714D02*
X121840533Y-127790476D01*
X127454819Y-127333333D02*
X126978628Y-127000000D01*
X127454819Y-126761905D02*
X126454819Y-126761905D01*
X126454819Y-126761905D02*
X126454819Y-127142857D01*
X126454819Y-127142857D02*
X126502438Y-127238095D01*
X126502438Y-127238095D02*
X126550057Y-127285714D01*
X126550057Y-127285714D02*
X126645295Y-127333333D01*
X126645295Y-127333333D02*
X126788152Y-127333333D01*
X126788152Y-127333333D02*
X126883390Y-127285714D01*
X126883390Y-127285714D02*
X126931009Y-127238095D01*
X126931009Y-127238095D02*
X126978628Y-127142857D01*
X126978628Y-127142857D02*
X126978628Y-126761905D01*
X126454819Y-127666667D02*
X126454819Y-128333333D01*
X126454819Y-128333333D02*
X127454819Y-127904762D01*
X153166666Y-139659580D02*
X153214285Y-139707200D01*
X153214285Y-139707200D02*
X153357142Y-139754819D01*
X153357142Y-139754819D02*
X153452380Y-139754819D01*
X153452380Y-139754819D02*
X153595237Y-139707200D01*
X153595237Y-139707200D02*
X153690475Y-139611961D01*
X153690475Y-139611961D02*
X153738094Y-139516723D01*
X153738094Y-139516723D02*
X153785713Y-139326247D01*
X153785713Y-139326247D02*
X153785713Y-139183390D01*
X153785713Y-139183390D02*
X153738094Y-138992914D01*
X153738094Y-138992914D02*
X153690475Y-138897676D01*
X153690475Y-138897676D02*
X153595237Y-138802438D01*
X153595237Y-138802438D02*
X153452380Y-138754819D01*
X153452380Y-138754819D02*
X153357142Y-138754819D01*
X153357142Y-138754819D02*
X153214285Y-138802438D01*
X153214285Y-138802438D02*
X153166666Y-138850057D01*
X152595237Y-139183390D02*
X152690475Y-139135771D01*
X152690475Y-139135771D02*
X152738094Y-139088152D01*
X152738094Y-139088152D02*
X152785713Y-138992914D01*
X152785713Y-138992914D02*
X152785713Y-138945295D01*
X152785713Y-138945295D02*
X152738094Y-138850057D01*
X152738094Y-138850057D02*
X152690475Y-138802438D01*
X152690475Y-138802438D02*
X152595237Y-138754819D01*
X152595237Y-138754819D02*
X152404761Y-138754819D01*
X152404761Y-138754819D02*
X152309523Y-138802438D01*
X152309523Y-138802438D02*
X152261904Y-138850057D01*
X152261904Y-138850057D02*
X152214285Y-138945295D01*
X152214285Y-138945295D02*
X152214285Y-138992914D01*
X152214285Y-138992914D02*
X152261904Y-139088152D01*
X152261904Y-139088152D02*
X152309523Y-139135771D01*
X152309523Y-139135771D02*
X152404761Y-139183390D01*
X152404761Y-139183390D02*
X152595237Y-139183390D01*
X152595237Y-139183390D02*
X152690475Y-139231009D01*
X152690475Y-139231009D02*
X152738094Y-139278628D01*
X152738094Y-139278628D02*
X152785713Y-139373866D01*
X152785713Y-139373866D02*
X152785713Y-139564342D01*
X152785713Y-139564342D02*
X152738094Y-139659580D01*
X152738094Y-139659580D02*
X152690475Y-139707200D01*
X152690475Y-139707200D02*
X152595237Y-139754819D01*
X152595237Y-139754819D02*
X152404761Y-139754819D01*
X152404761Y-139754819D02*
X152309523Y-139707200D01*
X152309523Y-139707200D02*
X152261904Y-139659580D01*
X152261904Y-139659580D02*
X152214285Y-139564342D01*
X152214285Y-139564342D02*
X152214285Y-139373866D01*
X152214285Y-139373866D02*
X152261904Y-139278628D01*
X152261904Y-139278628D02*
X152309523Y-139231009D01*
X152309523Y-139231009D02*
X152404761Y-139183390D01*
X142859580Y-138857142D02*
X142907200Y-138809523D01*
X142907200Y-138809523D02*
X142954819Y-138666666D01*
X142954819Y-138666666D02*
X142954819Y-138571428D01*
X142954819Y-138571428D02*
X142907200Y-138428571D01*
X142907200Y-138428571D02*
X142811961Y-138333333D01*
X142811961Y-138333333D02*
X142716723Y-138285714D01*
X142716723Y-138285714D02*
X142526247Y-138238095D01*
X142526247Y-138238095D02*
X142383390Y-138238095D01*
X142383390Y-138238095D02*
X142192914Y-138285714D01*
X142192914Y-138285714D02*
X142097676Y-138333333D01*
X142097676Y-138333333D02*
X142002438Y-138428571D01*
X142002438Y-138428571D02*
X141954819Y-138571428D01*
X141954819Y-138571428D02*
X141954819Y-138666666D01*
X141954819Y-138666666D02*
X142002438Y-138809523D01*
X142002438Y-138809523D02*
X142050057Y-138857142D01*
X142954819Y-139809523D02*
X142954819Y-139238095D01*
X142954819Y-139523809D02*
X141954819Y-139523809D01*
X141954819Y-139523809D02*
X142097676Y-139428571D01*
X142097676Y-139428571D02*
X142192914Y-139333333D01*
X142192914Y-139333333D02*
X142240533Y-139238095D01*
X142288152Y-140666666D02*
X142954819Y-140666666D01*
X141907200Y-140428571D02*
X142621485Y-140190476D01*
X142621485Y-140190476D02*
X142621485Y-140809523D01*
X132624819Y-123345833D02*
X132148628Y-123012500D01*
X132624819Y-122774405D02*
X131624819Y-122774405D01*
X131624819Y-122774405D02*
X131624819Y-123155357D01*
X131624819Y-123155357D02*
X131672438Y-123250595D01*
X131672438Y-123250595D02*
X131720057Y-123298214D01*
X131720057Y-123298214D02*
X131815295Y-123345833D01*
X131815295Y-123345833D02*
X131958152Y-123345833D01*
X131958152Y-123345833D02*
X132053390Y-123298214D01*
X132053390Y-123298214D02*
X132101009Y-123250595D01*
X132101009Y-123250595D02*
X132148628Y-123155357D01*
X132148628Y-123155357D02*
X132148628Y-122774405D01*
X131958152Y-124202976D02*
X132624819Y-124202976D01*
X131577200Y-123964881D02*
X132291485Y-123726786D01*
X132291485Y-123726786D02*
X132291485Y-124345833D01*
X144779166Y-129929580D02*
X144826785Y-129977200D01*
X144826785Y-129977200D02*
X144969642Y-130024819D01*
X144969642Y-130024819D02*
X145064880Y-130024819D01*
X145064880Y-130024819D02*
X145207737Y-129977200D01*
X145207737Y-129977200D02*
X145302975Y-129881961D01*
X145302975Y-129881961D02*
X145350594Y-129786723D01*
X145350594Y-129786723D02*
X145398213Y-129596247D01*
X145398213Y-129596247D02*
X145398213Y-129453390D01*
X145398213Y-129453390D02*
X145350594Y-129262914D01*
X145350594Y-129262914D02*
X145302975Y-129167676D01*
X145302975Y-129167676D02*
X145207737Y-129072438D01*
X145207737Y-129072438D02*
X145064880Y-129024819D01*
X145064880Y-129024819D02*
X144969642Y-129024819D01*
X144969642Y-129024819D02*
X144826785Y-129072438D01*
X144826785Y-129072438D02*
X144779166Y-129120057D01*
X144445832Y-129024819D02*
X143826785Y-129024819D01*
X143826785Y-129024819D02*
X144160118Y-129405771D01*
X144160118Y-129405771D02*
X144017261Y-129405771D01*
X144017261Y-129405771D02*
X143922023Y-129453390D01*
X143922023Y-129453390D02*
X143874404Y-129501009D01*
X143874404Y-129501009D02*
X143826785Y-129596247D01*
X143826785Y-129596247D02*
X143826785Y-129834342D01*
X143826785Y-129834342D02*
X143874404Y-129929580D01*
X143874404Y-129929580D02*
X143922023Y-129977200D01*
X143922023Y-129977200D02*
X144017261Y-130024819D01*
X144017261Y-130024819D02*
X144302975Y-130024819D01*
X144302975Y-130024819D02*
X144398213Y-129977200D01*
X144398213Y-129977200D02*
X144445832Y-129929580D01*
X160491666Y-142359580D02*
X160539285Y-142407200D01*
X160539285Y-142407200D02*
X160682142Y-142454819D01*
X160682142Y-142454819D02*
X160777380Y-142454819D01*
X160777380Y-142454819D02*
X160920237Y-142407200D01*
X160920237Y-142407200D02*
X161015475Y-142311961D01*
X161015475Y-142311961D02*
X161063094Y-142216723D01*
X161063094Y-142216723D02*
X161110713Y-142026247D01*
X161110713Y-142026247D02*
X161110713Y-141883390D01*
X161110713Y-141883390D02*
X161063094Y-141692914D01*
X161063094Y-141692914D02*
X161015475Y-141597676D01*
X161015475Y-141597676D02*
X160920237Y-141502438D01*
X160920237Y-141502438D02*
X160777380Y-141454819D01*
X160777380Y-141454819D02*
X160682142Y-141454819D01*
X160682142Y-141454819D02*
X160539285Y-141502438D01*
X160539285Y-141502438D02*
X160491666Y-141550057D01*
X159634523Y-141788152D02*
X159634523Y-142454819D01*
X159872618Y-141407200D02*
X160110713Y-142121485D01*
X160110713Y-142121485D02*
X159491666Y-142121485D01*
X141754166Y-117284819D02*
X142087499Y-116808628D01*
X142325594Y-117284819D02*
X142325594Y-116284819D01*
X142325594Y-116284819D02*
X141944642Y-116284819D01*
X141944642Y-116284819D02*
X141849404Y-116332438D01*
X141849404Y-116332438D02*
X141801785Y-116380057D01*
X141801785Y-116380057D02*
X141754166Y-116475295D01*
X141754166Y-116475295D02*
X141754166Y-116618152D01*
X141754166Y-116618152D02*
X141801785Y-116713390D01*
X141801785Y-116713390D02*
X141849404Y-116761009D01*
X141849404Y-116761009D02*
X141944642Y-116808628D01*
X141944642Y-116808628D02*
X142325594Y-116808628D01*
X140849404Y-116284819D02*
X141325594Y-116284819D01*
X141325594Y-116284819D02*
X141373213Y-116761009D01*
X141373213Y-116761009D02*
X141325594Y-116713390D01*
X141325594Y-116713390D02*
X141230356Y-116665771D01*
X141230356Y-116665771D02*
X140992261Y-116665771D01*
X140992261Y-116665771D02*
X140897023Y-116713390D01*
X140897023Y-116713390D02*
X140849404Y-116761009D01*
X140849404Y-116761009D02*
X140801785Y-116856247D01*
X140801785Y-116856247D02*
X140801785Y-117094342D01*
X140801785Y-117094342D02*
X140849404Y-117189580D01*
X140849404Y-117189580D02*
X140897023Y-117237200D01*
X140897023Y-117237200D02*
X140992261Y-117284819D01*
X140992261Y-117284819D02*
X141230356Y-117284819D01*
X141230356Y-117284819D02*
X141325594Y-117237200D01*
X141325594Y-117237200D02*
X141373213Y-117189580D01*
X147654819Y-138957142D02*
X147178628Y-138623809D01*
X147654819Y-138385714D02*
X146654819Y-138385714D01*
X146654819Y-138385714D02*
X146654819Y-138766666D01*
X146654819Y-138766666D02*
X146702438Y-138861904D01*
X146702438Y-138861904D02*
X146750057Y-138909523D01*
X146750057Y-138909523D02*
X146845295Y-138957142D01*
X146845295Y-138957142D02*
X146988152Y-138957142D01*
X146988152Y-138957142D02*
X147083390Y-138909523D01*
X147083390Y-138909523D02*
X147131009Y-138861904D01*
X147131009Y-138861904D02*
X147178628Y-138766666D01*
X147178628Y-138766666D02*
X147178628Y-138385714D01*
X147654819Y-139909523D02*
X147654819Y-139338095D01*
X147654819Y-139623809D02*
X146654819Y-139623809D01*
X146654819Y-139623809D02*
X146797676Y-139528571D01*
X146797676Y-139528571D02*
X146892914Y-139433333D01*
X146892914Y-139433333D02*
X146940533Y-139338095D01*
X146654819Y-140528571D02*
X146654819Y-140623809D01*
X146654819Y-140623809D02*
X146702438Y-140719047D01*
X146702438Y-140719047D02*
X146750057Y-140766666D01*
X146750057Y-140766666D02*
X146845295Y-140814285D01*
X146845295Y-140814285D02*
X147035771Y-140861904D01*
X147035771Y-140861904D02*
X147273866Y-140861904D01*
X147273866Y-140861904D02*
X147464342Y-140814285D01*
X147464342Y-140814285D02*
X147559580Y-140766666D01*
X147559580Y-140766666D02*
X147607200Y-140719047D01*
X147607200Y-140719047D02*
X147654819Y-140623809D01*
X147654819Y-140623809D02*
X147654819Y-140528571D01*
X147654819Y-140528571D02*
X147607200Y-140433333D01*
X147607200Y-140433333D02*
X147559580Y-140385714D01*
X147559580Y-140385714D02*
X147464342Y-140338095D01*
X147464342Y-140338095D02*
X147273866Y-140290476D01*
X147273866Y-140290476D02*
X147035771Y-140290476D01*
X147035771Y-140290476D02*
X146845295Y-140338095D01*
X146845295Y-140338095D02*
X146750057Y-140385714D01*
X146750057Y-140385714D02*
X146702438Y-140433333D01*
X146702438Y-140433333D02*
X146654819Y-140528571D01*
X125854819Y-127333333D02*
X125378628Y-127000000D01*
X125854819Y-126761905D02*
X124854819Y-126761905D01*
X124854819Y-126761905D02*
X124854819Y-127142857D01*
X124854819Y-127142857D02*
X124902438Y-127238095D01*
X124902438Y-127238095D02*
X124950057Y-127285714D01*
X124950057Y-127285714D02*
X125045295Y-127333333D01*
X125045295Y-127333333D02*
X125188152Y-127333333D01*
X125188152Y-127333333D02*
X125283390Y-127285714D01*
X125283390Y-127285714D02*
X125331009Y-127238095D01*
X125331009Y-127238095D02*
X125378628Y-127142857D01*
X125378628Y-127142857D02*
X125378628Y-126761905D01*
X125283390Y-127904762D02*
X125235771Y-127809524D01*
X125235771Y-127809524D02*
X125188152Y-127761905D01*
X125188152Y-127761905D02*
X125092914Y-127714286D01*
X125092914Y-127714286D02*
X125045295Y-127714286D01*
X125045295Y-127714286D02*
X124950057Y-127761905D01*
X124950057Y-127761905D02*
X124902438Y-127809524D01*
X124902438Y-127809524D02*
X124854819Y-127904762D01*
X124854819Y-127904762D02*
X124854819Y-128095238D01*
X124854819Y-128095238D02*
X124902438Y-128190476D01*
X124902438Y-128190476D02*
X124950057Y-128238095D01*
X124950057Y-128238095D02*
X125045295Y-128285714D01*
X125045295Y-128285714D02*
X125092914Y-128285714D01*
X125092914Y-128285714D02*
X125188152Y-128238095D01*
X125188152Y-128238095D02*
X125235771Y-128190476D01*
X125235771Y-128190476D02*
X125283390Y-128095238D01*
X125283390Y-128095238D02*
X125283390Y-127904762D01*
X125283390Y-127904762D02*
X125331009Y-127809524D01*
X125331009Y-127809524D02*
X125378628Y-127761905D01*
X125378628Y-127761905D02*
X125473866Y-127714286D01*
X125473866Y-127714286D02*
X125664342Y-127714286D01*
X125664342Y-127714286D02*
X125759580Y-127761905D01*
X125759580Y-127761905D02*
X125807200Y-127809524D01*
X125807200Y-127809524D02*
X125854819Y-127904762D01*
X125854819Y-127904762D02*
X125854819Y-128095238D01*
X125854819Y-128095238D02*
X125807200Y-128190476D01*
X125807200Y-128190476D02*
X125759580Y-128238095D01*
X125759580Y-128238095D02*
X125664342Y-128285714D01*
X125664342Y-128285714D02*
X125473866Y-128285714D01*
X125473866Y-128285714D02*
X125378628Y-128238095D01*
X125378628Y-128238095D02*
X125331009Y-128190476D01*
X125331009Y-128190476D02*
X125283390Y-128095238D01*
D11*
%TO.C,R2*%
X152777500Y-132057776D02*
X152777500Y-132567224D01*
X153822500Y-132057776D02*
X153822500Y-132567224D01*
%TO.C,R9*%
X129977500Y-142432776D02*
X129977500Y-142942224D01*
X131022500Y-142432776D02*
X131022500Y-142942224D01*
%TO.C,U2*%
X146490000Y-131890000D02*
X147215000Y-131890000D01*
X146490000Y-132615000D02*
X146490000Y-131890000D01*
X146490000Y-136385000D02*
X146490000Y-137110000D01*
X146490000Y-137110000D02*
X147215000Y-137110000D01*
X150985000Y-137110000D02*
X151470000Y-137110000D01*
X151710000Y-131890000D02*
X150985000Y-131890000D01*
X151710000Y-132615000D02*
X151710000Y-131890000D01*
X151710000Y-136385000D02*
X151710000Y-136810000D01*
X152040000Y-137350000D02*
X151710000Y-137110000D01*
X152040000Y-136870000D01*
X152040000Y-137350000D01*
G36*
X152040000Y-137350000D02*
G01*
X151710000Y-137110000D01*
X152040000Y-136870000D01*
X152040000Y-137350000D01*
G37*
%TO.C,C7*%
X157711252Y-137140000D02*
X156288748Y-137140000D01*
X157711252Y-139860000D02*
X156288748Y-139860000D01*
%TO.C,C6*%
X156288748Y-130140000D02*
X157711252Y-130140000D01*
X156288748Y-132860000D02*
X157711252Y-132860000D01*
%TO.C,C15*%
X134116233Y-137590000D02*
X134408767Y-137590000D01*
X134116233Y-138610000D02*
X134408767Y-138610000D01*
%TO.C,R3*%
X152727500Y-136832776D02*
X152727500Y-137342224D01*
X153772500Y-136832776D02*
X153772500Y-137342224D01*
%TO.C,C5*%
X156288748Y-133640000D02*
X157711252Y-133640000D01*
X156288748Y-136360000D02*
X157711252Y-136360000D01*
%TO.C,R6*%
X127977500Y-142432776D02*
X127977500Y-142942224D01*
X129022500Y-142432776D02*
X129022500Y-142942224D01*
D12*
%TO.C,U1*%
X138917200Y-122421900D02*
X143082800Y-122421900D01*
X143082800Y-127578100D02*
X138917200Y-127578100D01*
D11*
%TO.C,C12*%
X124823333Y-130053733D02*
X124823333Y-130346267D01*
X125843333Y-130053733D02*
X125843333Y-130346267D01*
%TO.C,C16*%
X134153733Y-133490000D02*
X134446267Y-133490000D01*
X134153733Y-134510000D02*
X134446267Y-134510000D01*
%TO.C,C2*%
X146590000Y-119391233D02*
X146590000Y-119683767D01*
X147610000Y-119391233D02*
X147610000Y-119683767D01*
%TO.C,U3*%
X128700000Y-132440000D02*
X126750000Y-132440000D01*
X128700000Y-132440000D02*
X130650000Y-132440000D01*
X128700000Y-137560000D02*
X126750000Y-137560000D01*
X128700000Y-137560000D02*
X130650000Y-137560000D01*
X126240000Y-137795000D02*
X125760000Y-137795000D01*
X126000000Y-137465000D01*
X126240000Y-137795000D01*
G36*
X126240000Y-137795000D02*
G01*
X125760000Y-137795000D01*
X126000000Y-137465000D01*
X126240000Y-137795000D01*
G37*
%TO.C,C1*%
X144690000Y-119391233D02*
X144690000Y-119683767D01*
X145710000Y-119391233D02*
X145710000Y-119683767D01*
%TO.C,C11*%
X126490000Y-130053733D02*
X126490000Y-130346267D01*
X127510000Y-130053733D02*
X127510000Y-130346267D01*
%TO.C,R7*%
X121477500Y-129945276D02*
X121477500Y-130454724D01*
X122522500Y-129945276D02*
X122522500Y-130454724D01*
%TO.C,C8*%
X150533767Y-138490000D02*
X150241233Y-138490000D01*
X150533767Y-139510000D02*
X150241233Y-139510000D01*
%TO.C,C14*%
X143490000Y-139453733D02*
X143490000Y-139746267D01*
X144510000Y-139453733D02*
X144510000Y-139746267D01*
%TO.C,R4*%
X133077500Y-123257776D02*
X133077500Y-123767224D01*
X134122500Y-123257776D02*
X134122500Y-123767224D01*
%TO.C,C3*%
X144758767Y-130490000D02*
X144466233Y-130490000D01*
X144758767Y-131510000D02*
X144466233Y-131510000D01*
%TO.C,C4*%
X157711252Y-140640000D02*
X156288748Y-140640000D01*
X157711252Y-143360000D02*
X156288748Y-143360000D01*
%TO.C,R5*%
X141332776Y-114877500D02*
X141842224Y-114877500D01*
X141332776Y-115922500D02*
X141842224Y-115922500D01*
%TO.C,R10*%
X145177500Y-139867224D02*
X145177500Y-139357776D01*
X146222500Y-139867224D02*
X146222500Y-139357776D01*
%TO.C,R8*%
X123144167Y-129945276D02*
X123144167Y-130454724D01*
X124189167Y-129945276D02*
X124189167Y-130454724D01*
%TD*%
M02*
