%TF.GenerationSoftware,KiCad,Pcbnew,9.0.2*%
%TF.CreationDate,2025-07-23T20:38:51-05:00*%
%TF.ProjectId,Smart Motor,536d6172-7420-44d6-9f74-6f722e6b6963,rev?*%
%TF.SameCoordinates,Original*%
%TF.FileFunction,Legend,Top*%
%TF.FilePolarity,Positive*%
%FSLAX46Y46*%
G04 Gerber Fmt 4.6, Leading zero omitted, Abs format (unit mm)*
G04 Created by KiCad (PCBNEW 9.0.2) date 2025-07-23 20:38:51*
%MOMM*%
%LPD*%
G01*
G04 APERTURE LIST*
%ADD10C,0.100000*%
%ADD11C,0.150000*%
%ADD12C,0.254000*%
%ADD13C,0.200000*%
%ADD14C,0.120000*%
%ADD15C,0.127000*%
%ADD16C,0.203200*%
G04 APERTURE END LIST*
D10*
X154100000Y-142300000D02*
X154450000Y-142600000D01*
X154100000Y-142300000D02*
X154450000Y-142000000D01*
X155500000Y-142300000D02*
X154100000Y-142300000D01*
D11*
X156406077Y-142664636D02*
X156358458Y-142712256D01*
X156358458Y-142712256D02*
X156215601Y-142759875D01*
X156215601Y-142759875D02*
X156120363Y-142759875D01*
X156120363Y-142759875D02*
X155977506Y-142712256D01*
X155977506Y-142712256D02*
X155882268Y-142617017D01*
X155882268Y-142617017D02*
X155834649Y-142521779D01*
X155834649Y-142521779D02*
X155787030Y-142331303D01*
X155787030Y-142331303D02*
X155787030Y-142188446D01*
X155787030Y-142188446D02*
X155834649Y-141997970D01*
X155834649Y-141997970D02*
X155882268Y-141902732D01*
X155882268Y-141902732D02*
X155977506Y-141807494D01*
X155977506Y-141807494D02*
X156120363Y-141759875D01*
X156120363Y-141759875D02*
X156215601Y-141759875D01*
X156215601Y-141759875D02*
X156358458Y-141807494D01*
X156358458Y-141807494D02*
X156406077Y-141855113D01*
X156787030Y-142474160D02*
X157263220Y-142474160D01*
X156691792Y-142759875D02*
X157025125Y-141759875D01*
X157025125Y-141759875D02*
X157358458Y-142759875D01*
X157691792Y-142759875D02*
X157691792Y-141759875D01*
X157691792Y-141759875D02*
X158263220Y-142759875D01*
X158263220Y-142759875D02*
X158263220Y-141759875D01*
X154787030Y-143369819D02*
X155358458Y-143369819D01*
X155072744Y-144369819D02*
X155072744Y-143369819D01*
X155691792Y-143846009D02*
X156025125Y-143846009D01*
X156167982Y-144369819D02*
X155691792Y-144369819D01*
X155691792Y-144369819D02*
X155691792Y-143369819D01*
X155691792Y-143369819D02*
X156167982Y-143369819D01*
X157167982Y-144369819D02*
X156834649Y-143893628D01*
X156596554Y-144369819D02*
X156596554Y-143369819D01*
X156596554Y-143369819D02*
X156977506Y-143369819D01*
X156977506Y-143369819D02*
X157072744Y-143417438D01*
X157072744Y-143417438D02*
X157120363Y-143465057D01*
X157120363Y-143465057D02*
X157167982Y-143560295D01*
X157167982Y-143560295D02*
X157167982Y-143703152D01*
X157167982Y-143703152D02*
X157120363Y-143798390D01*
X157120363Y-143798390D02*
X157072744Y-143846009D01*
X157072744Y-143846009D02*
X156977506Y-143893628D01*
X156977506Y-143893628D02*
X156596554Y-143893628D01*
X157596554Y-144369819D02*
X157596554Y-143369819D01*
X157596554Y-143369819D02*
X157929887Y-144084104D01*
X157929887Y-144084104D02*
X158263220Y-143369819D01*
X158263220Y-143369819D02*
X158263220Y-144369819D01*
X147505533Y-112684649D02*
X147553152Y-112541792D01*
X147553152Y-112541792D02*
X147553152Y-112303697D01*
X147553152Y-112303697D02*
X147505533Y-112208459D01*
X147505533Y-112208459D02*
X147457913Y-112160840D01*
X147457913Y-112160840D02*
X147362675Y-112113221D01*
X147362675Y-112113221D02*
X147267437Y-112113221D01*
X147267437Y-112113221D02*
X147172199Y-112160840D01*
X147172199Y-112160840D02*
X147124580Y-112208459D01*
X147124580Y-112208459D02*
X147076961Y-112303697D01*
X147076961Y-112303697D02*
X147029342Y-112494173D01*
X147029342Y-112494173D02*
X146981723Y-112589411D01*
X146981723Y-112589411D02*
X146934104Y-112637030D01*
X146934104Y-112637030D02*
X146838866Y-112684649D01*
X146838866Y-112684649D02*
X146743628Y-112684649D01*
X146743628Y-112684649D02*
X146648390Y-112637030D01*
X146648390Y-112637030D02*
X146600771Y-112589411D01*
X146600771Y-112589411D02*
X146553152Y-112494173D01*
X146553152Y-112494173D02*
X146553152Y-112256078D01*
X146553152Y-112256078D02*
X146600771Y-112113221D01*
X146553152Y-111779887D02*
X147553152Y-111541792D01*
X147553152Y-111541792D02*
X146838866Y-111351316D01*
X146838866Y-111351316D02*
X147553152Y-111160840D01*
X147553152Y-111160840D02*
X146553152Y-110922745D01*
X146553152Y-110351316D02*
X146553152Y-110160840D01*
X146553152Y-110160840D02*
X146600771Y-110065602D01*
X146600771Y-110065602D02*
X146696009Y-109970364D01*
X146696009Y-109970364D02*
X146886485Y-109922745D01*
X146886485Y-109922745D02*
X147219818Y-109922745D01*
X147219818Y-109922745D02*
X147410294Y-109970364D01*
X147410294Y-109970364D02*
X147505533Y-110065602D01*
X147505533Y-110065602D02*
X147553152Y-110160840D01*
X147553152Y-110160840D02*
X147553152Y-110351316D01*
X147553152Y-110351316D02*
X147505533Y-110446554D01*
X147505533Y-110446554D02*
X147410294Y-110541792D01*
X147410294Y-110541792D02*
X147219818Y-110589411D01*
X147219818Y-110589411D02*
X146886485Y-110589411D01*
X146886485Y-110589411D02*
X146696009Y-110541792D01*
X146696009Y-110541792D02*
X146600771Y-110446554D01*
X146600771Y-110446554D02*
X146553152Y-110351316D01*
X145019819Y-113256078D02*
X144019819Y-113256078D01*
X144019819Y-113256078D02*
X145019819Y-112684650D01*
X145019819Y-112684650D02*
X144019819Y-112684650D01*
X145019819Y-111637031D02*
X144543628Y-111970364D01*
X145019819Y-112208459D02*
X144019819Y-112208459D01*
X144019819Y-112208459D02*
X144019819Y-111827507D01*
X144019819Y-111827507D02*
X144067438Y-111732269D01*
X144067438Y-111732269D02*
X144115057Y-111684650D01*
X144115057Y-111684650D02*
X144210295Y-111637031D01*
X144210295Y-111637031D02*
X144353152Y-111637031D01*
X144353152Y-111637031D02*
X144448390Y-111684650D01*
X144448390Y-111684650D02*
X144496009Y-111732269D01*
X144496009Y-111732269D02*
X144543628Y-111827507D01*
X144543628Y-111827507D02*
X144543628Y-112208459D01*
X144972200Y-111256078D02*
X145019819Y-111113221D01*
X145019819Y-111113221D02*
X145019819Y-110875126D01*
X145019819Y-110875126D02*
X144972200Y-110779888D01*
X144972200Y-110779888D02*
X144924580Y-110732269D01*
X144924580Y-110732269D02*
X144829342Y-110684650D01*
X144829342Y-110684650D02*
X144734104Y-110684650D01*
X144734104Y-110684650D02*
X144638866Y-110732269D01*
X144638866Y-110732269D02*
X144591247Y-110779888D01*
X144591247Y-110779888D02*
X144543628Y-110875126D01*
X144543628Y-110875126D02*
X144496009Y-111065602D01*
X144496009Y-111065602D02*
X144448390Y-111160840D01*
X144448390Y-111160840D02*
X144400771Y-111208459D01*
X144400771Y-111208459D02*
X144305533Y-111256078D01*
X144305533Y-111256078D02*
X144210295Y-111256078D01*
X144210295Y-111256078D02*
X144115057Y-111208459D01*
X144115057Y-111208459D02*
X144067438Y-111160840D01*
X144067438Y-111160840D02*
X144019819Y-111065602D01*
X144019819Y-111065602D02*
X144019819Y-110827507D01*
X144019819Y-110827507D02*
X144067438Y-110684650D01*
X144019819Y-110398935D02*
X144019819Y-109827507D01*
X145019819Y-110113221D02*
X144019819Y-110113221D01*
X141534104Y-112017983D02*
X141486485Y-112113221D01*
X141486485Y-112113221D02*
X141486485Y-112256078D01*
X141486485Y-112256078D02*
X141534104Y-112398935D01*
X141534104Y-112398935D02*
X141629342Y-112494173D01*
X141629342Y-112494173D02*
X141724580Y-112541792D01*
X141724580Y-112541792D02*
X141915056Y-112589411D01*
X141915056Y-112589411D02*
X142057913Y-112589411D01*
X142057913Y-112589411D02*
X142248389Y-112541792D01*
X142248389Y-112541792D02*
X142343627Y-112494173D01*
X142343627Y-112494173D02*
X142438866Y-112398935D01*
X142438866Y-112398935D02*
X142486485Y-112256078D01*
X142486485Y-112256078D02*
X142486485Y-112160840D01*
X142486485Y-112160840D02*
X142438866Y-112017983D01*
X142438866Y-112017983D02*
X142391246Y-111970364D01*
X142391246Y-111970364D02*
X142057913Y-111970364D01*
X142057913Y-111970364D02*
X142057913Y-112160840D01*
X142486485Y-111541792D02*
X141486485Y-111541792D01*
X141486485Y-111541792D02*
X142486485Y-110970364D01*
X142486485Y-110970364D02*
X141486485Y-110970364D01*
X142486485Y-110494173D02*
X141486485Y-110494173D01*
X141486485Y-110494173D02*
X141486485Y-110256078D01*
X141486485Y-110256078D02*
X141534104Y-110113221D01*
X141534104Y-110113221D02*
X141629342Y-110017983D01*
X141629342Y-110017983D02*
X141724580Y-109970364D01*
X141724580Y-109970364D02*
X141915056Y-109922745D01*
X141915056Y-109922745D02*
X142057913Y-109922745D01*
X142057913Y-109922745D02*
X142248389Y-109970364D01*
X142248389Y-109970364D02*
X142343627Y-110017983D01*
X142343627Y-110017983D02*
X142438866Y-110113221D01*
X142438866Y-110113221D02*
X142486485Y-110256078D01*
X142486485Y-110256078D02*
X142486485Y-110494173D01*
X139905533Y-114160839D02*
X139953152Y-114017982D01*
X139953152Y-114017982D02*
X139953152Y-113779887D01*
X139953152Y-113779887D02*
X139905533Y-113684649D01*
X139905533Y-113684649D02*
X139857913Y-113637030D01*
X139857913Y-113637030D02*
X139762675Y-113589411D01*
X139762675Y-113589411D02*
X139667437Y-113589411D01*
X139667437Y-113589411D02*
X139572199Y-113637030D01*
X139572199Y-113637030D02*
X139524580Y-113684649D01*
X139524580Y-113684649D02*
X139476961Y-113779887D01*
X139476961Y-113779887D02*
X139429342Y-113970363D01*
X139429342Y-113970363D02*
X139381723Y-114065601D01*
X139381723Y-114065601D02*
X139334104Y-114113220D01*
X139334104Y-114113220D02*
X139238866Y-114160839D01*
X139238866Y-114160839D02*
X139143628Y-114160839D01*
X139143628Y-114160839D02*
X139048390Y-114113220D01*
X139048390Y-114113220D02*
X139000771Y-114065601D01*
X139000771Y-114065601D02*
X138953152Y-113970363D01*
X138953152Y-113970363D02*
X138953152Y-113732268D01*
X138953152Y-113732268D02*
X139000771Y-113589411D01*
X138953152Y-113256077D02*
X139953152Y-113017982D01*
X139953152Y-113017982D02*
X139238866Y-112827506D01*
X139238866Y-112827506D02*
X139953152Y-112637030D01*
X139953152Y-112637030D02*
X138953152Y-112398935D01*
X139953152Y-112017982D02*
X138953152Y-112017982D01*
X138953152Y-112017982D02*
X138953152Y-111779887D01*
X138953152Y-111779887D02*
X139000771Y-111637030D01*
X139000771Y-111637030D02*
X139096009Y-111541792D01*
X139096009Y-111541792D02*
X139191247Y-111494173D01*
X139191247Y-111494173D02*
X139381723Y-111446554D01*
X139381723Y-111446554D02*
X139524580Y-111446554D01*
X139524580Y-111446554D02*
X139715056Y-111494173D01*
X139715056Y-111494173D02*
X139810294Y-111541792D01*
X139810294Y-111541792D02*
X139905533Y-111637030D01*
X139905533Y-111637030D02*
X139953152Y-111779887D01*
X139953152Y-111779887D02*
X139953152Y-112017982D01*
X139953152Y-111017982D02*
X138953152Y-111017982D01*
X138953152Y-110351316D02*
X138953152Y-110160840D01*
X138953152Y-110160840D02*
X139000771Y-110065602D01*
X139000771Y-110065602D02*
X139096009Y-109970364D01*
X139096009Y-109970364D02*
X139286485Y-109922745D01*
X139286485Y-109922745D02*
X139619818Y-109922745D01*
X139619818Y-109922745D02*
X139810294Y-109970364D01*
X139810294Y-109970364D02*
X139905533Y-110065602D01*
X139905533Y-110065602D02*
X139953152Y-110160840D01*
X139953152Y-110160840D02*
X139953152Y-110351316D01*
X139953152Y-110351316D02*
X139905533Y-110446554D01*
X139905533Y-110446554D02*
X139810294Y-110541792D01*
X139810294Y-110541792D02*
X139619818Y-110589411D01*
X139619818Y-110589411D02*
X139286485Y-110589411D01*
X139286485Y-110589411D02*
X139096009Y-110541792D01*
X139096009Y-110541792D02*
X139000771Y-110446554D01*
X139000771Y-110446554D02*
X138953152Y-110351316D01*
X136467438Y-112017983D02*
X136419819Y-112113221D01*
X136419819Y-112113221D02*
X136419819Y-112256078D01*
X136419819Y-112256078D02*
X136467438Y-112398935D01*
X136467438Y-112398935D02*
X136562676Y-112494173D01*
X136562676Y-112494173D02*
X136657914Y-112541792D01*
X136657914Y-112541792D02*
X136848390Y-112589411D01*
X136848390Y-112589411D02*
X136991247Y-112589411D01*
X136991247Y-112589411D02*
X137181723Y-112541792D01*
X137181723Y-112541792D02*
X137276961Y-112494173D01*
X137276961Y-112494173D02*
X137372200Y-112398935D01*
X137372200Y-112398935D02*
X137419819Y-112256078D01*
X137419819Y-112256078D02*
X137419819Y-112160840D01*
X137419819Y-112160840D02*
X137372200Y-112017983D01*
X137372200Y-112017983D02*
X137324580Y-111970364D01*
X137324580Y-111970364D02*
X136991247Y-111970364D01*
X136991247Y-111970364D02*
X136991247Y-112160840D01*
X137419819Y-111541792D02*
X136419819Y-111541792D01*
X136419819Y-111541792D02*
X137419819Y-110970364D01*
X137419819Y-110970364D02*
X136419819Y-110970364D01*
X137419819Y-110494173D02*
X136419819Y-110494173D01*
X136419819Y-110494173D02*
X136419819Y-110256078D01*
X136419819Y-110256078D02*
X136467438Y-110113221D01*
X136467438Y-110113221D02*
X136562676Y-110017983D01*
X136562676Y-110017983D02*
X136657914Y-109970364D01*
X136657914Y-109970364D02*
X136848390Y-109922745D01*
X136848390Y-109922745D02*
X136991247Y-109922745D01*
X136991247Y-109922745D02*
X137181723Y-109970364D01*
X137181723Y-109970364D02*
X137276961Y-110017983D01*
X137276961Y-110017983D02*
X137372200Y-110113221D01*
X137372200Y-110113221D02*
X137419819Y-110256078D01*
X137419819Y-110256078D02*
X137419819Y-110494173D01*
X134838866Y-114446554D02*
X134886485Y-114303697D01*
X134886485Y-114303697D02*
X134886485Y-114065602D01*
X134886485Y-114065602D02*
X134838866Y-113970364D01*
X134838866Y-113970364D02*
X134791246Y-113922745D01*
X134791246Y-113922745D02*
X134696008Y-113875126D01*
X134696008Y-113875126D02*
X134600770Y-113875126D01*
X134600770Y-113875126D02*
X134505532Y-113922745D01*
X134505532Y-113922745D02*
X134457913Y-113970364D01*
X134457913Y-113970364D02*
X134410294Y-114065602D01*
X134410294Y-114065602D02*
X134362675Y-114256078D01*
X134362675Y-114256078D02*
X134315056Y-114351316D01*
X134315056Y-114351316D02*
X134267437Y-114398935D01*
X134267437Y-114398935D02*
X134172199Y-114446554D01*
X134172199Y-114446554D02*
X134076961Y-114446554D01*
X134076961Y-114446554D02*
X133981723Y-114398935D01*
X133981723Y-114398935D02*
X133934104Y-114351316D01*
X133934104Y-114351316D02*
X133886485Y-114256078D01*
X133886485Y-114256078D02*
X133886485Y-114017983D01*
X133886485Y-114017983D02*
X133934104Y-113875126D01*
X133886485Y-113541792D02*
X134886485Y-113303697D01*
X134886485Y-113303697D02*
X134172199Y-113113221D01*
X134172199Y-113113221D02*
X134886485Y-112922745D01*
X134886485Y-112922745D02*
X133886485Y-112684650D01*
X134791246Y-111732269D02*
X134838866Y-111779888D01*
X134838866Y-111779888D02*
X134886485Y-111922745D01*
X134886485Y-111922745D02*
X134886485Y-112017983D01*
X134886485Y-112017983D02*
X134838866Y-112160840D01*
X134838866Y-112160840D02*
X134743627Y-112256078D01*
X134743627Y-112256078D02*
X134648389Y-112303697D01*
X134648389Y-112303697D02*
X134457913Y-112351316D01*
X134457913Y-112351316D02*
X134315056Y-112351316D01*
X134315056Y-112351316D02*
X134124580Y-112303697D01*
X134124580Y-112303697D02*
X134029342Y-112256078D01*
X134029342Y-112256078D02*
X133934104Y-112160840D01*
X133934104Y-112160840D02*
X133886485Y-112017983D01*
X133886485Y-112017983D02*
X133886485Y-111922745D01*
X133886485Y-111922745D02*
X133934104Y-111779888D01*
X133934104Y-111779888D02*
X133981723Y-111732269D01*
X134886485Y-110827507D02*
X134886485Y-111303697D01*
X134886485Y-111303697D02*
X133886485Y-111303697D01*
X134886485Y-110494173D02*
X133886485Y-110494173D01*
X134886485Y-109922745D02*
X134315056Y-110351316D01*
X133886485Y-109922745D02*
X134457913Y-110494173D01*
X131353152Y-112827506D02*
X131353152Y-112208459D01*
X131353152Y-112208459D02*
X131734104Y-112541792D01*
X131734104Y-112541792D02*
X131734104Y-112398935D01*
X131734104Y-112398935D02*
X131781723Y-112303697D01*
X131781723Y-112303697D02*
X131829342Y-112256078D01*
X131829342Y-112256078D02*
X131924580Y-112208459D01*
X131924580Y-112208459D02*
X132162675Y-112208459D01*
X132162675Y-112208459D02*
X132257913Y-112256078D01*
X132257913Y-112256078D02*
X132305533Y-112303697D01*
X132305533Y-112303697D02*
X132353152Y-112398935D01*
X132353152Y-112398935D02*
X132353152Y-112684649D01*
X132353152Y-112684649D02*
X132305533Y-112779887D01*
X132305533Y-112779887D02*
X132257913Y-112827506D01*
X132257913Y-111779887D02*
X132305533Y-111732268D01*
X132305533Y-111732268D02*
X132353152Y-111779887D01*
X132353152Y-111779887D02*
X132305533Y-111827506D01*
X132305533Y-111827506D02*
X132257913Y-111779887D01*
X132257913Y-111779887D02*
X132353152Y-111779887D01*
X131353152Y-111398935D02*
X131353152Y-110779888D01*
X131353152Y-110779888D02*
X131734104Y-111113221D01*
X131734104Y-111113221D02*
X131734104Y-110970364D01*
X131734104Y-110970364D02*
X131781723Y-110875126D01*
X131781723Y-110875126D02*
X131829342Y-110827507D01*
X131829342Y-110827507D02*
X131924580Y-110779888D01*
X131924580Y-110779888D02*
X132162675Y-110779888D01*
X132162675Y-110779888D02*
X132257913Y-110827507D01*
X132257913Y-110827507D02*
X132305533Y-110875126D01*
X132305533Y-110875126D02*
X132353152Y-110970364D01*
X132353152Y-110970364D02*
X132353152Y-111256078D01*
X132353152Y-111256078D02*
X132305533Y-111351316D01*
X132305533Y-111351316D02*
X132257913Y-111398935D01*
X131353152Y-110494173D02*
X132353152Y-110160840D01*
X132353152Y-110160840D02*
X131353152Y-109827507D01*
X137067438Y-138785911D02*
X137019819Y-138881149D01*
X137019819Y-138881149D02*
X137019819Y-139024006D01*
X137019819Y-139024006D02*
X137067438Y-139166863D01*
X137067438Y-139166863D02*
X137162676Y-139262101D01*
X137162676Y-139262101D02*
X137257914Y-139309720D01*
X137257914Y-139309720D02*
X137448390Y-139357339D01*
X137448390Y-139357339D02*
X137591247Y-139357339D01*
X137591247Y-139357339D02*
X137781723Y-139309720D01*
X137781723Y-139309720D02*
X137876961Y-139262101D01*
X137876961Y-139262101D02*
X137972200Y-139166863D01*
X137972200Y-139166863D02*
X138019819Y-139024006D01*
X138019819Y-139024006D02*
X138019819Y-138928768D01*
X138019819Y-138928768D02*
X137972200Y-138785911D01*
X137972200Y-138785911D02*
X137924580Y-138738292D01*
X137924580Y-138738292D02*
X137591247Y-138738292D01*
X137591247Y-138738292D02*
X137591247Y-138928768D01*
X138019819Y-138309720D02*
X137019819Y-138309720D01*
X137019819Y-138309720D02*
X138019819Y-137738292D01*
X138019819Y-137738292D02*
X137019819Y-137738292D01*
X138019819Y-137262101D02*
X137019819Y-137262101D01*
X137019819Y-137262101D02*
X137019819Y-137024006D01*
X137019819Y-137024006D02*
X137067438Y-136881149D01*
X137067438Y-136881149D02*
X137162676Y-136785911D01*
X137162676Y-136785911D02*
X137257914Y-136738292D01*
X137257914Y-136738292D02*
X137448390Y-136690673D01*
X137448390Y-136690673D02*
X137591247Y-136690673D01*
X137591247Y-136690673D02*
X137781723Y-136738292D01*
X137781723Y-136738292D02*
X137876961Y-136785911D01*
X137876961Y-136785911D02*
X137972200Y-136881149D01*
X137972200Y-136881149D02*
X138019819Y-137024006D01*
X138019819Y-137024006D02*
X138019819Y-137262101D01*
X147041541Y-138269819D02*
X147660588Y-138269819D01*
X147660588Y-138269819D02*
X147327255Y-138650771D01*
X147327255Y-138650771D02*
X147470112Y-138650771D01*
X147470112Y-138650771D02*
X147565350Y-138698390D01*
X147565350Y-138698390D02*
X147612969Y-138746009D01*
X147612969Y-138746009D02*
X147660588Y-138841247D01*
X147660588Y-138841247D02*
X147660588Y-139079342D01*
X147660588Y-139079342D02*
X147612969Y-139174580D01*
X147612969Y-139174580D02*
X147565350Y-139222200D01*
X147565350Y-139222200D02*
X147470112Y-139269819D01*
X147470112Y-139269819D02*
X147184398Y-139269819D01*
X147184398Y-139269819D02*
X147089160Y-139222200D01*
X147089160Y-139222200D02*
X147041541Y-139174580D01*
X148089160Y-139174580D02*
X148136779Y-139222200D01*
X148136779Y-139222200D02*
X148089160Y-139269819D01*
X148089160Y-139269819D02*
X148041541Y-139222200D01*
X148041541Y-139222200D02*
X148089160Y-139174580D01*
X148089160Y-139174580D02*
X148089160Y-139269819D01*
X148470112Y-138269819D02*
X149089159Y-138269819D01*
X149089159Y-138269819D02*
X148755826Y-138650771D01*
X148755826Y-138650771D02*
X148898683Y-138650771D01*
X148898683Y-138650771D02*
X148993921Y-138698390D01*
X148993921Y-138698390D02*
X149041540Y-138746009D01*
X149041540Y-138746009D02*
X149089159Y-138841247D01*
X149089159Y-138841247D02*
X149089159Y-139079342D01*
X149089159Y-139079342D02*
X149041540Y-139174580D01*
X149041540Y-139174580D02*
X148993921Y-139222200D01*
X148993921Y-139222200D02*
X148898683Y-139269819D01*
X148898683Y-139269819D02*
X148612969Y-139269819D01*
X148612969Y-139269819D02*
X148517731Y-139222200D01*
X148517731Y-139222200D02*
X148470112Y-139174580D01*
X149374874Y-138269819D02*
X149708207Y-139269819D01*
X149708207Y-139269819D02*
X150041540Y-138269819D01*
X144690057Y-139357339D02*
X144642438Y-139309720D01*
X144642438Y-139309720D02*
X144594819Y-139214482D01*
X144594819Y-139214482D02*
X144594819Y-138976387D01*
X144594819Y-138976387D02*
X144642438Y-138881149D01*
X144642438Y-138881149D02*
X144690057Y-138833530D01*
X144690057Y-138833530D02*
X144785295Y-138785911D01*
X144785295Y-138785911D02*
X144880533Y-138785911D01*
X144880533Y-138785911D02*
X145023390Y-138833530D01*
X145023390Y-138833530D02*
X145594819Y-139404958D01*
X145594819Y-139404958D02*
X145594819Y-138785911D01*
X144928152Y-137928768D02*
X145594819Y-137928768D01*
X144547200Y-138166863D02*
X145261485Y-138404958D01*
X145261485Y-138404958D02*
X145261485Y-137785911D01*
X144594819Y-137547815D02*
X145594819Y-137214482D01*
X145594819Y-137214482D02*
X144594819Y-136881149D01*
X142974580Y-138738292D02*
X143022200Y-138785911D01*
X143022200Y-138785911D02*
X143069819Y-138928768D01*
X143069819Y-138928768D02*
X143069819Y-139024006D01*
X143069819Y-139024006D02*
X143022200Y-139166863D01*
X143022200Y-139166863D02*
X142926961Y-139262101D01*
X142926961Y-139262101D02*
X142831723Y-139309720D01*
X142831723Y-139309720D02*
X142641247Y-139357339D01*
X142641247Y-139357339D02*
X142498390Y-139357339D01*
X142498390Y-139357339D02*
X142307914Y-139309720D01*
X142307914Y-139309720D02*
X142212676Y-139262101D01*
X142212676Y-139262101D02*
X142117438Y-139166863D01*
X142117438Y-139166863D02*
X142069819Y-139024006D01*
X142069819Y-139024006D02*
X142069819Y-138928768D01*
X142069819Y-138928768D02*
X142117438Y-138785911D01*
X142117438Y-138785911D02*
X142165057Y-138738292D01*
X142784104Y-138357339D02*
X142784104Y-137881149D01*
X143069819Y-138452577D02*
X142069819Y-138119244D01*
X142069819Y-138119244D02*
X143069819Y-137785911D01*
X143069819Y-137452577D02*
X142069819Y-137452577D01*
X142069819Y-137452577D02*
X143069819Y-136881149D01*
X143069819Y-136881149D02*
X142069819Y-136881149D01*
X143069819Y-135166863D02*
X143069819Y-135643053D01*
X143069819Y-135643053D02*
X142069819Y-135643053D01*
X140449580Y-138738292D02*
X140497200Y-138785911D01*
X140497200Y-138785911D02*
X140544819Y-138928768D01*
X140544819Y-138928768D02*
X140544819Y-139024006D01*
X140544819Y-139024006D02*
X140497200Y-139166863D01*
X140497200Y-139166863D02*
X140401961Y-139262101D01*
X140401961Y-139262101D02*
X140306723Y-139309720D01*
X140306723Y-139309720D02*
X140116247Y-139357339D01*
X140116247Y-139357339D02*
X139973390Y-139357339D01*
X139973390Y-139357339D02*
X139782914Y-139309720D01*
X139782914Y-139309720D02*
X139687676Y-139262101D01*
X139687676Y-139262101D02*
X139592438Y-139166863D01*
X139592438Y-139166863D02*
X139544819Y-139024006D01*
X139544819Y-139024006D02*
X139544819Y-138928768D01*
X139544819Y-138928768D02*
X139592438Y-138785911D01*
X139592438Y-138785911D02*
X139640057Y-138738292D01*
X140259104Y-138357339D02*
X140259104Y-137881149D01*
X140544819Y-138452577D02*
X139544819Y-138119244D01*
X139544819Y-138119244D02*
X140544819Y-137785911D01*
X140544819Y-137452577D02*
X139544819Y-137452577D01*
X139544819Y-137452577D02*
X140544819Y-136881149D01*
X140544819Y-136881149D02*
X139544819Y-136881149D01*
X140544819Y-135643053D02*
X139544819Y-135643053D01*
X140021009Y-135643053D02*
X140021009Y-135071625D01*
X140544819Y-135071625D02*
X139544819Y-135071625D01*
X159920112Y-142096009D02*
X160062969Y-142143628D01*
X160062969Y-142143628D02*
X160110588Y-142191247D01*
X160110588Y-142191247D02*
X160158207Y-142286485D01*
X160158207Y-142286485D02*
X160158207Y-142429342D01*
X160158207Y-142429342D02*
X160110588Y-142524580D01*
X160110588Y-142524580D02*
X160062969Y-142572200D01*
X160062969Y-142572200D02*
X159967731Y-142619819D01*
X159967731Y-142619819D02*
X159586779Y-142619819D01*
X159586779Y-142619819D02*
X159586779Y-141619819D01*
X159586779Y-141619819D02*
X159920112Y-141619819D01*
X159920112Y-141619819D02*
X160015350Y-141667438D01*
X160015350Y-141667438D02*
X160062969Y-141715057D01*
X160062969Y-141715057D02*
X160110588Y-141810295D01*
X160110588Y-141810295D02*
X160110588Y-141905533D01*
X160110588Y-141905533D02*
X160062969Y-142000771D01*
X160062969Y-142000771D02*
X160015350Y-142048390D01*
X160015350Y-142048390D02*
X159920112Y-142096009D01*
X159920112Y-142096009D02*
X159586779Y-142096009D01*
X160586779Y-142238866D02*
X161348684Y-142238866D01*
X159920112Y-139596009D02*
X160062969Y-139643628D01*
X160062969Y-139643628D02*
X160110588Y-139691247D01*
X160110588Y-139691247D02*
X160158207Y-139786485D01*
X160158207Y-139786485D02*
X160158207Y-139929342D01*
X160158207Y-139929342D02*
X160110588Y-140024580D01*
X160110588Y-140024580D02*
X160062969Y-140072200D01*
X160062969Y-140072200D02*
X159967731Y-140119819D01*
X159967731Y-140119819D02*
X159586779Y-140119819D01*
X159586779Y-140119819D02*
X159586779Y-139119819D01*
X159586779Y-139119819D02*
X159920112Y-139119819D01*
X159920112Y-139119819D02*
X160015350Y-139167438D01*
X160015350Y-139167438D02*
X160062969Y-139215057D01*
X160062969Y-139215057D02*
X160110588Y-139310295D01*
X160110588Y-139310295D02*
X160110588Y-139405533D01*
X160110588Y-139405533D02*
X160062969Y-139500771D01*
X160062969Y-139500771D02*
X160015350Y-139548390D01*
X160015350Y-139548390D02*
X159920112Y-139596009D01*
X159920112Y-139596009D02*
X159586779Y-139596009D01*
X160586779Y-139738866D02*
X161348684Y-139738866D01*
X160967731Y-140119819D02*
X160967731Y-139357914D01*
X121127800Y-120739160D02*
X121080180Y-120882017D01*
X121080180Y-120882017D02*
X121080180Y-121120112D01*
X121080180Y-121120112D02*
X121127800Y-121215350D01*
X121127800Y-121215350D02*
X121175419Y-121262969D01*
X121175419Y-121262969D02*
X121270657Y-121310588D01*
X121270657Y-121310588D02*
X121365895Y-121310588D01*
X121365895Y-121310588D02*
X121461133Y-121262969D01*
X121461133Y-121262969D02*
X121508752Y-121215350D01*
X121508752Y-121215350D02*
X121556371Y-121120112D01*
X121556371Y-121120112D02*
X121603990Y-120929636D01*
X121603990Y-120929636D02*
X121651609Y-120834398D01*
X121651609Y-120834398D02*
X121699228Y-120786779D01*
X121699228Y-120786779D02*
X121794466Y-120739160D01*
X121794466Y-120739160D02*
X121889704Y-120739160D01*
X121889704Y-120739160D02*
X121984942Y-120786779D01*
X121984942Y-120786779D02*
X122032561Y-120834398D01*
X122032561Y-120834398D02*
X122080180Y-120929636D01*
X122080180Y-120929636D02*
X122080180Y-121167731D01*
X122080180Y-121167731D02*
X122032561Y-121310588D01*
X121080180Y-121739160D02*
X121746847Y-121739160D01*
X121651609Y-121739160D02*
X121699228Y-121786779D01*
X121699228Y-121786779D02*
X121746847Y-121882017D01*
X121746847Y-121882017D02*
X121746847Y-122024874D01*
X121746847Y-122024874D02*
X121699228Y-122120112D01*
X121699228Y-122120112D02*
X121603990Y-122167731D01*
X121603990Y-122167731D02*
X121080180Y-122167731D01*
X121603990Y-122167731D02*
X121699228Y-122215350D01*
X121699228Y-122215350D02*
X121746847Y-122310588D01*
X121746847Y-122310588D02*
X121746847Y-122453445D01*
X121746847Y-122453445D02*
X121699228Y-122548684D01*
X121699228Y-122548684D02*
X121603990Y-122596303D01*
X121603990Y-122596303D02*
X121080180Y-122596303D01*
X121080180Y-123501064D02*
X121603990Y-123501064D01*
X121603990Y-123501064D02*
X121699228Y-123453445D01*
X121699228Y-123453445D02*
X121746847Y-123358207D01*
X121746847Y-123358207D02*
X121746847Y-123167731D01*
X121746847Y-123167731D02*
X121699228Y-123072493D01*
X121127800Y-123501064D02*
X121080180Y-123405826D01*
X121080180Y-123405826D02*
X121080180Y-123167731D01*
X121080180Y-123167731D02*
X121127800Y-123072493D01*
X121127800Y-123072493D02*
X121223038Y-123024874D01*
X121223038Y-123024874D02*
X121318276Y-123024874D01*
X121318276Y-123024874D02*
X121413514Y-123072493D01*
X121413514Y-123072493D02*
X121461133Y-123167731D01*
X121461133Y-123167731D02*
X121461133Y-123405826D01*
X121461133Y-123405826D02*
X121508752Y-123501064D01*
X121080180Y-123977255D02*
X121746847Y-123977255D01*
X121556371Y-123977255D02*
X121651609Y-124024874D01*
X121651609Y-124024874D02*
X121699228Y-124072493D01*
X121699228Y-124072493D02*
X121746847Y-124167731D01*
X121746847Y-124167731D02*
X121746847Y-124262969D01*
X121746847Y-124453446D02*
X121746847Y-124834398D01*
X122080180Y-124596303D02*
X121223038Y-124596303D01*
X121223038Y-124596303D02*
X121127800Y-124643922D01*
X121127800Y-124643922D02*
X121080180Y-124739160D01*
X121080180Y-124739160D02*
X121080180Y-124834398D01*
X121080180Y-125929637D02*
X122080180Y-125929637D01*
X122080180Y-125929637D02*
X121365895Y-126262970D01*
X121365895Y-126262970D02*
X122080180Y-126596303D01*
X122080180Y-126596303D02*
X121080180Y-126596303D01*
X121080180Y-127215351D02*
X121127800Y-127120113D01*
X121127800Y-127120113D02*
X121175419Y-127072494D01*
X121175419Y-127072494D02*
X121270657Y-127024875D01*
X121270657Y-127024875D02*
X121556371Y-127024875D01*
X121556371Y-127024875D02*
X121651609Y-127072494D01*
X121651609Y-127072494D02*
X121699228Y-127120113D01*
X121699228Y-127120113D02*
X121746847Y-127215351D01*
X121746847Y-127215351D02*
X121746847Y-127358208D01*
X121746847Y-127358208D02*
X121699228Y-127453446D01*
X121699228Y-127453446D02*
X121651609Y-127501065D01*
X121651609Y-127501065D02*
X121556371Y-127548684D01*
X121556371Y-127548684D02*
X121270657Y-127548684D01*
X121270657Y-127548684D02*
X121175419Y-127501065D01*
X121175419Y-127501065D02*
X121127800Y-127453446D01*
X121127800Y-127453446D02*
X121080180Y-127358208D01*
X121080180Y-127358208D02*
X121080180Y-127215351D01*
X121746847Y-127834399D02*
X121746847Y-128215351D01*
X122080180Y-127977256D02*
X121223038Y-127977256D01*
X121223038Y-127977256D02*
X121127800Y-128024875D01*
X121127800Y-128024875D02*
X121080180Y-128120113D01*
X121080180Y-128120113D02*
X121080180Y-128215351D01*
X121080180Y-128691542D02*
X121127800Y-128596304D01*
X121127800Y-128596304D02*
X121175419Y-128548685D01*
X121175419Y-128548685D02*
X121270657Y-128501066D01*
X121270657Y-128501066D02*
X121556371Y-128501066D01*
X121556371Y-128501066D02*
X121651609Y-128548685D01*
X121651609Y-128548685D02*
X121699228Y-128596304D01*
X121699228Y-128596304D02*
X121746847Y-128691542D01*
X121746847Y-128691542D02*
X121746847Y-128834399D01*
X121746847Y-128834399D02*
X121699228Y-128929637D01*
X121699228Y-128929637D02*
X121651609Y-128977256D01*
X121651609Y-128977256D02*
X121556371Y-129024875D01*
X121556371Y-129024875D02*
X121270657Y-129024875D01*
X121270657Y-129024875D02*
X121175419Y-128977256D01*
X121175419Y-128977256D02*
X121127800Y-128929637D01*
X121127800Y-128929637D02*
X121080180Y-128834399D01*
X121080180Y-128834399D02*
X121080180Y-128691542D01*
X121080180Y-129453447D02*
X121746847Y-129453447D01*
X121556371Y-129453447D02*
X121651609Y-129501066D01*
X121651609Y-129501066D02*
X121699228Y-129548685D01*
X121699228Y-129548685D02*
X121746847Y-129643923D01*
X121746847Y-129643923D02*
X121746847Y-129739161D01*
X122080180Y-130691543D02*
X121080180Y-131024876D01*
X121080180Y-131024876D02*
X122080180Y-131358209D01*
X121080180Y-132215352D02*
X121080180Y-131643924D01*
X121080180Y-131929638D02*
X122080180Y-131929638D01*
X122080180Y-131929638D02*
X121937323Y-131834400D01*
X121937323Y-131834400D02*
X121842085Y-131739162D01*
X121842085Y-131739162D02*
X121794466Y-131643924D01*
X159539160Y-134834104D02*
X160015350Y-134834104D01*
X159443922Y-135119819D02*
X159777255Y-134119819D01*
X159777255Y-134119819D02*
X160110588Y-135119819D01*
X160443922Y-134738866D02*
X161205827Y-134738866D01*
X160824874Y-135119819D02*
X160824874Y-134357914D01*
X159539160Y-137334104D02*
X160015350Y-137334104D01*
X159443922Y-137619819D02*
X159777255Y-136619819D01*
X159777255Y-136619819D02*
X160110588Y-137619819D01*
X160443922Y-137238866D02*
X161205827Y-137238866D01*
D12*
X158614318Y-123724332D02*
X159521461Y-123724332D01*
X159521461Y-123724332D02*
X159702889Y-123784809D01*
X159702889Y-123784809D02*
X159823842Y-123905761D01*
X159823842Y-123905761D02*
X159884318Y-124087190D01*
X159884318Y-124087190D02*
X159884318Y-124208142D01*
X159037651Y-122575285D02*
X159884318Y-122575285D01*
X158553842Y-122877666D02*
X159460984Y-123180047D01*
X159460984Y-123180047D02*
X159460984Y-122393856D01*
D11*
X130057142Y-118459580D02*
X130009523Y-118507200D01*
X130009523Y-118507200D02*
X129866666Y-118554819D01*
X129866666Y-118554819D02*
X129771428Y-118554819D01*
X129771428Y-118554819D02*
X129628571Y-118507200D01*
X129628571Y-118507200D02*
X129533333Y-118411961D01*
X129533333Y-118411961D02*
X129485714Y-118316723D01*
X129485714Y-118316723D02*
X129438095Y-118126247D01*
X129438095Y-118126247D02*
X129438095Y-117983390D01*
X129438095Y-117983390D02*
X129485714Y-117792914D01*
X129485714Y-117792914D02*
X129533333Y-117697676D01*
X129533333Y-117697676D02*
X129628571Y-117602438D01*
X129628571Y-117602438D02*
X129771428Y-117554819D01*
X129771428Y-117554819D02*
X129866666Y-117554819D01*
X129866666Y-117554819D02*
X130009523Y-117602438D01*
X130009523Y-117602438D02*
X130057142Y-117650057D01*
X130438095Y-117650057D02*
X130485714Y-117602438D01*
X130485714Y-117602438D02*
X130580952Y-117554819D01*
X130580952Y-117554819D02*
X130819047Y-117554819D01*
X130819047Y-117554819D02*
X130914285Y-117602438D01*
X130914285Y-117602438D02*
X130961904Y-117650057D01*
X130961904Y-117650057D02*
X131009523Y-117745295D01*
X131009523Y-117745295D02*
X131009523Y-117840533D01*
X131009523Y-117840533D02*
X130961904Y-117983390D01*
X130961904Y-117983390D02*
X130390476Y-118554819D01*
X130390476Y-118554819D02*
X131009523Y-118554819D01*
X131914285Y-117554819D02*
X131438095Y-117554819D01*
X131438095Y-117554819D02*
X131390476Y-118031009D01*
X131390476Y-118031009D02*
X131438095Y-117983390D01*
X131438095Y-117983390D02*
X131533333Y-117935771D01*
X131533333Y-117935771D02*
X131771428Y-117935771D01*
X131771428Y-117935771D02*
X131866666Y-117983390D01*
X131866666Y-117983390D02*
X131914285Y-118031009D01*
X131914285Y-118031009D02*
X131961904Y-118126247D01*
X131961904Y-118126247D02*
X131961904Y-118364342D01*
X131961904Y-118364342D02*
X131914285Y-118459580D01*
X131914285Y-118459580D02*
X131866666Y-118507200D01*
X131866666Y-118507200D02*
X131771428Y-118554819D01*
X131771428Y-118554819D02*
X131533333Y-118554819D01*
X131533333Y-118554819D02*
X131438095Y-118507200D01*
X131438095Y-118507200D02*
X131390476Y-118459580D01*
X145107142Y-131859580D02*
X145059523Y-131907200D01*
X145059523Y-131907200D02*
X144916666Y-131954819D01*
X144916666Y-131954819D02*
X144821428Y-131954819D01*
X144821428Y-131954819D02*
X144678571Y-131907200D01*
X144678571Y-131907200D02*
X144583333Y-131811961D01*
X144583333Y-131811961D02*
X144535714Y-131716723D01*
X144535714Y-131716723D02*
X144488095Y-131526247D01*
X144488095Y-131526247D02*
X144488095Y-131383390D01*
X144488095Y-131383390D02*
X144535714Y-131192914D01*
X144535714Y-131192914D02*
X144583333Y-131097676D01*
X144583333Y-131097676D02*
X144678571Y-131002438D01*
X144678571Y-131002438D02*
X144821428Y-130954819D01*
X144821428Y-130954819D02*
X144916666Y-130954819D01*
X144916666Y-130954819D02*
X145059523Y-131002438D01*
X145059523Y-131002438D02*
X145107142Y-131050057D01*
X145488095Y-131050057D02*
X145535714Y-131002438D01*
X145535714Y-131002438D02*
X145630952Y-130954819D01*
X145630952Y-130954819D02*
X145869047Y-130954819D01*
X145869047Y-130954819D02*
X145964285Y-131002438D01*
X145964285Y-131002438D02*
X146011904Y-131050057D01*
X146011904Y-131050057D02*
X146059523Y-131145295D01*
X146059523Y-131145295D02*
X146059523Y-131240533D01*
X146059523Y-131240533D02*
X146011904Y-131383390D01*
X146011904Y-131383390D02*
X145440476Y-131954819D01*
X145440476Y-131954819D02*
X146059523Y-131954819D01*
X146678571Y-130954819D02*
X146773809Y-130954819D01*
X146773809Y-130954819D02*
X146869047Y-131002438D01*
X146869047Y-131002438D02*
X146916666Y-131050057D01*
X146916666Y-131050057D02*
X146964285Y-131145295D01*
X146964285Y-131145295D02*
X147011904Y-131335771D01*
X147011904Y-131335771D02*
X147011904Y-131573866D01*
X147011904Y-131573866D02*
X146964285Y-131764342D01*
X146964285Y-131764342D02*
X146916666Y-131859580D01*
X146916666Y-131859580D02*
X146869047Y-131907200D01*
X146869047Y-131907200D02*
X146773809Y-131954819D01*
X146773809Y-131954819D02*
X146678571Y-131954819D01*
X146678571Y-131954819D02*
X146583333Y-131907200D01*
X146583333Y-131907200D02*
X146535714Y-131859580D01*
X146535714Y-131859580D02*
X146488095Y-131764342D01*
X146488095Y-131764342D02*
X146440476Y-131573866D01*
X146440476Y-131573866D02*
X146440476Y-131335771D01*
X146440476Y-131335771D02*
X146488095Y-131145295D01*
X146488095Y-131145295D02*
X146535714Y-131050057D01*
X146535714Y-131050057D02*
X146583333Y-131002438D01*
X146583333Y-131002438D02*
X146678571Y-130954819D01*
X130794642Y-131939580D02*
X130747023Y-131987200D01*
X130747023Y-131987200D02*
X130604166Y-132034819D01*
X130604166Y-132034819D02*
X130508928Y-132034819D01*
X130508928Y-132034819D02*
X130366071Y-131987200D01*
X130366071Y-131987200D02*
X130270833Y-131891961D01*
X130270833Y-131891961D02*
X130223214Y-131796723D01*
X130223214Y-131796723D02*
X130175595Y-131606247D01*
X130175595Y-131606247D02*
X130175595Y-131463390D01*
X130175595Y-131463390D02*
X130223214Y-131272914D01*
X130223214Y-131272914D02*
X130270833Y-131177676D01*
X130270833Y-131177676D02*
X130366071Y-131082438D01*
X130366071Y-131082438D02*
X130508928Y-131034819D01*
X130508928Y-131034819D02*
X130604166Y-131034819D01*
X130604166Y-131034819D02*
X130747023Y-131082438D01*
X130747023Y-131082438D02*
X130794642Y-131130057D01*
X131175595Y-131130057D02*
X131223214Y-131082438D01*
X131223214Y-131082438D02*
X131318452Y-131034819D01*
X131318452Y-131034819D02*
X131556547Y-131034819D01*
X131556547Y-131034819D02*
X131651785Y-131082438D01*
X131651785Y-131082438D02*
X131699404Y-131130057D01*
X131699404Y-131130057D02*
X131747023Y-131225295D01*
X131747023Y-131225295D02*
X131747023Y-131320533D01*
X131747023Y-131320533D02*
X131699404Y-131463390D01*
X131699404Y-131463390D02*
X131127976Y-132034819D01*
X131127976Y-132034819D02*
X131747023Y-132034819D01*
X132604166Y-131034819D02*
X132413690Y-131034819D01*
X132413690Y-131034819D02*
X132318452Y-131082438D01*
X132318452Y-131082438D02*
X132270833Y-131130057D01*
X132270833Y-131130057D02*
X132175595Y-131272914D01*
X132175595Y-131272914D02*
X132127976Y-131463390D01*
X132127976Y-131463390D02*
X132127976Y-131844342D01*
X132127976Y-131844342D02*
X132175595Y-131939580D01*
X132175595Y-131939580D02*
X132223214Y-131987200D01*
X132223214Y-131987200D02*
X132318452Y-132034819D01*
X132318452Y-132034819D02*
X132508928Y-132034819D01*
X132508928Y-132034819D02*
X132604166Y-131987200D01*
X132604166Y-131987200D02*
X132651785Y-131939580D01*
X132651785Y-131939580D02*
X132699404Y-131844342D01*
X132699404Y-131844342D02*
X132699404Y-131606247D01*
X132699404Y-131606247D02*
X132651785Y-131511009D01*
X132651785Y-131511009D02*
X132604166Y-131463390D01*
X132604166Y-131463390D02*
X132508928Y-131415771D01*
X132508928Y-131415771D02*
X132318452Y-131415771D01*
X132318452Y-131415771D02*
X132223214Y-131463390D01*
X132223214Y-131463390D02*
X132175595Y-131511009D01*
X132175595Y-131511009D02*
X132127976Y-131606247D01*
X135457142Y-131859580D02*
X135409523Y-131907200D01*
X135409523Y-131907200D02*
X135266666Y-131954819D01*
X135266666Y-131954819D02*
X135171428Y-131954819D01*
X135171428Y-131954819D02*
X135028571Y-131907200D01*
X135028571Y-131907200D02*
X134933333Y-131811961D01*
X134933333Y-131811961D02*
X134885714Y-131716723D01*
X134885714Y-131716723D02*
X134838095Y-131526247D01*
X134838095Y-131526247D02*
X134838095Y-131383390D01*
X134838095Y-131383390D02*
X134885714Y-131192914D01*
X134885714Y-131192914D02*
X134933333Y-131097676D01*
X134933333Y-131097676D02*
X135028571Y-131002438D01*
X135028571Y-131002438D02*
X135171428Y-130954819D01*
X135171428Y-130954819D02*
X135266666Y-130954819D01*
X135266666Y-130954819D02*
X135409523Y-131002438D01*
X135409523Y-131002438D02*
X135457142Y-131050057D01*
X135838095Y-131050057D02*
X135885714Y-131002438D01*
X135885714Y-131002438D02*
X135980952Y-130954819D01*
X135980952Y-130954819D02*
X136219047Y-130954819D01*
X136219047Y-130954819D02*
X136314285Y-131002438D01*
X136314285Y-131002438D02*
X136361904Y-131050057D01*
X136361904Y-131050057D02*
X136409523Y-131145295D01*
X136409523Y-131145295D02*
X136409523Y-131240533D01*
X136409523Y-131240533D02*
X136361904Y-131383390D01*
X136361904Y-131383390D02*
X135790476Y-131954819D01*
X135790476Y-131954819D02*
X136409523Y-131954819D01*
X136790476Y-131050057D02*
X136838095Y-131002438D01*
X136838095Y-131002438D02*
X136933333Y-130954819D01*
X136933333Y-130954819D02*
X137171428Y-130954819D01*
X137171428Y-130954819D02*
X137266666Y-131002438D01*
X137266666Y-131002438D02*
X137314285Y-131050057D01*
X137314285Y-131050057D02*
X137361904Y-131145295D01*
X137361904Y-131145295D02*
X137361904Y-131240533D01*
X137361904Y-131240533D02*
X137314285Y-131383390D01*
X137314285Y-131383390D02*
X136742857Y-131954819D01*
X136742857Y-131954819D02*
X137361904Y-131954819D01*
X156783333Y-116473200D02*
X156983333Y-116539866D01*
X156983333Y-116539866D02*
X157316667Y-116539866D01*
X157316667Y-116539866D02*
X157450000Y-116473200D01*
X157450000Y-116473200D02*
X157516667Y-116406533D01*
X157516667Y-116406533D02*
X157583333Y-116273200D01*
X157583333Y-116273200D02*
X157583333Y-116139866D01*
X157583333Y-116139866D02*
X157516667Y-116006533D01*
X157516667Y-116006533D02*
X157450000Y-115939866D01*
X157450000Y-115939866D02*
X157316667Y-115873200D01*
X157316667Y-115873200D02*
X157050000Y-115806533D01*
X157050000Y-115806533D02*
X156916667Y-115739866D01*
X156916667Y-115739866D02*
X156850000Y-115673200D01*
X156850000Y-115673200D02*
X156783333Y-115539866D01*
X156783333Y-115539866D02*
X156783333Y-115406533D01*
X156783333Y-115406533D02*
X156850000Y-115273200D01*
X156850000Y-115273200D02*
X156916667Y-115206533D01*
X156916667Y-115206533D02*
X157050000Y-115139866D01*
X157050000Y-115139866D02*
X157383333Y-115139866D01*
X157383333Y-115139866D02*
X157583333Y-115206533D01*
X158116666Y-115273200D02*
X158183333Y-115206533D01*
X158183333Y-115206533D02*
X158316666Y-115139866D01*
X158316666Y-115139866D02*
X158650000Y-115139866D01*
X158650000Y-115139866D02*
X158783333Y-115206533D01*
X158783333Y-115206533D02*
X158850000Y-115273200D01*
X158850000Y-115273200D02*
X158916666Y-115406533D01*
X158916666Y-115406533D02*
X158916666Y-115539866D01*
X158916666Y-115539866D02*
X158850000Y-115739866D01*
X158850000Y-115739866D02*
X158050000Y-116539866D01*
X158050000Y-116539866D02*
X158916666Y-116539866D01*
X122629642Y-118854819D02*
X122296309Y-118378628D01*
X122058214Y-118854819D02*
X122058214Y-117854819D01*
X122058214Y-117854819D02*
X122439166Y-117854819D01*
X122439166Y-117854819D02*
X122534404Y-117902438D01*
X122534404Y-117902438D02*
X122582023Y-117950057D01*
X122582023Y-117950057D02*
X122629642Y-118045295D01*
X122629642Y-118045295D02*
X122629642Y-118188152D01*
X122629642Y-118188152D02*
X122582023Y-118283390D01*
X122582023Y-118283390D02*
X122534404Y-118331009D01*
X122534404Y-118331009D02*
X122439166Y-118378628D01*
X122439166Y-118378628D02*
X122058214Y-118378628D01*
X123582023Y-118854819D02*
X123010595Y-118854819D01*
X123296309Y-118854819D02*
X123296309Y-117854819D01*
X123296309Y-117854819D02*
X123201071Y-117997676D01*
X123201071Y-117997676D02*
X123105833Y-118092914D01*
X123105833Y-118092914D02*
X123010595Y-118140533D01*
X123962976Y-117950057D02*
X124010595Y-117902438D01*
X124010595Y-117902438D02*
X124105833Y-117854819D01*
X124105833Y-117854819D02*
X124343928Y-117854819D01*
X124343928Y-117854819D02*
X124439166Y-117902438D01*
X124439166Y-117902438D02*
X124486785Y-117950057D01*
X124486785Y-117950057D02*
X124534404Y-118045295D01*
X124534404Y-118045295D02*
X124534404Y-118140533D01*
X124534404Y-118140533D02*
X124486785Y-118283390D01*
X124486785Y-118283390D02*
X123915357Y-118854819D01*
X123915357Y-118854819D02*
X124534404Y-118854819D01*
X132466666Y-139154819D02*
X132466666Y-139869104D01*
X132466666Y-139869104D02*
X132419047Y-140011961D01*
X132419047Y-140011961D02*
X132323809Y-140107200D01*
X132323809Y-140107200D02*
X132180952Y-140154819D01*
X132180952Y-140154819D02*
X132085714Y-140154819D01*
X132895238Y-139250057D02*
X132942857Y-139202438D01*
X132942857Y-139202438D02*
X133038095Y-139154819D01*
X133038095Y-139154819D02*
X133276190Y-139154819D01*
X133276190Y-139154819D02*
X133371428Y-139202438D01*
X133371428Y-139202438D02*
X133419047Y-139250057D01*
X133419047Y-139250057D02*
X133466666Y-139345295D01*
X133466666Y-139345295D02*
X133466666Y-139440533D01*
X133466666Y-139440533D02*
X133419047Y-139583390D01*
X133419047Y-139583390D02*
X132847619Y-140154819D01*
X132847619Y-140154819D02*
X133466666Y-140154819D01*
X124183333Y-113523200D02*
X124383333Y-113589866D01*
X124383333Y-113589866D02*
X124716667Y-113589866D01*
X124716667Y-113589866D02*
X124850000Y-113523200D01*
X124850000Y-113523200D02*
X124916667Y-113456533D01*
X124916667Y-113456533D02*
X124983333Y-113323200D01*
X124983333Y-113323200D02*
X124983333Y-113189866D01*
X124983333Y-113189866D02*
X124916667Y-113056533D01*
X124916667Y-113056533D02*
X124850000Y-112989866D01*
X124850000Y-112989866D02*
X124716667Y-112923200D01*
X124716667Y-112923200D02*
X124450000Y-112856533D01*
X124450000Y-112856533D02*
X124316667Y-112789866D01*
X124316667Y-112789866D02*
X124250000Y-112723200D01*
X124250000Y-112723200D02*
X124183333Y-112589866D01*
X124183333Y-112589866D02*
X124183333Y-112456533D01*
X124183333Y-112456533D02*
X124250000Y-112323200D01*
X124250000Y-112323200D02*
X124316667Y-112256533D01*
X124316667Y-112256533D02*
X124450000Y-112189866D01*
X124450000Y-112189866D02*
X124783333Y-112189866D01*
X124783333Y-112189866D02*
X124983333Y-112256533D01*
X126316666Y-113589866D02*
X125516666Y-113589866D01*
X125916666Y-113589866D02*
X125916666Y-112189866D01*
X125916666Y-112189866D02*
X125783333Y-112389866D01*
X125783333Y-112389866D02*
X125650000Y-112523200D01*
X125650000Y-112523200D02*
X125516666Y-112589866D01*
X145559580Y-120442857D02*
X145607200Y-120490476D01*
X145607200Y-120490476D02*
X145654819Y-120633333D01*
X145654819Y-120633333D02*
X145654819Y-120728571D01*
X145654819Y-120728571D02*
X145607200Y-120871428D01*
X145607200Y-120871428D02*
X145511961Y-120966666D01*
X145511961Y-120966666D02*
X145416723Y-121014285D01*
X145416723Y-121014285D02*
X145226247Y-121061904D01*
X145226247Y-121061904D02*
X145083390Y-121061904D01*
X145083390Y-121061904D02*
X144892914Y-121014285D01*
X144892914Y-121014285D02*
X144797676Y-120966666D01*
X144797676Y-120966666D02*
X144702438Y-120871428D01*
X144702438Y-120871428D02*
X144654819Y-120728571D01*
X144654819Y-120728571D02*
X144654819Y-120633333D01*
X144654819Y-120633333D02*
X144702438Y-120490476D01*
X144702438Y-120490476D02*
X144750057Y-120442857D01*
X145654819Y-119490476D02*
X145654819Y-120061904D01*
X145654819Y-119776190D02*
X144654819Y-119776190D01*
X144654819Y-119776190D02*
X144797676Y-119871428D01*
X144797676Y-119871428D02*
X144892914Y-119966666D01*
X144892914Y-119966666D02*
X144940533Y-120061904D01*
X145654819Y-119014285D02*
X145654819Y-118823809D01*
X145654819Y-118823809D02*
X145607200Y-118728571D01*
X145607200Y-118728571D02*
X145559580Y-118680952D01*
X145559580Y-118680952D02*
X145416723Y-118585714D01*
X145416723Y-118585714D02*
X145226247Y-118538095D01*
X145226247Y-118538095D02*
X144845295Y-118538095D01*
X144845295Y-118538095D02*
X144750057Y-118585714D01*
X144750057Y-118585714D02*
X144702438Y-118633333D01*
X144702438Y-118633333D02*
X144654819Y-118728571D01*
X144654819Y-118728571D02*
X144654819Y-118919047D01*
X144654819Y-118919047D02*
X144702438Y-119014285D01*
X144702438Y-119014285D02*
X144750057Y-119061904D01*
X144750057Y-119061904D02*
X144845295Y-119109523D01*
X144845295Y-119109523D02*
X145083390Y-119109523D01*
X145083390Y-119109523D02*
X145178628Y-119061904D01*
X145178628Y-119061904D02*
X145226247Y-119014285D01*
X145226247Y-119014285D02*
X145273866Y-118919047D01*
X145273866Y-118919047D02*
X145273866Y-118728571D01*
X145273866Y-118728571D02*
X145226247Y-118633333D01*
X145226247Y-118633333D02*
X145178628Y-118585714D01*
X145178628Y-118585714D02*
X145083390Y-118538095D01*
X140238095Y-124454819D02*
X140238095Y-125264342D01*
X140238095Y-125264342D02*
X140285714Y-125359580D01*
X140285714Y-125359580D02*
X140333333Y-125407200D01*
X140333333Y-125407200D02*
X140428571Y-125454819D01*
X140428571Y-125454819D02*
X140619047Y-125454819D01*
X140619047Y-125454819D02*
X140714285Y-125407200D01*
X140714285Y-125407200D02*
X140761904Y-125359580D01*
X140761904Y-125359580D02*
X140809523Y-125264342D01*
X140809523Y-125264342D02*
X140809523Y-124454819D01*
X141761904Y-124454819D02*
X141285714Y-124454819D01*
X141285714Y-124454819D02*
X141238095Y-124931009D01*
X141238095Y-124931009D02*
X141285714Y-124883390D01*
X141285714Y-124883390D02*
X141380952Y-124835771D01*
X141380952Y-124835771D02*
X141619047Y-124835771D01*
X141619047Y-124835771D02*
X141714285Y-124883390D01*
X141714285Y-124883390D02*
X141761904Y-124931009D01*
X141761904Y-124931009D02*
X141809523Y-125026247D01*
X141809523Y-125026247D02*
X141809523Y-125264342D01*
X141809523Y-125264342D02*
X141761904Y-125359580D01*
X141761904Y-125359580D02*
X141714285Y-125407200D01*
X141714285Y-125407200D02*
X141619047Y-125454819D01*
X141619047Y-125454819D02*
X141380952Y-125454819D01*
X141380952Y-125454819D02*
X141285714Y-125407200D01*
X141285714Y-125407200D02*
X141238095Y-125359580D01*
X147757142Y-129859580D02*
X147709523Y-129907200D01*
X147709523Y-129907200D02*
X147566666Y-129954819D01*
X147566666Y-129954819D02*
X147471428Y-129954819D01*
X147471428Y-129954819D02*
X147328571Y-129907200D01*
X147328571Y-129907200D02*
X147233333Y-129811961D01*
X147233333Y-129811961D02*
X147185714Y-129716723D01*
X147185714Y-129716723D02*
X147138095Y-129526247D01*
X147138095Y-129526247D02*
X147138095Y-129383390D01*
X147138095Y-129383390D02*
X147185714Y-129192914D01*
X147185714Y-129192914D02*
X147233333Y-129097676D01*
X147233333Y-129097676D02*
X147328571Y-129002438D01*
X147328571Y-129002438D02*
X147471428Y-128954819D01*
X147471428Y-128954819D02*
X147566666Y-128954819D01*
X147566666Y-128954819D02*
X147709523Y-129002438D01*
X147709523Y-129002438D02*
X147757142Y-129050057D01*
X148709523Y-129954819D02*
X148138095Y-129954819D01*
X148423809Y-129954819D02*
X148423809Y-128954819D01*
X148423809Y-128954819D02*
X148328571Y-129097676D01*
X148328571Y-129097676D02*
X148233333Y-129192914D01*
X148233333Y-129192914D02*
X148138095Y-129240533D01*
X149328571Y-128954819D02*
X149423809Y-128954819D01*
X149423809Y-128954819D02*
X149519047Y-129002438D01*
X149519047Y-129002438D02*
X149566666Y-129050057D01*
X149566666Y-129050057D02*
X149614285Y-129145295D01*
X149614285Y-129145295D02*
X149661904Y-129335771D01*
X149661904Y-129335771D02*
X149661904Y-129573866D01*
X149661904Y-129573866D02*
X149614285Y-129764342D01*
X149614285Y-129764342D02*
X149566666Y-129859580D01*
X149566666Y-129859580D02*
X149519047Y-129907200D01*
X149519047Y-129907200D02*
X149423809Y-129954819D01*
X149423809Y-129954819D02*
X149328571Y-129954819D01*
X149328571Y-129954819D02*
X149233333Y-129907200D01*
X149233333Y-129907200D02*
X149185714Y-129859580D01*
X149185714Y-129859580D02*
X149138095Y-129764342D01*
X149138095Y-129764342D02*
X149090476Y-129573866D01*
X149090476Y-129573866D02*
X149090476Y-129335771D01*
X149090476Y-129335771D02*
X149138095Y-129145295D01*
X149138095Y-129145295D02*
X149185714Y-129050057D01*
X149185714Y-129050057D02*
X149233333Y-129002438D01*
X149233333Y-129002438D02*
X149328571Y-128954819D01*
X151554819Y-109055357D02*
X151078628Y-109388690D01*
X151554819Y-109626785D02*
X150554819Y-109626785D01*
X150554819Y-109626785D02*
X150554819Y-109245833D01*
X150554819Y-109245833D02*
X150602438Y-109150595D01*
X150602438Y-109150595D02*
X150650057Y-109102976D01*
X150650057Y-109102976D02*
X150745295Y-109055357D01*
X150745295Y-109055357D02*
X150888152Y-109055357D01*
X150888152Y-109055357D02*
X150983390Y-109102976D01*
X150983390Y-109102976D02*
X151031009Y-109150595D01*
X151031009Y-109150595D02*
X151078628Y-109245833D01*
X151078628Y-109245833D02*
X151078628Y-109626785D01*
X151554819Y-108102976D02*
X151554819Y-108674404D01*
X151554819Y-108388690D02*
X150554819Y-108388690D01*
X150554819Y-108388690D02*
X150697676Y-108483928D01*
X150697676Y-108483928D02*
X150792914Y-108579166D01*
X150792914Y-108579166D02*
X150840533Y-108674404D01*
X151554819Y-107150595D02*
X151554819Y-107722023D01*
X151554819Y-107436309D02*
X150554819Y-107436309D01*
X150554819Y-107436309D02*
X150697676Y-107531547D01*
X150697676Y-107531547D02*
X150792914Y-107626785D01*
X150792914Y-107626785D02*
X150840533Y-107722023D01*
X133559580Y-119742857D02*
X133607200Y-119790476D01*
X133607200Y-119790476D02*
X133654819Y-119933333D01*
X133654819Y-119933333D02*
X133654819Y-120028571D01*
X133654819Y-120028571D02*
X133607200Y-120171428D01*
X133607200Y-120171428D02*
X133511961Y-120266666D01*
X133511961Y-120266666D02*
X133416723Y-120314285D01*
X133416723Y-120314285D02*
X133226247Y-120361904D01*
X133226247Y-120361904D02*
X133083390Y-120361904D01*
X133083390Y-120361904D02*
X132892914Y-120314285D01*
X132892914Y-120314285D02*
X132797676Y-120266666D01*
X132797676Y-120266666D02*
X132702438Y-120171428D01*
X132702438Y-120171428D02*
X132654819Y-120028571D01*
X132654819Y-120028571D02*
X132654819Y-119933333D01*
X132654819Y-119933333D02*
X132702438Y-119790476D01*
X132702438Y-119790476D02*
X132750057Y-119742857D01*
X132750057Y-119361904D02*
X132702438Y-119314285D01*
X132702438Y-119314285D02*
X132654819Y-119219047D01*
X132654819Y-119219047D02*
X132654819Y-118980952D01*
X132654819Y-118980952D02*
X132702438Y-118885714D01*
X132702438Y-118885714D02*
X132750057Y-118838095D01*
X132750057Y-118838095D02*
X132845295Y-118790476D01*
X132845295Y-118790476D02*
X132940533Y-118790476D01*
X132940533Y-118790476D02*
X133083390Y-118838095D01*
X133083390Y-118838095D02*
X133654819Y-119409523D01*
X133654819Y-119409523D02*
X133654819Y-118790476D01*
X132654819Y-118457142D02*
X132654819Y-117838095D01*
X132654819Y-117838095D02*
X133035771Y-118171428D01*
X133035771Y-118171428D02*
X133035771Y-118028571D01*
X133035771Y-118028571D02*
X133083390Y-117933333D01*
X133083390Y-117933333D02*
X133131009Y-117885714D01*
X133131009Y-117885714D02*
X133226247Y-117838095D01*
X133226247Y-117838095D02*
X133464342Y-117838095D01*
X133464342Y-117838095D02*
X133559580Y-117885714D01*
X133559580Y-117885714D02*
X133607200Y-117933333D01*
X133607200Y-117933333D02*
X133654819Y-118028571D01*
X133654819Y-118028571D02*
X133654819Y-118314285D01*
X133654819Y-118314285D02*
X133607200Y-118409523D01*
X133607200Y-118409523D02*
X133559580Y-118457142D01*
X150059580Y-120342857D02*
X150107200Y-120390476D01*
X150107200Y-120390476D02*
X150154819Y-120533333D01*
X150154819Y-120533333D02*
X150154819Y-120628571D01*
X150154819Y-120628571D02*
X150107200Y-120771428D01*
X150107200Y-120771428D02*
X150011961Y-120866666D01*
X150011961Y-120866666D02*
X149916723Y-120914285D01*
X149916723Y-120914285D02*
X149726247Y-120961904D01*
X149726247Y-120961904D02*
X149583390Y-120961904D01*
X149583390Y-120961904D02*
X149392914Y-120914285D01*
X149392914Y-120914285D02*
X149297676Y-120866666D01*
X149297676Y-120866666D02*
X149202438Y-120771428D01*
X149202438Y-120771428D02*
X149154819Y-120628571D01*
X149154819Y-120628571D02*
X149154819Y-120533333D01*
X149154819Y-120533333D02*
X149202438Y-120390476D01*
X149202438Y-120390476D02*
X149250057Y-120342857D01*
X149250057Y-119961904D02*
X149202438Y-119914285D01*
X149202438Y-119914285D02*
X149154819Y-119819047D01*
X149154819Y-119819047D02*
X149154819Y-119580952D01*
X149154819Y-119580952D02*
X149202438Y-119485714D01*
X149202438Y-119485714D02*
X149250057Y-119438095D01*
X149250057Y-119438095D02*
X149345295Y-119390476D01*
X149345295Y-119390476D02*
X149440533Y-119390476D01*
X149440533Y-119390476D02*
X149583390Y-119438095D01*
X149583390Y-119438095D02*
X150154819Y-120009523D01*
X150154819Y-120009523D02*
X150154819Y-119390476D01*
X150154819Y-118438095D02*
X150154819Y-119009523D01*
X150154819Y-118723809D02*
X149154819Y-118723809D01*
X149154819Y-118723809D02*
X149297676Y-118819047D01*
X149297676Y-118819047D02*
X149392914Y-118914285D01*
X149392914Y-118914285D02*
X149440533Y-119009523D01*
X143009580Y-133266666D02*
X143057200Y-133314285D01*
X143057200Y-133314285D02*
X143104819Y-133457142D01*
X143104819Y-133457142D02*
X143104819Y-133552380D01*
X143104819Y-133552380D02*
X143057200Y-133695237D01*
X143057200Y-133695237D02*
X142961961Y-133790475D01*
X142961961Y-133790475D02*
X142866723Y-133838094D01*
X142866723Y-133838094D02*
X142676247Y-133885713D01*
X142676247Y-133885713D02*
X142533390Y-133885713D01*
X142533390Y-133885713D02*
X142342914Y-133838094D01*
X142342914Y-133838094D02*
X142247676Y-133790475D01*
X142247676Y-133790475D02*
X142152438Y-133695237D01*
X142152438Y-133695237D02*
X142104819Y-133552380D01*
X142104819Y-133552380D02*
X142104819Y-133457142D01*
X142104819Y-133457142D02*
X142152438Y-133314285D01*
X142152438Y-133314285D02*
X142200057Y-133266666D01*
X143104819Y-132790475D02*
X143104819Y-132599999D01*
X143104819Y-132599999D02*
X143057200Y-132504761D01*
X143057200Y-132504761D02*
X143009580Y-132457142D01*
X143009580Y-132457142D02*
X142866723Y-132361904D01*
X142866723Y-132361904D02*
X142676247Y-132314285D01*
X142676247Y-132314285D02*
X142295295Y-132314285D01*
X142295295Y-132314285D02*
X142200057Y-132361904D01*
X142200057Y-132361904D02*
X142152438Y-132409523D01*
X142152438Y-132409523D02*
X142104819Y-132504761D01*
X142104819Y-132504761D02*
X142104819Y-132695237D01*
X142104819Y-132695237D02*
X142152438Y-132790475D01*
X142152438Y-132790475D02*
X142200057Y-132838094D01*
X142200057Y-132838094D02*
X142295295Y-132885713D01*
X142295295Y-132885713D02*
X142533390Y-132885713D01*
X142533390Y-132885713D02*
X142628628Y-132838094D01*
X142628628Y-132838094D02*
X142676247Y-132790475D01*
X142676247Y-132790475D02*
X142723866Y-132695237D01*
X142723866Y-132695237D02*
X142723866Y-132504761D01*
X142723866Y-132504761D02*
X142676247Y-132409523D01*
X142676247Y-132409523D02*
X142628628Y-132361904D01*
X142628628Y-132361904D02*
X142533390Y-132314285D01*
X134216666Y-138054819D02*
X134216666Y-138769104D01*
X134216666Y-138769104D02*
X134169047Y-138911961D01*
X134169047Y-138911961D02*
X134073809Y-139007200D01*
X134073809Y-139007200D02*
X133930952Y-139054819D01*
X133930952Y-139054819D02*
X133835714Y-139054819D01*
X135169047Y-138054819D02*
X134692857Y-138054819D01*
X134692857Y-138054819D02*
X134645238Y-138531009D01*
X134645238Y-138531009D02*
X134692857Y-138483390D01*
X134692857Y-138483390D02*
X134788095Y-138435771D01*
X134788095Y-138435771D02*
X135026190Y-138435771D01*
X135026190Y-138435771D02*
X135121428Y-138483390D01*
X135121428Y-138483390D02*
X135169047Y-138531009D01*
X135169047Y-138531009D02*
X135216666Y-138626247D01*
X135216666Y-138626247D02*
X135216666Y-138864342D01*
X135216666Y-138864342D02*
X135169047Y-138959580D01*
X135169047Y-138959580D02*
X135121428Y-139007200D01*
X135121428Y-139007200D02*
X135026190Y-139054819D01*
X135026190Y-139054819D02*
X134788095Y-139054819D01*
X134788095Y-139054819D02*
X134692857Y-139007200D01*
X134692857Y-139007200D02*
X134645238Y-138959580D01*
X128914819Y-108133333D02*
X129629104Y-108133333D01*
X129629104Y-108133333D02*
X129771961Y-108180952D01*
X129771961Y-108180952D02*
X129867200Y-108276190D01*
X129867200Y-108276190D02*
X129914819Y-108419047D01*
X129914819Y-108419047D02*
X129914819Y-108514285D01*
X128914819Y-107228571D02*
X128914819Y-107419047D01*
X128914819Y-107419047D02*
X128962438Y-107514285D01*
X128962438Y-107514285D02*
X129010057Y-107561904D01*
X129010057Y-107561904D02*
X129152914Y-107657142D01*
X129152914Y-107657142D02*
X129343390Y-107704761D01*
X129343390Y-107704761D02*
X129724342Y-107704761D01*
X129724342Y-107704761D02*
X129819580Y-107657142D01*
X129819580Y-107657142D02*
X129867200Y-107609523D01*
X129867200Y-107609523D02*
X129914819Y-107514285D01*
X129914819Y-107514285D02*
X129914819Y-107323809D01*
X129914819Y-107323809D02*
X129867200Y-107228571D01*
X129867200Y-107228571D02*
X129819580Y-107180952D01*
X129819580Y-107180952D02*
X129724342Y-107133333D01*
X129724342Y-107133333D02*
X129486247Y-107133333D01*
X129486247Y-107133333D02*
X129391009Y-107180952D01*
X129391009Y-107180952D02*
X129343390Y-107228571D01*
X129343390Y-107228571D02*
X129295771Y-107323809D01*
X129295771Y-107323809D02*
X129295771Y-107514285D01*
X129295771Y-107514285D02*
X129343390Y-107609523D01*
X129343390Y-107609523D02*
X129391009Y-107657142D01*
X129391009Y-107657142D02*
X129486247Y-107704761D01*
X127023809Y-120978628D02*
X127023809Y-121454819D01*
X126690476Y-120454819D02*
X127023809Y-120978628D01*
X127023809Y-120978628D02*
X127357142Y-120454819D01*
X128214285Y-121454819D02*
X127642857Y-121454819D01*
X127928571Y-121454819D02*
X127928571Y-120454819D01*
X127928571Y-120454819D02*
X127833333Y-120597676D01*
X127833333Y-120597676D02*
X127738095Y-120692914D01*
X127738095Y-120692914D02*
X127642857Y-120740533D01*
X138059580Y-119042857D02*
X138107200Y-119090476D01*
X138107200Y-119090476D02*
X138154819Y-119233333D01*
X138154819Y-119233333D02*
X138154819Y-119328571D01*
X138154819Y-119328571D02*
X138107200Y-119471428D01*
X138107200Y-119471428D02*
X138011961Y-119566666D01*
X138011961Y-119566666D02*
X137916723Y-119614285D01*
X137916723Y-119614285D02*
X137726247Y-119661904D01*
X137726247Y-119661904D02*
X137583390Y-119661904D01*
X137583390Y-119661904D02*
X137392914Y-119614285D01*
X137392914Y-119614285D02*
X137297676Y-119566666D01*
X137297676Y-119566666D02*
X137202438Y-119471428D01*
X137202438Y-119471428D02*
X137154819Y-119328571D01*
X137154819Y-119328571D02*
X137154819Y-119233333D01*
X137154819Y-119233333D02*
X137202438Y-119090476D01*
X137202438Y-119090476D02*
X137250057Y-119042857D01*
X137250057Y-118661904D02*
X137202438Y-118614285D01*
X137202438Y-118614285D02*
X137154819Y-118519047D01*
X137154819Y-118519047D02*
X137154819Y-118280952D01*
X137154819Y-118280952D02*
X137202438Y-118185714D01*
X137202438Y-118185714D02*
X137250057Y-118138095D01*
X137250057Y-118138095D02*
X137345295Y-118090476D01*
X137345295Y-118090476D02*
X137440533Y-118090476D01*
X137440533Y-118090476D02*
X137583390Y-118138095D01*
X137583390Y-118138095D02*
X138154819Y-118709523D01*
X138154819Y-118709523D02*
X138154819Y-118090476D01*
X137488152Y-117233333D02*
X138154819Y-117233333D01*
X137107200Y-117471428D02*
X137821485Y-117709523D01*
X137821485Y-117709523D02*
X137821485Y-117090476D01*
X160416666Y-143704819D02*
X160416666Y-144419104D01*
X160416666Y-144419104D02*
X160369047Y-144561961D01*
X160369047Y-144561961D02*
X160273809Y-144657200D01*
X160273809Y-144657200D02*
X160130952Y-144704819D01*
X160130952Y-144704819D02*
X160035714Y-144704819D01*
X161416666Y-144704819D02*
X160845238Y-144704819D01*
X161130952Y-144704819D02*
X161130952Y-143704819D01*
X161130952Y-143704819D02*
X161035714Y-143847676D01*
X161035714Y-143847676D02*
X160940476Y-143942914D01*
X160940476Y-143942914D02*
X160845238Y-143990533D01*
X152166666Y-139054819D02*
X152166666Y-139769104D01*
X152166666Y-139769104D02*
X152119047Y-139911961D01*
X152119047Y-139911961D02*
X152023809Y-140007200D01*
X152023809Y-140007200D02*
X151880952Y-140054819D01*
X151880952Y-140054819D02*
X151785714Y-140054819D01*
X152547619Y-139054819D02*
X153166666Y-139054819D01*
X153166666Y-139054819D02*
X152833333Y-139435771D01*
X152833333Y-139435771D02*
X152976190Y-139435771D01*
X152976190Y-139435771D02*
X153071428Y-139483390D01*
X153071428Y-139483390D02*
X153119047Y-139531009D01*
X153119047Y-139531009D02*
X153166666Y-139626247D01*
X153166666Y-139626247D02*
X153166666Y-139864342D01*
X153166666Y-139864342D02*
X153119047Y-139959580D01*
X153119047Y-139959580D02*
X153071428Y-140007200D01*
X153071428Y-140007200D02*
X152976190Y-140054819D01*
X152976190Y-140054819D02*
X152690476Y-140054819D01*
X152690476Y-140054819D02*
X152595238Y-140007200D01*
X152595238Y-140007200D02*
X152547619Y-139959580D01*
X146774819Y-124916666D02*
X146298628Y-125249999D01*
X146774819Y-125488094D02*
X145774819Y-125488094D01*
X145774819Y-125488094D02*
X145774819Y-125107142D01*
X145774819Y-125107142D02*
X145822438Y-125011904D01*
X145822438Y-125011904D02*
X145870057Y-124964285D01*
X145870057Y-124964285D02*
X145965295Y-124916666D01*
X145965295Y-124916666D02*
X146108152Y-124916666D01*
X146108152Y-124916666D02*
X146203390Y-124964285D01*
X146203390Y-124964285D02*
X146251009Y-125011904D01*
X146251009Y-125011904D02*
X146298628Y-125107142D01*
X146298628Y-125107142D02*
X146298628Y-125488094D01*
X146774819Y-123964285D02*
X146774819Y-124535713D01*
X146774819Y-124249999D02*
X145774819Y-124249999D01*
X145774819Y-124249999D02*
X145917676Y-124345237D01*
X145917676Y-124345237D02*
X146012914Y-124440475D01*
X146012914Y-124440475D02*
X146060533Y-124535713D01*
D10*
%TO.C,J4*%
X156150000Y-124600000D02*
X156150000Y-124600000D01*
X156250000Y-124600000D02*
X156250000Y-124600000D01*
D13*
X158550000Y-127400000D02*
X157000000Y-127400000D01*
X157000000Y-127400000D02*
X157000000Y-125000000D01*
X157000000Y-121600000D02*
X157000000Y-119200000D01*
X157000000Y-119200000D02*
X158550000Y-119200000D01*
X160850000Y-119200000D02*
X161900000Y-119200000D01*
X161900000Y-119200000D02*
X161900000Y-127400000D01*
X161900000Y-127400000D02*
X160850000Y-127400000D01*
D10*
X156250000Y-124600000D02*
G75*
G02*
X156150000Y-124600000I-50000J0D01*
G01*
X156150000Y-124600000D02*
G75*
G02*
X156250000Y-124600000I50000J0D01*
G01*
D14*
%TO.C,C25*%
X130603733Y-118990000D02*
X130896267Y-118990000D01*
X130603733Y-120010000D02*
X130896267Y-120010000D01*
%TO.C,C20*%
X142516233Y-130990000D02*
X142808767Y-130990000D01*
X142516233Y-132010000D02*
X142808767Y-132010000D01*
%TO.C,C26*%
X131583767Y-130660000D02*
X131291233Y-130660000D01*
X131583767Y-129640000D02*
X131291233Y-129640000D01*
%TO.C,C22*%
X139396267Y-130990000D02*
X139103733Y-130990000D01*
X139396267Y-132010000D02*
X139103733Y-132010000D01*
D15*
%TO.C,S2*%
X151352500Y-115513500D02*
X151352500Y-116286500D01*
X152016000Y-117500000D02*
X154889000Y-117500000D01*
X154889000Y-114300000D02*
X152016000Y-114300000D01*
X155552500Y-116286500D02*
X155552500Y-115513500D01*
D13*
X150322500Y-116975000D02*
G75*
G02*
X150122500Y-116975000I-100000J0D01*
G01*
X150122500Y-116975000D02*
G75*
G02*
X150322500Y-116975000I100000J0D01*
G01*
D14*
%TO.C,R12*%
X126742224Y-117977500D02*
X126232776Y-117977500D01*
X126742224Y-119022500D02*
X126232776Y-119022500D01*
%TO.C,J2*%
X131320000Y-143105000D02*
X131320000Y-140455000D01*
X134080000Y-140455000D02*
X131320000Y-140455000D01*
X134080000Y-143105000D02*
X131320000Y-143105000D01*
X134080000Y-143105000D02*
X134080000Y-140455000D01*
X134080000Y-144375000D02*
X134080000Y-145755000D01*
X134080000Y-145755000D02*
X132700000Y-145755000D01*
D15*
%TO.C,S1*%
X123097500Y-115263500D02*
X123097500Y-116036500D01*
X123761000Y-117250000D02*
X126634000Y-117250000D01*
X126634000Y-114050000D02*
X123761000Y-114050000D01*
X127297500Y-116036500D02*
X127297500Y-115263500D01*
D13*
X128527500Y-114575000D02*
G75*
G02*
X128327500Y-114575000I-100000J0D01*
G01*
X128327500Y-114575000D02*
G75*
G02*
X128527500Y-114575000I100000J0D01*
G01*
D14*
%TO.C,C19*%
X145940000Y-121246267D02*
X145940000Y-120953733D01*
X146960000Y-121246267D02*
X146960000Y-120953733D01*
%TO.C,U5*%
X136890000Y-121390000D02*
X136890000Y-121840000D01*
X136890000Y-128610000D02*
X136890000Y-128160000D01*
X137340000Y-121390000D02*
X136890000Y-121390000D01*
X137340000Y-128610000D02*
X136890000Y-128610000D01*
X143660000Y-121390000D02*
X144110000Y-121390000D01*
X143660000Y-128610000D02*
X144110000Y-128610000D01*
X144110000Y-121390000D02*
X144110000Y-121840000D01*
X144110000Y-128610000D02*
X144110000Y-128160000D01*
X136300000Y-121840000D02*
X135960000Y-121370000D01*
X136640000Y-121370000D01*
X136300000Y-121840000D01*
G36*
X136300000Y-121840000D02*
G01*
X135960000Y-121370000D01*
X136640000Y-121370000D01*
X136300000Y-121840000D01*
G37*
%TO.C,C10*%
X145646267Y-128990000D02*
X145353733Y-128990000D01*
X145646267Y-130010000D02*
X145353733Y-130010000D01*
%TO.C,R11*%
X150477500Y-111357776D02*
X150477500Y-111867224D01*
X151522500Y-111357776D02*
X151522500Y-111867224D01*
%TO.C,C23*%
X133990000Y-119508767D02*
X133990000Y-119216233D01*
X135010000Y-119508767D02*
X135010000Y-119216233D01*
%TO.C,C21*%
X147690000Y-121246267D02*
X147690000Y-120953733D01*
X148710000Y-121246267D02*
X148710000Y-120953733D01*
%TO.C,C9*%
X143490000Y-134796267D02*
X143490000Y-134503733D01*
X144510000Y-134796267D02*
X144510000Y-134503733D01*
%TO.C,J5*%
X135040000Y-139815000D02*
X135040000Y-145785000D01*
X135040000Y-145785000D02*
X150160000Y-145785000D01*
X135050000Y-143525000D02*
X135800000Y-143525000D01*
X135050000Y-145025000D02*
X135050000Y-145775000D01*
X135050000Y-145775000D02*
X136850000Y-145775000D01*
X135800000Y-140575000D02*
X142600000Y-140575000D01*
X135800000Y-143525000D02*
X135800000Y-140575000D01*
X136850000Y-145025000D02*
X135050000Y-145025000D01*
X136850000Y-145775000D02*
X136850000Y-145025000D01*
X138350000Y-145025000D02*
X138350000Y-145775000D01*
X138350000Y-145775000D02*
X146850000Y-145775000D01*
X146850000Y-145025000D02*
X138350000Y-145025000D01*
X146850000Y-145775000D02*
X146850000Y-145025000D01*
X148350000Y-145025000D02*
X148350000Y-145775000D01*
X148350000Y-145775000D02*
X150150000Y-145775000D01*
X149200000Y-146075000D02*
X150450000Y-146075000D01*
X149400000Y-140575000D02*
X142600000Y-140575000D01*
X149400000Y-143525000D02*
X149400000Y-140575000D01*
X150150000Y-143525000D02*
X149400000Y-143525000D01*
X150150000Y-145025000D02*
X148350000Y-145025000D01*
X150150000Y-145775000D02*
X150150000Y-145025000D01*
X150160000Y-139815000D02*
X135040000Y-139815000D01*
X150160000Y-145785000D02*
X150160000Y-139815000D01*
X150450000Y-146075000D02*
X150450000Y-144825000D01*
%TO.C,J6*%
X130460000Y-109180000D02*
X130460000Y-107800000D01*
X131840000Y-109180000D02*
X130460000Y-109180000D01*
X133110000Y-106420000D02*
X148460000Y-106420000D01*
X133110000Y-109180000D02*
X133110000Y-106420000D01*
X133110000Y-109180000D02*
X148460000Y-109180000D01*
X148460000Y-109180000D02*
X148460000Y-106420000D01*
D15*
%TO.C,Y1*%
X128500000Y-121500000D02*
X128500000Y-128500000D01*
X128710000Y-121500000D02*
X128500000Y-121500000D01*
X128710000Y-128500000D02*
X128500000Y-128500000D01*
X130750000Y-121500000D02*
X131250000Y-121500000D01*
X130750000Y-128500000D02*
X131250000Y-128500000D01*
X133290000Y-121500000D02*
X133500000Y-121500000D01*
X133290000Y-128500000D02*
X133500000Y-128500000D01*
X133500000Y-121500000D02*
X133500000Y-128500000D01*
D13*
X127850000Y-122100000D02*
G75*
G02*
X127650000Y-122100000I-100000J0D01*
G01*
X127650000Y-122100000D02*
G75*
G02*
X127850000Y-122100000I100000J0D01*
G01*
D14*
%TO.C,C24*%
X135740000Y-119508767D02*
X135740000Y-119216233D01*
X136760000Y-119508767D02*
X136760000Y-119216233D01*
%TO.C,J1*%
X162015000Y-132190000D02*
X162015000Y-144810000D01*
X162015000Y-144810000D02*
X167985000Y-144810000D01*
X162775000Y-132950000D02*
X162775000Y-138500000D01*
X162775000Y-144050000D02*
X162775000Y-138500000D01*
X165725000Y-132200000D02*
X165725000Y-132950000D01*
X165725000Y-132950000D02*
X162775000Y-132950000D01*
X165725000Y-144050000D02*
X162775000Y-144050000D01*
X165725000Y-144800000D02*
X165725000Y-144050000D01*
X167225000Y-132200000D02*
X167225000Y-134000000D01*
X167225000Y-134000000D02*
X167975000Y-134000000D01*
X167225000Y-135500000D02*
X167225000Y-141500000D01*
X167225000Y-141500000D02*
X167975000Y-141500000D01*
X167225000Y-143000000D02*
X167225000Y-144800000D01*
X167225000Y-144800000D02*
X167975000Y-144800000D01*
X167975000Y-132200000D02*
X167225000Y-132200000D01*
X167975000Y-134000000D02*
X167975000Y-132200000D01*
X167975000Y-135500000D02*
X167225000Y-135500000D01*
X167975000Y-141500000D02*
X167975000Y-135500000D01*
X167975000Y-143000000D02*
X167225000Y-143000000D01*
X167975000Y-144800000D02*
X167975000Y-143000000D01*
X167985000Y-132190000D02*
X162015000Y-132190000D01*
X167985000Y-144810000D02*
X167985000Y-132190000D01*
X168275000Y-131900000D02*
X167025000Y-131900000D01*
X168275000Y-133150000D02*
X168275000Y-131900000D01*
%TO.C,J3*%
X151120000Y-143105000D02*
X151120000Y-140455000D01*
X153880000Y-140455000D02*
X151120000Y-140455000D01*
X153880000Y-143105000D02*
X151120000Y-143105000D01*
X153880000Y-143105000D02*
X153880000Y-140455000D01*
X153880000Y-144375000D02*
X153880000Y-145755000D01*
X153880000Y-145755000D02*
X152500000Y-145755000D01*
D16*
%TO.C,D1*%
X133800000Y-135050000D02*
X133800000Y-135850000D01*
X134400000Y-135050000D02*
X133800000Y-135050000D01*
X136000000Y-135050000D02*
X136600000Y-135050000D01*
X136600000Y-135050000D02*
X136600000Y-135850000D01*
D14*
%TO.C,R1*%
X147227500Y-125004724D02*
X147227500Y-124495276D01*
X148272500Y-125004724D02*
X148272500Y-124495276D01*
%TD*%
M02*
