%TF.GenerationSoftware,KiCad,Pcbnew,9.0.2*%
%TF.CreationDate,2025-07-23T20:38:51-05:00*%
%TF.ProjectId,Smart Motor,536d6172-7420-44d6-9f74-6f722e6b6963,rev?*%
%TF.SameCoordinates,Original*%
%TF.FileFunction,Copper,L3,Inr*%
%TF.FilePolarity,Positive*%
%FSLAX46Y46*%
G04 Gerber Fmt 4.6, Leading zero omitted, Abs format (unit mm)*
G04 Created by KiCad (PCBNEW 9.0.2) date 2025-07-23 20:38:51*
%MOMM*%
%LPD*%
G01*
G04 APERTURE LIST*
G04 Aperture macros list*
%AMRoundRect*
0 Rectangle with rounded corners*
0 $1 Rounding radius*
0 $2 $3 $4 $5 $6 $7 $8 $9 X,Y pos of 4 corners*
0 Add a 4 corners polygon primitive as box body*
4,1,4,$2,$3,$4,$5,$6,$7,$8,$9,$2,$3,0*
0 Add four circle primitives for the rounded corners*
1,1,$1+$1,$2,$3*
1,1,$1+$1,$4,$5*
1,1,$1+$1,$6,$7*
1,1,$1+$1,$8,$9*
0 Add four rect primitives between the rounded corners*
20,1,$1+$1,$2,$3,$4,$5,0*
20,1,$1+$1,$4,$5,$6,$7,0*
20,1,$1+$1,$6,$7,$8,$9,0*
20,1,$1+$1,$8,$9,$2,$3,0*%
G04 Aperture macros list end*
%TA.AperFunction,ComponentPad*%
%ADD10C,1.875000*%
%TD*%
%TA.AperFunction,ComponentPad*%
%ADD11R,1.700000X1.700000*%
%TD*%
%TA.AperFunction,ComponentPad*%
%ADD12C,1.700000*%
%TD*%
%TA.AperFunction,ComponentPad*%
%ADD13RoundRect,0.250000X0.600000X0.725000X-0.600000X0.725000X-0.600000X-0.725000X0.600000X-0.725000X0*%
%TD*%
%TA.AperFunction,ComponentPad*%
%ADD14O,1.700000X1.950000*%
%TD*%
%TA.AperFunction,ComponentPad*%
%ADD15RoundRect,0.250000X-0.725000X0.600000X-0.725000X-0.600000X0.725000X-0.600000X0.725000X0.600000X0*%
%TD*%
%TA.AperFunction,ComponentPad*%
%ADD16O,1.950000X1.700000*%
%TD*%
%TA.AperFunction,HeatsinkPad*%
%ADD17C,0.500000*%
%TD*%
%TA.AperFunction,ViaPad*%
%ADD18C,0.600000*%
%TD*%
%TA.AperFunction,ViaPad*%
%ADD19C,0.350000*%
%TD*%
%TA.AperFunction,ViaPad*%
%ADD20C,0.500000*%
%TD*%
%TA.AperFunction,Conductor*%
%ADD21C,0.600000*%
%TD*%
G04 APERTURE END LIST*
D10*
%TO.N,GND*%
%TO.C,J4*%
X159700000Y-126910000D03*
X159700000Y-119690000D03*
%TD*%
D11*
%TO.N,CAN_H*%
%TO.C,J2*%
X132700000Y-144375000D03*
D12*
%TO.N,Net-(J2-Pin_2)*%
X132700000Y-141835000D03*
%TD*%
D13*
%TO.N,+3.3V*%
%TO.C,J5*%
X147600000Y-143325000D03*
D14*
%TO.N,+24V*%
X145100000Y-143325000D03*
%TO.N,CAN_L*%
X142600000Y-143325000D03*
%TO.N,CAN_H*%
X140100000Y-143325000D03*
%TO.N,GND*%
X137600000Y-143325000D03*
%TD*%
D11*
%TO.N,+3.3V*%
%TO.C,J6*%
X131840000Y-107800000D03*
D12*
%TO.N,SWCLK*%
X134380000Y-107800000D03*
%TO.N,GND*%
X136920000Y-107800000D03*
%TO.N,SWDIO*%
X139460000Y-107800000D03*
%TO.N,GND*%
X142000000Y-107800000D03*
%TO.N,NRST*%
X144540000Y-107800000D03*
%TO.N,SWO*%
X147080000Y-107800000D03*
%TD*%
D15*
%TO.N,/OA1*%
%TO.C,J1*%
X165525000Y-134750000D03*
D16*
%TO.N,/OA2*%
X165525000Y-137250000D03*
%TO.N,/OB1*%
X165525000Y-139750000D03*
%TO.N,/OB2*%
X165525000Y-142250000D03*
%TD*%
D11*
%TO.N,CAN_L*%
%TO.C,J3*%
X152500000Y-144375000D03*
D12*
%TO.N,Net-(J3-Pin_2)*%
X152500000Y-141835000D03*
%TD*%
D17*
%TO.N,GND*%
%TO.C,U2*%
X147600000Y-136000000D03*
X149600000Y-136000000D03*
X150600000Y-136000000D03*
X147600000Y-135000000D03*
X148600000Y-135000000D03*
X149600000Y-135000000D03*
X150600000Y-135000000D03*
X147600000Y-134000000D03*
X148600000Y-134000000D03*
X149600000Y-134000000D03*
X150600000Y-134000000D03*
X147600000Y-133000000D03*
X148600000Y-133000000D03*
X149600000Y-133000000D03*
X150600000Y-133000000D03*
%TD*%
D18*
%TO.N,+3.3V*%
X150200000Y-109100000D03*
%TO.N,GND*%
X145352500Y-112625000D03*
X126100000Y-120200000D03*
D19*
%TO.N,USB_D+*%
X153750000Y-123250000D03*
%TO.N,USB_D-*%
X153750000Y-123800003D03*
D18*
%TO.N,GND*%
X142200000Y-126400000D03*
X133000000Y-118500000D03*
D20*
X151500000Y-118791871D03*
D18*
X139200000Y-130400000D03*
X130000000Y-131300000D03*
D19*
X143725000Y-132875000D03*
D18*
X147500000Y-129350000D03*
X129700000Y-136200000D03*
X155525000Y-133300000D03*
X126200000Y-128000000D03*
X142750000Y-130500000D03*
X160400000Y-129700000D03*
%TO.N,+3.3V*%
X147200000Y-131500000D03*
D19*
X150200000Y-131300000D03*
X123500000Y-134000000D03*
D18*
X149700000Y-120400000D03*
X136500000Y-121250000D03*
X141500000Y-132750000D03*
X137600000Y-111600000D03*
%TO.N,+24V*%
X158475000Y-133200000D03*
X152000000Y-136400000D03*
X151600000Y-132500000D03*
D20*
%TO.N,Net-(U2-5VOUT)*%
X145100000Y-136900000D03*
D19*
%TO.N,DAC*%
X145000000Y-128500000D03*
D20*
%TO.N,Net-(C14-Pad2)*%
X143183619Y-139408613D03*
%TO.N,CAN_H*%
X136500000Y-139000000D03*
%TO.N,CAN_L*%
X137500000Y-139000000D03*
%TO.N,SWCLK*%
X143400000Y-118400000D03*
D18*
%TO.N,NRST*%
X149300000Y-116000000D03*
X146700000Y-112700000D03*
D19*
%TO.N,USB_D-*%
X146021069Y-123775000D03*
%TO.N,USB_D+*%
X146021069Y-123225000D03*
%TO.N,RX*%
X146250000Y-132500000D03*
%TO.N,AS_SCL*%
X139500000Y-124400000D03*
D20*
%TO.N,AS_SDA*%
X140400000Y-116600000D03*
%TO.N,MCU_CANTX*%
X138700000Y-118300000D03*
%TO.N,MCU_CANRX*%
X139200000Y-117500000D03*
%TO.N,AS_OUT*%
X141500000Y-117200000D03*
D19*
%TO.N,AS_DIR*%
X140767933Y-119344292D03*
D20*
%TO.N,AS_PGO*%
X141900000Y-117800000D03*
D19*
%TO.N,DIAG*%
X145750000Y-134250000D03*
%TO.N,STEP*%
X150031801Y-129450000D03*
%TO.N,SPREAD*%
X147200000Y-139000000D03*
%TO.N,DIR*%
X149500000Y-131000000D03*
%TO.N,ENABLE*%
X150650044Y-137898957D03*
D18*
%TO.N,/OB1*%
X154300000Y-137100000D03*
%TO.N,/OB2*%
X151700000Y-138000000D03*
%TO.N,/OA1*%
X153076338Y-134216344D03*
%TO.N,/OA2*%
X154100000Y-134650000D03*
%TD*%
D21*
%TO.N,+24V*%
X158475000Y-133200000D02*
X158475000Y-133175000D01*
%TD*%
%TA.AperFunction,Conductor*%
%TO.N,+24V*%
G36*
X145350000Y-144777230D02*
G01*
X145416126Y-144766757D01*
X145416129Y-144766757D01*
X145618217Y-144701095D01*
X145807557Y-144604620D01*
X145979458Y-144479728D01*
X146118330Y-144340856D01*
X146179653Y-144307371D01*
X146249345Y-144312355D01*
X146305279Y-144354226D01*
X146311551Y-144363440D01*
X146315185Y-144369332D01*
X146315186Y-144369334D01*
X146407288Y-144518656D01*
X146531344Y-144642712D01*
X146680666Y-144734814D01*
X146815004Y-144779329D01*
X146872449Y-144819102D01*
X146899272Y-144883618D01*
X146900000Y-144897035D01*
X146900000Y-146176000D01*
X146880315Y-146243039D01*
X146827511Y-146288794D01*
X146776000Y-146300000D01*
X143424000Y-146300000D01*
X143356961Y-146280315D01*
X143311206Y-146227511D01*
X143300000Y-146176000D01*
X143300000Y-144673911D01*
X143319685Y-144606872D01*
X143351113Y-144573594D01*
X143479792Y-144480104D01*
X143630104Y-144329792D01*
X143749991Y-144164779D01*
X143805320Y-144122115D01*
X143874933Y-144116136D01*
X143936729Y-144148741D01*
X143950627Y-144164781D01*
X144070272Y-144329459D01*
X144070276Y-144329464D01*
X144220535Y-144479723D01*
X144220540Y-144479727D01*
X144392442Y-144604620D01*
X144581782Y-144701095D01*
X144783871Y-144766757D01*
X144850000Y-144777231D01*
X144850000Y-143729145D01*
X144916657Y-143767630D01*
X145037465Y-143800000D01*
X145162535Y-143800000D01*
X145283343Y-143767630D01*
X145350000Y-143729145D01*
X145350000Y-144777230D01*
G37*
%TD.AperFunction*%
%TA.AperFunction,Conductor*%
G36*
X156915677Y-130719685D02*
G01*
X156936319Y-130736319D01*
X158763681Y-132563681D01*
X158797166Y-132625004D01*
X158800000Y-132651362D01*
X158800000Y-136450318D01*
X158780315Y-136517357D01*
X158765696Y-136535937D01*
X156736636Y-138661619D01*
X156676108Y-138696521D01*
X156646940Y-138700000D01*
X152427016Y-138700000D01*
X152359977Y-138680315D01*
X152314222Y-138627511D01*
X152304278Y-138558353D01*
X152323914Y-138507109D01*
X152409390Y-138379185D01*
X152409390Y-138379184D01*
X152409394Y-138379179D01*
X152469737Y-138233497D01*
X152500500Y-138078842D01*
X152500500Y-137921158D01*
X152500500Y-137921155D01*
X152500499Y-137921153D01*
X152478269Y-137809397D01*
X152469737Y-137766503D01*
X152442989Y-137701926D01*
X152409397Y-137620827D01*
X152409390Y-137620814D01*
X152321789Y-137489711D01*
X152321786Y-137489707D01*
X152210292Y-137378213D01*
X152210288Y-137378210D01*
X152079185Y-137290609D01*
X152079172Y-137290602D01*
X151933501Y-137230264D01*
X151933489Y-137230261D01*
X151778845Y-137199500D01*
X151778842Y-137199500D01*
X151621158Y-137199500D01*
X151621155Y-137199500D01*
X151466510Y-137230261D01*
X151466498Y-137230264D01*
X151320827Y-137290602D01*
X151320816Y-137290608D01*
X151207025Y-137366641D01*
X151140348Y-137387518D01*
X151072968Y-137369033D01*
X151069245Y-137366641D01*
X150970016Y-137300339D01*
X150970015Y-137300338D01*
X150970013Y-137300337D01*
X150970010Y-137300335D01*
X150970005Y-137300333D01*
X150847084Y-137249418D01*
X150847074Y-137249415D01*
X150716577Y-137223457D01*
X150716575Y-137223457D01*
X150583513Y-137223457D01*
X150583511Y-137223457D01*
X150453013Y-137249415D01*
X150453003Y-137249418D01*
X150330082Y-137300333D01*
X150330064Y-137300343D01*
X150219442Y-137374258D01*
X150219434Y-137374264D01*
X150125351Y-137468347D01*
X150125345Y-137468355D01*
X150051430Y-137578977D01*
X150051420Y-137578995D01*
X150000505Y-137701916D01*
X150000502Y-137701926D01*
X149974544Y-137832423D01*
X149974544Y-137832426D01*
X149974544Y-137965488D01*
X149974544Y-137965490D01*
X149974543Y-137965490D01*
X150000502Y-138095987D01*
X150000505Y-138095997D01*
X150051420Y-138218918D01*
X150051430Y-138218936D01*
X150125345Y-138329558D01*
X150125351Y-138329566D01*
X150219434Y-138423649D01*
X150219442Y-138423655D01*
X150293139Y-138472898D01*
X150337945Y-138526510D01*
X150346652Y-138595835D01*
X150316498Y-138658862D01*
X150257055Y-138695582D01*
X150224249Y-138700000D01*
X148699999Y-138700000D01*
X148400000Y-138999999D01*
X148400000Y-140721734D01*
X148380315Y-140788773D01*
X148364179Y-140808915D01*
X147758548Y-141421481D01*
X147697416Y-141455314D01*
X147671781Y-141458292D01*
X146900000Y-141467079D01*
X146900000Y-141752965D01*
X146880315Y-141820004D01*
X146827511Y-141865759D01*
X146815008Y-141870669D01*
X146753119Y-141891177D01*
X146680668Y-141915185D01*
X146680663Y-141915187D01*
X146531342Y-142007289D01*
X146407289Y-142131342D01*
X146311551Y-142286559D01*
X146259603Y-142333283D01*
X146190640Y-142344506D01*
X146126558Y-142316662D01*
X146118331Y-142309143D01*
X145979464Y-142170276D01*
X145979459Y-142170272D01*
X145807557Y-142045379D01*
X145618215Y-141948903D01*
X145416124Y-141883241D01*
X145350000Y-141872768D01*
X145350000Y-142920854D01*
X145283343Y-142882370D01*
X145162535Y-142850000D01*
X145037465Y-142850000D01*
X144916657Y-142882370D01*
X144850000Y-142920854D01*
X144850000Y-141872768D01*
X144849999Y-141872768D01*
X144783875Y-141883241D01*
X144581784Y-141948903D01*
X144392442Y-142045379D01*
X144220540Y-142170272D01*
X144220535Y-142170276D01*
X144070276Y-142320535D01*
X144070272Y-142320540D01*
X143950627Y-142485218D01*
X143895297Y-142527884D01*
X143825684Y-142533863D01*
X143763889Y-142501257D01*
X143749991Y-142485218D01*
X143630109Y-142320214D01*
X143630105Y-142320209D01*
X143479790Y-142169894D01*
X143479785Y-142169890D01*
X143351115Y-142076406D01*
X143308449Y-142021076D01*
X143300000Y-141976088D01*
X143300000Y-140252430D01*
X143319685Y-140185391D01*
X143372489Y-140139636D01*
X143399808Y-140130812D01*
X143402532Y-140130271D01*
X143539114Y-140073697D01*
X143662035Y-139991564D01*
X143766570Y-139887029D01*
X143848703Y-139764108D01*
X143905277Y-139627526D01*
X143925732Y-139524695D01*
X143934119Y-139482533D01*
X143934119Y-139334692D01*
X143905278Y-139189705D01*
X143905277Y-139189704D01*
X143905277Y-139189700D01*
X143854260Y-139066533D01*
X146524499Y-139066533D01*
X146550458Y-139197030D01*
X146550461Y-139197040D01*
X146601376Y-139319961D01*
X146601386Y-139319979D01*
X146675301Y-139430601D01*
X146675307Y-139430609D01*
X146769390Y-139524692D01*
X146769398Y-139524698D01*
X146880020Y-139598613D01*
X146880023Y-139598614D01*
X146880031Y-139598620D01*
X146880037Y-139598622D01*
X146880038Y-139598623D01*
X147002959Y-139649538D01*
X147002964Y-139649540D01*
X147002968Y-139649540D01*
X147002969Y-139649541D01*
X147133466Y-139675500D01*
X147133469Y-139675500D01*
X147266533Y-139675500D01*
X147354325Y-139658035D01*
X147397036Y-139649540D01*
X147519969Y-139598620D01*
X147630606Y-139524695D01*
X147724695Y-139430606D01*
X147798620Y-139319969D01*
X147849540Y-139197036D01*
X147875500Y-139066531D01*
X147875500Y-138933469D01*
X147875500Y-138933466D01*
X147849541Y-138802969D01*
X147849540Y-138802968D01*
X147849540Y-138802964D01*
X147824923Y-138743532D01*
X147798623Y-138680038D01*
X147798622Y-138680037D01*
X147798620Y-138680031D01*
X147784475Y-138658862D01*
X147724698Y-138569398D01*
X147724692Y-138569390D01*
X147630609Y-138475307D01*
X147630601Y-138475301D01*
X147519979Y-138401386D01*
X147519972Y-138401382D01*
X147519969Y-138401380D01*
X147519965Y-138401378D01*
X147519961Y-138401376D01*
X147397040Y-138350461D01*
X147397030Y-138350458D01*
X147266533Y-138324500D01*
X147266531Y-138324500D01*
X147133469Y-138324500D01*
X147133467Y-138324500D01*
X147002969Y-138350458D01*
X147002959Y-138350461D01*
X146880038Y-138401376D01*
X146880020Y-138401386D01*
X146769398Y-138475301D01*
X146769390Y-138475307D01*
X146675307Y-138569390D01*
X146675301Y-138569398D01*
X146601386Y-138680020D01*
X146601376Y-138680038D01*
X146550461Y-138802959D01*
X146550458Y-138802969D01*
X146524500Y-138933466D01*
X146524500Y-138933469D01*
X146524500Y-139066531D01*
X146524500Y-139066533D01*
X146524499Y-139066533D01*
X143854260Y-139066533D01*
X143854259Y-139066531D01*
X143848706Y-139053124D01*
X143848696Y-139053106D01*
X143810719Y-138996269D01*
X143810718Y-138996268D01*
X143766570Y-138930197D01*
X143766567Y-138930193D01*
X143662038Y-138825664D01*
X143662034Y-138825661D01*
X143539120Y-138743532D01*
X143539110Y-138743527D01*
X143497158Y-138726150D01*
X143442755Y-138682309D01*
X143420690Y-138616015D01*
X143437969Y-138548315D01*
X143477553Y-138507286D01*
X144819192Y-137644804D01*
X144886224Y-137625112D01*
X144910427Y-137627494D01*
X144997447Y-137644804D01*
X145026081Y-137650500D01*
X145026082Y-137650500D01*
X145173920Y-137650500D01*
X145289569Y-137627495D01*
X145318913Y-137621658D01*
X145455495Y-137565084D01*
X145578416Y-137482951D01*
X145682951Y-137378416D01*
X145765084Y-137255495D01*
X145821658Y-137118913D01*
X145838425Y-137034617D01*
X145845468Y-137021153D01*
X153499500Y-137021153D01*
X153499500Y-137178846D01*
X153530261Y-137333489D01*
X153530264Y-137333501D01*
X153590602Y-137479172D01*
X153590609Y-137479185D01*
X153678210Y-137610288D01*
X153678213Y-137610292D01*
X153789707Y-137721786D01*
X153789711Y-137721789D01*
X153920814Y-137809390D01*
X153920827Y-137809397D01*
X154066498Y-137869735D01*
X154066503Y-137869737D01*
X154221153Y-137900499D01*
X154221156Y-137900500D01*
X154221158Y-137900500D01*
X154378844Y-137900500D01*
X154378845Y-137900499D01*
X154533497Y-137869737D01*
X154679179Y-137809394D01*
X154810289Y-137721789D01*
X154921789Y-137610289D01*
X155009394Y-137479179D01*
X155069737Y-137333497D01*
X155100500Y-137178842D01*
X155100500Y-137021158D01*
X155100500Y-137021155D01*
X155100499Y-137021153D01*
X155069738Y-136866510D01*
X155069737Y-136866503D01*
X155052994Y-136826082D01*
X155009397Y-136720827D01*
X155009390Y-136720814D01*
X154921789Y-136589711D01*
X154921786Y-136589707D01*
X154810292Y-136478213D01*
X154810288Y-136478210D01*
X154679185Y-136390609D01*
X154679172Y-136390602D01*
X154533501Y-136330264D01*
X154533489Y-136330261D01*
X154378845Y-136299500D01*
X154378842Y-136299500D01*
X154221158Y-136299500D01*
X154221155Y-136299500D01*
X154066510Y-136330261D01*
X154066498Y-136330264D01*
X153920827Y-136390602D01*
X153920814Y-136390609D01*
X153789711Y-136478210D01*
X153789707Y-136478213D01*
X153678213Y-136589707D01*
X153678210Y-136589711D01*
X153590609Y-136720814D01*
X153590602Y-136720827D01*
X153530264Y-136866498D01*
X153530261Y-136866510D01*
X153499500Y-137021153D01*
X145845468Y-137021153D01*
X145853137Y-137006493D01*
X145866317Y-136977623D01*
X145869833Y-136974575D01*
X145870808Y-136972712D01*
X145892980Y-136954512D01*
X146569365Y-136519694D01*
X146636402Y-136500000D01*
X146987271Y-136500000D01*
X147054310Y-136519685D01*
X147074953Y-136536320D01*
X147121580Y-136582948D01*
X147121584Y-136582951D01*
X147244498Y-136665080D01*
X147244511Y-136665087D01*
X147379049Y-136720814D01*
X147381087Y-136721658D01*
X147381091Y-136721658D01*
X147381092Y-136721659D01*
X147526079Y-136750500D01*
X147526082Y-136750500D01*
X147673920Y-136750500D01*
X147771462Y-136731096D01*
X147818913Y-136721658D01*
X147955495Y-136665084D01*
X148078416Y-136582951D01*
X148125047Y-136536320D01*
X148151975Y-136521615D01*
X148177794Y-136505023D01*
X148183993Y-136504131D01*
X148186370Y-136502834D01*
X148212729Y-136500000D01*
X148231800Y-136500000D01*
X148293799Y-136516612D01*
X148368216Y-136559577D01*
X148520943Y-136600500D01*
X148520945Y-136600500D01*
X148679055Y-136600500D01*
X148679057Y-136600500D01*
X148831784Y-136559577D01*
X148906200Y-136516612D01*
X148921688Y-136512462D01*
X148933265Y-136505023D01*
X148968200Y-136500000D01*
X148987271Y-136500000D01*
X149054310Y-136519685D01*
X149074953Y-136536320D01*
X149121580Y-136582948D01*
X149121584Y-136582951D01*
X149244498Y-136665080D01*
X149244511Y-136665087D01*
X149379049Y-136720814D01*
X149381087Y-136721658D01*
X149381091Y-136721658D01*
X149381092Y-136721659D01*
X149526079Y-136750500D01*
X149526082Y-136750500D01*
X149673920Y-136750500D01*
X149771462Y-136731096D01*
X149818913Y-136721658D01*
X149955495Y-136665084D01*
X150031111Y-136614559D01*
X150097786Y-136593682D01*
X150165166Y-136612166D01*
X150168848Y-136614531D01*
X150244505Y-136665084D01*
X150244507Y-136665085D01*
X150244511Y-136665087D01*
X150379049Y-136720814D01*
X150381087Y-136721658D01*
X150381091Y-136721658D01*
X150381092Y-136721659D01*
X150526079Y-136750500D01*
X150526082Y-136750500D01*
X150673920Y-136750500D01*
X150771462Y-136731096D01*
X150818913Y-136721658D01*
X150955495Y-136665084D01*
X151078416Y-136582951D01*
X151161367Y-136500000D01*
X151200000Y-136500000D01*
X151200000Y-136452900D01*
X151265084Y-136355495D01*
X151321658Y-136218913D01*
X151331096Y-136171462D01*
X151350500Y-136073920D01*
X151350500Y-135926079D01*
X151321659Y-135781092D01*
X151321658Y-135781091D01*
X151321658Y-135781087D01*
X151321656Y-135781082D01*
X151265085Y-135644506D01*
X151265084Y-135644504D01*
X151220897Y-135578372D01*
X151215246Y-135560326D01*
X151205023Y-135544418D01*
X151200571Y-135513455D01*
X151200020Y-135511695D01*
X151200000Y-135509483D01*
X151200000Y-135490515D01*
X151219685Y-135423476D01*
X151220898Y-135421624D01*
X151222160Y-135419735D01*
X151265084Y-135355495D01*
X151321658Y-135218913D01*
X151350500Y-135073918D01*
X151350500Y-134926082D01*
X151350500Y-134926079D01*
X151321659Y-134781092D01*
X151321658Y-134781091D01*
X151321658Y-134781087D01*
X151300019Y-134728846D01*
X151265085Y-134644506D01*
X151265084Y-134644504D01*
X151220897Y-134578372D01*
X151215246Y-134560326D01*
X151205023Y-134544418D01*
X151200571Y-134513455D01*
X151200020Y-134511695D01*
X151200000Y-134509483D01*
X151200000Y-134490515D01*
X151219685Y-134423476D01*
X151220898Y-134421624D01*
X151224323Y-134416498D01*
X151265084Y-134355495D01*
X151321658Y-134218913D01*
X151337853Y-134137497D01*
X152275838Y-134137497D01*
X152275838Y-134295190D01*
X152306599Y-134449833D01*
X152306602Y-134449845D01*
X152366940Y-134595516D01*
X152366947Y-134595529D01*
X152454548Y-134726632D01*
X152454551Y-134726636D01*
X152566045Y-134838130D01*
X152566049Y-134838133D01*
X152697152Y-134925734D01*
X152697165Y-134925741D01*
X152842836Y-134986079D01*
X152842841Y-134986081D01*
X152997491Y-135016843D01*
X152997494Y-135016844D01*
X152997496Y-135016844D01*
X153155182Y-135016844D01*
X153274448Y-134993120D01*
X153344040Y-134999347D01*
X153399217Y-135042210D01*
X153401742Y-135045846D01*
X153478210Y-135160288D01*
X153478213Y-135160292D01*
X153589707Y-135271786D01*
X153589711Y-135271789D01*
X153720814Y-135359390D01*
X153720827Y-135359397D01*
X153866498Y-135419735D01*
X153866503Y-135419737D01*
X154021153Y-135450499D01*
X154021156Y-135450500D01*
X154021158Y-135450500D01*
X154178844Y-135450500D01*
X154178845Y-135450499D01*
X154333497Y-135419737D01*
X154479179Y-135359394D01*
X154610289Y-135271789D01*
X154721789Y-135160289D01*
X154809394Y-135029179D01*
X154869737Y-134883497D01*
X154900500Y-134728842D01*
X154900500Y-134571158D01*
X154900500Y-134571155D01*
X154900499Y-134571153D01*
X154876368Y-134449841D01*
X154869737Y-134416503D01*
X154819488Y-134295190D01*
X154809397Y-134270827D01*
X154809390Y-134270814D01*
X154721789Y-134139711D01*
X154721786Y-134139707D01*
X154610292Y-134028213D01*
X154610288Y-134028210D01*
X154479185Y-133940609D01*
X154479172Y-133940602D01*
X154333501Y-133880264D01*
X154333489Y-133880261D01*
X154178845Y-133849500D01*
X154178842Y-133849500D01*
X154021158Y-133849500D01*
X154021153Y-133849500D01*
X153901888Y-133873223D01*
X153832296Y-133866996D01*
X153777119Y-133824132D01*
X153774595Y-133820497D01*
X153698127Y-133706055D01*
X153698124Y-133706051D01*
X153586630Y-133594557D01*
X153586626Y-133594554D01*
X153455523Y-133506953D01*
X153455510Y-133506946D01*
X153309839Y-133446608D01*
X153309827Y-133446605D01*
X153155183Y-133415844D01*
X153155180Y-133415844D01*
X152997496Y-133415844D01*
X152997493Y-133415844D01*
X152842848Y-133446605D01*
X152842836Y-133446608D01*
X152697165Y-133506946D01*
X152697152Y-133506953D01*
X152566049Y-133594554D01*
X152566045Y-133594557D01*
X152454551Y-133706051D01*
X152454548Y-133706055D01*
X152366947Y-133837158D01*
X152366940Y-133837171D01*
X152306602Y-133982842D01*
X152306599Y-133982854D01*
X152275838Y-134137497D01*
X151337853Y-134137497D01*
X151350500Y-134073918D01*
X151350500Y-133926082D01*
X151350500Y-133926079D01*
X151321659Y-133781092D01*
X151321658Y-133781091D01*
X151321658Y-133781087D01*
X151321656Y-133781082D01*
X151265085Y-133644506D01*
X151265084Y-133644504D01*
X151220897Y-133578372D01*
X151215246Y-133560326D01*
X151205023Y-133544418D01*
X151200571Y-133513455D01*
X151200020Y-133511695D01*
X151200000Y-133509483D01*
X151200000Y-133490515D01*
X151219685Y-133423476D01*
X151220898Y-133421624D01*
X151224760Y-133415844D01*
X151265084Y-133355495D01*
X151320730Y-133221153D01*
X154724500Y-133221153D01*
X154724500Y-133378846D01*
X154755261Y-133533489D01*
X154755264Y-133533501D01*
X154815602Y-133679172D01*
X154815609Y-133679185D01*
X154903210Y-133810288D01*
X154903213Y-133810292D01*
X155014707Y-133921786D01*
X155014711Y-133921789D01*
X155145814Y-134009390D01*
X155145827Y-134009397D01*
X155191254Y-134028213D01*
X155291503Y-134069737D01*
X155446153Y-134100499D01*
X155446156Y-134100500D01*
X155446158Y-134100500D01*
X155603844Y-134100500D01*
X155603845Y-134100499D01*
X155758497Y-134069737D01*
X155904179Y-134009394D01*
X156035289Y-133921789D01*
X156146789Y-133810289D01*
X156234394Y-133679179D01*
X156294737Y-133533497D01*
X156325500Y-133378842D01*
X156325500Y-133221158D01*
X156325500Y-133221155D01*
X156325499Y-133221153D01*
X156311254Y-133149540D01*
X156294737Y-133066503D01*
X156277420Y-133024695D01*
X156234397Y-132920827D01*
X156234390Y-132920814D01*
X156146789Y-132789711D01*
X156146786Y-132789707D01*
X156035292Y-132678213D01*
X156035288Y-132678210D01*
X155904185Y-132590609D01*
X155904172Y-132590602D01*
X155758501Y-132530264D01*
X155758489Y-132530261D01*
X155603845Y-132499500D01*
X155603842Y-132499500D01*
X155446158Y-132499500D01*
X155446155Y-132499500D01*
X155291510Y-132530261D01*
X155291498Y-132530264D01*
X155145827Y-132590602D01*
X155145814Y-132590609D01*
X155014711Y-132678210D01*
X155014707Y-132678213D01*
X154903213Y-132789707D01*
X154903210Y-132789711D01*
X154815609Y-132920814D01*
X154815602Y-132920827D01*
X154755264Y-133066498D01*
X154755261Y-133066510D01*
X154724500Y-133221153D01*
X151320730Y-133221153D01*
X151321658Y-133218913D01*
X151330294Y-133175500D01*
X151350500Y-133073920D01*
X151350500Y-132926079D01*
X151321659Y-132781092D01*
X151321658Y-132781091D01*
X151321658Y-132781087D01*
X151286843Y-132697036D01*
X151265085Y-132644506D01*
X151265084Y-132644504D01*
X151220897Y-132578372D01*
X151200020Y-132511695D01*
X151200000Y-132509483D01*
X151200000Y-132176362D01*
X151219685Y-132109323D01*
X151236319Y-132088681D01*
X152588681Y-130736319D01*
X152650004Y-130702834D01*
X152676362Y-130700000D01*
X156848638Y-130700000D01*
X156915677Y-130719685D01*
G37*
%TD.AperFunction*%
%TD*%
%TA.AperFunction,Conductor*%
%TO.N,+3.3V*%
G36*
X159003736Y-105500726D02*
G01*
X159293796Y-105518271D01*
X159308659Y-105520076D01*
X159590798Y-105571780D01*
X159605335Y-105575363D01*
X159879172Y-105660695D01*
X159893163Y-105666000D01*
X160154743Y-105783727D01*
X160167989Y-105790680D01*
X160413465Y-105939075D01*
X160425776Y-105947573D01*
X160651573Y-106124473D01*
X160662781Y-106134403D01*
X160865596Y-106337218D01*
X160875526Y-106348426D01*
X160995481Y-106501538D01*
X161052422Y-106574217D01*
X161060926Y-106586537D01*
X161134296Y-106707906D01*
X161209316Y-106832004D01*
X161216275Y-106845263D01*
X161333997Y-107106831D01*
X161339306Y-107120832D01*
X161424635Y-107394663D01*
X161428219Y-107409201D01*
X161479923Y-107691340D01*
X161481728Y-107706205D01*
X161499274Y-107996263D01*
X161499500Y-108003750D01*
X161499500Y-129434108D01*
X161499500Y-129500000D01*
X161499500Y-129607318D01*
X161501490Y-129621158D01*
X161530044Y-129819764D01*
X161530047Y-129819774D01*
X161590517Y-130025715D01*
X161679672Y-130220938D01*
X161679679Y-130220951D01*
X161708954Y-130266503D01*
X161795719Y-130401513D01*
X161802548Y-130409394D01*
X161936275Y-130563724D01*
X162060277Y-130671172D01*
X162098487Y-130704281D01*
X162215031Y-130779179D01*
X162279048Y-130820320D01*
X162279061Y-130820327D01*
X162474284Y-130909482D01*
X162474288Y-130909483D01*
X162474290Y-130909484D01*
X162680231Y-130969954D01*
X162680235Y-130969954D01*
X162680237Y-130969955D01*
X162698850Y-130972631D01*
X162793648Y-130986261D01*
X162857202Y-131015284D01*
X162894977Y-131074062D01*
X162900000Y-131108998D01*
X162900000Y-146375500D01*
X162880315Y-146442539D01*
X162827511Y-146488294D01*
X162776000Y-146499500D01*
X147497498Y-146499500D01*
X147430459Y-146479815D01*
X147384704Y-146427011D01*
X147374760Y-146357853D01*
X147378521Y-146340564D01*
X147385023Y-146318419D01*
X147385024Y-146318416D01*
X147405500Y-146176000D01*
X147405500Y-144897035D01*
X147404758Y-144869647D01*
X147404030Y-144856230D01*
X147401804Y-144828921D01*
X147366038Y-144689557D01*
X147366037Y-144689553D01*
X147359501Y-144673832D01*
X147350000Y-144626230D01*
X147350000Y-143729145D01*
X147416657Y-143767630D01*
X147537465Y-143800000D01*
X147662535Y-143800000D01*
X147783343Y-143767630D01*
X147850000Y-143729145D01*
X147850000Y-144799999D01*
X148249972Y-144799999D01*
X148249986Y-144799998D01*
X148352697Y-144789505D01*
X148519119Y-144734358D01*
X148519124Y-144734356D01*
X148668345Y-144642315D01*
X148792315Y-144518345D01*
X148884356Y-144369124D01*
X148884358Y-144369119D01*
X148939505Y-144202697D01*
X148939506Y-144202690D01*
X148949999Y-144099986D01*
X148950000Y-144099973D01*
X148950000Y-143575000D01*
X148004146Y-143575000D01*
X148042630Y-143508343D01*
X148075000Y-143387535D01*
X148075000Y-143262465D01*
X148042630Y-143141657D01*
X148004146Y-143075000D01*
X148949999Y-143075000D01*
X148949999Y-142550028D01*
X148949998Y-142550013D01*
X148939505Y-142447302D01*
X148884358Y-142280880D01*
X148884356Y-142280875D01*
X148792315Y-142131654D01*
X148668345Y-142007684D01*
X148519124Y-141915643D01*
X148519119Y-141915641D01*
X148352697Y-141860494D01*
X148352689Y-141860493D01*
X148322169Y-141857375D01*
X148307695Y-141851469D01*
X148292099Y-141850443D01*
X148276008Y-141838539D01*
X148257477Y-141830978D01*
X148248494Y-141818185D01*
X148235929Y-141808890D01*
X148228828Y-141790177D01*
X148217326Y-141773797D01*
X148216685Y-141758179D01*
X148211140Y-141743566D01*
X148214283Y-141728713D01*
X151149500Y-141728713D01*
X151149500Y-141941287D01*
X151150634Y-141948444D01*
X151165918Y-142044949D01*
X151182754Y-142151243D01*
X151244471Y-142341188D01*
X151248444Y-142353414D01*
X151344951Y-142542820D01*
X151469890Y-142714786D01*
X151583430Y-142828326D01*
X151616915Y-142889649D01*
X151611931Y-142959341D01*
X151570059Y-143015274D01*
X151539083Y-143032189D01*
X151407669Y-143081203D01*
X151407664Y-143081206D01*
X151292455Y-143167452D01*
X151292452Y-143167455D01*
X151206206Y-143282664D01*
X151206202Y-143282671D01*
X151155908Y-143417517D01*
X151152524Y-143449000D01*
X151149501Y-143477123D01*
X151149500Y-143477135D01*
X151149500Y-145272870D01*
X151149501Y-145272876D01*
X151155908Y-145332483D01*
X151206202Y-145467328D01*
X151206206Y-145467335D01*
X151292452Y-145582544D01*
X151292455Y-145582547D01*
X151407664Y-145668793D01*
X151407671Y-145668797D01*
X151542517Y-145719091D01*
X151542516Y-145719091D01*
X151549444Y-145719835D01*
X151602127Y-145725500D01*
X153397872Y-145725499D01*
X153457483Y-145719091D01*
X153592331Y-145668796D01*
X153707546Y-145582546D01*
X153793796Y-145467331D01*
X153844091Y-145332483D01*
X153850500Y-145272873D01*
X153850499Y-143477128D01*
X153844091Y-143417517D01*
X153832908Y-143387535D01*
X153793797Y-143282671D01*
X153793793Y-143282664D01*
X153707547Y-143167455D01*
X153707544Y-143167452D01*
X153592335Y-143081206D01*
X153592328Y-143081202D01*
X153460917Y-143032189D01*
X153404983Y-142990318D01*
X153380566Y-142924853D01*
X153395418Y-142856580D01*
X153416563Y-142828332D01*
X153530104Y-142714792D01*
X153568170Y-142662399D01*
X153655048Y-142542820D01*
X153655047Y-142542820D01*
X153655051Y-142542816D01*
X153751557Y-142353412D01*
X153817246Y-142151243D01*
X153850500Y-141941287D01*
X153850500Y-141728713D01*
X153817246Y-141518757D01*
X153751557Y-141316588D01*
X153655051Y-141127184D01*
X153655049Y-141127181D01*
X153655048Y-141127179D01*
X153530109Y-140955213D01*
X153379786Y-140804890D01*
X153207820Y-140679951D01*
X153018414Y-140583444D01*
X153018413Y-140583443D01*
X153018412Y-140583443D01*
X152816243Y-140517754D01*
X152816241Y-140517753D01*
X152816240Y-140517753D01*
X152654957Y-140492208D01*
X152606287Y-140484500D01*
X152393713Y-140484500D01*
X152345042Y-140492208D01*
X152183760Y-140517753D01*
X151981585Y-140583444D01*
X151792179Y-140679951D01*
X151620213Y-140804890D01*
X151469890Y-140955213D01*
X151344951Y-141127179D01*
X151248444Y-141316585D01*
X151182753Y-141518760D01*
X151164080Y-141636659D01*
X151149500Y-141728713D01*
X148214283Y-141728713D01*
X148215283Y-141723985D01*
X148214463Y-141703986D01*
X148222564Y-141689576D01*
X148225604Y-141675210D01*
X148246588Y-141646841D01*
X148723651Y-141164317D01*
X148758694Y-141124966D01*
X148774830Y-141104824D01*
X148805567Y-141062070D01*
X148865338Y-140931193D01*
X148885023Y-140864154D01*
X148885024Y-140864150D01*
X148905500Y-140721734D01*
X148905500Y-139329500D01*
X148925185Y-139262461D01*
X148977989Y-139216706D01*
X149029500Y-139205500D01*
X150224253Y-139205500D01*
X150291695Y-139200980D01*
X150291706Y-139200978D01*
X150291716Y-139200978D01*
X150324522Y-139196560D01*
X150390795Y-139183069D01*
X150522719Y-139125644D01*
X150582162Y-139088924D01*
X150692562Y-138996658D01*
X150772497Y-138877025D01*
X150802651Y-138813998D01*
X150845642Y-138676698D01*
X150846487Y-138629390D01*
X150852137Y-138611342D01*
X150852813Y-138592444D01*
X150862361Y-138578690D01*
X150867365Y-138562713D01*
X150881875Y-138550586D01*
X150892661Y-138535052D01*
X150919557Y-138519094D01*
X150920977Y-138517908D01*
X150922939Y-138517075D01*
X150960986Y-138501315D01*
X151030453Y-138493847D01*
X151092932Y-138525123D01*
X151096117Y-138528196D01*
X151189707Y-138621786D01*
X151189711Y-138621789D01*
X151320814Y-138709390D01*
X151320827Y-138709397D01*
X151466498Y-138769735D01*
X151466503Y-138769737D01*
X151621153Y-138800499D01*
X151621156Y-138800500D01*
X151762913Y-138800500D01*
X151829952Y-138820185D01*
X151867228Y-138857460D01*
X151932187Y-138958537D01*
X151932195Y-138958548D01*
X151977939Y-139011340D01*
X151977942Y-139011343D01*
X151977946Y-139011347D01*
X152086680Y-139105567D01*
X152217557Y-139165338D01*
X152284596Y-139185023D01*
X152284600Y-139185024D01*
X152427016Y-139205500D01*
X152427019Y-139205500D01*
X156646931Y-139205500D01*
X156646940Y-139205500D01*
X156706809Y-139201942D01*
X156735977Y-139198463D01*
X156795017Y-139187836D01*
X156928620Y-139134434D01*
X156989148Y-139099532D01*
X157102292Y-139010654D01*
X159131352Y-136884972D01*
X159162968Y-136848516D01*
X159177587Y-136829936D01*
X159205567Y-136790654D01*
X159265338Y-136659777D01*
X159285023Y-136592738D01*
X159285024Y-136592734D01*
X159305500Y-136450318D01*
X159305500Y-132651362D01*
X159302603Y-132597322D01*
X159299769Y-132570964D01*
X159291114Y-132517552D01*
X159240832Y-132382743D01*
X159207347Y-132321420D01*
X159121123Y-132206239D01*
X159121118Y-132206234D01*
X159121113Y-132206228D01*
X157293776Y-130378892D01*
X157293770Y-130378886D01*
X157293761Y-130378877D01*
X157293737Y-130378855D01*
X157253519Y-130342728D01*
X157253507Y-130342718D01*
X157232856Y-130326076D01*
X157188974Y-130294433D01*
X157058100Y-130234663D01*
X156991055Y-130214976D01*
X156943582Y-130208150D01*
X156848638Y-130194500D01*
X152676362Y-130194500D01*
X152676360Y-130194500D01*
X152622311Y-130197397D01*
X152622310Y-130197397D01*
X152595977Y-130200229D01*
X152595950Y-130200232D01*
X152542554Y-130208885D01*
X152542552Y-130208885D01*
X152407747Y-130259166D01*
X152346422Y-130292651D01*
X152231240Y-130378876D01*
X152231228Y-130378886D01*
X150878892Y-131731223D01*
X150878855Y-131731262D01*
X150842728Y-131771480D01*
X150842718Y-131771492D01*
X150826076Y-131792143D01*
X150794433Y-131836025D01*
X150734663Y-131966899D01*
X150714976Y-132033945D01*
X150699276Y-132143146D01*
X150670251Y-132206702D01*
X150611473Y-132244477D01*
X150576538Y-132249500D01*
X150526080Y-132249500D01*
X150381092Y-132278340D01*
X150381082Y-132278343D01*
X150244511Y-132334912D01*
X150244498Y-132334919D01*
X150168891Y-132385439D01*
X150102213Y-132406317D01*
X150034833Y-132387832D01*
X150031109Y-132385439D01*
X149955501Y-132334919D01*
X149955488Y-132334912D01*
X149818917Y-132278343D01*
X149818907Y-132278340D01*
X149673920Y-132249500D01*
X149673918Y-132249500D01*
X149526082Y-132249500D01*
X149526080Y-132249500D01*
X149381092Y-132278340D01*
X149381082Y-132278343D01*
X149244511Y-132334912D01*
X149244498Y-132334919D01*
X149168891Y-132385439D01*
X149102213Y-132406317D01*
X149034833Y-132387832D01*
X149031109Y-132385439D01*
X148955501Y-132334919D01*
X148955488Y-132334912D01*
X148818917Y-132278343D01*
X148818907Y-132278340D01*
X148673920Y-132249500D01*
X148673918Y-132249500D01*
X148526082Y-132249500D01*
X148526080Y-132249500D01*
X148381092Y-132278340D01*
X148381082Y-132278343D01*
X148244511Y-132334912D01*
X148244498Y-132334919D01*
X148168891Y-132385439D01*
X148102213Y-132406317D01*
X148034833Y-132387832D01*
X148031109Y-132385439D01*
X147955501Y-132334919D01*
X147955488Y-132334912D01*
X147818917Y-132278343D01*
X147818907Y-132278340D01*
X147673920Y-132249500D01*
X147673918Y-132249500D01*
X147526082Y-132249500D01*
X147526080Y-132249500D01*
X147381092Y-132278340D01*
X147381082Y-132278343D01*
X147244511Y-132334912D01*
X147244498Y-132334919D01*
X147121584Y-132417048D01*
X147119341Y-132419291D01*
X147117879Y-132420089D01*
X147116874Y-132420914D01*
X147116717Y-132420723D01*
X147058015Y-132452771D01*
X146988324Y-132447781D01*
X146932393Y-132405906D01*
X146910049Y-132355794D01*
X146905895Y-132334912D01*
X146899540Y-132302964D01*
X146888527Y-132276376D01*
X146848623Y-132180038D01*
X146848622Y-132180037D01*
X146848620Y-132180031D01*
X146846168Y-132176362D01*
X146774698Y-132069398D01*
X146774692Y-132069390D01*
X146680609Y-131975307D01*
X146680601Y-131975301D01*
X146569979Y-131901386D01*
X146569972Y-131901382D01*
X146569969Y-131901380D01*
X146569965Y-131901378D01*
X146569961Y-131901376D01*
X146447040Y-131850461D01*
X146447030Y-131850458D01*
X146316533Y-131824500D01*
X146316531Y-131824500D01*
X146183469Y-131824500D01*
X146183467Y-131824500D01*
X146052969Y-131850458D01*
X146052959Y-131850461D01*
X145930038Y-131901376D01*
X145930020Y-131901386D01*
X145819398Y-131975301D01*
X145819390Y-131975307D01*
X145725307Y-132069390D01*
X145725301Y-132069398D01*
X145651386Y-132180020D01*
X145651376Y-132180038D01*
X145600461Y-132302959D01*
X145600458Y-132302969D01*
X145574500Y-132433466D01*
X145574500Y-132433469D01*
X145574500Y-132566531D01*
X145574500Y-132566533D01*
X145574499Y-132566533D01*
X145600458Y-132697030D01*
X145600461Y-132697040D01*
X145651376Y-132819961D01*
X145651386Y-132819979D01*
X145725301Y-132930601D01*
X145725307Y-132930609D01*
X145819390Y-133024692D01*
X145819398Y-133024698D01*
X145930020Y-133098613D01*
X145930023Y-133098614D01*
X145930031Y-133098620D01*
X146052964Y-133149540D01*
X146052968Y-133149540D01*
X146052969Y-133149541D01*
X146183466Y-133175500D01*
X146183469Y-133175500D01*
X146316533Y-133175500D01*
X146404325Y-133158035D01*
X146447036Y-133149540D01*
X146569969Y-133098620D01*
X146666740Y-133033959D01*
X146733416Y-133013082D01*
X146800797Y-133031566D01*
X146847487Y-133083545D01*
X146857247Y-133112869D01*
X146878340Y-133218908D01*
X146878343Y-133218917D01*
X146934912Y-133355488D01*
X146934919Y-133355501D01*
X146985439Y-133431109D01*
X147006317Y-133497787D01*
X146987832Y-133565167D01*
X146985439Y-133568891D01*
X146934919Y-133644498D01*
X146934912Y-133644511D01*
X146878343Y-133781082D01*
X146878340Y-133781092D01*
X146849500Y-133926079D01*
X146849500Y-133926082D01*
X146849500Y-134073918D01*
X146849500Y-134073920D01*
X146849499Y-134073920D01*
X146878340Y-134218907D01*
X146878343Y-134218917D01*
X146934912Y-134355488D01*
X146934919Y-134355501D01*
X146985439Y-134431109D01*
X147006317Y-134497787D01*
X146987832Y-134565167D01*
X146985439Y-134568891D01*
X146934919Y-134644498D01*
X146934912Y-134644511D01*
X146878343Y-134781082D01*
X146878340Y-134781092D01*
X146849500Y-134926079D01*
X146849500Y-134926082D01*
X146849500Y-135073918D01*
X146849500Y-135073920D01*
X146849499Y-135073920D01*
X146878340Y-135218907D01*
X146878343Y-135218917D01*
X146934912Y-135355488D01*
X146934919Y-135355501D01*
X146985439Y-135431109D01*
X147006317Y-135497787D01*
X146987832Y-135565167D01*
X146985439Y-135568891D01*
X146934919Y-135644498D01*
X146934912Y-135644511D01*
X146878343Y-135781082D01*
X146878340Y-135781094D01*
X146855744Y-135894691D01*
X146823359Y-135956602D01*
X146762643Y-135991177D01*
X146734127Y-135994500D01*
X146636331Y-135994500D01*
X146636327Y-135994500D01*
X146636317Y-135994501D01*
X146493924Y-136014994D01*
X146493920Y-136014995D01*
X146426879Y-136034690D01*
X146426874Y-136034692D01*
X146296018Y-136094474D01*
X146296011Y-136094478D01*
X145807803Y-136408325D01*
X145740766Y-136428019D01*
X145673724Y-136408344D01*
X145653068Y-136391700D01*
X145578419Y-136317051D01*
X145578415Y-136317048D01*
X145455501Y-136234919D01*
X145455488Y-136234912D01*
X145318917Y-136178343D01*
X145318907Y-136178340D01*
X145173920Y-136149500D01*
X145173918Y-136149500D01*
X145026082Y-136149500D01*
X145026080Y-136149500D01*
X144881092Y-136178340D01*
X144881082Y-136178343D01*
X144744511Y-136234912D01*
X144744498Y-136234919D01*
X144621584Y-136317048D01*
X144621580Y-136317051D01*
X144517051Y-136421580D01*
X144517048Y-136421584D01*
X144434919Y-136544498D01*
X144434912Y-136544511D01*
X144378343Y-136681082D01*
X144378340Y-136681092D01*
X144349500Y-136826079D01*
X144349500Y-136826082D01*
X144349500Y-136973918D01*
X144349500Y-136973920D01*
X144349499Y-136973920D01*
X144378340Y-137118907D01*
X144378341Y-137118908D01*
X144378342Y-137118913D01*
X144406844Y-137187723D01*
X144414312Y-137257193D01*
X144383036Y-137319672D01*
X144359336Y-137339481D01*
X143204204Y-138082066D01*
X143204198Y-138082070D01*
X143113763Y-138156306D01*
X143113762Y-138156306D01*
X143074178Y-138197335D01*
X143074173Y-138197341D01*
X143003231Y-138290374D01*
X143003230Y-138290375D01*
X143003230Y-138290376D01*
X142984780Y-138334919D01*
X142948169Y-138423309D01*
X142948169Y-138423310D01*
X142930892Y-138491000D01*
X142930891Y-138491004D01*
X142915130Y-138637596D01*
X142888392Y-138702147D01*
X142839300Y-138738899D01*
X142828125Y-138743528D01*
X142828117Y-138743532D01*
X142705203Y-138825661D01*
X142705199Y-138825664D01*
X142600670Y-138930193D01*
X142600667Y-138930197D01*
X142518538Y-139053111D01*
X142518531Y-139053124D01*
X142461962Y-139189695D01*
X142461959Y-139189705D01*
X142433119Y-139334692D01*
X142433119Y-139334695D01*
X142433119Y-139482531D01*
X142433119Y-139482533D01*
X142433118Y-139482533D01*
X142461959Y-139627520D01*
X142461962Y-139627530D01*
X142518531Y-139764101D01*
X142518538Y-139764114D01*
X142600667Y-139887028D01*
X142600670Y-139887032D01*
X142705200Y-139991562D01*
X142705203Y-139991564D01*
X142755925Y-140025455D01*
X142800729Y-140079066D01*
X142809772Y-140146203D01*
X142794500Y-140252428D01*
X142794500Y-141725500D01*
X142774815Y-141792539D01*
X142722011Y-141838294D01*
X142670500Y-141849500D01*
X142493713Y-141849500D01*
X142445042Y-141857208D01*
X142283760Y-141882753D01*
X142081585Y-141948444D01*
X141892179Y-142044951D01*
X141720213Y-142169890D01*
X141569894Y-142320209D01*
X141569890Y-142320214D01*
X141450318Y-142484793D01*
X141394989Y-142527459D01*
X141325375Y-142533438D01*
X141263580Y-142500833D01*
X141249682Y-142484793D01*
X141130109Y-142320214D01*
X141130105Y-142320209D01*
X140979786Y-142169890D01*
X140807820Y-142044951D01*
X140618414Y-141948444D01*
X140618413Y-141948443D01*
X140618412Y-141948443D01*
X140416243Y-141882754D01*
X140416241Y-141882753D01*
X140416240Y-141882753D01*
X140254957Y-141857208D01*
X140206287Y-141849500D01*
X139993713Y-141849500D01*
X139945042Y-141857208D01*
X139783760Y-141882753D01*
X139581585Y-141948444D01*
X139392179Y-142044951D01*
X139220213Y-142169890D01*
X139069894Y-142320209D01*
X139069890Y-142320214D01*
X138950318Y-142484793D01*
X138894989Y-142527459D01*
X138825375Y-142533438D01*
X138763580Y-142500833D01*
X138749682Y-142484793D01*
X138630109Y-142320214D01*
X138630105Y-142320209D01*
X138479786Y-142169890D01*
X138307820Y-142044951D01*
X138118414Y-141948444D01*
X138118413Y-141948443D01*
X138118412Y-141948443D01*
X137916243Y-141882754D01*
X137916241Y-141882753D01*
X137916240Y-141882753D01*
X137754957Y-141857208D01*
X137706287Y-141849500D01*
X137493713Y-141849500D01*
X137445042Y-141857208D01*
X137283760Y-141882753D01*
X137081585Y-141948444D01*
X136892179Y-142044951D01*
X136720213Y-142169890D01*
X136569890Y-142320213D01*
X136444951Y-142492179D01*
X136348444Y-142681585D01*
X136348443Y-142681587D01*
X136348443Y-142681588D01*
X136335071Y-142722743D01*
X136282753Y-142883760D01*
X136259062Y-143033343D01*
X136249500Y-143093713D01*
X136249500Y-143556287D01*
X136282754Y-143766243D01*
X136342314Y-143949550D01*
X136348444Y-143968414D01*
X136444951Y-144157820D01*
X136569890Y-144329786D01*
X136720213Y-144480109D01*
X136892179Y-144605048D01*
X136892181Y-144605049D01*
X136892184Y-144605051D01*
X137081588Y-144701557D01*
X137283757Y-144767246D01*
X137493713Y-144800500D01*
X137493714Y-144800500D01*
X137706286Y-144800500D01*
X137706287Y-144800500D01*
X137916243Y-144767246D01*
X138118412Y-144701557D01*
X138307816Y-144605051D01*
X138329789Y-144589086D01*
X138479786Y-144480109D01*
X138479788Y-144480106D01*
X138479792Y-144480104D01*
X138630104Y-144329792D01*
X138749683Y-144165204D01*
X138805011Y-144122540D01*
X138874624Y-144116561D01*
X138936420Y-144149166D01*
X138950313Y-144165199D01*
X139043742Y-144293794D01*
X139069896Y-144329792D01*
X139220213Y-144480109D01*
X139392179Y-144605048D01*
X139392181Y-144605049D01*
X139392184Y-144605051D01*
X139581588Y-144701557D01*
X139783757Y-144767246D01*
X139993713Y-144800500D01*
X139993714Y-144800500D01*
X140206286Y-144800500D01*
X140206287Y-144800500D01*
X140416243Y-144767246D01*
X140618412Y-144701557D01*
X140807816Y-144605051D01*
X140829789Y-144589086D01*
X140979786Y-144480109D01*
X140979788Y-144480106D01*
X140979792Y-144480104D01*
X141130104Y-144329792D01*
X141249683Y-144165204D01*
X141305011Y-144122540D01*
X141374624Y-144116561D01*
X141436420Y-144149166D01*
X141450313Y-144165199D01*
X141543742Y-144293794D01*
X141569896Y-144329792D01*
X141720213Y-144480109D01*
X141892179Y-144605048D01*
X141892181Y-144605049D01*
X141892184Y-144605051D01*
X142081588Y-144701557D01*
X142283757Y-144767246D01*
X142493713Y-144800500D01*
X142493714Y-144800500D01*
X142670500Y-144800500D01*
X142737539Y-144820185D01*
X142783294Y-144872989D01*
X142794500Y-144924500D01*
X142794500Y-146176000D01*
X142794501Y-146176009D01*
X142806052Y-146283450D01*
X142806054Y-146283462D01*
X142817259Y-146334970D01*
X142817714Y-146336335D01*
X142817726Y-146336671D01*
X142818138Y-146338173D01*
X142817783Y-146338270D01*
X142820212Y-146406160D01*
X142784563Y-146466250D01*
X142722085Y-146497529D01*
X142700062Y-146499500D01*
X123003751Y-146499500D01*
X122996264Y-146499274D01*
X122706205Y-146481728D01*
X122691340Y-146479923D01*
X122409201Y-146428219D01*
X122394663Y-146424635D01*
X122120832Y-146339306D01*
X122106831Y-146333997D01*
X121845263Y-146216275D01*
X121832004Y-146209316D01*
X121586537Y-146060926D01*
X121574217Y-146052422D01*
X121348426Y-145875526D01*
X121337218Y-145865596D01*
X121134403Y-145662781D01*
X121124473Y-145651573D01*
X121070392Y-145582544D01*
X120947573Y-145425776D01*
X120939075Y-145413465D01*
X120790680Y-145167989D01*
X120783727Y-145154743D01*
X120666000Y-144893163D01*
X120660693Y-144879167D01*
X120657726Y-144869647D01*
X120575363Y-144605335D01*
X120571780Y-144590798D01*
X120520075Y-144308657D01*
X120518271Y-144293794D01*
X120500726Y-144003736D01*
X120500500Y-143996249D01*
X120500500Y-141378711D01*
X123649500Y-141378711D01*
X123649500Y-141621288D01*
X123681161Y-141861785D01*
X123743947Y-142096104D01*
X123806778Y-142247790D01*
X123836776Y-142320212D01*
X123958064Y-142530289D01*
X123958066Y-142530292D01*
X123958067Y-142530293D01*
X124105733Y-142722736D01*
X124105739Y-142722743D01*
X124277256Y-142894260D01*
X124277262Y-142894265D01*
X124469711Y-143041936D01*
X124679788Y-143163224D01*
X124903900Y-143256054D01*
X125138211Y-143318838D01*
X125318586Y-143342584D01*
X125378711Y-143350500D01*
X125378712Y-143350500D01*
X125621289Y-143350500D01*
X125669388Y-143344167D01*
X125861789Y-143318838D01*
X126096100Y-143256054D01*
X126320212Y-143163224D01*
X126530289Y-143041936D01*
X126722738Y-142894265D01*
X126894265Y-142722738D01*
X127041936Y-142530289D01*
X127163224Y-142320212D01*
X127256054Y-142096100D01*
X127318838Y-141861789D01*
X127334402Y-141743566D01*
X127336358Y-141728713D01*
X131349500Y-141728713D01*
X131349500Y-141941287D01*
X131350634Y-141948444D01*
X131365918Y-142044949D01*
X131382754Y-142151243D01*
X131444471Y-142341188D01*
X131448444Y-142353414D01*
X131544951Y-142542820D01*
X131669890Y-142714786D01*
X131783430Y-142828326D01*
X131816915Y-142889649D01*
X131811931Y-142959341D01*
X131770059Y-143015274D01*
X131739083Y-143032189D01*
X131607669Y-143081203D01*
X131607664Y-143081206D01*
X131492455Y-143167452D01*
X131492452Y-143167455D01*
X131406206Y-143282664D01*
X131406202Y-143282671D01*
X131355908Y-143417517D01*
X131352524Y-143449000D01*
X131349501Y-143477123D01*
X131349500Y-143477135D01*
X131349500Y-145272870D01*
X131349501Y-145272876D01*
X131355908Y-145332483D01*
X131406202Y-145467328D01*
X131406206Y-145467335D01*
X131492452Y-145582544D01*
X131492455Y-145582547D01*
X131607664Y-145668793D01*
X131607671Y-145668797D01*
X131742517Y-145719091D01*
X131742516Y-145719091D01*
X131749444Y-145719835D01*
X131802127Y-145725500D01*
X133597872Y-145725499D01*
X133657483Y-145719091D01*
X133792331Y-145668796D01*
X133907546Y-145582546D01*
X133993796Y-145467331D01*
X134044091Y-145332483D01*
X134050500Y-145272873D01*
X134050499Y-143477128D01*
X134044091Y-143417517D01*
X134032908Y-143387535D01*
X133993797Y-143282671D01*
X133993793Y-143282664D01*
X133907547Y-143167455D01*
X133907544Y-143167452D01*
X133792335Y-143081206D01*
X133792328Y-143081202D01*
X133660917Y-143032189D01*
X133604983Y-142990318D01*
X133580566Y-142924853D01*
X133595418Y-142856580D01*
X133616563Y-142828332D01*
X133730104Y-142714792D01*
X133768170Y-142662399D01*
X133855048Y-142542820D01*
X133855047Y-142542820D01*
X133855051Y-142542816D01*
X133951557Y-142353412D01*
X134017246Y-142151243D01*
X134050500Y-141941287D01*
X134050500Y-141728713D01*
X134017246Y-141518757D01*
X133951557Y-141316588D01*
X133855051Y-141127184D01*
X133855049Y-141127181D01*
X133855048Y-141127179D01*
X133730109Y-140955213D01*
X133579786Y-140804890D01*
X133407820Y-140679951D01*
X133218414Y-140583444D01*
X133218413Y-140583443D01*
X133218412Y-140583443D01*
X133016243Y-140517754D01*
X133016241Y-140517753D01*
X133016240Y-140517753D01*
X132854957Y-140492208D01*
X132806287Y-140484500D01*
X132593713Y-140484500D01*
X132545042Y-140492208D01*
X132383760Y-140517753D01*
X132181585Y-140583444D01*
X131992179Y-140679951D01*
X131820213Y-140804890D01*
X131669890Y-140955213D01*
X131544951Y-141127179D01*
X131448444Y-141316585D01*
X131382753Y-141518760D01*
X131364080Y-141636659D01*
X131349500Y-141728713D01*
X127336358Y-141728713D01*
X127339130Y-141707656D01*
X127350500Y-141621288D01*
X127350500Y-141378711D01*
X127318838Y-141138214D01*
X127318838Y-141138211D01*
X127256054Y-140903900D01*
X127163224Y-140679788D01*
X127041936Y-140469711D01*
X126894265Y-140277262D01*
X126894260Y-140277256D01*
X126722743Y-140105739D01*
X126722736Y-140105733D01*
X126530293Y-139958067D01*
X126530292Y-139958066D01*
X126530289Y-139958064D01*
X126320212Y-139836776D01*
X126320205Y-139836773D01*
X126096104Y-139743947D01*
X125861785Y-139681161D01*
X125621289Y-139649500D01*
X125621288Y-139649500D01*
X125378712Y-139649500D01*
X125378711Y-139649500D01*
X125138214Y-139681161D01*
X124903895Y-139743947D01*
X124679794Y-139836773D01*
X124679785Y-139836777D01*
X124469706Y-139958067D01*
X124277263Y-140105733D01*
X124277256Y-140105739D01*
X124105739Y-140277256D01*
X124105733Y-140277263D01*
X123958067Y-140469706D01*
X123836777Y-140679785D01*
X123836773Y-140679794D01*
X123743947Y-140903895D01*
X123681161Y-141138214D01*
X123649500Y-141378711D01*
X120500500Y-141378711D01*
X120500500Y-139073920D01*
X135749499Y-139073920D01*
X135778340Y-139218907D01*
X135778343Y-139218917D01*
X135834912Y-139355488D01*
X135834919Y-139355501D01*
X135917048Y-139478415D01*
X135917051Y-139478419D01*
X136021580Y-139582948D01*
X136021584Y-139582951D01*
X136144498Y-139665080D01*
X136144511Y-139665087D01*
X136281082Y-139721656D01*
X136281087Y-139721658D01*
X136281091Y-139721658D01*
X136281092Y-139721659D01*
X136426079Y-139750500D01*
X136426082Y-139750500D01*
X136573920Y-139750500D01*
X136671462Y-139731096D01*
X136718913Y-139721658D01*
X136855495Y-139665084D01*
X136931111Y-139614559D01*
X136997786Y-139593682D01*
X137065166Y-139612166D01*
X137068848Y-139614531D01*
X137144505Y-139665084D01*
X137144507Y-139665085D01*
X137144511Y-139665087D01*
X137281082Y-139721656D01*
X137281087Y-139721658D01*
X137281091Y-139721658D01*
X137281092Y-139721659D01*
X137426079Y-139750500D01*
X137426082Y-139750500D01*
X137573920Y-139750500D01*
X137671462Y-139731096D01*
X137718913Y-139721658D01*
X137855495Y-139665084D01*
X137978416Y-139582951D01*
X138082951Y-139478416D01*
X138165084Y-139355495D01*
X138221658Y-139218913D01*
X138244204Y-139105569D01*
X138250500Y-139073920D01*
X138250500Y-138926079D01*
X138221659Y-138781092D01*
X138221658Y-138781091D01*
X138221658Y-138781087D01*
X138178418Y-138676696D01*
X138165087Y-138644511D01*
X138165080Y-138644498D01*
X138082951Y-138521584D01*
X138082948Y-138521580D01*
X137978419Y-138417051D01*
X137978415Y-138417048D01*
X137855501Y-138334919D01*
X137855488Y-138334912D01*
X137718917Y-138278343D01*
X137718907Y-138278340D01*
X137573920Y-138249500D01*
X137573918Y-138249500D01*
X137426082Y-138249500D01*
X137426080Y-138249500D01*
X137281092Y-138278340D01*
X137281082Y-138278343D01*
X137144511Y-138334912D01*
X137144498Y-138334919D01*
X137068891Y-138385439D01*
X137002213Y-138406317D01*
X136934833Y-138387832D01*
X136931109Y-138385439D01*
X136855501Y-138334919D01*
X136855488Y-138334912D01*
X136718917Y-138278343D01*
X136718907Y-138278340D01*
X136573920Y-138249500D01*
X136573918Y-138249500D01*
X136426082Y-138249500D01*
X136426080Y-138249500D01*
X136281092Y-138278340D01*
X136281082Y-138278343D01*
X136144511Y-138334912D01*
X136144498Y-138334919D01*
X136021584Y-138417048D01*
X136021580Y-138417051D01*
X135917051Y-138521580D01*
X135917048Y-138521584D01*
X135834919Y-138644498D01*
X135834912Y-138644511D01*
X135778343Y-138781082D01*
X135778340Y-138781092D01*
X135749500Y-138926079D01*
X135749500Y-138926082D01*
X135749500Y-139073918D01*
X135749500Y-139073920D01*
X135749499Y-139073920D01*
X120500500Y-139073920D01*
X120500500Y-136121153D01*
X128899500Y-136121153D01*
X128899500Y-136278846D01*
X128930261Y-136433489D01*
X128930264Y-136433501D01*
X128990602Y-136579172D01*
X128990609Y-136579185D01*
X129078210Y-136710288D01*
X129078213Y-136710292D01*
X129189707Y-136821786D01*
X129189711Y-136821789D01*
X129320814Y-136909390D01*
X129320827Y-136909397D01*
X129466498Y-136969735D01*
X129466503Y-136969737D01*
X129621153Y-137000499D01*
X129621156Y-137000500D01*
X129621158Y-137000500D01*
X129778844Y-137000500D01*
X129778845Y-137000499D01*
X129933497Y-136969737D01*
X130079179Y-136909394D01*
X130210289Y-136821789D01*
X130321789Y-136710289D01*
X130409394Y-136579179D01*
X130469737Y-136433497D01*
X130500500Y-136278842D01*
X130500500Y-136121158D01*
X130500500Y-136121155D01*
X130500499Y-136121153D01*
X130479383Y-136014996D01*
X130469737Y-135966503D01*
X130439992Y-135894691D01*
X130409397Y-135820827D01*
X130409390Y-135820814D01*
X130321789Y-135689711D01*
X130321786Y-135689707D01*
X130210292Y-135578213D01*
X130210288Y-135578210D01*
X130079185Y-135490609D01*
X130079172Y-135490602D01*
X129933501Y-135430264D01*
X129933489Y-135430261D01*
X129778845Y-135399500D01*
X129778842Y-135399500D01*
X129621158Y-135399500D01*
X129621155Y-135399500D01*
X129466510Y-135430261D01*
X129466498Y-135430264D01*
X129320827Y-135490602D01*
X129320814Y-135490609D01*
X129189711Y-135578210D01*
X129189707Y-135578213D01*
X129078213Y-135689707D01*
X129078210Y-135689711D01*
X128990609Y-135820814D01*
X128990602Y-135820827D01*
X128930264Y-135966498D01*
X128930261Y-135966510D01*
X128899500Y-136121153D01*
X120500500Y-136121153D01*
X120500500Y-134316533D01*
X145074499Y-134316533D01*
X145100458Y-134447030D01*
X145100461Y-134447040D01*
X145151376Y-134569961D01*
X145151386Y-134569979D01*
X145225301Y-134680601D01*
X145225307Y-134680609D01*
X145319390Y-134774692D01*
X145319398Y-134774698D01*
X145430020Y-134848613D01*
X145430023Y-134848614D01*
X145430031Y-134848620D01*
X145552964Y-134899540D01*
X145552968Y-134899540D01*
X145552969Y-134899541D01*
X145683466Y-134925500D01*
X145683469Y-134925500D01*
X145816533Y-134925500D01*
X145904325Y-134908035D01*
X145947036Y-134899540D01*
X146069969Y-134848620D01*
X146180606Y-134774695D01*
X146274695Y-134680606D01*
X146348620Y-134569969D01*
X146399540Y-134447036D01*
X146417748Y-134355501D01*
X146425500Y-134316533D01*
X146425500Y-134183466D01*
X146399541Y-134052969D01*
X146399540Y-134052968D01*
X146399540Y-134052964D01*
X146348620Y-133930031D01*
X146345981Y-133926082D01*
X146274698Y-133819398D01*
X146274692Y-133819390D01*
X146180609Y-133725307D01*
X146180601Y-133725301D01*
X146069979Y-133651386D01*
X146069972Y-133651382D01*
X146069969Y-133651380D01*
X146069965Y-133651378D01*
X146069961Y-133651376D01*
X145947040Y-133600461D01*
X145947030Y-133600458D01*
X145816533Y-133574500D01*
X145816531Y-133574500D01*
X145683469Y-133574500D01*
X145683467Y-133574500D01*
X145552969Y-133600458D01*
X145552959Y-133600461D01*
X145430038Y-133651376D01*
X145430020Y-133651386D01*
X145319398Y-133725301D01*
X145319390Y-133725307D01*
X145225307Y-133819390D01*
X145225301Y-133819398D01*
X145151386Y-133930020D01*
X145151376Y-133930038D01*
X145100461Y-134052959D01*
X145100458Y-134052969D01*
X145074500Y-134183466D01*
X145074500Y-134183469D01*
X145074500Y-134316531D01*
X145074500Y-134316533D01*
X145074499Y-134316533D01*
X120500500Y-134316533D01*
X120500500Y-132941533D01*
X143049499Y-132941533D01*
X143075458Y-133072030D01*
X143075461Y-133072040D01*
X143126376Y-133194961D01*
X143126386Y-133194979D01*
X143200301Y-133305601D01*
X143200307Y-133305609D01*
X143294390Y-133399692D01*
X143294398Y-133399698D01*
X143405020Y-133473613D01*
X143405023Y-133473614D01*
X143405031Y-133473620D01*
X143405037Y-133473622D01*
X143405038Y-133473623D01*
X143527959Y-133524538D01*
X143527964Y-133524540D01*
X143527968Y-133524540D01*
X143527969Y-133524541D01*
X143658466Y-133550500D01*
X143658469Y-133550500D01*
X143791533Y-133550500D01*
X143879325Y-133533035D01*
X143922036Y-133524540D01*
X144044969Y-133473620D01*
X144155606Y-133399695D01*
X144249695Y-133305606D01*
X144323620Y-133194969D01*
X144374540Y-133072036D01*
X144400500Y-132941531D01*
X144400500Y-132808469D01*
X144400500Y-132808466D01*
X144374541Y-132677969D01*
X144374540Y-132677968D01*
X144374540Y-132677964D01*
X144328384Y-132566533D01*
X144323623Y-132555038D01*
X144323622Y-132555037D01*
X144323620Y-132555031D01*
X144298577Y-132517552D01*
X144249698Y-132444398D01*
X144249692Y-132444390D01*
X144155609Y-132350307D01*
X144155601Y-132350301D01*
X144044979Y-132276386D01*
X144044972Y-132276382D01*
X144044969Y-132276380D01*
X144044965Y-132276378D01*
X144044961Y-132276376D01*
X143922040Y-132225461D01*
X143922030Y-132225458D01*
X143791533Y-132199500D01*
X143791531Y-132199500D01*
X143658469Y-132199500D01*
X143658467Y-132199500D01*
X143527969Y-132225458D01*
X143527959Y-132225461D01*
X143405038Y-132276376D01*
X143405020Y-132276386D01*
X143294398Y-132350301D01*
X143294390Y-132350307D01*
X143200307Y-132444390D01*
X143200301Y-132444398D01*
X143126386Y-132555020D01*
X143126376Y-132555038D01*
X143075461Y-132677959D01*
X143075458Y-132677969D01*
X143049500Y-132808466D01*
X143049500Y-132808469D01*
X143049500Y-132941531D01*
X143049500Y-132941533D01*
X143049499Y-132941533D01*
X120500500Y-132941533D01*
X120500500Y-131221153D01*
X129199500Y-131221153D01*
X129199500Y-131378846D01*
X129230261Y-131533489D01*
X129230264Y-131533501D01*
X129290602Y-131679172D01*
X129290609Y-131679185D01*
X129378210Y-131810288D01*
X129378213Y-131810292D01*
X129489707Y-131921786D01*
X129489711Y-131921789D01*
X129620814Y-132009390D01*
X129620827Y-132009397D01*
X129766498Y-132069735D01*
X129766503Y-132069737D01*
X129921153Y-132100499D01*
X129921156Y-132100500D01*
X129921158Y-132100500D01*
X130078844Y-132100500D01*
X130078845Y-132100499D01*
X130233497Y-132069737D01*
X130379179Y-132009394D01*
X130510289Y-131921789D01*
X130621789Y-131810289D01*
X130709394Y-131679179D01*
X130769737Y-131533497D01*
X130800500Y-131378842D01*
X130800500Y-131221158D01*
X130800500Y-131221155D01*
X130800499Y-131221153D01*
X130780734Y-131121789D01*
X130769737Y-131066503D01*
X130729746Y-130969955D01*
X130709397Y-130920827D01*
X130709390Y-130920814D01*
X130621789Y-130789711D01*
X130621786Y-130789707D01*
X130510292Y-130678213D01*
X130510288Y-130678210D01*
X130379185Y-130590609D01*
X130379172Y-130590602D01*
X130233501Y-130530264D01*
X130233489Y-130530261D01*
X130078845Y-130499500D01*
X130078842Y-130499500D01*
X129921158Y-130499500D01*
X129921155Y-130499500D01*
X129766510Y-130530261D01*
X129766498Y-130530264D01*
X129620827Y-130590602D01*
X129620814Y-130590609D01*
X129489711Y-130678210D01*
X129489707Y-130678213D01*
X129378213Y-130789707D01*
X129378210Y-130789711D01*
X129290609Y-130920814D01*
X129290602Y-130920827D01*
X129230264Y-131066498D01*
X129230261Y-131066510D01*
X129199500Y-131221153D01*
X120500500Y-131221153D01*
X120500500Y-130321153D01*
X138399500Y-130321153D01*
X138399500Y-130478846D01*
X138430261Y-130633489D01*
X138430264Y-130633501D01*
X138490602Y-130779172D01*
X138490609Y-130779185D01*
X138578210Y-130910288D01*
X138578213Y-130910292D01*
X138689707Y-131021786D01*
X138689711Y-131021789D01*
X138820814Y-131109390D01*
X138820827Y-131109397D01*
X138966498Y-131169735D01*
X138966503Y-131169737D01*
X139103764Y-131197040D01*
X139121153Y-131200499D01*
X139121156Y-131200500D01*
X139121158Y-131200500D01*
X139278844Y-131200500D01*
X139278845Y-131200499D01*
X139433497Y-131169737D01*
X139579179Y-131109394D01*
X139710289Y-131021789D01*
X139821789Y-130910289D01*
X139909394Y-130779179D01*
X139969737Y-130633497D01*
X140000500Y-130478842D01*
X140000500Y-130421153D01*
X141949500Y-130421153D01*
X141949500Y-130578846D01*
X141980261Y-130733489D01*
X141980264Y-130733501D01*
X142040602Y-130879172D01*
X142040609Y-130879185D01*
X142128210Y-131010288D01*
X142128213Y-131010292D01*
X142239707Y-131121786D01*
X142239711Y-131121789D01*
X142370814Y-131209390D01*
X142370827Y-131209397D01*
X142516498Y-131269735D01*
X142516503Y-131269737D01*
X142671153Y-131300499D01*
X142671156Y-131300500D01*
X142671158Y-131300500D01*
X142828844Y-131300500D01*
X142828845Y-131300499D01*
X142983497Y-131269737D01*
X143129179Y-131209394D01*
X143260289Y-131121789D01*
X143315545Y-131066533D01*
X148824499Y-131066533D01*
X148850458Y-131197030D01*
X148850461Y-131197040D01*
X148901376Y-131319961D01*
X148901386Y-131319979D01*
X148975301Y-131430601D01*
X148975307Y-131430609D01*
X149069390Y-131524692D01*
X149069398Y-131524698D01*
X149180020Y-131598613D01*
X149180023Y-131598614D01*
X149180031Y-131598620D01*
X149302964Y-131649540D01*
X149302968Y-131649540D01*
X149302969Y-131649541D01*
X149433466Y-131675500D01*
X149433469Y-131675500D01*
X149566533Y-131675500D01*
X149654325Y-131658035D01*
X149697036Y-131649540D01*
X149819969Y-131598620D01*
X149930606Y-131524695D01*
X150024695Y-131430606D01*
X150098620Y-131319969D01*
X150149540Y-131197036D01*
X150166975Y-131109390D01*
X150175500Y-131066533D01*
X150175500Y-130933466D01*
X150149541Y-130802969D01*
X150149540Y-130802968D01*
X150149540Y-130802964D01*
X150149538Y-130802959D01*
X150098623Y-130680038D01*
X150098622Y-130680037D01*
X150098620Y-130680031D01*
X150097405Y-130678213D01*
X150024698Y-130569398D01*
X150024692Y-130569390D01*
X149930609Y-130475307D01*
X149930601Y-130475301D01*
X149819979Y-130401386D01*
X149819972Y-130401382D01*
X149819969Y-130401380D01*
X149819965Y-130401378D01*
X149819961Y-130401376D01*
X149697040Y-130350461D01*
X149697030Y-130350458D01*
X149566533Y-130324500D01*
X149566531Y-130324500D01*
X149433469Y-130324500D01*
X149433467Y-130324500D01*
X149302969Y-130350458D01*
X149302959Y-130350461D01*
X149180038Y-130401376D01*
X149180020Y-130401386D01*
X149069398Y-130475301D01*
X149069390Y-130475307D01*
X148975307Y-130569390D01*
X148975301Y-130569398D01*
X148901386Y-130680020D01*
X148901376Y-130680038D01*
X148850461Y-130802959D01*
X148850458Y-130802969D01*
X148824500Y-130933466D01*
X148824500Y-130933469D01*
X148824500Y-131066531D01*
X148824500Y-131066533D01*
X148824499Y-131066533D01*
X143315545Y-131066533D01*
X143371789Y-131010289D01*
X143459394Y-130879179D01*
X143519737Y-130733497D01*
X143550500Y-130578842D01*
X143550500Y-130421158D01*
X143550500Y-130421155D01*
X143550499Y-130421153D01*
X143548159Y-130409390D01*
X143519737Y-130266503D01*
X143500869Y-130220951D01*
X143459397Y-130120827D01*
X143459390Y-130120814D01*
X143371789Y-129989711D01*
X143371786Y-129989707D01*
X143260292Y-129878213D01*
X143260288Y-129878210D01*
X143129185Y-129790609D01*
X143129172Y-129790602D01*
X142983501Y-129730264D01*
X142983489Y-129730261D01*
X142828845Y-129699500D01*
X142828842Y-129699500D01*
X142671158Y-129699500D01*
X142671155Y-129699500D01*
X142516510Y-129730261D01*
X142516498Y-129730264D01*
X142370827Y-129790602D01*
X142370814Y-129790609D01*
X142239711Y-129878210D01*
X142239707Y-129878213D01*
X142128213Y-129989707D01*
X142128210Y-129989711D01*
X142040609Y-130120814D01*
X142040602Y-130120827D01*
X141980264Y-130266498D01*
X141980261Y-130266510D01*
X141949500Y-130421153D01*
X140000500Y-130421153D01*
X140000500Y-130321158D01*
X140000500Y-130321155D01*
X140000499Y-130321153D01*
X139994830Y-130292653D01*
X139969737Y-130166503D01*
X139969735Y-130166498D01*
X139909397Y-130020827D01*
X139909390Y-130020814D01*
X139821789Y-129889711D01*
X139821786Y-129889707D01*
X139710292Y-129778213D01*
X139710288Y-129778210D01*
X139579185Y-129690609D01*
X139579172Y-129690602D01*
X139433501Y-129630264D01*
X139433489Y-129630261D01*
X139278845Y-129599500D01*
X139278842Y-129599500D01*
X139121158Y-129599500D01*
X139121155Y-129599500D01*
X138966510Y-129630261D01*
X138966498Y-129630264D01*
X138820827Y-129690602D01*
X138820814Y-129690609D01*
X138689711Y-129778210D01*
X138689707Y-129778213D01*
X138578213Y-129889707D01*
X138578210Y-129889711D01*
X138490609Y-130020814D01*
X138490602Y-130020827D01*
X138430264Y-130166498D01*
X138430261Y-130166510D01*
X138399500Y-130321153D01*
X120500500Y-130321153D01*
X120500500Y-129271153D01*
X146699500Y-129271153D01*
X146699500Y-129428846D01*
X146730261Y-129583489D01*
X146730264Y-129583501D01*
X146790602Y-129729172D01*
X146790609Y-129729185D01*
X146878210Y-129860288D01*
X146878213Y-129860292D01*
X146989707Y-129971786D01*
X146989711Y-129971789D01*
X147120814Y-130059390D01*
X147120827Y-130059397D01*
X147217745Y-130099541D01*
X147266503Y-130119737D01*
X147421153Y-130150499D01*
X147421156Y-130150500D01*
X147421158Y-130150500D01*
X147578844Y-130150500D01*
X147578845Y-130150499D01*
X147733497Y-130119737D01*
X147879179Y-130059394D01*
X148010289Y-129971789D01*
X148121789Y-129860289D01*
X148209394Y-129729179D01*
X148269737Y-129583497D01*
X148283057Y-129516533D01*
X149356300Y-129516533D01*
X149382259Y-129647030D01*
X149382262Y-129647040D01*
X149433177Y-129769961D01*
X149433187Y-129769979D01*
X149507102Y-129880601D01*
X149507108Y-129880609D01*
X149601191Y-129974692D01*
X149601199Y-129974698D01*
X149711821Y-130048613D01*
X149711824Y-130048614D01*
X149711832Y-130048620D01*
X149711838Y-130048622D01*
X149711839Y-130048623D01*
X149785623Y-130079185D01*
X149834765Y-130099540D01*
X149834769Y-130099540D01*
X149834770Y-130099541D01*
X149965267Y-130125500D01*
X149965270Y-130125500D01*
X150098334Y-130125500D01*
X150186126Y-130108035D01*
X150228837Y-130099540D01*
X150351770Y-130048620D01*
X150462407Y-129974695D01*
X150556496Y-129880606D01*
X150630421Y-129769969D01*
X150681341Y-129647036D01*
X150686490Y-129621153D01*
X159599500Y-129621153D01*
X159599500Y-129778846D01*
X159630261Y-129933489D01*
X159630264Y-129933501D01*
X159690602Y-130079172D01*
X159690609Y-130079185D01*
X159778210Y-130210288D01*
X159778213Y-130210292D01*
X159889707Y-130321786D01*
X159889711Y-130321789D01*
X160020814Y-130409390D01*
X160020827Y-130409397D01*
X160080486Y-130434108D01*
X160166503Y-130469737D01*
X160316131Y-130499500D01*
X160321153Y-130500499D01*
X160321156Y-130500500D01*
X160321158Y-130500500D01*
X160478844Y-130500500D01*
X160478845Y-130500499D01*
X160633497Y-130469737D01*
X160779179Y-130409394D01*
X160910289Y-130321789D01*
X161021789Y-130210289D01*
X161109394Y-130079179D01*
X161169737Y-129933497D01*
X161200500Y-129778842D01*
X161200500Y-129621158D01*
X161200500Y-129621155D01*
X161200499Y-129621153D01*
X161194476Y-129590874D01*
X161169737Y-129466503D01*
X161154138Y-129428844D01*
X161109397Y-129320827D01*
X161109390Y-129320814D01*
X161021789Y-129189711D01*
X161021786Y-129189707D01*
X160910292Y-129078213D01*
X160910288Y-129078210D01*
X160779185Y-128990609D01*
X160779172Y-128990602D01*
X160633501Y-128930264D01*
X160633489Y-128930261D01*
X160478845Y-128899500D01*
X160478842Y-128899500D01*
X160321158Y-128899500D01*
X160321155Y-128899500D01*
X160166510Y-128930261D01*
X160166498Y-128930264D01*
X160020827Y-128990602D01*
X160020814Y-128990609D01*
X159889711Y-129078210D01*
X159889707Y-129078213D01*
X159778213Y-129189707D01*
X159778210Y-129189711D01*
X159690609Y-129320814D01*
X159690602Y-129320827D01*
X159630264Y-129466498D01*
X159630261Y-129466510D01*
X159599500Y-129621153D01*
X150686490Y-129621153D01*
X150692513Y-129590874D01*
X150707301Y-129516533D01*
X150707301Y-129383466D01*
X150681342Y-129252969D01*
X150681341Y-129252968D01*
X150681341Y-129252964D01*
X150630421Y-129130031D01*
X150609428Y-129098613D01*
X150556499Y-129019398D01*
X150556493Y-129019390D01*
X150462410Y-128925307D01*
X150462402Y-128925301D01*
X150351780Y-128851386D01*
X150351773Y-128851382D01*
X150351770Y-128851380D01*
X150351766Y-128851378D01*
X150351762Y-128851376D01*
X150228841Y-128800461D01*
X150228831Y-128800458D01*
X150098334Y-128774500D01*
X150098332Y-128774500D01*
X149965270Y-128774500D01*
X149965268Y-128774500D01*
X149834770Y-128800458D01*
X149834760Y-128800461D01*
X149711839Y-128851376D01*
X149711821Y-128851386D01*
X149601199Y-128925301D01*
X149601191Y-128925307D01*
X149507108Y-129019390D01*
X149507102Y-129019398D01*
X149433187Y-129130020D01*
X149433177Y-129130038D01*
X149382262Y-129252959D01*
X149382259Y-129252969D01*
X149356301Y-129383466D01*
X149356301Y-129383469D01*
X149356301Y-129516531D01*
X149356301Y-129516533D01*
X149356300Y-129516533D01*
X148283057Y-129516533D01*
X148300500Y-129428842D01*
X148300500Y-129271158D01*
X148300500Y-129271155D01*
X148300499Y-129271153D01*
X148281472Y-129175500D01*
X148269737Y-129116503D01*
X148253876Y-129078210D01*
X148209397Y-128970827D01*
X148209390Y-128970814D01*
X148121789Y-128839711D01*
X148121786Y-128839707D01*
X148010292Y-128728213D01*
X148010288Y-128728210D01*
X147879185Y-128640609D01*
X147879172Y-128640602D01*
X147733501Y-128580264D01*
X147733489Y-128580261D01*
X147578845Y-128549500D01*
X147578842Y-128549500D01*
X147421158Y-128549500D01*
X147421155Y-128549500D01*
X147266510Y-128580261D01*
X147266498Y-128580264D01*
X147120827Y-128640602D01*
X147120814Y-128640609D01*
X146989711Y-128728210D01*
X146989707Y-128728213D01*
X146878213Y-128839707D01*
X146878210Y-128839711D01*
X146790609Y-128970814D01*
X146790602Y-128970827D01*
X146730264Y-129116498D01*
X146730261Y-129116510D01*
X146699500Y-129271153D01*
X120500500Y-129271153D01*
X120500500Y-127921153D01*
X125399500Y-127921153D01*
X125399500Y-128078846D01*
X125430261Y-128233489D01*
X125430264Y-128233501D01*
X125490602Y-128379172D01*
X125490609Y-128379185D01*
X125578210Y-128510288D01*
X125578213Y-128510292D01*
X125689707Y-128621786D01*
X125689711Y-128621789D01*
X125820814Y-128709390D01*
X125820827Y-128709397D01*
X125866254Y-128728213D01*
X125966503Y-128769737D01*
X126120947Y-128800458D01*
X126121153Y-128800499D01*
X126121156Y-128800500D01*
X126121158Y-128800500D01*
X126278844Y-128800500D01*
X126278845Y-128800499D01*
X126433497Y-128769737D01*
X126579179Y-128709394D01*
X126710289Y-128621789D01*
X126765545Y-128566533D01*
X144324499Y-128566533D01*
X144350458Y-128697030D01*
X144350461Y-128697040D01*
X144401376Y-128819961D01*
X144401386Y-128819979D01*
X144475301Y-128930601D01*
X144475307Y-128930609D01*
X144569390Y-129024692D01*
X144569398Y-129024698D01*
X144680020Y-129098613D01*
X144680023Y-129098614D01*
X144680031Y-129098620D01*
X144680037Y-129098622D01*
X144680038Y-129098623D01*
X144802959Y-129149538D01*
X144802964Y-129149540D01*
X144802968Y-129149540D01*
X144802969Y-129149541D01*
X144933466Y-129175500D01*
X144933469Y-129175500D01*
X145066533Y-129175500D01*
X145154325Y-129158035D01*
X145197036Y-129149540D01*
X145319969Y-129098620D01*
X145430606Y-129024695D01*
X145524695Y-128930606D01*
X145598620Y-128819969D01*
X145649540Y-128697036D01*
X145664509Y-128621786D01*
X145675500Y-128566533D01*
X145675500Y-128433466D01*
X145649541Y-128302969D01*
X145649540Y-128302968D01*
X145649540Y-128302964D01*
X145598620Y-128180031D01*
X145571797Y-128139888D01*
X145524698Y-128069398D01*
X145524692Y-128069390D01*
X145430609Y-127975307D01*
X145430601Y-127975301D01*
X145319979Y-127901386D01*
X145319972Y-127901382D01*
X145319969Y-127901380D01*
X145319965Y-127901378D01*
X145319961Y-127901376D01*
X145197040Y-127850461D01*
X145197030Y-127850458D01*
X145066533Y-127824500D01*
X145066531Y-127824500D01*
X144933469Y-127824500D01*
X144933467Y-127824500D01*
X144802969Y-127850458D01*
X144802959Y-127850461D01*
X144680038Y-127901376D01*
X144680020Y-127901386D01*
X144569398Y-127975301D01*
X144569390Y-127975307D01*
X144475307Y-128069390D01*
X144475301Y-128069398D01*
X144401386Y-128180020D01*
X144401376Y-128180038D01*
X144350461Y-128302959D01*
X144350458Y-128302969D01*
X144324500Y-128433466D01*
X144324500Y-128433469D01*
X144324500Y-128566531D01*
X144324500Y-128566533D01*
X144324499Y-128566533D01*
X126765545Y-128566533D01*
X126821789Y-128510289D01*
X126909394Y-128379179D01*
X126969737Y-128233497D01*
X127000500Y-128078842D01*
X127000500Y-127921158D01*
X127000500Y-127921155D01*
X127000499Y-127921153D01*
X126969738Y-127766510D01*
X126969737Y-127766503D01*
X126927145Y-127663676D01*
X126909397Y-127620827D01*
X126909390Y-127620814D01*
X126821789Y-127489711D01*
X126821786Y-127489707D01*
X126710292Y-127378213D01*
X126710288Y-127378210D01*
X126579185Y-127290609D01*
X126579172Y-127290602D01*
X126433501Y-127230264D01*
X126433489Y-127230261D01*
X126278845Y-127199500D01*
X126278842Y-127199500D01*
X126121158Y-127199500D01*
X126121155Y-127199500D01*
X125966510Y-127230261D01*
X125966498Y-127230264D01*
X125820827Y-127290602D01*
X125820814Y-127290609D01*
X125689711Y-127378210D01*
X125689707Y-127378213D01*
X125578213Y-127489707D01*
X125578210Y-127489711D01*
X125490609Y-127620814D01*
X125490602Y-127620827D01*
X125430264Y-127766498D01*
X125430261Y-127766510D01*
X125399500Y-127921153D01*
X120500500Y-127921153D01*
X120500500Y-126321153D01*
X141399500Y-126321153D01*
X141399500Y-126478846D01*
X141430261Y-126633489D01*
X141430264Y-126633501D01*
X141490602Y-126779172D01*
X141490609Y-126779185D01*
X141578210Y-126910288D01*
X141578213Y-126910292D01*
X141689707Y-127021786D01*
X141689711Y-127021789D01*
X141820814Y-127109390D01*
X141820827Y-127109397D01*
X141966498Y-127169735D01*
X141966503Y-127169737D01*
X142116131Y-127199500D01*
X142121153Y-127200499D01*
X142121156Y-127200500D01*
X142121158Y-127200500D01*
X142278844Y-127200500D01*
X142278845Y-127200499D01*
X142433497Y-127169737D01*
X142579179Y-127109394D01*
X142710289Y-127021789D01*
X142821789Y-126910289D01*
X142897606Y-126796821D01*
X158262000Y-126796821D01*
X158262000Y-127023178D01*
X158297407Y-127246733D01*
X158367354Y-127462005D01*
X158448276Y-127620821D01*
X158470112Y-127663676D01*
X158603155Y-127846794D01*
X158763206Y-128006845D01*
X158946324Y-128139888D01*
X159041605Y-128188436D01*
X159147994Y-128242645D01*
X159147996Y-128242645D01*
X159147999Y-128242647D01*
X159263388Y-128280139D01*
X159363266Y-128312592D01*
X159586822Y-128348000D01*
X159586827Y-128348000D01*
X159813178Y-128348000D01*
X160036733Y-128312592D01*
X160066380Y-128302959D01*
X160252001Y-128242647D01*
X160453676Y-128139888D01*
X160636794Y-128006845D01*
X160796845Y-127846794D01*
X160929888Y-127663676D01*
X161032647Y-127462001D01*
X161102592Y-127246733D01*
X161105201Y-127230261D01*
X161138000Y-127023178D01*
X161138000Y-126796821D01*
X161102592Y-126573266D01*
X161032645Y-126357994D01*
X160935074Y-126166503D01*
X160929888Y-126156324D01*
X160796845Y-125973206D01*
X160636794Y-125813155D01*
X160453676Y-125680112D01*
X160252005Y-125577354D01*
X160036733Y-125507407D01*
X159813178Y-125472000D01*
X159813173Y-125472000D01*
X159586827Y-125472000D01*
X159586822Y-125472000D01*
X159363266Y-125507407D01*
X159147994Y-125577354D01*
X158946323Y-125680112D01*
X158763203Y-125813157D01*
X158603157Y-125973203D01*
X158470112Y-126156323D01*
X158367354Y-126357994D01*
X158297407Y-126573266D01*
X158262000Y-126796821D01*
X142897606Y-126796821D01*
X142909394Y-126779179D01*
X142969737Y-126633497D01*
X143000500Y-126478842D01*
X143000500Y-126321158D01*
X143000500Y-126321155D01*
X143000499Y-126321153D01*
X142969738Y-126166510D01*
X142969737Y-126166503D01*
X142965520Y-126156323D01*
X142909397Y-126020827D01*
X142909390Y-126020814D01*
X142821789Y-125889711D01*
X142821786Y-125889707D01*
X142710292Y-125778213D01*
X142710288Y-125778210D01*
X142579185Y-125690609D01*
X142579172Y-125690602D01*
X142433501Y-125630264D01*
X142433489Y-125630261D01*
X142278845Y-125599500D01*
X142278842Y-125599500D01*
X142121158Y-125599500D01*
X142121155Y-125599500D01*
X141966510Y-125630261D01*
X141966498Y-125630264D01*
X141820827Y-125690602D01*
X141820814Y-125690609D01*
X141689711Y-125778210D01*
X141689707Y-125778213D01*
X141578213Y-125889707D01*
X141578210Y-125889711D01*
X141490609Y-126020814D01*
X141490602Y-126020827D01*
X141430264Y-126166498D01*
X141430261Y-126166510D01*
X141399500Y-126321153D01*
X120500500Y-126321153D01*
X120500500Y-124466533D01*
X138824499Y-124466533D01*
X138850458Y-124597030D01*
X138850461Y-124597040D01*
X138901376Y-124719961D01*
X138901386Y-124719979D01*
X138975301Y-124830601D01*
X138975307Y-124830609D01*
X139069390Y-124924692D01*
X139069398Y-124924698D01*
X139180020Y-124998613D01*
X139180023Y-124998614D01*
X139180031Y-124998620D01*
X139302964Y-125049540D01*
X139302968Y-125049540D01*
X139302969Y-125049541D01*
X139433466Y-125075500D01*
X139433469Y-125075500D01*
X139566533Y-125075500D01*
X139654325Y-125058035D01*
X139697036Y-125049540D01*
X139819969Y-124998620D01*
X139930606Y-124924695D01*
X140024695Y-124830606D01*
X140098620Y-124719969D01*
X140149540Y-124597036D01*
X140158035Y-124554325D01*
X140175500Y-124466533D01*
X140175500Y-124333466D01*
X140149541Y-124202969D01*
X140149540Y-124202968D01*
X140149540Y-124202964D01*
X140104812Y-124094979D01*
X140098623Y-124080038D01*
X140098622Y-124080037D01*
X140098620Y-124080031D01*
X140043169Y-123997043D01*
X140024698Y-123969398D01*
X140024692Y-123969390D01*
X139930609Y-123875307D01*
X139930601Y-123875301D01*
X139819979Y-123801386D01*
X139819972Y-123801382D01*
X139819969Y-123801380D01*
X139819965Y-123801378D01*
X139819961Y-123801376D01*
X139697040Y-123750461D01*
X139697030Y-123750458D01*
X139566533Y-123724500D01*
X139566531Y-123724500D01*
X139433469Y-123724500D01*
X139433467Y-123724500D01*
X139302969Y-123750458D01*
X139302959Y-123750461D01*
X139180038Y-123801376D01*
X139180020Y-123801386D01*
X139069398Y-123875301D01*
X139069390Y-123875307D01*
X138975307Y-123969390D01*
X138975301Y-123969398D01*
X138901386Y-124080020D01*
X138901376Y-124080038D01*
X138850461Y-124202959D01*
X138850458Y-124202969D01*
X138824500Y-124333466D01*
X138824500Y-124333469D01*
X138824500Y-124466531D01*
X138824500Y-124466533D01*
X138824499Y-124466533D01*
X120500500Y-124466533D01*
X120500500Y-123291533D01*
X145345568Y-123291533D01*
X145371527Y-123422029D01*
X145371528Y-123422032D01*
X145371529Y-123422036D01*
X145381885Y-123447038D01*
X145384168Y-123452549D01*
X145391635Y-123522019D01*
X145384168Y-123547451D01*
X145371528Y-123577967D01*
X145371527Y-123577970D01*
X145345569Y-123708466D01*
X145345569Y-123708469D01*
X145345569Y-123841531D01*
X145345569Y-123841533D01*
X145345568Y-123841533D01*
X145371527Y-123972030D01*
X145371530Y-123972040D01*
X145422445Y-124094961D01*
X145422455Y-124094979D01*
X145496370Y-124205601D01*
X145496376Y-124205609D01*
X145590459Y-124299692D01*
X145590467Y-124299698D01*
X145701089Y-124373613D01*
X145701092Y-124373614D01*
X145701100Y-124373620D01*
X145824033Y-124424540D01*
X145824037Y-124424540D01*
X145824038Y-124424541D01*
X145954535Y-124450500D01*
X145954538Y-124450500D01*
X146087602Y-124450500D01*
X146175394Y-124433035D01*
X146218105Y-124424540D01*
X146341038Y-124373620D01*
X146451675Y-124299695D01*
X146545764Y-124205606D01*
X146619689Y-124094969D01*
X146670609Y-123972036D01*
X146679104Y-123929325D01*
X146696569Y-123841533D01*
X146696569Y-123708466D01*
X146670610Y-123577969D01*
X146670609Y-123577965D01*
X146668325Y-123572450D01*
X146657970Y-123547452D01*
X146650501Y-123477986D01*
X146657970Y-123452549D01*
X146670609Y-123422036D01*
X146691596Y-123316533D01*
X153074499Y-123316533D01*
X153100458Y-123447030D01*
X153100460Y-123447035D01*
X153113099Y-123477550D01*
X153120566Y-123547020D01*
X153113100Y-123572450D01*
X153100459Y-123602970D01*
X153100458Y-123602973D01*
X153074500Y-123733469D01*
X153074500Y-123733472D01*
X153074500Y-123866534D01*
X153074500Y-123866536D01*
X153074499Y-123866536D01*
X153100458Y-123997033D01*
X153100461Y-123997043D01*
X153151376Y-124119964D01*
X153151386Y-124119982D01*
X153225301Y-124230604D01*
X153225307Y-124230612D01*
X153319390Y-124324695D01*
X153319398Y-124324701D01*
X153430020Y-124398616D01*
X153430023Y-124398617D01*
X153430031Y-124398623D01*
X153552964Y-124449543D01*
X153552968Y-124449543D01*
X153552969Y-124449544D01*
X153683466Y-124475503D01*
X153683469Y-124475503D01*
X153816533Y-124475503D01*
X153904325Y-124458038D01*
X153947036Y-124449543D01*
X154069969Y-124398623D01*
X154180606Y-124324698D01*
X154274695Y-124230609D01*
X154348620Y-124119972D01*
X154399540Y-123997039D01*
X154423755Y-123875307D01*
X154425500Y-123866536D01*
X154425500Y-123733469D01*
X154399541Y-123602972D01*
X154399539Y-123602964D01*
X154386901Y-123572453D01*
X154379432Y-123502984D01*
X154386902Y-123477546D01*
X154399539Y-123447038D01*
X154399541Y-123447031D01*
X154425500Y-123316533D01*
X154425500Y-123183466D01*
X154399541Y-123052969D01*
X154399540Y-123052968D01*
X154399540Y-123052964D01*
X154348620Y-122930031D01*
X154331920Y-122905038D01*
X154274698Y-122819398D01*
X154274692Y-122819390D01*
X154180609Y-122725307D01*
X154180601Y-122725301D01*
X154069979Y-122651386D01*
X154069972Y-122651382D01*
X154069969Y-122651380D01*
X154069965Y-122651378D01*
X154069961Y-122651376D01*
X153947040Y-122600461D01*
X153947030Y-122600458D01*
X153816533Y-122574500D01*
X153816531Y-122574500D01*
X153683469Y-122574500D01*
X153683467Y-122574500D01*
X153552969Y-122600458D01*
X153552959Y-122600461D01*
X153430038Y-122651376D01*
X153430020Y-122651386D01*
X153319398Y-122725301D01*
X153319390Y-122725307D01*
X153225307Y-122819390D01*
X153225301Y-122819398D01*
X153151386Y-122930020D01*
X153151376Y-122930038D01*
X153100461Y-123052959D01*
X153100458Y-123052969D01*
X153074500Y-123183466D01*
X153074500Y-123183469D01*
X153074500Y-123316531D01*
X153074500Y-123316533D01*
X153074499Y-123316533D01*
X146691596Y-123316533D01*
X146696569Y-123291531D01*
X146696569Y-123158469D01*
X146696569Y-123158466D01*
X146670610Y-123027969D01*
X146670609Y-123027968D01*
X146670609Y-123027964D01*
X146619689Y-122905031D01*
X146562468Y-122819394D01*
X146545767Y-122794398D01*
X146545761Y-122794390D01*
X146451678Y-122700307D01*
X146451670Y-122700301D01*
X146341048Y-122626386D01*
X146341041Y-122626382D01*
X146341038Y-122626380D01*
X146341034Y-122626378D01*
X146341030Y-122626376D01*
X146218109Y-122575461D01*
X146218099Y-122575458D01*
X146087602Y-122549500D01*
X146087600Y-122549500D01*
X145954538Y-122549500D01*
X145954536Y-122549500D01*
X145824038Y-122575458D01*
X145824028Y-122575461D01*
X145701107Y-122626376D01*
X145701089Y-122626386D01*
X145590467Y-122700301D01*
X145590459Y-122700307D01*
X145496376Y-122794390D01*
X145496370Y-122794398D01*
X145422455Y-122905020D01*
X145422445Y-122905038D01*
X145371530Y-123027959D01*
X145371527Y-123027969D01*
X145345569Y-123158466D01*
X145345569Y-123158469D01*
X145345569Y-123291531D01*
X145345569Y-123291533D01*
X145345568Y-123291533D01*
X120500500Y-123291533D01*
X120500500Y-120121153D01*
X125299500Y-120121153D01*
X125299500Y-120278846D01*
X125330261Y-120433489D01*
X125330264Y-120433501D01*
X125390602Y-120579172D01*
X125390609Y-120579185D01*
X125478210Y-120710288D01*
X125478213Y-120710292D01*
X125589707Y-120821786D01*
X125589711Y-120821789D01*
X125720814Y-120909390D01*
X125720827Y-120909397D01*
X125866498Y-120969735D01*
X125866503Y-120969737D01*
X126021153Y-121000499D01*
X126021156Y-121000500D01*
X126021158Y-121000500D01*
X126178844Y-121000500D01*
X126178845Y-121000499D01*
X126333497Y-120969737D01*
X126453844Y-120919888D01*
X126479172Y-120909397D01*
X126479172Y-120909396D01*
X126479179Y-120909394D01*
X126610289Y-120821789D01*
X126721789Y-120710289D01*
X126809394Y-120579179D01*
X126869737Y-120433497D01*
X126900500Y-120278842D01*
X126900500Y-120121158D01*
X126900500Y-120121155D01*
X126900499Y-120121153D01*
X126869737Y-119966503D01*
X126859967Y-119942915D01*
X126809397Y-119820827D01*
X126809390Y-119820814D01*
X126721789Y-119689711D01*
X126721786Y-119689707D01*
X126610292Y-119578213D01*
X126610288Y-119578210D01*
X126479185Y-119490609D01*
X126479172Y-119490602D01*
X126333501Y-119430264D01*
X126333489Y-119430261D01*
X126235779Y-119410825D01*
X140092432Y-119410825D01*
X140118391Y-119541322D01*
X140118394Y-119541332D01*
X140169309Y-119664253D01*
X140169319Y-119664271D01*
X140243234Y-119774893D01*
X140243240Y-119774901D01*
X140337323Y-119868984D01*
X140337331Y-119868990D01*
X140447953Y-119942905D01*
X140447956Y-119942906D01*
X140447964Y-119942912D01*
X140570897Y-119993832D01*
X140570901Y-119993832D01*
X140570902Y-119993833D01*
X140701399Y-120019792D01*
X140701402Y-120019792D01*
X140834466Y-120019792D01*
X140922258Y-120002327D01*
X140964969Y-119993832D01*
X141087902Y-119942912D01*
X141198539Y-119868987D01*
X141292628Y-119774898D01*
X141366553Y-119664261D01*
X141402771Y-119576821D01*
X158262000Y-119576821D01*
X158262000Y-119803178D01*
X158297407Y-120026733D01*
X158367354Y-120242005D01*
X158464928Y-120433501D01*
X158470112Y-120443676D01*
X158603155Y-120626794D01*
X158763206Y-120786845D01*
X158946324Y-120919888D01*
X159041605Y-120968436D01*
X159147994Y-121022645D01*
X159147996Y-121022645D01*
X159147999Y-121022647D01*
X159263388Y-121060139D01*
X159363266Y-121092592D01*
X159586822Y-121128000D01*
X159586827Y-121128000D01*
X159813178Y-121128000D01*
X160036733Y-121092592D01*
X160252001Y-121022647D01*
X160453676Y-120919888D01*
X160636794Y-120786845D01*
X160796845Y-120626794D01*
X160929888Y-120443676D01*
X161032647Y-120242001D01*
X161102592Y-120026733D01*
X161112130Y-119966510D01*
X161138000Y-119803178D01*
X161138000Y-119576821D01*
X161102592Y-119353266D01*
X161042579Y-119168567D01*
X161032647Y-119137999D01*
X161032645Y-119137996D01*
X161032645Y-119137994D01*
X160974720Y-119024312D01*
X160929888Y-118936324D01*
X160796845Y-118753206D01*
X160636794Y-118593155D01*
X160453676Y-118460112D01*
X160252005Y-118357354D01*
X160036733Y-118287407D01*
X159813178Y-118252000D01*
X159813173Y-118252000D01*
X159586827Y-118252000D01*
X159586822Y-118252000D01*
X159363266Y-118287407D01*
X159147994Y-118357354D01*
X158946323Y-118460112D01*
X158763203Y-118593157D01*
X158603157Y-118753203D01*
X158470112Y-118936323D01*
X158367354Y-119137994D01*
X158297407Y-119353266D01*
X158262000Y-119576821D01*
X141402771Y-119576821D01*
X141417473Y-119541328D01*
X141434256Y-119456957D01*
X141443433Y-119410825D01*
X141443433Y-119277758D01*
X141417474Y-119147261D01*
X141417473Y-119147260D01*
X141417473Y-119147256D01*
X141406923Y-119121786D01*
X141366556Y-119024330D01*
X141366555Y-119024329D01*
X141366553Y-119024323D01*
X141364772Y-119021658D01*
X141292631Y-118913690D01*
X141292625Y-118913682D01*
X141198542Y-118819599D01*
X141198534Y-118819593D01*
X141087912Y-118745678D01*
X141087905Y-118745674D01*
X141087902Y-118745672D01*
X141087898Y-118745670D01*
X141087894Y-118745668D01*
X140964973Y-118694753D01*
X140964963Y-118694750D01*
X140834466Y-118668792D01*
X140834464Y-118668792D01*
X140701402Y-118668792D01*
X140701400Y-118668792D01*
X140570902Y-118694750D01*
X140570892Y-118694753D01*
X140447971Y-118745668D01*
X140447953Y-118745678D01*
X140337331Y-118819593D01*
X140337323Y-118819599D01*
X140243240Y-118913682D01*
X140243234Y-118913690D01*
X140169319Y-119024312D01*
X140169309Y-119024330D01*
X140118394Y-119147251D01*
X140118391Y-119147261D01*
X140092433Y-119277758D01*
X140092433Y-119277761D01*
X140092433Y-119410823D01*
X140092433Y-119410825D01*
X140092432Y-119410825D01*
X126235779Y-119410825D01*
X126178845Y-119399500D01*
X126178842Y-119399500D01*
X126021158Y-119399500D01*
X126021155Y-119399500D01*
X125866510Y-119430261D01*
X125866498Y-119430264D01*
X125720827Y-119490602D01*
X125720814Y-119490609D01*
X125589711Y-119578210D01*
X125589707Y-119578213D01*
X125478213Y-119689707D01*
X125478210Y-119689711D01*
X125390609Y-119820814D01*
X125390602Y-119820827D01*
X125330264Y-119966498D01*
X125330261Y-119966510D01*
X125299500Y-120121153D01*
X120500500Y-120121153D01*
X120500500Y-118421153D01*
X132199500Y-118421153D01*
X132199500Y-118578846D01*
X132230261Y-118733489D01*
X132230264Y-118733501D01*
X132290602Y-118879172D01*
X132290609Y-118879185D01*
X132378210Y-119010288D01*
X132378213Y-119010292D01*
X132489707Y-119121786D01*
X132489711Y-119121789D01*
X132620814Y-119209390D01*
X132620827Y-119209397D01*
X132766498Y-119269735D01*
X132766503Y-119269737D01*
X132921153Y-119300499D01*
X132921156Y-119300500D01*
X132921158Y-119300500D01*
X133078844Y-119300500D01*
X133078845Y-119300499D01*
X133233497Y-119269737D01*
X133379179Y-119209394D01*
X133379185Y-119209390D01*
X133440282Y-119168567D01*
X133486029Y-119137999D01*
X133510289Y-119121789D01*
X133621789Y-119010289D01*
X133709394Y-118879179D01*
X133709711Y-118878415D01*
X133751131Y-118778415D01*
X133769737Y-118733497D01*
X133800500Y-118578842D01*
X133800500Y-118421158D01*
X133800500Y-118421155D01*
X133800499Y-118421153D01*
X133792900Y-118382951D01*
X133791104Y-118373920D01*
X137949499Y-118373920D01*
X137978340Y-118518907D01*
X137978343Y-118518917D01*
X138034912Y-118655488D01*
X138034919Y-118655501D01*
X138117048Y-118778415D01*
X138117051Y-118778419D01*
X138221580Y-118882948D01*
X138221584Y-118882951D01*
X138344498Y-118965080D01*
X138344511Y-118965087D01*
X138454844Y-119010788D01*
X138481087Y-119021658D01*
X138481091Y-119021658D01*
X138481092Y-119021659D01*
X138626079Y-119050500D01*
X138626082Y-119050500D01*
X138773920Y-119050500D01*
X138905515Y-119024323D01*
X138918913Y-119021658D01*
X139055495Y-118965084D01*
X139178416Y-118882951D01*
X139282951Y-118778416D01*
X139365084Y-118655495D01*
X139421658Y-118518913D01*
X139438076Y-118436376D01*
X139450500Y-118373920D01*
X139450500Y-118291428D01*
X139470185Y-118224389D01*
X139522989Y-118178634D01*
X139527048Y-118176867D01*
X139555488Y-118165087D01*
X139555488Y-118165086D01*
X139555495Y-118165084D01*
X139678416Y-118082951D01*
X139782951Y-117978416D01*
X139865084Y-117855495D01*
X139921658Y-117718913D01*
X139931096Y-117671462D01*
X139950500Y-117573920D01*
X139950500Y-117426078D01*
X139950249Y-117423531D01*
X139950500Y-117422207D01*
X139950500Y-117419990D01*
X139950920Y-117419990D01*
X139963265Y-117354885D01*
X140011328Y-117304173D01*
X140079178Y-117287496D01*
X140121102Y-117296811D01*
X140181087Y-117321658D01*
X140181091Y-117321658D01*
X140181092Y-117321659D01*
X140326079Y-117350500D01*
X140326082Y-117350500D01*
X140473920Y-117350500D01*
X140547410Y-117335881D01*
X140618913Y-117321658D01*
X140618927Y-117321651D01*
X140620090Y-117321300D01*
X140620744Y-117321294D01*
X140624887Y-117320470D01*
X140625043Y-117321255D01*
X140689957Y-117320669D01*
X140749074Y-117357911D01*
X140776412Y-117413129D01*
X140776573Y-117413081D01*
X140776865Y-117414045D01*
X140777714Y-117415759D01*
X140778340Y-117418906D01*
X140778343Y-117418917D01*
X140834912Y-117555488D01*
X140834919Y-117555501D01*
X140917048Y-117678415D01*
X140917051Y-117678419D01*
X141021583Y-117782951D01*
X141105533Y-117839044D01*
X141150338Y-117892656D01*
X141158259Y-117917954D01*
X141178340Y-118018907D01*
X141178343Y-118018917D01*
X141234912Y-118155488D01*
X141234919Y-118155501D01*
X141317048Y-118278415D01*
X141317051Y-118278419D01*
X141421580Y-118382948D01*
X141421584Y-118382951D01*
X141544498Y-118465080D01*
X141544511Y-118465087D01*
X141681082Y-118521656D01*
X141681087Y-118521658D01*
X141681091Y-118521658D01*
X141681092Y-118521659D01*
X141826079Y-118550500D01*
X141826082Y-118550500D01*
X141973920Y-118550500D01*
X142071462Y-118531096D01*
X142118913Y-118521658D01*
X142255495Y-118465084D01*
X142378416Y-118382951D01*
X142404014Y-118357353D01*
X142437819Y-118323549D01*
X142499142Y-118290064D01*
X142568834Y-118295048D01*
X142624767Y-118336920D01*
X142649184Y-118402384D01*
X142649500Y-118411230D01*
X142649500Y-118473918D01*
X142649500Y-118473920D01*
X142649499Y-118473920D01*
X142678340Y-118618907D01*
X142678343Y-118618917D01*
X142734912Y-118755488D01*
X142734919Y-118755501D01*
X142817048Y-118878415D01*
X142817051Y-118878419D01*
X142921580Y-118982948D01*
X142921584Y-118982951D01*
X143044498Y-119065080D01*
X143044511Y-119065087D01*
X143181082Y-119121656D01*
X143181087Y-119121658D01*
X143181091Y-119121658D01*
X143181092Y-119121659D01*
X143326079Y-119150500D01*
X143326082Y-119150500D01*
X143473920Y-119150500D01*
X143571462Y-119131096D01*
X143618913Y-119121658D01*
X143755495Y-119065084D01*
X143878416Y-118982951D01*
X143982951Y-118878416D01*
X143991387Y-118865791D01*
X150749499Y-118865791D01*
X150778340Y-119010778D01*
X150778343Y-119010788D01*
X150834912Y-119147359D01*
X150834919Y-119147372D01*
X150917048Y-119270286D01*
X150917051Y-119270290D01*
X151021580Y-119374819D01*
X151021584Y-119374822D01*
X151144498Y-119456951D01*
X151144511Y-119456958D01*
X151225753Y-119490609D01*
X151281087Y-119513529D01*
X151281091Y-119513529D01*
X151281092Y-119513530D01*
X151426079Y-119542371D01*
X151426082Y-119542371D01*
X151573920Y-119542371D01*
X151671462Y-119522967D01*
X151718913Y-119513529D01*
X151854433Y-119457395D01*
X151854434Y-119457395D01*
X151854979Y-119457168D01*
X151855495Y-119456955D01*
X151978416Y-119374822D01*
X152082951Y-119270287D01*
X152165084Y-119147366D01*
X152165128Y-119147261D01*
X152216050Y-119024323D01*
X152221658Y-119010784D01*
X152240972Y-118913690D01*
X152250500Y-118865791D01*
X152250500Y-118717950D01*
X152221659Y-118572963D01*
X152221658Y-118572962D01*
X152221658Y-118572958D01*
X152212356Y-118550500D01*
X152165087Y-118436382D01*
X152165080Y-118436369D01*
X152082951Y-118313455D01*
X152082948Y-118313451D01*
X151978419Y-118208922D01*
X151978415Y-118208919D01*
X151855501Y-118126790D01*
X151855488Y-118126783D01*
X151718917Y-118070214D01*
X151718907Y-118070211D01*
X151573920Y-118041371D01*
X151573918Y-118041371D01*
X151426082Y-118041371D01*
X151426080Y-118041371D01*
X151281092Y-118070211D01*
X151281082Y-118070214D01*
X151144511Y-118126783D01*
X151144498Y-118126790D01*
X151021584Y-118208919D01*
X151021580Y-118208922D01*
X150917051Y-118313451D01*
X150917048Y-118313455D01*
X150834919Y-118436369D01*
X150834912Y-118436382D01*
X150778343Y-118572953D01*
X150778340Y-118572963D01*
X150749500Y-118717950D01*
X150749500Y-118717953D01*
X150749500Y-118865789D01*
X150749500Y-118865791D01*
X150749499Y-118865791D01*
X143991387Y-118865791D01*
X144065084Y-118755495D01*
X144069155Y-118745668D01*
X144102813Y-118664409D01*
X144102813Y-118664408D01*
X144121658Y-118618913D01*
X144135267Y-118550500D01*
X144150500Y-118473920D01*
X144150500Y-118326079D01*
X144121659Y-118181092D01*
X144121658Y-118181091D01*
X144121658Y-118181087D01*
X144115029Y-118165084D01*
X144065087Y-118044511D01*
X144065080Y-118044498D01*
X143982951Y-117921584D01*
X143982948Y-117921580D01*
X143878419Y-117817051D01*
X143878415Y-117817048D01*
X143755501Y-117734919D01*
X143755488Y-117734912D01*
X143618917Y-117678343D01*
X143618907Y-117678340D01*
X143473920Y-117649500D01*
X143473918Y-117649500D01*
X143326082Y-117649500D01*
X143326080Y-117649500D01*
X143181092Y-117678340D01*
X143181082Y-117678343D01*
X143044511Y-117734912D01*
X143044498Y-117734919D01*
X142921584Y-117817048D01*
X142921580Y-117817051D01*
X142862181Y-117876451D01*
X142800858Y-117909936D01*
X142731166Y-117904952D01*
X142675233Y-117863080D01*
X142650816Y-117797616D01*
X142650500Y-117788770D01*
X142650500Y-117726079D01*
X142621659Y-117581092D01*
X142621658Y-117581091D01*
X142621658Y-117581087D01*
X142611060Y-117555501D01*
X142565087Y-117444511D01*
X142565080Y-117444498D01*
X142482951Y-117321584D01*
X142482948Y-117321580D01*
X142378419Y-117217051D01*
X142378415Y-117217048D01*
X142294466Y-117160955D01*
X142249661Y-117107343D01*
X142241740Y-117082044D01*
X142221658Y-116981087D01*
X142221656Y-116981082D01*
X142165087Y-116844511D01*
X142165080Y-116844498D01*
X142082951Y-116721584D01*
X142082948Y-116721580D01*
X141978419Y-116617051D01*
X141978415Y-116617048D01*
X141855501Y-116534919D01*
X141855488Y-116534912D01*
X141718917Y-116478343D01*
X141718907Y-116478340D01*
X141573920Y-116449500D01*
X141573918Y-116449500D01*
X141426082Y-116449500D01*
X141426080Y-116449500D01*
X141281087Y-116478341D01*
X141279889Y-116478705D01*
X141279231Y-116478710D01*
X141275113Y-116479530D01*
X141274957Y-116478748D01*
X141210022Y-116479324D01*
X141150911Y-116442072D01*
X141123589Y-116386869D01*
X141123427Y-116386919D01*
X141123131Y-116385943D01*
X141122283Y-116384230D01*
X141121658Y-116381088D01*
X141121656Y-116381082D01*
X141065087Y-116244511D01*
X141065080Y-116244498D01*
X140982951Y-116121584D01*
X140982948Y-116121580D01*
X140878419Y-116017051D01*
X140878416Y-116017049D01*
X140755501Y-115934919D01*
X140755488Y-115934912D01*
X140722271Y-115921153D01*
X148499500Y-115921153D01*
X148499500Y-116078846D01*
X148530261Y-116233489D01*
X148530264Y-116233501D01*
X148590602Y-116379172D01*
X148590609Y-116379185D01*
X148678210Y-116510288D01*
X148678213Y-116510292D01*
X148789707Y-116621786D01*
X148789711Y-116621789D01*
X148920814Y-116709390D01*
X148920827Y-116709397D01*
X149007086Y-116745126D01*
X149066503Y-116769737D01*
X149197696Y-116795833D01*
X149221153Y-116800499D01*
X149221156Y-116800500D01*
X149221158Y-116800500D01*
X149378844Y-116800500D01*
X149378845Y-116800499D01*
X149533497Y-116769737D01*
X149679179Y-116709394D01*
X149810289Y-116621789D01*
X149921789Y-116510289D01*
X150009394Y-116379179D01*
X150069737Y-116233497D01*
X150100500Y-116078842D01*
X150100500Y-115921158D01*
X150100500Y-115921155D01*
X150100499Y-115921153D01*
X150069737Y-115766503D01*
X150069735Y-115766498D01*
X150009397Y-115620827D01*
X150009390Y-115620814D01*
X149921789Y-115489711D01*
X149921786Y-115489707D01*
X149810292Y-115378213D01*
X149810288Y-115378210D01*
X149679185Y-115290609D01*
X149679172Y-115290602D01*
X149533501Y-115230264D01*
X149533489Y-115230261D01*
X149378845Y-115199500D01*
X149378842Y-115199500D01*
X149221158Y-115199500D01*
X149221155Y-115199500D01*
X149066510Y-115230261D01*
X149066498Y-115230264D01*
X148920827Y-115290602D01*
X148920814Y-115290609D01*
X148789711Y-115378210D01*
X148789707Y-115378213D01*
X148678213Y-115489707D01*
X148678210Y-115489711D01*
X148590609Y-115620814D01*
X148590602Y-115620827D01*
X148530264Y-115766498D01*
X148530261Y-115766510D01*
X148499500Y-115921153D01*
X140722271Y-115921153D01*
X140618917Y-115878343D01*
X140618907Y-115878340D01*
X140473920Y-115849500D01*
X140473918Y-115849500D01*
X140326082Y-115849500D01*
X140326080Y-115849500D01*
X140181092Y-115878340D01*
X140181082Y-115878343D01*
X140044511Y-115934912D01*
X140044498Y-115934919D01*
X139921584Y-116017048D01*
X139921580Y-116017051D01*
X139817051Y-116121580D01*
X139817048Y-116121584D01*
X139734919Y-116244498D01*
X139734912Y-116244511D01*
X139678343Y-116381082D01*
X139678340Y-116381092D01*
X139649500Y-116526079D01*
X139649500Y-116673919D01*
X139649752Y-116676480D01*
X139649500Y-116677808D01*
X139649500Y-116680010D01*
X139649082Y-116680010D01*
X139636728Y-116745126D01*
X139588660Y-116795833D01*
X139520808Y-116812502D01*
X139478896Y-116803187D01*
X139418917Y-116778343D01*
X139418907Y-116778340D01*
X139273920Y-116749500D01*
X139273918Y-116749500D01*
X139126082Y-116749500D01*
X139126080Y-116749500D01*
X138981092Y-116778340D01*
X138981082Y-116778343D01*
X138844511Y-116834912D01*
X138844498Y-116834919D01*
X138721584Y-116917048D01*
X138721580Y-116917051D01*
X138617051Y-117021580D01*
X138617048Y-117021584D01*
X138534919Y-117144498D01*
X138534912Y-117144511D01*
X138478343Y-117281082D01*
X138478340Y-117281092D01*
X138449500Y-117426079D01*
X138449500Y-117508571D01*
X138429815Y-117575610D01*
X138377011Y-117621365D01*
X138372953Y-117623132D01*
X138344508Y-117634914D01*
X138344498Y-117634919D01*
X138221584Y-117717048D01*
X138221580Y-117717051D01*
X138117051Y-117821580D01*
X138117048Y-117821584D01*
X138034919Y-117944498D01*
X138034912Y-117944511D01*
X137978343Y-118081082D01*
X137978340Y-118081092D01*
X137949500Y-118226079D01*
X137949500Y-118226082D01*
X137949500Y-118373918D01*
X137949500Y-118373920D01*
X137949499Y-118373920D01*
X133791104Y-118373920D01*
X133769737Y-118266503D01*
X133732609Y-118176867D01*
X133709397Y-118120827D01*
X133709390Y-118120814D01*
X133621789Y-117989711D01*
X133621786Y-117989707D01*
X133510292Y-117878213D01*
X133510288Y-117878210D01*
X133379185Y-117790609D01*
X133379172Y-117790602D01*
X133233501Y-117730264D01*
X133233489Y-117730261D01*
X133078845Y-117699500D01*
X133078842Y-117699500D01*
X132921158Y-117699500D01*
X132921155Y-117699500D01*
X132766510Y-117730261D01*
X132766498Y-117730264D01*
X132620827Y-117790602D01*
X132620814Y-117790609D01*
X132489711Y-117878210D01*
X132489707Y-117878213D01*
X132378213Y-117989707D01*
X132378210Y-117989711D01*
X132290609Y-118120814D01*
X132290602Y-118120827D01*
X132230264Y-118266498D01*
X132230261Y-118266510D01*
X132199500Y-118421153D01*
X120500500Y-118421153D01*
X120500500Y-112546153D01*
X144552000Y-112546153D01*
X144552000Y-112703846D01*
X144582761Y-112858489D01*
X144582764Y-112858501D01*
X144643102Y-113004172D01*
X144643109Y-113004185D01*
X144730710Y-113135288D01*
X144730713Y-113135292D01*
X144842207Y-113246786D01*
X144842211Y-113246789D01*
X144973314Y-113334390D01*
X144973327Y-113334397D01*
X145118998Y-113394735D01*
X145119003Y-113394737D01*
X145273653Y-113425499D01*
X145273656Y-113425500D01*
X145273658Y-113425500D01*
X145431344Y-113425500D01*
X145431345Y-113425499D01*
X145585997Y-113394737D01*
X145731679Y-113334394D01*
X145862789Y-113246789D01*
X145901068Y-113208509D01*
X145962388Y-113175024D01*
X146032080Y-113180007D01*
X146076430Y-113208509D01*
X146189707Y-113321786D01*
X146189711Y-113321789D01*
X146320814Y-113409390D01*
X146320827Y-113409397D01*
X146466498Y-113469735D01*
X146466503Y-113469737D01*
X146621153Y-113500499D01*
X146621156Y-113500500D01*
X146621158Y-113500500D01*
X146778844Y-113500500D01*
X146778845Y-113500499D01*
X146933497Y-113469737D01*
X147079179Y-113409394D01*
X147210289Y-113321789D01*
X147321789Y-113210289D01*
X147409394Y-113079179D01*
X147469737Y-112933497D01*
X147500500Y-112778842D01*
X147500500Y-112621158D01*
X147500500Y-112621155D01*
X147500499Y-112621153D01*
X147469738Y-112466510D01*
X147469737Y-112466503D01*
X147438674Y-112391510D01*
X147409397Y-112320827D01*
X147409390Y-112320814D01*
X147321789Y-112189711D01*
X147321786Y-112189707D01*
X147210292Y-112078213D01*
X147210288Y-112078210D01*
X147079185Y-111990609D01*
X147079172Y-111990602D01*
X146933501Y-111930264D01*
X146933489Y-111930261D01*
X146778845Y-111899500D01*
X146778842Y-111899500D01*
X146621158Y-111899500D01*
X146621155Y-111899500D01*
X146466510Y-111930261D01*
X146466498Y-111930264D01*
X146320827Y-111990602D01*
X146320814Y-111990609D01*
X146189711Y-112078210D01*
X146189707Y-112078213D01*
X146151431Y-112116490D01*
X146090108Y-112149975D01*
X146020416Y-112144991D01*
X145976069Y-112116490D01*
X145862792Y-112003213D01*
X145862788Y-112003210D01*
X145731685Y-111915609D01*
X145731672Y-111915602D01*
X145586001Y-111855264D01*
X145585989Y-111855261D01*
X145431345Y-111824500D01*
X145431342Y-111824500D01*
X145273658Y-111824500D01*
X145273655Y-111824500D01*
X145119010Y-111855261D01*
X145118998Y-111855264D01*
X144973327Y-111915602D01*
X144973314Y-111915609D01*
X144842211Y-112003210D01*
X144842207Y-112003213D01*
X144730713Y-112114707D01*
X144730710Y-112114711D01*
X144643109Y-112245814D01*
X144643102Y-112245827D01*
X144582764Y-112391498D01*
X144582761Y-112391510D01*
X144552000Y-112546153D01*
X120500500Y-112546153D01*
X120500500Y-110378711D01*
X154649500Y-110378711D01*
X154649500Y-110621288D01*
X154681161Y-110861785D01*
X154743947Y-111096104D01*
X154836773Y-111320205D01*
X154836776Y-111320212D01*
X154958064Y-111530289D01*
X154958066Y-111530292D01*
X154958067Y-111530293D01*
X155105733Y-111722736D01*
X155105739Y-111722743D01*
X155277256Y-111894260D01*
X155277263Y-111894266D01*
X155324177Y-111930264D01*
X155469711Y-112041936D01*
X155679788Y-112163224D01*
X155903900Y-112256054D01*
X156138211Y-112318838D01*
X156318586Y-112342584D01*
X156378711Y-112350500D01*
X156378712Y-112350500D01*
X156621289Y-112350500D01*
X156669388Y-112344167D01*
X156861789Y-112318838D01*
X157096100Y-112256054D01*
X157320212Y-112163224D01*
X157530289Y-112041936D01*
X157722738Y-111894265D01*
X157894265Y-111722738D01*
X158041936Y-111530289D01*
X158163224Y-111320212D01*
X158256054Y-111096100D01*
X158318838Y-110861789D01*
X158350500Y-110621288D01*
X158350500Y-110378712D01*
X158318838Y-110138211D01*
X158256054Y-109903900D01*
X158163224Y-109679788D01*
X158041936Y-109469711D01*
X157894265Y-109277262D01*
X157894260Y-109277256D01*
X157722743Y-109105739D01*
X157722736Y-109105733D01*
X157530293Y-108958067D01*
X157530292Y-108958066D01*
X157530289Y-108958064D01*
X157320212Y-108836776D01*
X157320205Y-108836773D01*
X157096104Y-108743947D01*
X156949241Y-108704595D01*
X156861789Y-108681162D01*
X156861788Y-108681161D01*
X156861785Y-108681161D01*
X156621289Y-108649500D01*
X156621288Y-108649500D01*
X156378712Y-108649500D01*
X156378711Y-108649500D01*
X156138214Y-108681161D01*
X155903895Y-108743947D01*
X155679794Y-108836773D01*
X155679785Y-108836777D01*
X155469706Y-108958067D01*
X155277263Y-109105733D01*
X155277256Y-109105739D01*
X155105739Y-109277256D01*
X155105733Y-109277263D01*
X154958067Y-109469706D01*
X154836777Y-109679785D01*
X154836773Y-109679794D01*
X154743947Y-109903895D01*
X154681161Y-110138214D01*
X154649500Y-110378711D01*
X120500500Y-110378711D01*
X120500500Y-108003750D01*
X120500726Y-107996268D01*
X120501035Y-107991156D01*
X120501035Y-107991151D01*
X120504486Y-107934108D01*
X120518271Y-107706201D01*
X120520076Y-107691340D01*
X120571780Y-107409201D01*
X120575364Y-107394663D01*
X120660696Y-107120822D01*
X120665998Y-107106841D01*
X120758120Y-106902155D01*
X130490000Y-106902155D01*
X130490000Y-107550000D01*
X131406988Y-107550000D01*
X131374075Y-107607007D01*
X131340000Y-107734174D01*
X131340000Y-107865826D01*
X131374075Y-107992993D01*
X131406988Y-108050000D01*
X130490000Y-108050000D01*
X130490000Y-108697844D01*
X130496401Y-108757372D01*
X130496403Y-108757379D01*
X130546645Y-108892086D01*
X130546649Y-108892093D01*
X130632809Y-109007187D01*
X130632812Y-109007190D01*
X130747906Y-109093350D01*
X130747913Y-109093354D01*
X130882620Y-109143596D01*
X130882627Y-109143598D01*
X130942155Y-109149999D01*
X130942172Y-109150000D01*
X131590000Y-109150000D01*
X131590000Y-108233012D01*
X131647007Y-108265925D01*
X131774174Y-108300000D01*
X131905826Y-108300000D01*
X132032993Y-108265925D01*
X132090000Y-108233012D01*
X132090000Y-109150000D01*
X132737828Y-109150000D01*
X132737844Y-109149999D01*
X132797372Y-109143598D01*
X132797379Y-109143596D01*
X132932086Y-109093354D01*
X132932093Y-109093350D01*
X133047187Y-109007190D01*
X133047190Y-109007187D01*
X133133350Y-108892093D01*
X133133354Y-108892086D01*
X133182422Y-108760529D01*
X133224293Y-108704595D01*
X133289757Y-108680178D01*
X133358030Y-108695030D01*
X133386285Y-108716181D01*
X133500213Y-108830109D01*
X133672179Y-108955048D01*
X133672181Y-108955049D01*
X133672184Y-108955051D01*
X133861588Y-109051557D01*
X134063757Y-109117246D01*
X134273713Y-109150500D01*
X134273714Y-109150500D01*
X134486286Y-109150500D01*
X134486287Y-109150500D01*
X134696243Y-109117246D01*
X134898412Y-109051557D01*
X135087816Y-108955051D01*
X135174471Y-108892093D01*
X135259786Y-108830109D01*
X135259788Y-108830106D01*
X135259792Y-108830104D01*
X135410104Y-108679792D01*
X135410106Y-108679788D01*
X135410109Y-108679786D01*
X135535048Y-108507820D01*
X135535047Y-108507820D01*
X135535051Y-108507816D01*
X135539514Y-108499054D01*
X135587488Y-108448259D01*
X135655308Y-108431463D01*
X135721444Y-108453999D01*
X135760486Y-108499056D01*
X135764951Y-108507820D01*
X135889890Y-108679786D01*
X136040213Y-108830109D01*
X136212179Y-108955048D01*
X136212181Y-108955049D01*
X136212184Y-108955051D01*
X136401588Y-109051557D01*
X136603757Y-109117246D01*
X136813713Y-109150500D01*
X136813714Y-109150500D01*
X137026286Y-109150500D01*
X137026287Y-109150500D01*
X137236243Y-109117246D01*
X137438412Y-109051557D01*
X137627816Y-108955051D01*
X137714471Y-108892093D01*
X137799786Y-108830109D01*
X137799788Y-108830106D01*
X137799792Y-108830104D01*
X137950104Y-108679792D01*
X137950106Y-108679788D01*
X137950109Y-108679786D01*
X138075048Y-108507820D01*
X138075047Y-108507820D01*
X138075051Y-108507816D01*
X138079514Y-108499054D01*
X138127488Y-108448259D01*
X138195308Y-108431463D01*
X138261444Y-108453999D01*
X138300486Y-108499056D01*
X138304951Y-108507820D01*
X138429890Y-108679786D01*
X138580213Y-108830109D01*
X138752179Y-108955048D01*
X138752181Y-108955049D01*
X138752184Y-108955051D01*
X138941588Y-109051557D01*
X139143757Y-109117246D01*
X139353713Y-109150500D01*
X139353714Y-109150500D01*
X139566286Y-109150500D01*
X139566287Y-109150500D01*
X139776243Y-109117246D01*
X139978412Y-109051557D01*
X140167816Y-108955051D01*
X140254471Y-108892093D01*
X140339786Y-108830109D01*
X140339788Y-108830106D01*
X140339792Y-108830104D01*
X140490104Y-108679792D01*
X140490106Y-108679788D01*
X140490109Y-108679786D01*
X140615048Y-108507820D01*
X140615047Y-108507820D01*
X140615051Y-108507816D01*
X140619514Y-108499054D01*
X140667488Y-108448259D01*
X140735308Y-108431463D01*
X140801444Y-108453999D01*
X140840486Y-108499056D01*
X140844951Y-108507820D01*
X140969890Y-108679786D01*
X141120213Y-108830109D01*
X141292179Y-108955048D01*
X141292181Y-108955049D01*
X141292184Y-108955051D01*
X141481588Y-109051557D01*
X141683757Y-109117246D01*
X141893713Y-109150500D01*
X141893714Y-109150500D01*
X142106286Y-109150500D01*
X142106287Y-109150500D01*
X142316243Y-109117246D01*
X142518412Y-109051557D01*
X142707816Y-108955051D01*
X142794471Y-108892093D01*
X142879786Y-108830109D01*
X142879788Y-108830106D01*
X142879792Y-108830104D01*
X143030104Y-108679792D01*
X143030106Y-108679788D01*
X143030109Y-108679786D01*
X143155048Y-108507820D01*
X143155047Y-108507820D01*
X143155051Y-108507816D01*
X143159514Y-108499054D01*
X143207488Y-108448259D01*
X143275308Y-108431463D01*
X143341444Y-108453999D01*
X143380486Y-108499056D01*
X143384951Y-108507820D01*
X143509890Y-108679786D01*
X143660213Y-108830109D01*
X143832179Y-108955048D01*
X143832181Y-108955049D01*
X143832184Y-108955051D01*
X144021588Y-109051557D01*
X144223757Y-109117246D01*
X144433713Y-109150500D01*
X144433714Y-109150500D01*
X144646286Y-109150500D01*
X144646287Y-109150500D01*
X144856243Y-109117246D01*
X145058412Y-109051557D01*
X145247816Y-108955051D01*
X145334471Y-108892093D01*
X145419786Y-108830109D01*
X145419788Y-108830106D01*
X145419792Y-108830104D01*
X145570104Y-108679792D01*
X145570106Y-108679788D01*
X145570109Y-108679786D01*
X145695048Y-108507820D01*
X145695047Y-108507820D01*
X145695051Y-108507816D01*
X145699514Y-108499054D01*
X145747488Y-108448259D01*
X145815308Y-108431463D01*
X145881444Y-108453999D01*
X145920486Y-108499056D01*
X145924951Y-108507820D01*
X146049890Y-108679786D01*
X146200213Y-108830109D01*
X146372179Y-108955048D01*
X146372181Y-108955049D01*
X146372184Y-108955051D01*
X146561588Y-109051557D01*
X146763757Y-109117246D01*
X146973713Y-109150500D01*
X146973714Y-109150500D01*
X147186286Y-109150500D01*
X147186287Y-109150500D01*
X147396243Y-109117246D01*
X147598412Y-109051557D01*
X147787816Y-108955051D01*
X147874471Y-108892093D01*
X147959786Y-108830109D01*
X147959788Y-108830106D01*
X147959792Y-108830104D01*
X148110104Y-108679792D01*
X148110106Y-108679788D01*
X148110109Y-108679786D01*
X148235048Y-108507820D01*
X148235047Y-108507820D01*
X148235051Y-108507816D01*
X148331557Y-108318412D01*
X148397246Y-108116243D01*
X148430500Y-107906287D01*
X148430500Y-107693713D01*
X148397246Y-107483757D01*
X148331557Y-107281588D01*
X148235051Y-107092184D01*
X148235049Y-107092181D01*
X148235048Y-107092179D01*
X148110109Y-106920213D01*
X147959786Y-106769890D01*
X147787820Y-106644951D01*
X147598414Y-106548444D01*
X147598413Y-106548443D01*
X147598412Y-106548443D01*
X147396243Y-106482754D01*
X147396241Y-106482753D01*
X147396240Y-106482753D01*
X147234957Y-106457208D01*
X147186287Y-106449500D01*
X146973713Y-106449500D01*
X146925042Y-106457208D01*
X146763760Y-106482753D01*
X146561585Y-106548444D01*
X146372179Y-106644951D01*
X146200213Y-106769890D01*
X146049890Y-106920213D01*
X145924949Y-107092182D01*
X145920484Y-107100946D01*
X145872509Y-107151742D01*
X145804688Y-107168536D01*
X145738553Y-107145998D01*
X145699516Y-107100946D01*
X145695050Y-107092182D01*
X145570109Y-106920213D01*
X145419786Y-106769890D01*
X145247820Y-106644951D01*
X145058414Y-106548444D01*
X145058413Y-106548443D01*
X145058412Y-106548443D01*
X144856243Y-106482754D01*
X144856241Y-106482753D01*
X144856240Y-106482753D01*
X144694957Y-106457208D01*
X144646287Y-106449500D01*
X144433713Y-106449500D01*
X144385042Y-106457208D01*
X144223760Y-106482753D01*
X144021585Y-106548444D01*
X143832179Y-106644951D01*
X143660213Y-106769890D01*
X143509890Y-106920213D01*
X143384949Y-107092182D01*
X143380484Y-107100946D01*
X143332509Y-107151742D01*
X143264688Y-107168536D01*
X143198553Y-107145998D01*
X143159516Y-107100946D01*
X143155050Y-107092182D01*
X143030109Y-106920213D01*
X142879786Y-106769890D01*
X142707820Y-106644951D01*
X142518414Y-106548444D01*
X142518413Y-106548443D01*
X142518412Y-106548443D01*
X142316243Y-106482754D01*
X142316241Y-106482753D01*
X142316240Y-106482753D01*
X142154957Y-106457208D01*
X142106287Y-106449500D01*
X141893713Y-106449500D01*
X141845042Y-106457208D01*
X141683760Y-106482753D01*
X141481585Y-106548444D01*
X141292179Y-106644951D01*
X141120213Y-106769890D01*
X140969890Y-106920213D01*
X140844949Y-107092182D01*
X140840484Y-107100946D01*
X140792509Y-107151742D01*
X140724688Y-107168536D01*
X140658553Y-107145998D01*
X140619516Y-107100946D01*
X140615050Y-107092182D01*
X140490109Y-106920213D01*
X140339786Y-106769890D01*
X140167820Y-106644951D01*
X139978414Y-106548444D01*
X139978413Y-106548443D01*
X139978412Y-106548443D01*
X139776243Y-106482754D01*
X139776241Y-106482753D01*
X139776240Y-106482753D01*
X139614957Y-106457208D01*
X139566287Y-106449500D01*
X139353713Y-106449500D01*
X139305042Y-106457208D01*
X139143760Y-106482753D01*
X138941585Y-106548444D01*
X138752179Y-106644951D01*
X138580213Y-106769890D01*
X138429890Y-106920213D01*
X138304949Y-107092182D01*
X138300484Y-107100946D01*
X138252509Y-107151742D01*
X138184688Y-107168536D01*
X138118553Y-107145998D01*
X138079516Y-107100946D01*
X138075050Y-107092182D01*
X137950109Y-106920213D01*
X137799786Y-106769890D01*
X137627820Y-106644951D01*
X137438414Y-106548444D01*
X137438413Y-106548443D01*
X137438412Y-106548443D01*
X137236243Y-106482754D01*
X137236241Y-106482753D01*
X137236240Y-106482753D01*
X137074957Y-106457208D01*
X137026287Y-106449500D01*
X136813713Y-106449500D01*
X136765042Y-106457208D01*
X136603760Y-106482753D01*
X136401585Y-106548444D01*
X136212179Y-106644951D01*
X136040213Y-106769890D01*
X135889890Y-106920213D01*
X135764949Y-107092182D01*
X135760484Y-107100946D01*
X135712509Y-107151742D01*
X135644688Y-107168536D01*
X135578553Y-107145998D01*
X135539516Y-107100946D01*
X135535050Y-107092182D01*
X135410109Y-106920213D01*
X135259786Y-106769890D01*
X135087820Y-106644951D01*
X134898414Y-106548444D01*
X134898413Y-106548443D01*
X134898412Y-106548443D01*
X134696243Y-106482754D01*
X134696241Y-106482753D01*
X134696240Y-106482753D01*
X134534957Y-106457208D01*
X134486287Y-106449500D01*
X134273713Y-106449500D01*
X134225042Y-106457208D01*
X134063760Y-106482753D01*
X133861585Y-106548444D01*
X133672179Y-106644951D01*
X133500215Y-106769889D01*
X133386285Y-106883819D01*
X133324962Y-106917303D01*
X133255270Y-106912319D01*
X133199337Y-106870447D01*
X133182422Y-106839470D01*
X133133354Y-106707913D01*
X133133350Y-106707906D01*
X133047190Y-106592812D01*
X133047187Y-106592809D01*
X132932093Y-106506649D01*
X132932086Y-106506645D01*
X132797379Y-106456403D01*
X132797372Y-106456401D01*
X132737844Y-106450000D01*
X132090000Y-106450000D01*
X132090000Y-107366988D01*
X132032993Y-107334075D01*
X131905826Y-107300000D01*
X131774174Y-107300000D01*
X131647007Y-107334075D01*
X131590000Y-107366988D01*
X131590000Y-106450000D01*
X130942155Y-106450000D01*
X130882627Y-106456401D01*
X130882620Y-106456403D01*
X130747913Y-106506645D01*
X130747906Y-106506649D01*
X130632812Y-106592809D01*
X130632809Y-106592812D01*
X130546649Y-106707906D01*
X130546645Y-106707913D01*
X130496403Y-106842620D01*
X130496401Y-106842627D01*
X130490000Y-106902155D01*
X120758120Y-106902155D01*
X120783732Y-106845247D01*
X120790676Y-106832016D01*
X120939080Y-106586526D01*
X120947567Y-106574230D01*
X121124480Y-106348417D01*
X121134395Y-106337226D01*
X121337226Y-106134395D01*
X121348417Y-106124480D01*
X121574230Y-105947567D01*
X121586526Y-105939080D01*
X121832016Y-105790676D01*
X121845249Y-105783731D01*
X122106841Y-105665998D01*
X122120822Y-105660696D01*
X122394668Y-105575362D01*
X122409197Y-105571780D01*
X122691344Y-105520075D01*
X122706201Y-105518271D01*
X122996264Y-105500726D01*
X123003751Y-105500500D01*
X123065892Y-105500500D01*
X158934108Y-105500500D01*
X158996249Y-105500500D01*
X159003736Y-105500726D01*
G37*
%TD.AperFunction*%
%TD*%
M02*
